<?xml version="1.0" encoding="utf-8"?>
<!-- Generator: Adobe Illustrator 16.2.1, SVG Export Plug-In . SVG Version: 6.00 Build 0)  -->
<!DOCTYPE svg PUBLIC "-//W3C//DTD SVG 1.1//EN" "http://www.w3.org/Graphics/SVG/1.1/DTD/svg11.dtd">
<svg version="1.1" id="レイヤー_1" xmlns="http://www.w3.org/2000/svg" xmlns:xlink="http://www.w3.org/1999/xlink" x="0px"
	 y="0px" width="49.248px" height="49.248px" viewBox="0 0 49.248 49.248" enable-background="new 0 0 49.248 49.248"
	 xml:space="preserve">
<path fill="#B3B3B3" d="M24.625,0C11.025,0,0,11.027,0,24.625c0,13.6,11.025,24.623,24.625,24.623s24.623-11.023,24.623-24.623
	C49.248,11.027,38.225,0,24.625,0 M37.03,19.66c0.013,0.268,0.018,0.534,0.018,0.804c0,8.2-6.242,17.656-17.656,17.656
	c-3.504,0-6.767-1.026-9.513-2.788c0.484,0.058,0.979,0.086,1.479,0.086c2.908,0,5.584-0.991,7.707-2.655
	c-2.715-0.052-5.007-1.846-5.796-4.311c0.378,0.073,0.766,0.111,1.167,0.111c0.567,0,1.115-0.075,1.636-0.217
	c-2.84-0.571-4.979-3.079-4.979-6.084c0-0.028,0-0.054,0-0.079c0.837,0.464,1.794,0.744,2.812,0.776
	c-1.666-1.114-2.762-3.013-2.762-5.166c0-1.138,0.306-2.203,0.841-3.119c3.061,3.755,7.633,6.224,12.791,6.482
	c-0.105-0.454-0.16-0.928-0.16-1.414c0-3.427,2.778-6.205,6.205-6.205c1.785,0,3.398,0.754,4.529,1.959
	c1.415-0.276,2.743-0.795,3.941-1.506c-0.464,1.45-1.447,2.666-2.729,3.435c1.257-0.151,2.452-0.485,3.565-0.979
	C39.296,17.691,38.242,18.785,37.03,19.66"/>
</svg>
