<svg xmlns="http://www.w3.org/2000/svg" width="49.248" height="49.248">
    <path fill="#B3B3B3" d="M20.04 22.803c.629 0 1.158-.248 1.568-.717.646-.732.929-1.936.761-3.216-.301-2.286-1.931-4.184-3.637-4.235l-.067-.001c-.604 0-1.143.247-1.553.717-.636.724-.902 1.87-.734 3.146.299 2.284 1.964 4.256 3.634 4.307h.028zM21.9 29.688l-.521-.354c-.526-.162-1.083-.247-1.655-.253h-.07c-2.625 0-4.93 1.59-4.93 3.405 0 1.971 1.973 3.517 4.491 3.517 3.323 0 5.006-1.144 5.006-3.404 0-.214-.025-.434-.077-.654-.224-.881-1.028-1.427-2.244-2.257"/>
    <path fill="#B3B3B3" d="M24.624 0c-13.599 0-24.624 11.023-24.624 24.623 0 13.601 11.025 24.625 24.624 24.625s24.624-11.024 24.624-24.625c0-13.6-11.025-24.623-24.624-24.623m-2.24 38.022c-.98.283-2.041.427-3.153.427-1.237 0-2.431-.142-3.539-.424-2.151-.542-3.741-1.571-4.482-2.896-.319-.572-.481-1.184-.481-1.815 0-.653.156-1.313.464-1.966 1.179-2.512 4.282-4.198 7.722-4.198l.099-.001c-.279-.491-.416-1.001-.416-1.536 0-.268.035-.54.106-.815-3.608-.084-6.307-2.725-6.307-6.207 0-2.46 1.966-4.854 4.775-5.823.842-.29 1.701-.439 2.544-.439h7.713c.264 0 .494.17.576.42.083.251-.007.524-.221.68l-1.724 1.248c-.104.074-.229.114-.357.114h-.618c.798.956 1.267 2.316 1.267 3.85 0 1.689-.856 3.289-2.41 4.506-1.202.935-1.25 1.19-1.25 1.728.015.294.853 1.252 1.774 1.904 2.153 1.523 2.952 3.014 2.952 5.507-.001 2.598-1.976 4.849-5.034 5.736m17.424-13.232c0 .335-.273.607-.607.607h-4.384v4.384c0 .335-.272.607-.607.607h-1.248c-.336 0-.606-.272-.606-.607v-4.384h-4.386c-.333 0-.604-.272-.604-.607v-1.249c0-.334.271-.606.604-.606h4.386v-4.383c0-.337.271-.608.606-.608h1.248c.335 0 .607.271.607.608v4.383h4.383c.334 0 .607.272.607.606v1.249z"/>
</svg>
