<svg xmlns="http://www.w3.org/2000/svg" width="49.249" height="49.248">
    <path fill="#B3B3B3" d="M30.163 27.387h-9.385c-.881 0-1.594.707-1.594 1.584 0 .861.713 1.589 1.594 1.589h9.385c.877 0 1.587-.728 1.587-1.589 0-.877-.71-1.584-1.587-1.584M20.778 21.033h4.62c.88 0 1.595-.725 1.595-1.596 0-.873-.715-1.592-1.595-1.592h-4.62c-.881 0-1.594.719-1.594 1.592.001.872.713 1.596 1.594 1.596"/>
    <path fill="#B3B3B3" d="M24.625 0c-13.601 0-24.625 11.024-24.625 24.623 0 13.6 11.024 24.625 24.625 24.625s24.624-11.025 24.624-24.625c0-13.599-11.023-24.623-24.624-24.623m13.948 29.094c-.024 4.574-3.748 8.32-8.33 8.32h-9.569c-4.582 0-8.328-3.746-8.328-8.32v-9.721c0-4.584 3.746-8.338 8.328-8.338h5.823c2.152.256 5.281 2.098 6.436 4.549.316.687.484.793.748 2.83.141 1.049.213 1.825.682 2.254.658.601 3.109.197 3.593.574l.372.291.222.459.076.368-.053 6.734z"/>
</svg>
