<?xml version="1.0" encoding="utf-8"?>
<!-- Generator: Adobe Illustrator 16.2.1, SVG Export Plug-In . SVG Version: 6.00 Build 0)  -->
<!DOCTYPE svg PUBLIC "-//W3C//DTD SVG 1.1//EN" "http://www.w3.org/Graphics/SVG/1.1/DTD/svg11.dtd">
<svg version="1.1" id="レイヤー_1" xmlns="http://www.w3.org/2000/svg" xmlns:xlink="http://www.w3.org/1999/xlink" x="0px"
	 y="0px" width="49.25px" height="49.25px" viewBox="0 0 49.25 49.25" enable-background="new 0 0 49.25 49.25"
	 xml:space="preserve">
<polygon fill="#B3B3B3" points="14.11,26.696 15.894,26.696 15.894,35.554 17.616,35.554 17.616,26.696 19.398,26.696 
	19.398,25.188 14.11,25.188 "/>
<path fill="#B3B3B3" d="M24.692,19.337c0.232,0,0.418-0.062,0.556-0.189c0.137-0.13,0.207-0.309,0.207-0.533v-4.59
	c0-0.183-0.071-0.334-0.211-0.445c-0.141-0.115-0.325-0.172-0.552-0.172c-0.211,0-0.381,0.057-0.514,0.172
	c-0.13,0.111-0.195,0.263-0.195,0.445v4.59c0,0.231,0.061,0.408,0.185,0.533C24.289,19.275,24.464,19.337,24.692,19.337"/>
<path fill="#B3B3B3" d="M28.49,27.814c-0.237,0-0.473,0.06-0.706,0.181c-0.229,0.122-0.447,0.301-0.653,0.534v-3.34h-1.545v10.364
	h1.545v-0.586c0.198,0.236,0.419,0.408,0.652,0.521c0.231,0.11,0.499,0.166,0.801,0.166c0.45,0,0.801-0.144,1.038-0.433
	c0.239-0.291,0.359-0.705,0.359-1.246v-4.243c0-0.627-0.127-1.104-0.384-1.429C29.345,27.978,28.974,27.814,28.49,27.814
	 M28.405,33.765c0,0.246-0.045,0.42-0.132,0.527c-0.089,0.11-0.224,0.162-0.413,0.162c-0.129,0-0.25-0.029-0.369-0.082
	c-0.116-0.052-0.238-0.146-0.36-0.27v-4.764c0.103-0.106,0.209-0.185,0.313-0.233c0.107-0.054,0.215-0.076,0.324-0.076
	c0.206,0,0.366,0.065,0.477,0.196c0.107,0.136,0.16,0.33,0.16,0.591V33.765z"/>
<path fill="#B3B3B3" d="M22.906,33.718c-0.143,0.164-0.301,0.3-0.474,0.408c-0.171,0.108-0.316,0.16-0.425,0.16
	c-0.145,0-0.248-0.039-0.315-0.121c-0.061-0.08-0.095-0.211-0.095-0.39v-5.868h-1.528v6.395c0,0.457,0.09,0.793,0.27,1.025
	c0.18,0.228,0.443,0.34,0.799,0.34c0.287,0,0.583-0.078,0.887-0.242c0.307-0.166,0.6-0.399,0.882-0.709v0.839h1.529v-7.647h-1.529
	V33.718z"/>
<path fill="#B3B3B3" d="M24.625,0C11.024,0,0,11.024,0,24.625S11.024,49.25,24.625,49.25c13.599,0,24.625-11.024,24.625-24.625
	S38.224,0,24.625,0 M28.604,12.161h1.718v6.46c0,0.2,0.039,0.344,0.111,0.432c0.071,0.089,0.189,0.136,0.35,0.136
	c0.127,0,0.286-0.06,0.48-0.177c0.193-0.122,0.37-0.272,0.53-0.457v-6.394h1.722v8.425h-1.722v-0.931
	c-0.315,0.343-0.646,0.606-0.99,0.783c-0.342,0.178-0.674,0.271-0.998,0.271c-0.399,0-0.698-0.127-0.899-0.379
	c-0.2-0.248-0.302-0.623-0.302-1.13V12.161z M22.213,14.088c0-0.651,0.23-1.17,0.694-1.562c0.464-0.383,1.087-0.578,1.867-0.578
	c0.713,0,1.297,0.205,1.753,0.611c0.452,0.407,0.681,0.934,0.681,1.579v4.349c0,0.724-0.225,1.287-0.667,1.695
	c-0.449,0.409-1.062,0.614-1.845,0.614c-0.752,0-1.355-0.211-1.807-0.631c-0.451-0.427-0.677-0.996-0.677-1.711V14.088z
	 M17.524,9.168l1.26,4.562h0.121l1.198-4.562h1.97l-2.256,6.681v4.737H17.88V16.06l-2.307-6.892H17.524z M40.064,33.2
	c0,3.048-2.471,5.521-5.518,5.521H15.371c-3.05,0-5.521-2.473-5.521-5.521v-4.437c0-3.049,2.471-5.521,5.521-5.521h19.176
	c3.047,0,5.518,2.472,5.518,5.521V33.2z"/>
<path fill="#B3B3B3" d="M33.105,27.718c-0.685,0-1.241,0.207-1.673,0.627c-0.434,0.416-0.651,0.959-0.651,1.617V33.4
	c0,0.737,0.199,1.315,0.591,1.733c0.394,0.42,0.934,0.631,1.618,0.631c0.763,0,1.333-0.196,1.715-0.592
	c0.388-0.397,0.575-0.988,0.575-1.772v-0.394h-1.57v0.348c0,0.451-0.055,0.742-0.152,0.873c-0.102,0.132-0.279,0.197-0.532,0.197
	c-0.244,0-0.417-0.076-0.518-0.229c-0.101-0.158-0.149-0.437-0.149-0.841v-1.439h2.922v-1.953c0-0.722-0.185-1.277-0.562-1.666
	C34.344,27.912,33.806,27.718,33.105,27.718 M33.71,30.726h-1.352v-0.772c0-0.321,0.05-0.553,0.158-0.687
	c0.105-0.143,0.279-0.211,0.523-0.211c0.232,0,0.404,0.068,0.509,0.211c0.105,0.134,0.161,0.365,0.161,0.687V30.726z"/>
</svg>
