<svg xmlns="http://www.w3.org/2000/svg" width="49.25" height="49.25">
    <polygon fill="#B3B3B3" points="14.11,26.696 15.894,26.696 15.894,35.554 17.616,35.554 17.616,26.696 19.398,26.696 19.398,25.188 14.11,25.188"/>
    <path fill="#B3B3B3" d="M24.692 19.337c.232 0 .418-.062.556-.189.137-.13.207-.309.207-.533v-4.59c0-.183-.071-.334-.211-.445-.141-.115-.325-.172-.552-.172-.211 0-.381.057-.514.172-.13.111-.195.263-.195.445v4.59c0 .231.061.408.185.533.121.127.296.189.524.189"/>
    <path fill="#B3B3B3" d="M28.49 27.814c-.237 0-.473.06-.706.181-.229.122-.447.301-.653.534v-3.34h-1.545v10.364h1.545v-.586c.198.236.419.408.652.521.231.11.499.166.801.166.45 0 .801-.144 1.038-.433.239-.291.359-.705.359-1.246v-4.243c0-.627-.127-1.104-.384-1.429-.252-.325-.623-.489-1.107-.489m-.085 5.951c0 .246-.045.42-.132.527-.089.11-.224.162-.413.162-.129 0-.25-.029-.369-.082-.116-.052-.238-.146-.36-.27v-4.764c.103-.106.209-.185.313-.233.107-.054.215-.076.324-.076.206 0 .366.065.477.196.107.136.16.33.16.591v3.949zM22.906 33.718c-.143.164-.301.3-.474.408-.171.108-.316.16-.425.16-.145 0-.248-.039-.315-.121-.061-.08-.095-.211-.095-.39v-5.868h-1.528v6.395c0 .457.09.793.27 1.025.18.228.443.34.799.34.287 0 .583-.078.887-.242.307-.166.6-.399.882-.709v.839h1.529v-7.647h-1.529v5.81zM24.625 0c-13.601 0-24.625 11.024-24.625 24.625s11.024 24.625 24.625 24.625c13.599 0 24.625-11.024 24.625-24.625s-11.026-24.625-24.625-24.625m3.979 12.161h1.718v6.46c0 .2.039.344.111.432.071.089.189.136.35.136.127 0 .286-.06.48-.177.193-.122.37-.272.53-.457v-6.394h1.722v8.425h-1.722v-.931c-.315.343-.646.606-.99.783-.342.178-.674.271-.998.271-.399 0-.698-.127-.899-.379-.2-.248-.302-.623-.302-1.13v-7.039zm-6.391 1.927c0-.651.23-1.17.694-1.562.464-.383 1.087-.578 1.867-.578.713 0 1.297.205 1.753.611.452.407.681.934.681 1.579v4.349c0 .724-.225 1.287-.667 1.695-.449.409-1.062.614-1.845.614-.752 0-1.355-.211-1.807-.631-.451-.427-.677-.996-.677-1.711v-4.366zm-4.689-4.92l1.26 4.562h.121l1.198-4.562h1.97l-2.256 6.681v4.737h-1.937v-4.526l-2.307-6.892h1.951zm22.54 24.032c0 3.048-2.471 5.521-5.518 5.521h-19.175c-3.05 0-5.521-2.473-5.521-5.521v-4.437c0-3.049 2.471-5.521 5.521-5.521h19.176c3.047 0 5.518 2.472 5.518 5.521v4.437zM33.105 27.718c-.685 0-1.241.207-1.673.627-.434.416-.651.959-.651 1.617v3.438c0 .737.199 1.315.591 1.733.394.42.934.631 1.618.631.763 0 1.333-.196 1.715-.592.388-.397.575-.988.575-1.772v-.394h-1.57v.348c0 .451-.055.742-.152.873-.102.132-.279.197-.532.197-.244 0-.417-.076-.518-.229-.101-.158-.149-.437-.149-.841v-1.439h2.922v-1.953c0-.722-.185-1.277-.562-1.666-.375-.384-.913-.578-1.614-.578m.605 3.008h-1.352v-.772c0-.321.05-.553.158-.687.105-.143.279-.211.523-.211.232 0 .404.068.509.211.105.134.161.365.161.687v.772z"/>
</svg>
