<?xml version="1.0" encoding="utf-8"?>
<!-- Generator: Adobe Illustrator 16.2.1, SVG Export Plug-In . SVG Version: 6.00 Build 0)  -->
<!DOCTYPE svg PUBLIC "-//W3C//DTD SVG 1.1//EN" "http://www.w3.org/Graphics/SVG/1.1/DTD/svg11.dtd">
<svg version="1.1" id="レイヤー_1" xmlns="http://www.w3.org/2000/svg" xmlns:xlink="http://www.w3.org/1999/xlink" x="0px"
	 y="0px" width="49.249px" height="49.248px" viewBox="0 0 49.249 49.248" enable-background="new 0 0 49.249 49.248"
	 xml:space="preserve">
<path fill="#B3B3B3" d="M30.163,27.387h-9.385c-0.881,0-1.594,0.707-1.594,1.584c0,0.861,0.713,1.589,1.594,1.589h9.385
	c0.877,0,1.587-0.728,1.587-1.589C31.75,28.094,31.04,27.387,30.163,27.387"/>
<path fill="#B3B3B3" d="M20.778,21.033h4.62c0.88,0,1.595-0.725,1.595-1.596c0-0.873-0.715-1.592-1.595-1.592h-4.62
	c-0.881,0-1.594,0.719-1.594,1.592C19.185,20.309,19.897,21.033,20.778,21.033"/>
<path fill="#B3B3B3" d="M24.625,0C11.024,0,0,11.024,0,24.623c0,13.6,11.024,24.625,24.625,24.625s24.624-11.025,24.624-24.625
	C49.249,11.024,38.226,0,24.625,0 M38.573,29.094c-0.024,4.574-3.748,8.32-8.33,8.32h-9.569c-4.582,0-8.328-3.746-8.328-8.32v-9.721
	c0-4.584,3.746-8.338,8.328-8.338h5.823c2.152,0.256,5.281,2.098,6.436,4.549c0.316,0.687,0.484,0.793,0.748,2.83
	c0.141,1.049,0.213,1.825,0.682,2.254c0.658,0.601,3.109,0.197,3.593,0.574l0.372,0.291l0.222,0.459l0.076,0.368L38.573,29.094z"/>
</svg>
