<svg xmlns="http://www.w3.org/2000/svg" width="49.248" height="49.248">
    <path fill="#B3B3B3" d="M24.625 0c-13.6 0-24.625 11.027-24.625 24.625 0 13.6 11.025 24.623 24.625 24.623s24.623-11.023 24.623-24.623c0-13.598-11.023-24.625-24.623-24.625m12.405 19.66c.013.268.018.534.018.804 0 8.2-6.242 17.656-17.656 17.656-3.504 0-6.767-1.026-9.513-2.788.484.058.979.086 1.479.086 2.908 0 5.584-.991 7.707-2.655-2.715-.052-5.007-1.846-5.796-4.311.378.073.766.111 1.167.111.567 0 1.115-.075 1.636-.217-2.84-.571-4.979-3.079-4.979-6.084v-.079c.837.464 1.794.744 2.812.776-1.666-1.114-2.762-3.013-2.762-5.166 0-1.138.306-2.203.841-3.119 3.061 3.755 7.633 6.224 12.791 6.482-.105-.454-.16-.928-.16-1.414 0-3.427 2.778-6.205 6.205-6.205 1.785 0 3.398.754 4.529 1.959 1.415-.276 2.743-.795 3.941-1.506-.464 1.45-1.447 2.666-2.729 3.435 1.257-.151 2.452-.485 3.565-.979-.83 1.245-1.884 2.339-3.096 3.214"/>
</svg>
