<?xml version="1.0" encoding="utf-8"?>
<!-- Generator: Adobe Illustrator 16.2.1, SVG Export Plug-In . SVG Version: 6.00 Build 0)  -->
<!DOCTYPE svg PUBLIC "-//W3C//DTD SVG 1.1//EN" "http://www.w3.org/Graphics/SVG/1.1/DTD/svg11.dtd">
<svg version="1.1" id="レイヤー_1" xmlns="http://www.w3.org/2000/svg" xmlns:xlink="http://www.w3.org/1999/xlink" x="0px"
	 y="0px" width="49.248px" height="49.248px" viewBox="0 0 49.248 49.248" enable-background="new 0 0 49.248 49.248"
	 xml:space="preserve">
<path fill="#B3B3B3" d="M20.04,22.803c0.629,0,1.158-0.248,1.568-0.717c0.646-0.732,0.929-1.936,0.761-3.216
	c-0.301-2.286-1.931-4.184-3.637-4.235l-0.067-0.001c-0.604,0-1.143,0.247-1.553,0.717c-0.636,0.724-0.902,1.87-0.734,3.146
	c0.299,2.284,1.964,4.256,3.634,4.307H20.04z"/>
<path fill="#B3B3B3" d="M21.9,29.688c-0.167-0.112-0.343-0.231-0.521-0.354c-0.526-0.162-1.083-0.247-1.655-0.253h-0.07
	c-2.625,0-4.93,1.59-4.93,3.405c0,1.971,1.973,3.517,4.491,3.517c3.323,0,5.006-1.144,5.006-3.404c0-0.214-0.025-0.434-0.077-0.654
	C23.92,31.064,23.116,30.518,21.9,29.688"/>
<path fill="#B3B3B3" d="M24.624,0C11.025,0,0,11.023,0,24.623c0,13.601,11.025,24.625,24.624,24.625s24.624-11.024,24.624-24.625
	C49.248,11.023,38.223,0,24.624,0 M22.384,38.022c-0.98,0.283-2.041,0.427-3.153,0.427c-1.237,0-2.431-0.142-3.539-0.424
	c-2.151-0.542-3.741-1.571-4.482-2.896c-0.319-0.572-0.481-1.184-0.481-1.815c0-0.653,0.156-1.313,0.464-1.966
	c1.179-2.512,4.282-4.198,7.722-4.198c0.035,0,0.067,0,0.099-0.001c-0.279-0.491-0.416-1.001-0.416-1.536
	c0-0.268,0.035-0.54,0.106-0.815c-3.608-0.084-6.307-2.725-6.307-6.207c0-2.46,1.966-4.854,4.775-5.823
	c0.842-0.29,1.701-0.439,2.544-0.439h7.713c0.264,0,0.494,0.17,0.576,0.42c0.083,0.251-0.007,0.524-0.221,0.68l-1.724,1.248
	c-0.104,0.074-0.229,0.114-0.357,0.114h-0.618c0.798,0.956,1.267,2.316,1.267,3.85c0,1.689-0.856,3.289-2.41,4.506
	c-1.202,0.935-1.25,1.19-1.25,1.728c0.015,0.294,0.853,1.252,1.774,1.904c2.153,1.523,2.952,3.014,2.952,5.507
	C27.417,34.884,25.442,37.135,22.384,38.022 M39.808,24.79c0,0.335-0.273,0.607-0.607,0.607h-4.384v4.384
	c0,0.335-0.272,0.607-0.607,0.607h-1.248c-0.336,0-0.606-0.272-0.606-0.607v-4.384h-4.386c-0.333,0-0.604-0.272-0.604-0.607v-1.249
	c0-0.334,0.271-0.606,0.604-0.606h4.386v-4.383c0-0.337,0.271-0.608,0.606-0.608h1.248c0.335,0,0.607,0.271,0.607,0.608v4.383H39.2
	c0.334,0,0.607,0.272,0.607,0.606V24.79z"/>
</svg>
