<svg xmlns="http://www.w3.org/2000/svg" xmlns:xlink="http://www.w3.org/1999/xlink" width="123.657" height="123.65">
    <defs>
        <rect id="a" width="123.657" height="123.65"/>
    </defs>
    <clipPath id="b">
        <use xlink:href="#a" overflow="visible"/>
    </clipPath>
    <path clip-path="url(#b)" fill="#C9E7E8" d="M123.657 61.825c0 34.147-27.682 61.83-61.828 61.83-34.148 0-61.83-27.683-61.83-61.83s27.682-61.828 61.83-61.828c34.147 0 61.828 27.681 61.828 61.828"/>
    <path fill="#16939A" d="M84.145 50.721l10.651-8.874-.168-.035h-20.965l-.168.035 10.65 8.874zM95.831 43.017c0-.1-.027-.192-.056-.284l-7.553 6.293 7.563 7.564.045-.231v-13.342zM72.517 42.732c-.028.091-.06.183-.06.285v13.341l.05.233 7.563-7.564-7.553-6.295zM87.237 49.891l-2.787 2.32c-.088.074-.196.111-.305.111s-.217-.037-.304-.111l-2.784-2.318-7.627 7.624.231.047h20.965l.235-.047-7.624-7.626z"/>
    <path fill-rule="evenodd" clip-rule="evenodd" fill="#16939A" d="M37.989 67.501c1.148-.786 2.522-1.284 4.244-1.532-.142-.147-.32-.301-.468-.438l-.062-.048c-1.818-1.861-2.469-4.611-2.469-6.4 0-1.137.306-2.202.832-3.124l-.405-.021c-2.689 0-4.867 2.197-4.867 4.904 0 1.753.704 4.033 2.067 5.428 0 0 .774.717 1.128 1.231M65.719 75.155c-.017-.645-.267-1.852-.728-2.452-1.377-1.797-3.095-2.853-5.75-3.341l-.248.218c.804 1.046.639 2.697.639 3.422v.098c0 .212.861 4.5.863 7.5h3c1.229 0 2.224-1.217 2.224-2.444 0 0-.005-2.834 0-3.001M54.812 59.129c0 1.903-.762 4.014-2.464 6.417l-.119.076-.374.36c1.689.242 3.036.701 4.171 1.451.374-.512 1.075-1.175 1.068-1.182 1.349-1.395 2.072-3.665 2.072-5.407 0-2.707-2.179-4.906-4.867-4.906l-.322.039c.529.925.835 2.014.835 3.152M33.632 73.078v-.075c0-.727.231-2.377 1.038-3.426l.246-.246c-2.787.468-4.55 1.527-5.965 3.372-.462.601-.703 1.808-.719 2.452.005.166.005 3 .005 3 0 1.229 1 2.445 2.228 2.445h3.212c.021-3-.045-7.292-.045-7.522"/>
    <path fill-rule="evenodd" clip-rule="evenodd" fill="#16939A" d="M57.868 80.436s-.005-7.225 0-7.392c-.017-.645-.267-1.851-.728-2.452-1.612-2.105-3.692-3.195-7.205-3.546-.634-.128-1.112-.689-1.112-1.356 0-.488 1.568-1.951 1.557-1.962 1.618-1.673 2.485-4.393 2.485-6.482 0-3.246-2.613-5.881-5.837-5.881s-5.837 2.635-5.837 5.881c0 2.102.845 4.837 2.479 6.51 0 0 1.562 1.446 1.562 1.935 0 .706-.533 1.296-1.223 1.379-3.441.361-5.498 1.445-7.093 3.523-.462.602-.712 1.808-.728 2.452.005.167 0 7.392 0 7.392h21.68z"/>
    <path fill="#16939A" d="M78.929 75.6h-4.297v-4h4.297c1.096 0 1.584-.459 1.855-.734 1.242-1.254 1.211-4.541 1.196-6l-.003-4.266h4.045l.003 4.178c.021 2.159.062 6.354-2.366 8.809-1.209 1.219-2.8 2.013-4.73 2.013"/>
    <polygon fill="#16939A" points="75.632,68.594 67.251,73.433 75.632,78.273"/>
</svg>
