<?xml version="1.0" encoding="utf-8"?>
<!-- Generator: Adobe Illustrator 16.2.1, SVG Export Plug-In . SVG Version: 6.00 Build 0)  -->
<!DOCTYPE svg PUBLIC "-//W3C//DTD SVG 1.1//EN" "http://www.w3.org/Graphics/SVG/1.1/DTD/svg11.dtd">
<svg version="1.1" id="レイヤー_1" xmlns="http://www.w3.org/2000/svg" xmlns:xlink="http://www.w3.org/1999/xlink" x="0px"
	 y="0px" width="123.657px" height="123.65px" viewBox="0 0 123.657 123.65" enable-background="new 0 0 123.657 123.65"
	 xml:space="preserve">
<g>
	<defs>
		<rect id="SVGID_1_" width="123.657" height="123.65"/>
	</defs>
	<clipPath id="SVGID_2_">
		<use xlink:href="#SVGID_1_"  overflow="visible"/>
	</clipPath>
	<path clip-path="url(#SVGID_2_)" fill="#C9E7E8" d="M123.657,61.825c0,34.147-27.682,61.83-61.828,61.83
		c-34.148,0-61.83-27.683-61.83-61.83S27.681-0.003,61.829-0.003C95.976-0.003,123.657,27.678,123.657,61.825"/>
</g>
<path fill="#16939A" d="M84.145,50.721l10.651-8.874c-0.055-0.011-0.106-0.035-0.168-0.035H73.663c-0.058,0-0.11,0.024-0.168,0.035
	L84.145,50.721z"/>
<path fill="#16939A" d="M95.831,43.017c0-0.1-0.027-0.192-0.056-0.284l-7.553,6.293l7.563,7.564c0.021-0.076,0.045-0.15,0.045-0.231
	V43.017z"/>
<path fill="#16939A" d="M72.517,42.732c-0.028,0.091-0.06,0.183-0.06,0.285v13.341c0,0.083,0.028,0.156,0.05,0.233l7.563-7.564
	L72.517,42.732z"/>
<path fill="#16939A" d="M87.237,49.891l-2.787,2.32c-0.088,0.074-0.196,0.111-0.305,0.111s-0.217-0.037-0.304-0.111l-2.784-2.318
	l-7.627,7.624c0.077,0.02,0.151,0.047,0.231,0.047h20.965c0.084,0,0.158-0.027,0.235-0.047L87.237,49.891z"/>
<path fill-rule="evenodd" clip-rule="evenodd" fill="#16939A" d="M37.989,67.501c1.148-0.786,2.522-1.284,4.244-1.532
	c-0.142-0.147-0.32-0.301-0.468-0.438c-0.017-0.016-0.046-0.032-0.062-0.048c-1.818-1.861-2.469-4.611-2.469-6.4
	c0-1.137,0.306-2.202,0.832-3.124c-0.134-0.011-0.268-0.021-0.405-0.021c-2.689,0-4.867,2.197-4.867,4.904
	c0,1.753,0.704,4.033,2.067,5.428C36.861,66.27,37.635,66.987,37.989,67.501"/>
<path fill-rule="evenodd" clip-rule="evenodd" fill="#16939A" d="M65.719,75.155c-0.017-0.645-0.267-1.852-0.728-2.452
	c-1.377-1.797-3.095-2.853-5.75-3.341c0.06,0.074-0.307,0.141-0.248,0.218c0.804,1.046,0.639,2.697,0.639,3.422V73.1
	c0,0.212,0.861,4.5,0.863,7.5h3c1.229,0,2.224-1.217,2.224-2.444C65.719,78.156,65.714,75.322,65.719,75.155"/>
<path fill-rule="evenodd" clip-rule="evenodd" fill="#16939A" d="M54.812,59.129c0,1.903-0.762,4.014-2.464,6.417
	c-0.043,0-0.084,0.041-0.119,0.076c-0.148,0.147-0.272,0.252-0.374,0.36c1.689,0.242,3.036,0.701,4.171,1.451
	c0.374-0.512,1.075-1.175,1.068-1.182c1.349-1.395,2.072-3.665,2.072-5.407c0-2.707-2.179-4.906-4.867-4.906
	c-0.109,0-0.215,0.032-0.322,0.039C54.506,56.902,54.812,57.991,54.812,59.129"/>
<path fill-rule="evenodd" clip-rule="evenodd" fill="#16939A" d="M33.632,73.078v-0.075c0-0.727,0.231-2.377,1.038-3.426
	c0.066-0.087,0.178-0.162,0.246-0.246c-2.787,0.468-4.55,1.527-5.965,3.372c-0.462,0.601-0.703,1.808-0.719,2.452
	c0.005,0.166,0.005,3,0.005,3c0,1.229,1,2.445,2.228,2.445h3.212C33.698,77.6,33.632,73.308,33.632,73.078"/>
<path fill-rule="evenodd" clip-rule="evenodd" fill="#16939A" d="M57.868,80.436c0,0-0.005-7.225,0-7.392
	c-0.017-0.645-0.267-1.851-0.728-2.452c-1.612-2.105-3.692-3.195-7.205-3.546c-0.634-0.128-1.112-0.689-1.112-1.356
	c0-0.488,1.568-1.951,1.557-1.962c1.618-1.673,2.485-4.393,2.485-6.482c0-3.246-2.613-5.881-5.837-5.881S41.191,54,41.191,57.246
	c0,2.102,0.845,4.837,2.479,6.51c0,0,1.562,1.446,1.562,1.935c0,0.706-0.533,1.296-1.223,1.379
	c-3.441,0.361-5.498,1.445-7.093,3.523c-0.462,0.602-0.712,1.808-0.728,2.452c0.005,0.167,0,7.392,0,7.392H57.868z"/>
<path fill="#16939A" d="M78.929,75.6h-4.297v-4h4.297c1.096,0,1.584-0.459,1.855-0.734c1.242-1.254,1.211-4.541,1.196-6L81.977,60.6
	h4.045l0.003,4.178c0.021,2.159,0.062,6.354-2.366,8.809C82.45,74.806,80.859,75.6,78.929,75.6"/>
<polygon fill="#16939A" points="75.632,68.594 67.251,73.433 75.632,78.273 "/>
</svg>
