<svg xmlns="http://www.w3.org/2000/svg" xmlns:xlink="http://www.w3.org/1999/xlink" width="123.657" height="123.65">
    <defs>
        <rect id="a" width="123.657" height="123.65"/>
    </defs>
    <clipPath id="b">
        <use xlink:href="#a" overflow="visible"/>
    </clipPath>
    <path clip-path="url(#b)" fill="#C9E7E8" d="M123.657 61.825c0 34.147-27.682 61.83-61.828 61.83-34.148 0-61.83-27.683-61.83-61.83s27.682-61.829 61.83-61.829c34.147 0 61.828 27.682 61.828 61.829"/>
    <path fill="#16939A" d="M87.632 47.95c0 .359-.291.65-.65.65h-48.7c-.359 0-.65-.291-.65-.65v-2.7c0-.359.291-.65.65-.65h48.7c.359 0 .65.291.65.65v2.7z"/>
    <rect x="85.632" y="48.6" fill="#16939A" width="2" height="27"/>
    <path fill="#16939A" d="M88.036 77.208c0 1.619-.639 1.697-1.427 1.697-.789 0-1.428-.078-1.428-1.697 0-1.618.639-4.166 1.428-4.166.788 0 1.427 2.548 1.427 4.166"/>
    <path fill="#16939A" d="M46.889 71.639c.994.393 7.191 1.591 9.599-1.465 1.49 1.447-1.504 4.779-7.942 5.449l-1.657-3.984zM51.4 51.6c-.358 0-.768-.025-.768.333v18.222c0 .357.349.613.704.567l4.564-1.894c.309-.18.751-.562.964-.849l.019-.015c.213-.288.61-.33.879-.094l.013.009c.268.235.638.681.82.987 0 0 .733 1.239.398 2.366-.802 2.699-7.641 5.46-7.641 5.46-.331.133-.602.299-.602.574 0 .276.292.332.65.332h30.558c.357 0 .674.047.674-.311v-25.354c0-.358-.316-.333-.674-.333h-30.558z"/>
    <path fill-rule="evenodd" clip-rule="evenodd" fill="#16939A" d="M49.127 78.004s-.003-4.306 0-4.404c-.01-.386-.159-1.104-.434-1.463-.961-1.255-2.2-1.904-4.294-2.113-.378-.076-.663-.41-.663-.809 0-.291.934-1.162.928-1.169.964-.998 1.481-2.618 1.481-3.864 0-1.935-1.558-3.505-3.479-3.505-1.922 0-3.479 1.571-3.479 3.505 0 1.254.503 2.883 1.477 3.881 0 0 .931.861.931 1.152 0 .422-.318.772-.729.822-2.051.215-3.276.861-4.227 2.1-.276.358-.425 1.077-.435 1.463.004.099 0 4.404 0 4.404h12.923z"/>
</svg>
