<svg xmlns="http://www.w3.org/2000/svg" xmlns:xlink="http://www.w3.org/1999/xlink" width="123.657" height="123.657">
    <defs>
        <rect id="a" width="123.657" height="123.657"/>
    </defs>
    <clipPath id="b">
        <use xlink:href="#a" overflow="visible"/>
    </clipPath>
    <path clip-path="url(#b)" fill="#C9E7E8" d="M123.657 61.828c0 34.147-27.682 61.829-61.828 61.829-34.148 0-61.83-27.682-61.83-61.829 0-34.146 27.682-61.828 61.83-61.828 34.147 0 61.828 27.682 61.828 61.828"/>
    <path fill-rule="evenodd" clip-rule="evenodd" fill="#16939A" d="M86.349 81.604s-.002-3.019 0-3.09c-.006-.274-.112-.85-.31-1.105-.687-.897-1.573-1.393-3.071-1.542-.271-.054-.474-.309-.474-.594 0-.208.668-.839.663-.843.689-.715 1.061-1.876 1.061-2.768 0-1.384-1.114-2.51-2.489-2.51-1.374 0-2.488 1.123-2.488 2.507 0 .896.36 2.062 1.058 2.774 0 0 .666.615.666.824 0 .302-.229.553-.522.588-1.246.131-2.065.487-2.701 1.135l-.003-.021c0-.208.668-.831.663-.836.69-.713 1.06-1.872 1.06-2.763 0-1.384-1.113-2.508-2.488-2.508s-2.488 1.124-2.488 2.508c0 .695.22 1.551.643 2.233-.49-.24-1.078-.392-1.818-.466-.27-.054-.473-.294-.473-.577 0-.209.668-.832.664-.838.689-.713 1.059-1.871 1.059-2.763 0-1.384-1.114-2.507-2.488-2.507s-2.488 1.123-2.488 2.507c0 .896.36 2.062 1.057 2.775 0 0 .666.616.666.825 0 .301-.228.552-.521.588-1.107.115-1.879.408-2.484.928.66-.717 1.016-1.84 1.016-2.711 0-1.384-1.114-2.507-2.488-2.507-1.375 0-2.489 1.123-2.489 2.507 0 .368.064.78.184 1.188-.372-.119-.789-.205-1.275-.253-.27-.055-.474-.294-.474-.579 0-.208.668-.831.663-.836.69-.713 1.06-1.872 1.06-2.763 0-1.384-1.114-2.507-2.488-2.507-1.375 0-2.489 1.123-2.489 2.507 0 .896.36 2.062 1.057 2.775 0 0 .666.615.666.823 0 .303-.227.554-.521.588-1.467.154-2.72.616-3.401 1.504-.196.256-.687.77-.687 1.045v.067l.006-.049c-.27-.055-.286-.294-.286-.579 0-.208.762-.831.758-.836.689-.713 1.106-1.872 1.106-2.763 0-1.384-1.09-2.508-2.465-2.508-1.374 0-2.476 1.124-2.476 2.508 0 .896.366 2.061 1.063 2.774 0 0 .669.616.669.824 0 .301-.226.553-.52.588-.465.049-.864.133-1.223.247-.686-.892-1.571-1.354-3.063-1.503-.27-.054-.474-.294-.474-.578 0-.208.668-.832.664-.836.689-.714 1.059-1.873 1.059-2.764 0-1.384-1.114-2.507-2.488-2.507-1.375 0-2.488 1.123-2.488 2.507 0 .896.36 2.062 1.057 2.775 0 0 .665.616.665.824 0 .287-.208.527-.483.579l-.09-.15c-.688-.898-1.574-1.362-3.072-1.513-.27-.054-.474-.293-.474-.578 0-.208.669-.832.664-.836.69-.713 1.059-1.872 1.059-2.763 0-1.384-1.114-2.508-2.488-2.508s-2.488 1.124-2.488 2.508c0 .217.022.451.064.69-.414-.311-.925-.496-1.481-.496-1.374 0-2.488 1.123-2.488 2.507 0 .896.36 2.062 1.057 2.774 0 0 .665.617.665.825 0 .302-.227.552-.521.588-1.467.154-2.343.616-3.024 1.502-.196.257-.303.986-.31 1.262v2.171h51.558zm-43.803-8.225c0 .302-.228.553-.522.589l-.442.061c.192-.491.297-1.007.308-1.464.055.051.656.616.656.814m25.156 3.349l-.109.24-.002-.013c0-.054.045-.136.111-.227"/>
    <rect x="41.632" y="42.604" fill-rule="evenodd" clip-rule="evenodd" fill="#16939A" width="38" height="21"/>
</svg>
