<?xml version="1.0" encoding="utf-8"?>
<!-- Generator: Adobe Illustrator 16.2.1, SVG Export Plug-In . SVG Version: 6.00 Build 0)  -->
<!DOCTYPE svg PUBLIC "-//W3C//DTD SVG 1.1//EN" "http://www.w3.org/Graphics/SVG/1.1/DTD/svg11.dtd">
<svg version="1.1" id="レイヤー_1" xmlns="http://www.w3.org/2000/svg" xmlns:xlink="http://www.w3.org/1999/xlink" x="0px"
	 y="0px" width="123.657px" height="123.657px" viewBox="0 0 123.657 123.657" enable-background="new 0 0 123.657 123.657"
	 xml:space="preserve">
<g>
	<defs>
		<rect id="SVGID_1_" width="123.657" height="123.657"/>
	</defs>
	<clipPath id="SVGID_2_">
		<use xlink:href="#SVGID_1_"  overflow="visible"/>
	</clipPath>
	<path clip-path="url(#SVGID_2_)" fill="#C9E7E8" d="M123.657,61.828c0,34.147-27.682,61.829-61.828,61.829
		c-34.148,0-61.83-27.682-61.83-61.829C-0.001,27.682,27.681,0,61.829,0C95.976,0,123.657,27.682,123.657,61.828"/>
</g>
<rect x="73.632" y="43.604" fill-rule="evenodd" clip-rule="evenodd" fill="#16939A" width="16" height="12"/>
<rect x="73.632" y="57.604" fill-rule="evenodd" clip-rule="evenodd" fill="#16939A" width="9" height="20"/>
<rect x="63.632" y="68.604" fill-rule="evenodd" clip-rule="evenodd" fill="#16939A" width="19" height="9"/>
<rect x="63.632" y="78.604" fill-rule="evenodd" clip-rule="evenodd" fill="#16939A" width="10" height="7"/>
<rect x="52.632" y="68.604" fill-rule="evenodd" clip-rule="evenodd" fill="#16939A" width="9" height="17"/>
<rect x="52.632" y="86.604" fill-rule="evenodd" clip-rule="evenodd" fill="#16939A" width="1" height="4"/>
<path fill="#16939A" d="M59.541,53.106c-0.027,0-0.041,0.026-0.054,0.04C59.504,53.144,59.522,53.132,59.541,53.106"/>
<path fill="#16939A" d="M55.512,47.54c-0.012-0.013-0.025-0.025-0.034-0.041C55.488,47.51,55.499,47.532,55.512,47.54"/>
<path fill="#16939A" d="M39.667,47.07c-0.007,0-0.014,0-0.021-0.002C39.654,47.07,39.661,47.071,39.667,47.07"/>
<path fill="#16939A" d="M59.857,53.425l0.018-0.013C59.869,53.414,59.863,53.419,59.857,53.425"/>
<polyline fill="#16939A" points="45.436,40.252 45.425,40.266 45.436,40.252 "/>
<path fill="#16939A" d="M45.461,40.224c-0.007,0.01-0.016,0.019-0.025,0.028C45.445,40.243,45.455,40.234,45.461,40.224"/>
<path fill="#16939A" d="M63.562,39.604h0.027H63.562z"/>
<path fill="#16939A" d="M62.045,55.68c0,0.048,0.03,0.096-0.004,0.125c0.045-0.045,0.129-0.079,0.142-0.083L62.045,55.68z"/>
<path fill="#16939A" d="M55.534,47.639h0.042v-0.097h-0.042c-0.008,0.004-0.015,0.002-0.021-0.002
	C55.535,47.565,55.552,47.593,55.534,47.639"/>
<path fill="#16939A" d="M62.183,55.867L62.183,55.867L62.183,55.867z"/>
<path fill="#16939A" d="M70.267,61.523l-0.024,0.024l0.095,0.018C70.31,61.537,70.295,61.509,70.267,61.523"/>
<path fill="#16939A" d="M70.466,61.658l0.037-0.037C70.488,61.636,70.474,61.646,70.466,61.658"/>
<path fill="#16939A" d="M69.767,61.189c-0.008,0.004-0.008,0.016-0.002,0.032C69.77,61.211,69.772,61.2,69.767,61.189"/>
<path fill="#16939A" d="M70.128,61.426h-0.027v0.003C70.11,61.429,70.12,61.429,70.128,61.426"/>
<path fill="#16939A" d="M63.298,56.937c0.016,0,0.033-0.005,0.054-0.019C63.33,56.907,63.317,56.922,63.298,56.937"/>
<polyline fill="#16939A" points="62.041,55.805 62.038,55.808 62.041,55.805 "/>
<path fill="#16939A" d="M62.852,56.515c-0.013,0.006-0.018,0.015-0.018,0.026C62.842,56.534,62.848,56.526,62.852,56.515"/>
<polygon fill="#16939A" points="57.412,56.32 57.537,56.181 57.342,56.25 "/>
<path fill="#16939A" d="M51.808,56.208c0.01-0.01,0.02-0.021,0.026-0.026C51.819,56.188,51.812,56.197,51.808,56.208"/>
<path fill="#16939A" d="M71.297,62.023c-0.237-0.014-0.571-0.361-0.765-0.292c-0.028,0.015-0.043-0.028-0.07-0.042
	c-0.006-0.012-0.003-0.021,0.003-0.031l-0.003,0.004c-0.098,0.015-0.167-0.027-0.236-0.098l-0.218-0.017l-0.376-0.025v-0.094
	c0-0.002,0.148-0.396,0.137-0.351c-0.027-0.028,0.15,0.525,0.164-0.475h-0.068c-0.041,0-0.086,0.282-0.1,0.242
	c-0.008,0.015-0.023,0.217-0.04,0.225c-0.098,0-0.181-0.017-0.223-0.072c-0.111-0.057-0.278,0.103-0.278-0.12
	c-0.027,0-0.07,0.01-0.097,0.052c-0.14-0.167-0.404-0.239-0.571-0.378l-0.027,0.033c-0.069,0-0.168-0.012-0.168-0.095l-0.027,0.029
	l-0.139-0.124c-0.041,0.041-0.084,0.042-0.14,0.056l-0.028-0.167c-0.334-0.042-0.5-0.361-0.765-0.501
	c0.015,0.042-0.014,0.057-0.042,0.07c-0.083-0.014-0.193-0.195-0.167-0.167c-0.208-0.153-0.459-0.292-0.626-0.459
	c-0.055-0.028-0.307-0.056-0.307-0.237c-0.18-0.11-0.332-0.222-0.459-0.264l-0.041,0.028c-0.111-0.084-0.223-0.224-0.293-0.334
	l-0.041,0.027c-0.041-0.084-0.25-0.069-0.236-0.223l-0.027,0.028c-0.084-0.057-0.168-0.07-0.236-0.167l0.041-0.028
	c-0.125,0.07-0.194-0.153-0.305-0.167l0.026-0.041c-0.222-0.014-0.444-0.306-0.626-0.432c-0.014-0.015-0.02-0.041-0.02-0.069
	c-0.084-0.028-0.271,0.083-0.271,0.042v-0.167c0-0.056-0.202-0.181-0.327-0.279c0.005-0.003-0.001-0.006,0.004-0.01
	c-0.088,0.003-0.115-0.157-0.257-0.157c-0.047-0.069-0.216-0.181-0.215-0.237c-0.02,0.015-0.051,0.016-0.081,0.016
	c-0.125-0.278-0.599-0.432-0.543-0.668l-0.098,0.056c-0.123-0.043-0.118-0.094-0.078-0.137c-0.005,0.004-0.012,0.008-0.02,0.011
	l-0.097-0.097c-0.209-0.139-0.265-0.403-0.501-0.473c-0.195-0.237-0.445-0.474-0.71-0.641l0.042-0.027l-0.375-0.432l0.041-0.042
	l-0.069-0.055L60.32,54.08c-0.181-0.181-0.237-0.361-0.445-0.473c-0.097-0.024-0.057-0.143-0.018-0.183l-0.08,0.057
	c-0.014-0.041-0.069-0.055-0.069-0.097c-0.139,0-0.139-0.167-0.223-0.237c0.001,0,0.001-0.001,0.002-0.001
	c-0.051,0.009-0.1-0.055-0.141-0.096c-0.292-0.236-0.097-0.473-0.473-0.641c-0.028-0.097-0.264-0.11-0.125-0.264
	c-0.376-0.362-0.765-0.779-1.169-1.238c-0.376-0.39-0.737-0.891-1.099-1.336c-0.306-0.584-0.612-1.112-0.904-1.669
	c0.097-0.181-0.334-0.209-0.098-0.403c0.293-0.098,0.446-0.307,0.724-0.432c0.028-0.152,0.236-0.098,0.334-0.194
	c-0.014-0.265,0.645-0.182,0.729-0.334l0.367,0.027v-0.069c0-0.041-0.27-0.027-0.228-0.027c0.083-0.167,0.046-0.334,0.199-0.474
	l-0.04,0.042c0.098-0.111,0.043-0.25,0.224-0.278c-0.042,0-0.104,0.014-0.118-0.028c0-0.139,0.157-0.068,0.213-0.139
	c0.027-0.07,0.217-0.097,0.161-0.223c0.223-0.027,0.234-0.361,0.499-0.236c0.222-0.014,0.249-0.223,0.374-0.334l0.027,0.027
	l0.07-0.069c-0.056,0.028-0.098-0.028-0.14-0.056c0.084-0.069-0.148-0.069-0.079,0.027c0.042-0.013-0.162-0.097-0.162-0.027v-0.069
	c1-0.224,0.886-0.278,0.955-0.64c0.209,0.027,0.478-0.349,0.548-0.168c-0.014-0.056,0.099-0.097,0.141-0.125
	c0.417,0.474,0.523-0.348,0.968-0.069c0.056,0.084,0.157,0.223,0.254,0.265c0.028-0.07,0.498-0.167,0.414-0.237
	c0.125-0.125-0.28-0.068,0.72-0.097v0.028c0-0.057-0.029,0,0.096-0.057c0.167,0.015,0.243,0.098,0.41,0.028
	c0.348-0.098,0.504-0.348,0.615-0.696c0.306-0.139,0.148-0.515,0.412-0.709c0.195-0.056,0.269,0.111,0.449,0.098
	c0.223,0.014,0.392-0.111,0.559-0.265c0.139-0.236-0.131-0.486-0.047-0.668c-0.418-0.264-0.838-0.611-1.033-1.127
	c-0.209-0.181-0.445-0.281-0.572-0.519c0.018-0.008,0.028-0.073,0.042-0.073H63.52c-0.098,0-0.418-0.052-0.598-0.163
	c-0.376-0.167-0.64-0.047-1.044,0.023c-0.069-0.251-0.417,0.122-0.431-0.185c-0.32-0.152-0.265-0.578-0.571-0.801
	c-0.236,0.083-0.334-0.248-0.5-0.289c-0.404-0.57-1.252-0.443-1.865-0.472c-0.111,0.098-0.389,0.001-0.403,0.196
	c-0.265,0.139-0.557,0.277-0.793,0.402l-0.042-0.026l-0.236,0.292c-0.098,0.084-0.167,0.223-0.334,0.306l0.042,0.028
	c0,0.069-0.014,0.125-0.07,0.167c0,0.348-0.626,0.264-0.668,0.611c-0.097-0.055-0.292-0.068-0.473,0
	c-0.125-0.139-0.403,0-0.292-0.277l-0.097,0.139c-0.153,0.014-0.293-0.139-0.334-0.237c-0.139-0.026-0.293-0.083-0.404-0.068
	c-0.167,0.014-0.417,0.014-0.542-0.098c-0.154,0.153-0.47-0.027-0.665,0.14c-0.459-0.14-1.568,0.402-1.568,0.167v-0.042
	c0,0.083-0.282,0.027-0.296-0.167c-0.195-0.125-0.384-0.278-0.565-0.391c-0.056-0.208-0.206-0.083-0.248-0.306
	c-0.32,0.042-0.576-0.347-0.771-0.264c-0.042-0.028-0.024-0.07-0.024-0.098c-0.361,0.056-0.554-0.069-0.86,0.098
	c-0.07,0.014-0.082-0.042-0.138-0.042c-0.125,0.223-0.334-0.015-0.431,0.209c-0.389-0.057-0.681,0.125-0.876,0.431
	c-0.139,0.028-0.237,0.209-0.362,0.167c-0.083,0.167-0.25,0-0.473,0.098c0.042,0.181-0.181,0.208-0.264,0.307
	c-0.32-0.167-0.459,0.444-0.765,0.235c0.042,0.153,0.097,0.474-0.07,0.626c-0.028,0.015-0.041-0.014-0.069-0.027
	c-0.006-0.012,0.272-0.02,0.278-0.028c-0.092,0.093-0.066,0.166-0.066,0.154v0.11c0,0.056-0.273,0.182-0.37,0.223
	c0-0.181-0.276,0.084-0.262-0.098c-0.056,0.057-0.194,0.015-0.208,0.098l-0.062-0.027c-0.014,0.069-0.003,0.111,0.011,0.167
	c-0.097,0.041-0.078,0.194-0.203,0.167l-0.074,0.403c-0.264,0.251-0.628,0.501-0.837,0.793c-0.306,0.097-0.418,0.417-0.738,0.444
	c-0.084,0.278-0.691,0.516-0.9,0.696l-0.357-0.028v0.057c0,0.097-0.061,0.36-0.242,0.542l0.137-0.041
	c-0.376,0.403-0.683,0.681-1.087,1.043v-0.042c-0.084,0.111-0.202,0.223-0.314,0.167c-0.264,0.376-0.532,0.557-0.657,0.946
	l0.102-0.042c0.39,0.111-0.178,0.293,0.114,0.474c0.098,0.055,0.266-0.056,0.363-0.042c0.042,0.069,0.154,0.111,0.14,0.208
	c-0.181,0.07-0.278,0.209-0.473,0.293c0.014,0.027,0.042,0.041,0.028,0.069c-0.024,0.023-0.037,0.067-0.076,0.07
	c0.158,0.007,0.291-0.19,0.41-0.07c-0.014,0.042-0.055,0.042-0.097,0.042l0.167,0.027c-0.042,0.069-0.028,0.223-0.167,0.194
	l0.042,0.042c-0.195,0.098-0.348,0.084-0.543,0.07c0.348,0.097,0.724,0.208,1.099,0.125c-0.028,0.181-0.32,0.223-0.264,0.473
	c-0.223,0.07-0.417,0.097-0.626,0c0.209,0.181,0.584-0.097,0.668,0.237c0,0.055-0.056,0.068-0.112,0.055l-0.028,0.237
	c-0.041-0.028-0.069-0.099-0.139-0.099c-0.167,0.028-0.222,0.251-0.194,0.362c-0.223,0.125-0.028,0.404-0.362,0.334l0.195,0.07
	c-0.126,0.18,0.264,0.36,0.027,0.473c-0.014,0.125-0.139,0.32-0.222,0.431c-0.014,0.056,0.028,0.14-0.042,0.167
	c0.264,0.292,0.584,0.501,0.737,0.904c0.195,0.195,0.348,0.459,0.529,0.696c-0.028,0.208,0.278,0.278,0.306,0.473
	c0.014,0.125,0.153,0.306-0.028,0.361l0.098,0.042c-0.098,0.07-0.153,0.277-0.376,0.195l0.07,0.069c0.014,0.125-0.139,0-0.125,0.125
	c-0.028-0.056-0.098-0.014-0.14-0.028c0.014,0.111-0.111,0.153-0.167,0.236c-0.069,0.223-0.361,0.237-0.473,0.433
	c0.028-0.015,0.056,0.014,0.07,0.027c-0.195,0.25-0.431,0.333-0.57,0.57l-0.028-0.028c-0.098,0.084-0.112,0.209-0.306,0.167
	c-0.014,0.292-0.348,0.236-0.459,0.528c-0.028,0.015-0.056-0.013-0.07-0.027l0.028,0.027l-0.125,0.14
	c-0.112-0.069-0.223,0.14-0.265,0.125c-0.125,0.07-0.25,0.223-0.403,0.278c-0.376,0.459-0.946,0.682-1.335,1.099
	c-0.557,0.404-1.253,0.584-1.712,1.071c-0.139,0.167-0.514,0.39-0.362,0.626c0.07,0.293-0.236,0.348-0.333,0.571
	c-0.042,0.167-0.084,0.319,0.028,0.431c0.139-0.056,0.347-0.028,0.375-0.069l-0.042-0.027c-0.014-0.057,0.056-0.07,0.07-0.099
	c0.139,0.153,0.25-0.125,0.403-0.139c-0.041,0-0.083,0.014-0.097-0.028c0.153-0.167,0.403-0.125,0.57-0.306l-0.041-0.027
	c0.069-0.14,0.292,0,0.264-0.209c0.334-0.069,0.612-0.39,0.779-0.598c0.445-0.223,0.751-0.654,1.169-1.002
	c0.153-0.014,0.264-0.278,0.389-0.264l-0.028-0.028l0.139-0.112c0.293-0.208,0.585-0.431,0.835-0.765l0.028,0.042l0.236-0.236
	l-0.347-0.042c0.042-0.056-0.138-0.069-0.138-0.056v-0.111c0-0.069,0.444-0.098,0.514-0.125l0.111-0.042
	c0.042-0.125,0.257-0.223,0.354-0.223l0.066,0.028l0.284-0.265l-0.018-0.042l0.199-0.222c0.237-0.265,0.448-0.571,0.74-0.668
	l-0.027-0.042c0.042-0.069,0.056-0.181,0.168-0.195l-0.042-0.041l0.098-0.098c0.042,0,0.083,0,0.111,0.042
	c-0.014-0.083,0.084-0.153,0.126-0.237c0.125-0.18,0.292-0.222,0.431-0.166c0.209,0.069,0.403,0,0.57,0.069
	c0-0.042,0-0.083,0.042-0.111c0.028,0,0.042,0.028,0.056,0.042c0.139-0.069,0.431,0.027,0.403-0.237
	c0.543,0.015,0.724-0.653,1.099-0.932l-0.028-0.042c0.112-0.362,0.306-0.57,0.432-0.96c0.027,0.009,0.036,0.032,0.039,0.059
	c0.006-0.072,0.561-0.223,0.623-0.295c0.056-0.014,0.649,0.027,0.649,0.069v-0.069c0-0.014-0.482-0.042-0.454-0.027l-0.359-0.042
	c0.083-0.14,0.189-0.125,0.175-0.265c0.056-0.014,0.06-0.125,0.129-0.027l0.162-0.167l0.026,0.027c0-0.042-0.008-0.084-0.05-0.098
	l-0.176-0.139c0.431,0.069,0.547-0.487,0.547-0.432v0.098c1-0.027,0.256-0.153,0.381-0.236c0.139,0.028,0.406-0.167,0.42-0.097
	c0-0.154,0.203,0.026,0.217-0.07l0.011-0.028l0.144-0.139c-0.105-0.118,0.146-0.248,0.291-0.181
	c-0.153-0.372,0.422-0.215,0.461-0.349l-0.025-0.027c0.195-0.265,0.377,0.113,0.599,0.059c0.042,0.111,0.238,0.169,0.169,0.169
	h0.069c0.056,0,0.223,0.22,0.167,0.373c-0.042,0.028-0.083,0.117-0.139,0.089c0.028,0.084-0.042,0.143-0.07,0.185
	c-0.153,0.042-0.347,0.301-0.528,0.287c-0.265,0.152-0.571,0.394-0.807,0.463c-0.251,0.056-0.612,0.141-0.793,0.267
	c-0.056,0-0.111,0.042-0.139-0.027l-0.07,0.07c-0.069-0.014-0.111-0.083-0.167-0.139c0.028,0.139,0.125,0.306-0.028,0.403
	l0.028,0.027c-0.042,0.07-0.111,0.07-0.167,0.112c-0.097,0.334-0.236,0.723-0.125,1.057c-0.209,0.334-0.111,0.821-0.501,1.044
	c0.028,0.055,0.07,0.125,0.056,0.194c-0.265,0.098-0.181,0.319-0.265,0.501c0.418-0.153,0.028,0.251,0.209,0.431
	c0.195-0.18,0.237,0.237,0.39,0c0.083,0.209-0.139,0.362-0.056,0.613c-0.626,0.723-1.433,1.265-2.212,1.836
	c-0.014,0.097-0.111,0.125-0.195,0.125c-0.181,0.209-0.445,0.278-0.64,0.334c-0.236,0.014-0.334,0.125-0.626,0.069
	c-0.181,0.126-0.069,0.236-0.278,0.334c-0.195-0.042-0.278,0.209-0.459,0.194c-0.014,0.153-0.195,0.125-0.264,0.209
	c0.125,0.098-0.14,0.195,0.027,0.265c-0.027,0.014-0.041,0.042-0.069,0.027c-0.07,0.14,0.069,0.25-0.126,0.307
	c0,0.042-0.041,0.11,0.028,0.139c-0.069,0.251-0.264,0.07-0.334,0.056c0.07,0.041,0.07,0.397,0.028,0.438
	c0.098,0.125,0.098,0.717,0.139,0.717h-0.027c0.208,0,0.125,0.09,0.334,0.229c0.18,0.306,0.083,0.685,0.5,0.823
	c0.181,0.182,0.223,0.309,0.39,0.476c0.028-0.015,0.097-0.159,0.139-0.076l-0.028,0.025c0.237,0.042,0.543-0.078,0.724-0.176
	c0.167,0.028,0.361-0.088,0.542-0.144c0.153-0.333,0.654-0.071,0.863-0.434c0.083-0.056-0.07-0.195,0.097-0.168
	c0.084,0.043,0.239,0.084,0.239,0.125c0.112,0.041,0.476-0.111,0.476-0.056v-0.112c0-0.014-0.197-0.041-0.17-0.027
	c0.014,0.027-0.078,0.042-0.091,0.069c0.111-0.042,0.204-0.027,0.274-0.167l-0.058-0.042l0.055-0.055
	c0.027,0,0.062-0.014,0.09,0.027c0,0.042,0.01,0.084-0.032,0.098c0.042,0.014,0.096-0.028,0.123,0.042l-0.028,0.027
	c0.083,0.014-0.043-0.14,0.096-0.194l0.028,0.027c0.014,0.027-0.014,0.042-0.028,0.069l0.07,0.07c0.041-0.14,0-0.112,0.069-0.237
	c0.056-0.027-0.047,0.042-0.005,0.028c0.181-0.195,0.607-0.292,0.607-0.292v0.028c0-0.057,0.172-0.224,0.325-0.195
	c0.014,0.139,0.344,0.306,0.107,0.431c0.153,0.612-0.51,0.516-0.802,0.863c-0.362,0.056-0.791,0.403-1.152,0.542
	c-0.084,0.125,0.17-0.139,0.156,0.125c-0.014-0.041,0.366-0.027,0.366-0.027v0.098c-1,0.056-0.928,0.306-1.192,0.404l-0.297-0.07
	c-0.111,0.195-0.462,0.376-0.712,0.402c-0.125,0.252-0.641,0.391-0.892,0.6c-0.292,0.32-0.738,0.403-0.988,0.737
	c-0.25,0.209-0.265,0.277-0.487,0.528c-0.112,0.056-0.16-0.084-0.244-0.126c-0.125-0.264-0.379-0.292-0.574-0.277
	c0.056,0.056,0.165,0.042,0.165,0.139c-0.083,0.084-0.293-0.027-0.334,0.098c-0.195-0.125-0.237,0.153-0.39,0l-0.14,0.474
	c-0.097,0.068-0.056,0.194,0.028,0.235c-0.125,0.14-0.25,0.224-0.431,0.334c0.028,0.057,0.125,0.14,0,0.195
	c0.139,0.237,0.013,0.473,0.097,0.696c0.056-0.042,0.125-0.028,0.167,0.041c0.125,0.027,0.125-0.041,0.209-0.098
	c0.111,0.195,0.375,0.167,0.57,0.265l-0.07,0.069c0.084,0,0.223-0.027,0.237,0.098c0.083-0.083,0.209,0.292,0.334,0.098l0.097,0.167
	c0.376-0.07,0.362,0.654,0.696,0.695c0.014,0.152,0.209,0.474,0.236,0.474h0.098c0.041,0,0.125-0.181,0.139-0.098l0.028-0.174
	l0.069,0.003l0.028-0.061c0.042,0.041,0.111,0.054,0.111,0.108c0.153-0.028,0.404-0.064,0.529,0.089
	c0.223-0.041,0.417,0.219,0.598,0.106c0.07,0.099,0.181-0.028,0.209,0.097l0.028-0.043c0.153-0.015,0.292,0.068,0.361,0.167
	c0.223-0.07,1.087-0.099,1.282-0.168c0.334-0.098,0.435-0.474,1.435-0.459v0.068c0-0.055-0.6-0.11-0.531-0.139
	c0.028,0-0.216-0.014-0.188,0.028c0.083,0-0.06,0.139-0.046,0.069c0.028-0.098,0.096-0.056,0.165,0
	c-0.014-0.027-0.022-0.042-0.008-0.069l0.052,0.069l0.019-0.027l0.065,0.068c0.014,0.028-0.016,0.042-0.03,0.057l0.166,0.139
	c0.069,0.125,0.18-0.097,0.236,0.07c0.18-0.112,0.347,0.181,0.556,0.264c0.055,0.181,0.055,0.348,0,0.501
	c0.139,0.264-0.223,0.097-0.223,0.18c-0.042,0.224,0.25,0.153,0.362,0.153h0.097c0.167,0,0.376,0.042,0.57,0.153
	c0.195,0.069,0.46-0.09,0.64,0.133c0.098-0.084,0.362,0.233,0.362-0.059c0.153,0.014,0.306,0.074,0.431,0.157l0.07-0.088
	c0.056-0.026,0.097,0.033,0.139,0.062c0.028-0.153-0.069-0.234,0.056-0.36c0.041,0.126,0.167,0.127,0.167,0.266
	c0.069,0.015,0.153-0.026,0.208,0.042c0.07-0.055,0.181,0.085,0.265-0.04l-0.028-0.028c0-0.083-0.042-0.194,0.056-0.236
	c0.111-0.098,0.125,0.118,0.208,0.16c0.125-0.056,0.028-0.161,0.07-0.161h0.028c0.014,0,0.083-0.09,0.069-0.034
	c-0.042,0.098,0.028,0.24,0.07,0.269c0.083-0.084-0.042-0.117-0.042-0.2c0.09-0.026,0.073-0.282,0.202-0.208l-0.105-0.081
	c-0.083-0.07,0.028-0.144,0.042-0.213c0.139-0.139,0.139,0.123,0.237,0.137l0.097-0.098l0.028,0.026l-0.028,0.041
	c0,0.07,0.014,0.153,0.097,0.167c0.014-0.055-0.027-0.139,0.028-0.167c0.459,0.167-0.069-0.25,0.237-0.402
	c0.042,0.097,0.042,0.222,0.167,0.264l0.069-0.139c0.014,0.027,0.042,0.055,0.07,0.042c-0.01-0.142,0.046-0.225,0.15-0.255
	c-0.08-0.029-0.152-0.094-0.192-0.149l0.139-0.139c0.056,0.042,0.028,0.125,0.07,0.167c0.125,0.068,0.083-0.098,0.194-0.098
	c0.376,0.027,0.084-0.376,0.167-0.528c-0.055-0.083-0.139-0.209-0.069-0.307c0.028-0.014,0.056,0.015,0.069,0.041
	c0.056-0.026-0.153-0.125-0.027-0.208c-0.056-0.042-0.084-0.097-0.07-0.167c0.014-0.014,0.042-0.042,0.07-0.027l-0.098-0.14
	c-0.083-0.306,0.265-0.11,0.265-0.431c-0.07-0.097,0-0.334-0.167-0.306c0.069,0.041-0.014,0.097-0.042,0.139l-0.028-0.028
	c0.031-0.062-0.021-0.138-0.034-0.163c-0.024,0.016-0.038,0.037-0.063,0.024c-0.14-0.07-0.056-0.153-0.07-0.265
	c0.012-0.083,0.105-0.125,0.167-0.093c-0.041-0.022-0.102-0.04-0.07-0.115c0.028-0.015,0.042-0.042,0.07-0.028
	c0.028-0.083,0.028-0.195,0.097-0.264l-0.027,0.027c-0.014-0.236,0.014-0.418,0.097-0.668l0.07,0.098
	c0.097-0.195-0.056-0.441-0.042-0.636c-0.265-0.251,0.083-0.886-0.028-0.886h0.028c-0.07,0-0.139-1.16-0.167-1.562
	c0.167-0.167,0.222,0.207,0.376,0.179c0.014,0.028,0.041,0.061,0.027,0.089c0.223-0.111,0.265,0.205,0.473,0.246
	c0.251-0.014,0.501,0.186,0.766,0.297c0.57,0.167,0.946,0.281,1.46,0.545c0.32,0.182,0.64,0.351,0.974,0.461
	c0.084,0.028,0.334,0.099,0.237,0.07l0.028-0.028c0.333,0.153,0.807,0.07,1.168,0.335c0.112,0,0.167-0.014,0.237-0.069
	c0.194,0.139,0.431,0,0.64,0c0.765-0.182,1.28-0.918,1.391-1.601c0.223-0.389-0.251-0.682-0.223-1.07
	c-0.041-0.028-0.041-0.07-0.041-0.098c-0.265-0.334-0.668-0.474-1.03-0.64l-0.042,0.026c-0.111-0.055-0.208-0.167-0.292-0.193
	c-0.264-0.07-0.473-0.293-0.709-0.433l0.042-0.041c-0.168,0.083-0.404,0.015-0.501-0.056l-0.042,0.028
	c-0.084-0.153-0.209,0.027-0.334,0.027c-0.084,0.111-0.139-0.069-0.167-0.126c-0.278,0.015-0.501-0.167-0.765-0.097
	c-0.153-0.181-0.376,0.07-0.459-0.209c-0.209,0.153-0.235-0.111-0.402-0.167c-0.028-0.389-0.443,0.07-0.443-0.125v-0.042
	l-0.197,0.098c-0.028,0.041-0.147,0.125-0.175,0.041c-0.083,0.433-0.47,0.585-0.734,0.863c-0.07,0-0.18-0.014-0.18-0.097
	c-0.013,0.083,0.022,0.194-0.033,0.264c-0.153,0-0.226,0.25-0.337,0.334c0.014,0.125-0.016,0.223-0.099,0.306l0.027,0.028
	c0.014,0.057-0.043,0.069-0.07,0.097c-0.015-0.021-0.054-0.045-0.081-0.073c-0.044,0.056-0.243,0.017-0.212,0.186
	c-0.139-0.027-0.125,0.139-0.278,0.098c-0.042-0.028-0.028-0.07-0.028-0.098c-0.042,0-0.083,0-0.097-0.042
	c-0.084-0.39-0.223-0.724-0.167-1.127l-0.07-0.07c0.139-0.139-0.125-0.208-0.028-0.375c-0.125-0.125-0.041-0.418-0.208-0.557
	c0.055-0.403-0.042-0.751-0.265-1.043c0.112-0.167,0.306-0.334,0.432-0.459l0.041,0.027l0.223-0.194
	c0.084,0.055-0.153,0.222-0.028,0.167l0.07-0.07l0.097,0.167c-0.043,0.076-0.17,0.143-0.218,0.129l0.023,0.038l0.098-0.042
	l0.027,0.14l0.098-0.14c-0.042-0.139,0.233-0.18,0.205-0.36c0.084-0.057,0.164-0.195,0.164-0.099v-0.208
	c0,0,0.198-0.251,0.268-0.098l0.008,0.042c0.084,0.097-0.044,0.195-0.058,0.292c0.042,0,0.075,0,0.089,0.042
	c0.097-0.112-0.018-0.209-0.032-0.306c0.125,0.042,0.095-0.099,0.234-0.14c0.098,0.014,0.055-0.126,0.166-0.126l0.028-0.295
	c0,0.097-0.168-0.087-0.098-0.087h0.097c0.237,0,0.251-0.038,0.265-0.205l0.111,0.189l0.055-0.059c0.028,0,0.056,0.068,0.07,0.082
	l0.097-0.119c0.084,0.057,0.098,0.149,0.14,0.22l0.069-0.065c-0.042,0-0.083,0.003-0.097-0.039
	c-0.112-0.139,0.153-0.138,0.194-0.165l-0.027-0.027c0-0.056,0.055-0.083,0.097-0.139l-0.042-0.027c0.042-0.167,0.195,0.042,0.167,0
	c0.195,0.027,0.306-0.32,0.473-0.14l0.07-0.167c0.028,0,0.042,0.028,0.056,0.042c-0.046,0.034-0.027,0.166-0.026,0.194
	c0.15-0.03-0.029-0.195,0.027-0.292c0.208-0.153,0.599-0.111,0.599-0.167v-0.111c0-0.055,0.402-0.139,0.43,0.042
	c0-0.027,0.097-0.042,0.111-0.069c0.056-0.015,0.132-0.01,0.16,0.032l-0.021-0.01h0.097c0.292,0-0.042,0.357,0.069,0.371
	c0.237-0.014,0.501,0.175,0.724,0.37c-0.042,0.056-0.112-0.741-0.167,0.259h0.07c0.069,0,0.027-0.059,0.041-0.017
	c0.167,0.041,0.404,0.179,0.431,0.262c0.07-0.014,0.223-0.276,0.334-0.29c0.167,0.098,0,0.045,0.098,0.045h0.097
	c0.125,0,0.181,0.17,0.209,0.087c0.014,0.167,0.222,0.21,0.222,0.363l0.07,0.133c0.028,0.153,0.028,0.241,0.139,0.366
	c0.125-0.098,0.209,0.127,0.334,0.155c0,0.017-0.022,0.032-0.042,0.036c0.112,0.193,0.32-0.085,0.446,0.068l-0.042-0.209h0.097
	c0.042,0,0.181,0.282,0.139,0.408c0.111,0.014,0.111,0.162,0.195,0.259c0.042-0.028,0.056-0.022,0.111-0.009
	c0.056,0.041,0.014,0.155,0.028,0.225c0.084-0.014,0.167-0.144,0.237,0.01l-0.07,0.107h0.097c0.042,0,0.14,0.02,0.098,0.103
	c0.348,0.084,0.543,0.351,0.807,0.531l0.069-0.075c0.098,0.293,0.543,0.205,0.738,0.525c0.181,0.098,0.403,0.152,0.528,0.305
	l0.028-0.043c0.167,0.209,0.39,0.292,0.571,0.445c0.208-0.042,0.181,0.264,0.403,0.195c0.306,0.361,0.723,0.501,1.099,0.834
	c0.098-0.041,0.154,0.152,0.238,0.027c1.223,0.988,2.754,1.739,4.2,2.449l0.07,0.098c0.208,0,0.431,0.167,0.668,0.194
	c0.097-0.014,0.055,0.14,0.139,0.042c0.028,0.041,0.097,0.069,0.097,0.125c0.099-0.098,0.195,0.028,0.265,0.098
	c0.167-0.098,0.278,0.125,0.432,0.139c0.25-0.055,0.14-0.222,0.236-0.361c0-0.027-0.097-0.236-0.195-0.306
	c0.042-0.07-0.125-0.181-0.139-0.306c0.153,0.026,0.167-0.167,0.306-0.057c0-0.084,0-0.236,0.167-0.167
	c-0.069,0.209,0.237-0.014,0.265,0.195c0.209-0.014,0.39,0.32,0.641,0.236l-0.042-0.042c0.069-0.041,0-0.153,0.097-0.194
	c0.168,0.041,0.223,0.18,0.334,0.264c0.195,0.015,0.209-0.167,0.377-0.194C71.881,62.315,71.437,62.219,71.297,62.023
	 M44.863,40.752c0.014,0.027,0.042,0.042,0.028,0.069c-0.028,0.042-0.07,0.042-0.097,0.042
	C44.766,40.779,44.821,40.821,44.863,40.752 M45.392,47.872l-0.028-0.097c-0.181,0.266-0.32,0.509-0.57,0.662
	c-0.209,0.487-0.64,0.748-0.905,1.152c-0.181,0.014-0.041-0.12-0.139-0.203c-0.222-0.251-0.598-0.464-0.89-0.617
	c0.042-0.195-0.153-0.21-0.209-0.364l-0.028,0.027c-0.111-0.222-0.487-0.112-0.542-0.432l-0.028,0.042
	c-0.084-0.099-0.32,0.027-0.404-0.07c-0.055,0.112-0.153,0.07-0.264,0.07l-0.069-0.07c0-0.042,0.055-0.069,0.097-0.069
	c0.125-0.014,0.292-0.111,0.445-0.168l-0.042-0.026c0.418-0.14,0.877-0.182,1.141-0.612c0.237-0.028,0.585-0.223,0.793-0.46
	c0.139-0.055,0.348-0.264,0.501-0.139c0.084-0.027,0.195,0.014,0.237-0.098c0.459-0.097,0.083,0.432,0.473,0.362
	c0.069,0,0.097,0.274,0.167,0.177c0.111,0.139,0.166,0.664,0.333,0.664h0.07C45.531,47.604,45.531,47.774,45.392,47.872
	 M47.868,44.369c-0.097-0.111-0.334-0.139-0.278-0.334c0.195-0.084,0.376-0.277,0.612-0.166
	C48.105,44.008,47.91,44.175,47.868,44.369 M51.305,65.767c-0.014,0.055,0.027,0.139-0.042,0.167l-0.098-0.264
	C51.249,65.628,51.263,65.725,51.305,65.767 M45.531,56.682l0.056-0.125l0.111,0.097C45.642,56.668,45.587,56.695,45.531,56.682
	 M46.227,68.242c-0.005-0.019-0.003-0.033,0-0.049c-0.015-0.054-0.078-0.086,0-0.285c0.055-0.014,0.083,0.042,0.069,0.099
	c0.046,0.092-0.05,0.118-0.069,0.187C46.231,68.208,46.232,68.223,46.227,68.242 M45.632,65.028v1.575h0.497
	c0.028,0,0.028-0.307,0-0.377c-0.083,0.042-0.069,0.048-0.069,0.118c-0.237-0.07-0.599-0.164-0.835-0.234
	c-0.237,0.167-0.32-0.172-0.529-0.255c-0.111-0.195-0.083-0.581-0.278-0.747c0.125-0.098,0-0.172,0.139-0.27l-0.069-0.072
	c0.027-0.027,0.083-0.056,0.069-0.098c-0.069-0.167,0.237-0.391,0.334-0.6c0.167-0.139,0.431-0.292,0.195-0.543
	c0.028-0.235,0.487-0.473,0.737-0.668c-0.014-0.139,0-0.379,0.167-0.364c-0.042,0.418,0.209,1.109,0.167,1.109h-0.525v0.521
	c0-0.015,0.283-0.042,0.256-0.028c-0.126,0.112,0.308,0.237,0.113,0.334c-0.027,0.084,0.12,0.265,0.217,0.167l-0.23-0.028
	C46.03,64.695,45.632,64.835,45.632,65.028 M46.728,64.361c-0.014,0.027-0.042,0.041-0.028,0.069
	c-0.042-0.097-0.209-0.222-0.112-0.362l0.14-0.139c0.347,0.362,0.18,0.905,0.166,1.336c-0.013-0.098-0.083-0.237-0.194-0.362
	C46.519,64.681,46.908,64.542,46.728,64.361 M46.94,66.197v0.042c0-0.11-0.044-0.277-0.155-0.376l-0.133,0.14
	c0-0.153-0.206-0.333,0.003-0.432l0.076-0.233c-0.008-0.01-0.003-0.03,0.024-0.072l-0.023,0.072
	c0.021,0.026,0.132-0.025,0.162,0.024c-0.097,0.042-0.083,0.182-0.139,0.266c0.028,0.068,0.098,0.026,0.139,0.042l0.07-0.07
	c0.056,0.097-0.151,0.292,0.016,0.362C46.855,66.003,46.94,66.129,46.94,66.197 M47.966,56.418c0.014-0.028-0.014-0.062-0.042-0.09
	c-0.042,0.028-0.028,0.078-0.028,0.078h-0.097c-0.042,0-0.08,0.006-0.08-0.147c0.167-0.013,0.069-0.211,0.282-0.185v0.006
	c-0.213-0.028-0.07-0.068-0.042-0.138c0.02,0.03,0.042,0.082,0.042,0.141c0,0.102,0.018,0.227,0.08,0.307
	C48.039,56.39,47.98,56.376,47.966,56.418 M48.898,55.652c0.056,0.027,0.014,0.083,0.028,0.125
	c-0.084-0.027-0.139,0.056-0.195,0.111c-0.014,0.028,0.014,0.042,0.028,0.056c-0.028,0.041-0.195-0.056-0.195,0.069l-0.07,0.07
	c0.07-0.07-0.014-0.099-0.027-0.167c-0.056,0.014-0.112-0.028-0.14,0.027l0.042,0.041c0.028,0.042-0.042,0.042-0.042-0.041
	c-0.125,0.027,0,0.39-0.236,0.208c0.014-0.027-0.014-0.041-0.028-0.068c0.139,0.041,0.07-0.126,0.139-0.167l-0.042-0.028
	c0.098-0.014,0.209-0.25,0.265-0.07c0.083,0.028,0.111-0.208,0.278-0.166c-0.028,0.056,0.028,0.098,0.056,0.125
	c0.042,0.015,0.083-0.027,0.069-0.056c-0.041-0.111,0.056-0.097,0.098-0.167l0.041,0.028L48.898,55.652z M49.399,68.466l-0.07-0.126
	l0.097,0.098L49.399,68.466z M50.373,55.135h-0.07c0.014,0-0.014-0.054-0.042-0.068l-0.125,0.049
	c-0.097-0.056,0.014-0.128,0.028-0.197l0.042,0.026c0.027-0.181,0.25-0.099,0.222-0.265c0.084,0.069,0.125-0.003,0.209,0.081
	C50.623,54.914,50.4,54.923,50.373,55.135 M51.235,55.249c-0.026,0.011-0.049,0.007-0.068-0.003l-0.002,0.003
	c-0.013-0.005-0.019-0.013-0.023-0.021c-0.019-0.017-0.034-0.036-0.046-0.049l0.042-0.027c0,0.028-0.006,0.057,0.004,0.076
	c0.007,0.007,0.016,0.013,0.025,0.019l0.068-0.137V55.249z M53.266,53.176l-0.015-0.093c-0.019-0.003-0.029-0.019-0.013-0.074
	l0.013,0.074c0.028,0.005,0.077-0.019,0.085,0.023L53.266,53.176z M53.632,52.508l-0.266-0.069c0.055,0.32-0.44,0.083-0.328,0.403
	c0.111,0.14-0.102,0.152-0.13,0.236c-0.055,0.015-0.127-0.027-0.154,0.028c0-0.028,0.005-0.069-0.036-0.098
	c-0.126,0.098-0.088,0.167-0.046,0.265c0.042,0,0.082,0,0.095,0.041c-0.027-0.013-0.042,0.014-0.056,0.028l0.097,0.098
	c0.041-0.139,0.194-0.139,0.292-0.223l0.115,0.022c0.009,0,0.017,0.001,0.024,0.006L53.03,53.24
	c-0.054,0.002-0.398,0.073-0.398,0.145v0.056c0-0.014,0.042,0.041,0.014,0.111c-0.056-0.056-0.014,0.056-0.014,0.056v0.069
	c0-0.097-0.121,0.014-0.232,0c-0.042-0.153,0.461-0.349,0.071-0.431c-0.014,0.082-0.096,0.152-0.235,0.194
	c-0.028,0.069-0.264,0.153-0.139,0.278c-0.042,0.014-0.097-0.028-0.125,0.028c0.028,0.027,0.098,0.097,0.126,0.027
	c0.027,0.069-0.028,0.098-0.056,0.14c0.056,0.097,0.097-0.042,0.167-0.028c0.07-0.084,0-0.125,0.056-0.209
	c0.069,0.181-0.122,0.306-0.317,0.376c-0.222-0.084-0.316,0.222-0.316,0.264v-0.042c0,0-0.226-0.014-0.282,0.112l-0.078,0.025
	c-0.042,0.014-0.037,0.191-0.037,0.191h-0.07c-0.027,0,0.042-0.206,0.07-0.234l0.028-0.074c-0.056-0.015-0.111-0.149-0.167-0.053
	l-0.056-0.178c-0.278,0.083-0.403,0.3-0.667,0.383l-0.07-0.058c0.028,0.208-0.306,0.109-0.306,0.332l-0.195,0.194l0.097,0.139
	l0.028-0.042c-0.014,0.055,0.056,0.069,0.07,0.097c-0.125,0.057-0.195,0.083-0.292,0.209l0.028,0.028
	c-0.098,0.166-0.153,0.055-0.237,0.166c-0.125-0.181-0.25,0.056-0.403,0.042c-0.056-0.264,0.514-0.139,0.236-0.445
	c0.056,0.015,0.153-0.014,0.209-0.098c0-0.027,0-0.069-0.042-0.097l-0.125,0.097c-0.028-0.111,0.153-0.152,0.125-0.264
	c0.042,0,0.084,0.014,0.097-0.028c-0.013-0.069-0.083-0.027-0.125-0.041c-0.097,0.194-0.32,0.278-0.403,0.5
	c-0.362,0.195-0.884,0.307-1.232,0.543l-0.201,0.054v0.004v0.039v-0.215h0.236c0.023,0,0.029,0.074,0.03,0.034
	c-0.001-0.001-0.001,0.069-0.002,0.068l0.002,0.034c0-0.032-0.002-0.048-0.002-0.078c0.056,0,0.084-0.061,0.139-0.089
	c-0.055-0.056-0.139-0.009-0.208-0.022c-0.028,0.083-0.126,0.141-0.195,0.169c-0.056-0.07-0.056,0.029-0.098-0.069l-0.111,0.099
	c0.125,0.084-0.125,0.098,0,0.194l-0.125,0.042c0.014-0.027-0.014-0.041-0.042-0.068l-0.223,0.167
	c-0.013,0.055,0.042-0.679-0.139-0.471c0.042,0.32-0.473-0.01-0.403-0.01h0.07c-0.237,1-0.362,0.553-0.599,0.636
	c0.028-0.042,0.098,0.117,0.098,0.062c-0.07-0.167-0.195,0.051-0.306,0.051c-0.056,0.07-0.348-0.027-0.39,0.196
	c0.014,0.014,0.042,0.056,0.028,0.056h-0.07c0.014,0-0.041-0.01-0.069-0.052c-0.223,0.112-0.459,0.239-0.696,0.336
	c-0.167-0.139-0.278,0.141-0.473,0.043c0.251-0.014,0.251-0.326,0.501-0.382c0.431-0.403,0.723-0.775,1.141-1.137
	c0.097-0.069,0.25-0.18,0.362-0.263c0.013,0.098,0.111,0.196,0.208,0.196c0.167,0.069,0.008-0.278,0.133-0.07
	c0.181-0.125,0.203-0.625,0.203-0.667v-0.055c1,0.013,0.243-0.028,0.257-0.042l0.002-0.07c0.265,0,0.301-0.514,0.621-0.334
	c0.056-0.055,0.164-0.097,0.122-0.193c0.696,0.026,0.987-0.863,1.655-0.933c0.083-0.069,0.229-0.153,0.368-0.167
	c0.181,0.139,0.351-0.152,0.545-0.167c0.293,0.041,0.559-0.209,0.892-0.167l0.14-0.14c0.014,0.042,0.056,0.042,0.098,0.042
	c0.07-0.153,0.126-0.208,0.265-0.278l0.042,0.042c0.139-0.292,0.57,0.028,0.528-0.306c-0.069,0.014-0.139-0.035-0.167-0.105
	c-0.014-0.068,0.028-0.132-0.028-0.132h-0.069l0.028-0.104l-0.098-0.088c0.084-0.11,0.098-0.002,0.209-0.084l0.056,0.061
	l0.041-0.045l0.028,0.04l0.039-0.04c-0.004-0.018-0.002-0.025,0.003-0.004l-0.003,0.003c0.005,0.029,0.024,0.086,0.059,0.094
	c0.055,0.014,0.111-0.027,0.139,0.042c0.055,0.014,0.111,0.083,0.167,0.125c0.028-0.014,0.055-0.069,0.097-0.055l0.042,0.026
	c-0.042-0.014-0.056,0.015-0.07,0.028c-0.014,0.042,0.014,0.056,0.028,0.07c0.056,0.014,0.07-0.042,0.097-0.07
	c0.056,0.042,0.042,0.111,0.112,0.139c0.041-0.014,0.028-0.055,0.028-0.097c-0.098-0.056-0.167-0.292-0.306-0.167
	c-0.028-0.292,0.25,0,0.306-0.209c0.111,0.056,0.013,0.126,0.027,0.139c-0.027-0.013-0.041,0.042-0.055,0.057
	c-0.014,0.055,0.041,0.139,0.055,0.139h-0.3c0,0,0.15,0.028,0.136,0.042l0.228,0.125l0.024,0.042l0.096,0.069
	c-0.056-0.013-0.057,0.042-0.085,0.056l0.201,0.042c0,0.042-0.011,0.083,0.031,0.097c-0.028,0-0.068,0.015-0.096-0.027
	c-0.056,0.027-0.023,0.067,0.008,0.096l0,0c0.016,0.014,0.031,0.254,0.035,0.259c0,0.062-0.007,0.2-0.034,0.2h-0.025
	c-0.01,0,0.481-0.468-0.519-0.457v0.167c1,0.083,1-0.069,1,0.027V52.508z M54.672,45.231c-0.251,0.084-0.557,0.209-0.64,0.501
	c-0.126,0-0.014-0.152-0.098-0.195c-0.306-0.11-0.487,0.182-0.793,0.099l-0.069,0.069c-0.154-0.14-0.209-0.459-0.473-0.334
	c-0.07-0.056-0.167,0.056-0.223,0.126c0.042,0.375-0.32,0.36-0.501,0.569c-0.209-0.097-0.167,0.209-0.376,0.098l-0.097,0.422
	c0.014-0.098-0.028,0.018-0.097,0.018h-0.07c0.167-1,0.904-0.477,0.696-1.117c0.208-0.014,0.334-0.488,0.542-0.434
	c0.042-0.013,0.028-0.119,0.028-0.161c0.334,0.098,0.612-0.323,0.877-0.323c0.32-0.111,0.82,0.192,1.057-0.156
	c0.237,0.015,0.431-0.188,0.543-0.41c0.139-0.125,0.347-0.254,0.5-0.436l0.008,0.193c0.055-0.028,0.146-0.002,0.146-0.059v-0.11
	c1,0.125,0.577,0.083,0.828-0.099c0.18-0.167,0.065-0.375,0.107-0.569l-0.064-0.099l-0.025,0.042
	c-0.07-0.264-0.278-0.181-0.333-0.444l0.223-0.265c-0.083-0.152,0.14-0.223,0.209-0.334c0.125-0.152,0.028-0.277,0.167-0.432
	c-0.055-0.236,0.167-0.264,0.126-0.528l0.041-0.111c0.376,0.223,0.654,0.737,1.169,0.835c0.042,0.042,0.042,0.152,0.125,0.111
	c0,0.098,0.112,0.027,0.139,0.098l-0.167,0.097l0.028,0.028L58.08,42.06l0.028,0.028c-0.139,0.014-0.125,0.376-0.265,0.473
	c-0.083,0.111-0.306,0.111-0.361,0.306c0.014,0.057-0.028,0.099-0.07,0.125l0.028,0.042c-0.042,0.099-0.139,0.307-0.334,0.362
	c-0.042,0.195-0.209,0.501-0.431,0.57c0.111,0.084-0.056,0.153-0.07,0.237c-0.125-0.057-0.097,0.068-0.125,0.097
	c-0.097,0.39-0.487,0.473-0.57,0.862c-0.139,0.084-0.251,0.39-0.473,0.307C55.27,45.273,54.894,45.19,54.672,45.231 M59.68,53.886
	l-0.07-0.042l0.098,0.042l-0.056,0.055C59.638,53.914,59.666,53.899,59.68,53.886 M59.968,54.274v-0.062
	c-0.108-0.06-0.215-0.085-0.215-0.062V54.08c0,0.042,0.107,0.027,0.215,0.027v0.104c0,0.011,0.018,0.021,0.027,0.035L59.968,54.274z
	 M62.212,57.684l-0.056-0.028h0.056V57.684z M62.755,57.252l0.105-0.098c-0.055-0.097-0.228-0.11-0.228-0.097v-0.454H62.49
	c-0.069,0,0.014,0.171-0.111,0.129l-0.028,0.155l-0.069-0.033l-0.028,0.06c-0.126-0.265-0.376-0.359-0.599-0.582
	c-0.194-0.167-0.403-0.396-0.542-0.618c-0.153-0.057-0.32-0.218-0.362-0.371c0.028,0.013,0.042-0.013,0.07-0.026
	c-0.223-0.027-0.348-0.322-0.445-0.517l0.069-0.196H60.32l0.028,0.1c-0.014-0.041-0.056,0.044-0.098,0.044l0.028-0.007l-0.097-0.107
	l-0.028,0.037l-0.167-0.33c0.097,0.069,0.125,0.104,0.292,0.091c-0.083,0.194,0.181,0.173,0.237,0.173h0.097
	c0.125,0,0.084,0.204,0.139,0.357c0.292,0.069,0.362,0.464,0.598,0.533c-0.083,0.236,0.487,0.212,0.334,0.462l0.028-0.026
	c0.39,0.25,0.515,0.365,0.904,0.587c0.014,0.153,0.279,0.087,0.265,0.087h0.139l-0.07,0.282c0.07,0.223,0.223,0.072,0.306,0.253
	l0.098-0.013l-0.028,0.069c0.139,0.028,0.111,0.153,0.097,0.279c-0.028-0.014-0.041,0.021-0.069,0.035
	c0.055,0.027,0.083,0.17,0.195,0.073c0.069,0.041,0.139,0.195,0.208,0.141c0.334,0.347,0.752,0.473,1.071,0.891
	c0.361-0.042,0.326,0.459,0.688,0.501c-0.014,0.182,0.117,0.141,0.117,0.237v0.07c0,0-0.118-0.015-0.132,0.027
	c0.042,0.056,0.132,0.041,0.132,0.069v-0.097l0.307,0.097c0.028,0.028-0.062-0.042-0.033,0.07l0.004,0.026
	c0.125,0.112,0.369-0.097,0.397,0c-0.153,0.209,0.179,0.182,0.138,0.376c0.194,0.224,0.297-0.056,0.479,0.237l0.128,0.125
	c-0.042-0.014-0.082-0.098-0.166-0.07c0.042-0.125-0.11-0.055-0.166-0.125c-0.194-0.027-0.349-0.292-0.556-0.334l-0.111-0.167
	c-0.126,0.015-0.432-0.181-0.598-0.306c0.013-0.014,0.055-0.028,0.041-0.069c-0.153,0-0.32-0.194-0.473-0.293l0.139-0.097
	l-0.139-0.042l0.027-0.028c-0.125-0.18-0.348,0.237-0.432-0.097l-0.027,0.028c-0.083-0.224-0.473-0.182-0.402-0.501
	c-0.057,0.027-0.015,0.084-0.029,0.139c-0.291-0.125-0.375-0.445-0.709-0.501C63.228,57.586,62.935,57.517,62.755,57.252
	 M62.852,58.018c0.07-0.084,0.111,0.027,0.167,0.069l-0.07,0.069L62.852,58.018z M63.283,58.56l-0.097-0.07l0.028-0.041
	c0.027,0.028,0.041,0.056,0.069,0.041V58.56z M69.632,62.399c0-0.042-0.329-0.237-0.51-0.237l-0.088,0.07
	c-0.252-0.152-0.588-0.209-0.797-0.376c-0.11-0.061-0.352-0.102-0.457-0.197c-0.017-0.011-0.148-0.025-0.148-0.037v-0.001
	c0-0.004,0.1-0.004,0.098-0.006c-0.005-0.008-0.006-0.01,0,0c0.002,0.002,0.053,0.004,0.055,0.007
	c0.012,0.014,0.05,0.025,0.062,0.037c0.016,0.011,0.049,0.017,0.07,0.003l0.035-0.041l-0.025-0.028l0.238-0.028
	c-0.069-0.083-0.264-0.111-0.278-0.236c-0.055-0.069-0.166-0.152-0.264-0.069l0.043-0.028c-0.14,0-0.153,0.014-0.237-0.139
	l-0.042,0.027l-0.055-0.056c-0.028,0.015-0.042,0.042-0.07,0.028c0.042-0.057-0.083-0.182-0.167-0.098l0.028-0.041
	c-0.57-0.278-1.142-0.669-1.739-0.863c-0.068-0.236-0.391-0.208-0.501-0.432c-0.375-0.152-0.694-0.501-0.944-0.765
	c-0.113,0.056-0.307-0.097-0.307-0.139v-0.07c0,0.014-0.014,0.056,0.014,0.042c0.014-0.028,0.014-0.042,0-0.069
	c-0.029-0.042,0.021-0.084-0.035-0.069l0.021,0.097v-0.097c0,0.014-0.063-0.015-0.035-0.028c-0.098-0.042-0.206-0.139-0.289-0.209
	c-0.139,0-0.193,0.042-0.291,0l0.154-0.027c0-0.084-0.09-0.056-0.118-0.14c0.153-0.027,0.247,0.134,0.4,0.203
	c0,0.042-0.003,0.217,0.039,0.217h0.097c0.084,0,0.236,0.062,0.334,0.117c0.459,0.292,0.738,0.476,1.127,0.824
	c0.32-0.028,0.473,0.369,0.738,0.536c0.207,0.152,0.402,0.522,0.598,0.522h0.139c-0.014,0,0.043-0.048,0.069-0.006
	c0.279-0.014,0.515,0.24,0.793,0.309c0.028,0.141,0.237,0.128,0.306,0.211c-0.013,0.057,0.043,0.058,0.07,0.084
	c0.014-0.013,0.042-0.033,0.028-0.074c0.222,0.097,0.348,0.19,0.542,0.33l0.027-0.029c0.043,0.111,0.266,0.109,0.168,0.234
	c0.069,0.099,0.098-0.041,0.166-0.041l0.362,0.235c-0.028-0.013-0.042,0.015-0.056,0.042l0.098,0.057
	c-0.181-0.112-0.367-0.182-0.533-0.224c0.25,0.266,1.066,0.391,1.066,0.599V62.399z"/>
<path fill="#16939A" d="M51.736,60.118c-0.019,0.039-0.005,0.067,0.017,0.093C51.768,60.193,51.767,60.165,51.736,60.118"/>
<path fill="#16939A" d="M51.017,56.949l-0.019-0.031C50.995,56.937,51.003,56.945,51.017,56.949"/>
<path fill="#16939A" d="M57.97,56.751"/>
<path fill="#16939A" d="M51.764,56.223v0.097h0.042c0.01-0.03-0.011-0.078,0.002-0.11C51.794,56.221,51.78,56.23,51.764,56.223"/>
<path fill="#16939A" d="M54.006,55.604h-0.003H54.006z"/>
<path fill="#16939A" d="M47.131,48.766c-0.008-0.006-0.017-0.01-0.025-0.014c0.007,0.018,0.014,0.035,0.025,0.056V48.766z"/>
<path fill="#16939A" d="M49.865,68.414l0.034,0.023C49.887,68.427,49.875,68.42,49.865,68.414"/>
<path fill="#16939A" d="M44.362,50.908c0-0.014-0.001-0.027-0.002-0.04C44.358,50.893,44.358,50.908,44.362,50.908"/>
<path fill="#16939A" d="M51.138,67.742c-0.072-0.009-0.133-0.005-0.184,0.01C51.014,67.774,51.078,67.778,51.138,67.742"/>
<path fill="#16939A" d="M51.243,65.081c0.007,0.005,0.014,0.01,0.02,0.018C51.258,65.092,51.25,65.086,51.243,65.081"/>
<path fill="#16939A" d="M51.201,65.409c0.002-0.001,0.004-0.003,0.007-0.004C51.196,65.396,51.195,65.4,51.201,65.409"/>
<polyline fill="#16939A" points="51.235,65.076 51.243,65.081 51.235,65.076 "/>
<path fill="#16939A" d="M61.711,43.924l0.111,0.111c0.098,0.014,0.126-0.097,0.195-0.139C61.92,43.896,61.767,43.688,61.711,43.924"
	/>
<polygon fill="#16939A" points="45.865,49.74 45.893,49.907 45.893,49.81 "/>
<path fill="#16939A" d="M52.932,51.771v0.111c0.042,0,0.083,0,0.111-0.041L52.932,51.771z"/>
<path fill="#16939A" d="M52.237,53.385l0.028-0.139C52.237,53.273,52.154,53.343,52.237,53.385"/>
<path fill="#16939A" d="M51.597,53.886l0.07-0.07c0.125,0.084-0.126,0.14,0,0.237c0.083-0.042-0.028-0.182,0.097-0.167
	C51.792,53.732,51.569,53.732,51.597,53.886"/>
<polygon fill="#16939A" points="51.541,53.913 51.541,53.844 51.402,53.941 "/>
<polygon fill="#16939A" points="50.804,54.108 50.804,53.983 50.734,54.052 "/>
<path fill="#16939A" d="M51.333,54.275l-0.018-0.019C51.33,54.311,51.354,54.341,51.333,54.275"/>
<polygon fill="#16939A" points="51.314,54.257 51.311,54.241 51.305,54.247 "/>
<path fill="#16939A" d="M51.333,54.108c-0.035,0.028-0.033,0.086-0.022,0.133l0.119-0.133c0.028,0.027,0.042,0.056,0.07,0.042v-0.07
	C51.443,54.066,51.388,54.094,51.333,54.108"/>
<path fill="#16939A" d="M50.136,54.387l0.028,0.027l0.069-0.07C50.178,54.316,50.08,54.414,50.136,54.387"/>
<path fill="#16939A" d="M47.131,54.581h-0.07l0.028,0.139C47.117,54.678,47.201,54.609,47.131,54.581"/>
<polygon fill="#16939A" points="48.661,55.221 48.661,55.082 48.633,55.054 "/>
<path fill="#16939A" d="M55.701,55.109l0.111,0.209l0.167-0.069c-0.042,0-0.083-0.015-0.111,0.027L55.701,55.109z"/>
<path fill="#16939A" d="M48.701,55.805c-0.012,0.054-0.047,0.102-0.068,0.111l0.098-0.069
	C48.708,55.839,48.702,55.824,48.701,55.805"/>
<path fill="#16939A" d="M48.703,55.75c0,0.02-0.003,0.038-0.002,0.056C48.705,55.786,48.707,55.768,48.703,55.75"/>
<path fill="#16939A" d="M46.63,56.111c0.042,0,0.111,0.042,0.125-0.028C46.727,56.015,46.658,56.098,46.63,56.111"/>
<path fill="#16939A" d="M46.378,56.27l-0.013,0.078c0.014-0.014,0.028-0.042,0.056-0.027C46.422,56.308,46.397,56.291,46.378,56.27"
	/>
<path fill="#16939A" d="M46.378,56.27l0.015-0.089C46.339,56.213,46.354,56.243,46.378,56.27"/>
<path fill="#16939A" d="M62.045,56.584c0.029,0.029,0.009-0.013-0.025-0.059C62.024,56.547,62.029,56.568,62.045,56.584"/>
<path fill="#16939A" d="M61.919,56.445c0.027-0.007,0.07,0.038,0.101,0.08C62.012,56.471,62.02,56.415,61.919,56.445"/>
<path fill="#16939A" d="M50.96,56.604h0.01H50.96z"/>
<path fill="#16939A" d="M50.929,56.875c-0.153,0-0.25,0.23-0.167,0.342l0.07-0.08c0.09,0.104,0.085-0.081,0.128-0.081h-0.087
	C50.748,57.056,50.943,56.959,50.929,56.875"/>
<path fill="#16939A" d="M62.518,56.918l0.028,0.139c0.028-0.027,0.042-0.056,0.069-0.042C62.657,56.932,62.56,56.946,62.518,56.918"
	/>
<rect x="50.97" y="57.225" fill="#16939A" width="0.028" height="0.125"/>
<polygon fill="#16939A" points="63.617,57.753 63.52,57.656 63.617,57.781 "/>
<path fill="#16939A" d="M64.048,58.156c-0.097-0.042-0.069-0.362-0.264-0.237C63.854,58.003,63.909,58.128,64.048,58.156"/>
<path fill="#16939A" d="M64.382,58.351v-0.027c-0.041,0.014-0.056-0.042-0.097-0.069C64.257,58.323,64.326,58.379,64.382,58.351"/>
<path fill="#16939A" d="M51.541,61.356l0.028,0.097c0.014-0.014,0.042-0.027,0.028-0.055C51.583,61.37,51.569,61.342,51.541,61.356"
	/>
<path fill="#16939A" d="M68.501,61.69l-0.209-0.07c-0.015,0.14,0.152,0.014,0.139,0.14L68.501,61.69z"/>
<path fill="#16939A" d="M45.823,63.067c0.028,0.083-0.111,0.028-0.07,0.125C45.865,63.206,45.823,63.039,45.823,63.067"/>
<path fill="#16939A" d="M45.865,63.568c0.028,0.056,0.014,0.084-0.042,0.125c0.042-0.028,0.084-0.069,0.07-0.125H45.865z"/>
<path fill="#16939A" d="M45.962,64.5c-0.084,0.057,0,0.057,0.028,0.098C46.018,64.528,46.018,64.557,45.962,64.5"/>
<path fill="#16939A" d="M46.032,65.627c0.008,0.013,0.018,0.024,0.028,0.036V65.6L46.032,65.627z"/>
<path fill="#16939A" d="M46.06,65.794l0.028-0.027c0.02-0.04-0.003-0.072-0.028-0.104V65.794z"/>
<polygon fill="#16939A" points="46.087,66.003 46.087,65.864 46.031,65.933 "/>
<path fill="#16939A" d="M49.988,68.771v-0.404c0,0.153-0.028,0.224-0.069,0.377C49.932,68.758,49.988,68.785,49.988,68.771"/>
</svg>
