<svg xmlns="http://www.w3.org/2000/svg" xmlns:xlink="http://www.w3.org/1999/xlink" width="123.657" height="123.65">
    <defs>
        <rect id="a" width="123.657" height="123.65"/>
    </defs>
    <clipPath id="b">
        <use xlink:href="#a" overflow="visible"/>
    </clipPath>
    <path clip-path="url(#b)" fill="#C9E7E8" d="M123.657 61.825c0 34.147-27.682 61.83-61.828 61.83-34.148 0-61.83-27.683-61.83-61.83 0-34.146 27.682-61.829 61.83-61.829 34.147 0 61.828 27.682 61.828 61.829"/>
    <path fill="#16939A" d="M65.692 33.274c0 2.222-1.801 4.021-4.021 4.021-2.222 0-4.023-1.8-4.023-4.021s1.801-4.022 4.023-4.022c2.221-.001 4.021 1.8 4.021 4.022M79.815 60.869c0 9.938-8.057 17.994-17.995 17.994-9.937 0-17.993-8.056-17.993-17.994s8.056-17.994 17.993-17.994c9.939 0 17.995 8.056 17.995 17.994"/>
    <polygon fill="#F2F2F2" points="55.551,50.421 56.531,50.421 56.531,51.39 57.428,51.39 57.428,50.421 58.408,50.421 58.408,53.354 57.428,53.354 57.428,52.373 56.531,52.373 56.531,53.354 55.551,53.354"/>
    <polygon fill="#F2F2F2" points="59.697,51.394 58.834,51.394 58.834,50.42 61.54,50.42 61.54,51.394 60.677,51.394 60.677,53.354 59.697,53.354"/>
    <polygon fill="#F2F2F2" points="61.97,50.421 62.992,50.421 63.622,51.452 64.249,50.421 65.271,50.421 65.271,53.354 64.296,53.354 64.296,51.9 63.622,52.943 63.604,52.943 62.929,51.9 62.929,53.354 61.97,53.354"/>
    <polygon fill="#F2F2F2" points="65.76,50.421 66.741,50.421 66.741,52.384 68.118,52.384 68.118,53.354 65.76,53.354"/>
    <path fill="#F2F2F2" d="M59.291 61.759h2.547v-1.976h-2.723l.176 1.976zm-5.153-7.119l1.402 15.726 6.294 1.748 6.3-1.747 1.404-15.727h-15.4zm12.795 14.726l-5.095 1.412v-2.001h-.003l-3.951-1.096-.277-3.097h1.937l.143 1.605 2.148.581.003-.001v-3.082h-4.311l-.52-5.833h4.831v-1.929h6.294l-1.199 13.441z"/>
    <defs>
        <rect id="c" x="61.838" y="55.93" width="6.294" height="14.85"/>
    </defs>
    <clipPath id="d">
        <use xlink:href="#c" overflow="visible"/>
    </clipPath>
    <path clip-path="url(#d)" fill="#F2F2F2" d="M64.212 63.688h-2.374v3.082l2.149-.581.225-2.501zm-2.374-7.762v1.929h4.831l-.173 1.929h-4.658v1.975h4.483l-.53 5.923-3.953 1.096v2.001l5.095-1.412 1.199-13.439h-6.294z"/>
    <defs>
        <rect id="e" x="57.007" y="57.85" width="4.831" height="10.93"/>
    </defs>
    <clipPath id="f">
        <use xlink:href="#e" overflow="visible"/>
    </clipPath>
    <polygon clip-path="url(#f)" fill="#F2F2F2" points="61.838,57.855 57.007,57.855 57.527,63.688 61.838,63.688 61.838,61.758 59.291,61.758 59.115,59.784 61.838,59.784"/>
    <polygon clip-path="url(#f)" fill="#F2F2F2" points="61.838,66.77 61.835,66.771 59.687,66.191 59.544,64.583 57.607,64.583 57.884,67.68 61.835,68.778 61.838,68.777"/>
    <rect x="60.632" y="37.6" fill="#16939A" width="2" height="6"/>
    <path fill="#16939A" d="M47.054 37.254c1.428 1.702 1.206 4.239-.496 5.667-1.702 1.429-4.239 1.206-5.667-.496-1.428-1.701-1.206-4.238.496-5.667 1.702-1.427 4.239-1.205 5.667.496"/>
    <rect x="48.186" y="41.942" transform="matrix(.766 -.643 .643 .766 -17.846 42.024)" fill="#16939A" width="1.192" height="7.153"/>
    <path fill="#16939A" d="M35.335 52.285c2.188.387 3.649 2.473 3.263 4.66-.386 2.188-2.472 3.648-4.66 3.263-2.188-.386-3.649-2.472-3.263-4.659.386-2.189 2.472-3.65 4.66-3.264"/>
    <rect x="41.375" y="53.928" transform="matrix(.174 -.985 .985 .174 -21.95 88.849)" fill="#16939A" width="1.192" height="7.153"/>
    <path fill="#16939A" d="M36.019 71.332c1.924-1.11 4.384-.452 5.495 1.473 1.11 1.924.451 4.384-1.473 5.495-1.923 1.11-4.384.451-5.494-1.473-1.111-1.924-.452-4.384 1.472-5.495"/>
    <rect x="43.862" y="67.489" transform="matrix(-.5 -.866 .866 -.5 5.129 145.092)" fill="#16939A" width="1.192" height="7.153"/>
    <path fill="#16939A" d="M48.786 85.483c.76-2.088 3.068-3.164 5.156-2.404 2.087.76 3.163 3.068 2.404 5.155-.76 2.088-3.068 3.164-5.156 2.405-2.087-.76-3.164-3.068-2.404-5.156"/>
    <rect x="54.483" y="76.278" transform="matrix(-.94 -.342 .342 -.94 79.486 173.74)" fill="#16939A" width="1.192" height="7.152"/>
    <path fill="#16939A" d="M67.662 88.117c-.76-2.088.317-4.396 2.404-5.156 2.088-.759 4.396.317 5.155 2.405.76 2.087-.316 4.395-2.403 5.155-2.088.76-4.395-.316-5.156-2.404"/>
    <rect x="68.268" y="76.184" transform="matrix(-.94 .342 -.342 -.94 160.863 131.147)" fill="#16939A" width="1.193" height="7.153"/>
    <path fill="#16939A" d="M83.815 78c-1.924-1.11-2.583-3.57-1.473-5.494s3.572-2.583 5.494-1.473c1.924 1.111 2.584 3.571 1.474 5.495-1.111 1.925-3.571 2.584-5.495 1.472"/>
    <rect x="78.769" y="67.25" transform="matrix(-.5 .866 -.866 -.5 180.392 37.53)" fill="#16939A" width="1.191" height="7.152"/>
    <path fill="#16939A" d="M89.687 59.869c-2.188.387-4.273-1.075-4.66-3.263-.385-2.188 1.076-4.274 3.264-4.66 2.188-.385 4.273 1.075 4.66 3.264.385 2.187-1.076 4.273-3.264 4.659"/>
    <rect x="81.071" y="53.658" transform="matrix(.174 .985 -.985 .174 123.846 -33.132)" fill="#16939A" width="1.192" height="7.153"/>
    <path fill="#16939A" d="M82.53 42.205c-1.428 1.702-3.965 1.924-5.668.496-1.701-1.428-1.924-3.965-.496-5.667 1.429-1.702 3.966-1.924 5.668-.496 1.701 1.427 1.924 3.964.496 5.667"/>
    <rect x="74.096" y="41.765" transform="matrix(.766 .643 -.643 .766 46.642 -37.411)" fill="#16939A" width="1.192" height="7.153"/>
</svg>
