<?xml version="1.0" encoding="utf-8"?>
<!-- Generator: Adobe Illustrator 16.2.1, SVG Export Plug-In . SVG Version: 6.00 Build 0)  -->
<!DOCTYPE svg PUBLIC "-//W3C//DTD SVG 1.1//EN" "http://www.w3.org/Graphics/SVG/1.1/DTD/svg11.dtd">
<svg version="1.1" id="レイヤー_1" xmlns="http://www.w3.org/2000/svg" xmlns:xlink="http://www.w3.org/1999/xlink" x="0px"
	 y="0px" width="123.657px" height="123.65px" viewBox="0 0 123.657 123.65" enable-background="new 0 0 123.657 123.65"
	 xml:space="preserve">
<g>
	<defs>
		<rect id="SVGID_1_" width="123.657" height="123.65"/>
	</defs>
	<clipPath id="SVGID_2_">
		<use xlink:href="#SVGID_1_"  overflow="visible"/>
	</clipPath>
	<path clip-path="url(#SVGID_2_)" fill="#C9E7E8" d="M123.657,61.825c0,34.147-27.682,61.83-61.828,61.83
		c-34.148,0-61.83-27.683-61.83-61.83S27.681-0.004,61.829-0.004C95.976-0.004,123.657,27.678,123.657,61.825"/>
</g>
<path fill="#16939A" d="M87.632,47.95c0,0.359-0.291,0.65-0.65,0.65h-48.7c-0.359,0-0.65-0.291-0.65-0.65v-2.7
	c0-0.359,0.291-0.65,0.65-0.65h48.7c0.359,0,0.65,0.291,0.65,0.65V47.95z"/>
<rect x="85.632" y="48.6" fill="#16939A" width="2" height="27"/>
<path fill="#16939A" d="M88.036,77.208c0,1.619-0.639,1.697-1.427,1.697c-0.789,0-1.428-0.078-1.428-1.697
	c0-1.618,0.639-4.166,1.428-4.166C87.397,73.042,88.036,75.59,88.036,77.208"/>
<path fill="#16939A" d="M46.889,71.639c0.994,0.393,7.191,1.591,9.599-1.465c1.49,1.447-1.504,4.779-7.942,5.449L46.889,71.639z"/>
<path fill="#16939A" d="M51.4,51.6c-0.358,0-0.768-0.025-0.768,0.333v18.222c0,0.357,0.349,0.613,0.704,0.567l4.564-1.894
	c0.309-0.18,0.751-0.562,0.964-0.849l0.019-0.015c0.213-0.288,0.61-0.33,0.879-0.094l0.013,0.009
	c0.268,0.235,0.638,0.681,0.82,0.987c0,0,0.733,1.239,0.398,2.366c-0.802,2.699-7.641,5.46-7.641,5.46
	c-0.331,0.133-0.602,0.299-0.602,0.574c0,0.276,0.292,0.332,0.65,0.332h30.558c0.357,0,0.674,0.047,0.674-0.311V51.933
	c0-0.358-0.316-0.333-0.674-0.333H51.4z"/>
<path fill-rule="evenodd" clip-rule="evenodd" fill="#16939A" d="M49.127,78.004c0,0-0.003-4.306,0-4.404
	c-0.01-0.386-0.159-1.104-0.434-1.463c-0.961-1.255-2.2-1.904-4.294-2.113c-0.378-0.076-0.663-0.41-0.663-0.809
	c0-0.291,0.934-1.162,0.928-1.169c0.964-0.998,1.481-2.618,1.481-3.864c0-1.935-1.558-3.505-3.479-3.505
	c-1.922,0-3.479,1.571-3.479,3.505c0,1.254,0.503,2.883,1.477,3.881c0,0,0.931,0.861,0.931,1.152c0,0.422-0.318,0.772-0.729,0.822
	c-2.051,0.215-3.276,0.861-4.227,2.1c-0.276,0.358-0.425,1.077-0.435,1.463c0.004,0.099,0,4.404,0,4.404H49.127z"/>
</svg>
