<?xml version="1.0" encoding="utf-8"?>
<!-- Generator: Adobe Illustrator 16.2.1, SVG Export Plug-In . SVG Version: 6.00 Build 0)  -->
<!DOCTYPE svg PUBLIC "-//W3C//DTD SVG 1.1//EN" "http://www.w3.org/Graphics/SVG/1.1/DTD/svg11.dtd">
<svg version="1.1" id="レイヤー_1" xmlns="http://www.w3.org/2000/svg" xmlns:xlink="http://www.w3.org/1999/xlink" x="0px"
	 y="0px" width="123.657px" height="123.657px" viewBox="0 0 123.657 123.657" enable-background="new 0 0 123.657 123.657"
	 xml:space="preserve">
<g>
	<defs>
		<rect id="SVGID_1_" width="123.657" height="123.657"/>
	</defs>
	<clipPath id="SVGID_2_">
		<use xlink:href="#SVGID_1_"  overflow="visible"/>
	</clipPath>
	<path clip-path="url(#SVGID_2_)" fill="#C9E7E8" d="M123.657,61.828c0,34.147-27.682,61.829-61.828,61.829
		c-34.148,0-61.83-27.682-61.83-61.829C-0.001,27.682,27.681,0,61.829,0C95.976,0,123.657,27.682,123.657,61.828"/>
</g>
<path fill-rule="evenodd" clip-rule="evenodd" fill="#16939A" d="M86.349,81.604c0,0-0.002-3.019,0-3.09
	c-0.006-0.274-0.112-0.85-0.31-1.105c-0.687-0.897-1.573-1.393-3.071-1.542c-0.271-0.054-0.474-0.309-0.474-0.594
	c0-0.208,0.668-0.839,0.663-0.843c0.689-0.715,1.061-1.876,1.061-2.768c0-1.384-1.114-2.51-2.489-2.51
	c-1.374,0-2.488,1.123-2.488,2.507c0,0.896,0.36,2.062,1.058,2.774c0,0,0.666,0.615,0.666,0.824c0,0.302-0.229,0.553-0.522,0.588
	c-1.246,0.131-2.065,0.487-2.701,1.135c0-0.007-0.003-0.013-0.003-0.021c0-0.208,0.668-0.831,0.663-0.836
	c0.69-0.713,1.06-1.872,1.06-2.763c0-1.384-1.113-2.508-2.488-2.508s-2.488,1.124-2.488,2.508c0,0.695,0.22,1.551,0.643,2.233
	c-0.49-0.24-1.078-0.392-1.818-0.466c-0.27-0.054-0.473-0.294-0.473-0.577c0-0.209,0.668-0.832,0.664-0.838
	c0.689-0.713,1.059-1.871,1.059-2.763c0-1.384-1.114-2.507-2.488-2.507s-2.488,1.123-2.488,2.507c0,0.896,0.36,2.062,1.057,2.775
	c0,0,0.666,0.616,0.666,0.825c0,0.301-0.228,0.552-0.521,0.588c-1.107,0.115-1.879,0.408-2.484,0.928
	c0.66-0.717,1.016-1.84,1.016-2.711c0-1.384-1.114-2.507-2.488-2.507c-1.375,0-2.489,1.123-2.489,2.507
	c0,0.368,0.064,0.78,0.184,1.188c-0.372-0.119-0.789-0.205-1.275-0.253c-0.27-0.055-0.474-0.294-0.474-0.579
	c0-0.208,0.668-0.831,0.663-0.836c0.69-0.713,1.06-1.872,1.06-2.763c0-1.384-1.114-2.507-2.488-2.507
	c-1.375,0-2.489,1.123-2.489,2.507c0,0.896,0.36,2.062,1.057,2.775c0,0,0.666,0.615,0.666,0.823c0,0.303-0.227,0.554-0.521,0.588
	c-1.467,0.154-2.72,0.616-3.401,1.504c-0.196,0.256-0.687,0.77-0.687,1.045v0.067c0-0.018,0.136-0.036,0.006-0.049
	c-0.27-0.055-0.286-0.294-0.286-0.579c0-0.208,0.762-0.831,0.758-0.836c0.689-0.713,1.106-1.872,1.106-2.763
	c0-1.384-1.09-2.508-2.465-2.508c-1.374,0-2.476,1.124-2.476,2.508c0,0.896,0.366,2.061,1.063,2.774c0,0,0.669,0.616,0.669,0.824
	c0,0.301-0.226,0.553-0.52,0.588c-0.465,0.049-0.864,0.133-1.223,0.247c-0.686-0.892-1.571-1.354-3.063-1.503
	c-0.27-0.054-0.474-0.294-0.474-0.578c0-0.208,0.668-0.832,0.664-0.836c0.689-0.714,1.059-1.873,1.059-2.764
	c0-1.384-1.114-2.507-2.488-2.507c-1.375,0-2.488,1.123-2.488,2.507c0,0.896,0.36,2.062,1.057,2.775c0,0,0.665,0.616,0.665,0.824
	c0,0.287-0.208,0.527-0.483,0.579c-0.028-0.055-0.057-0.106-0.09-0.15c-0.688-0.898-1.574-1.362-3.072-1.513
	c-0.27-0.054-0.474-0.293-0.474-0.578c0-0.208,0.669-0.832,0.664-0.836c0.69-0.713,1.059-1.872,1.059-2.763
	c0-1.384-1.114-2.508-2.488-2.508s-2.488,1.124-2.488,2.508c0,0.217,0.022,0.451,0.064,0.69c-0.414-0.311-0.925-0.496-1.481-0.496
	c-1.374,0-2.488,1.123-2.488,2.507c0,0.896,0.36,2.062,1.057,2.774c0,0,0.665,0.617,0.665,0.825c0,0.302-0.227,0.552-0.521,0.588
	c-1.467,0.154-2.343,0.616-3.024,1.502c-0.196,0.257-0.303,0.986-0.31,1.262c0.002,0.07,0,2.171,0,2.171H86.349z M42.546,73.379
	c0,0.302-0.228,0.553-0.522,0.589c-0.155,0.016-0.3,0.037-0.442,0.061c0.192-0.491,0.297-1.007,0.308-1.464
	C41.945,72.616,42.546,73.181,42.546,73.379 M67.702,76.728c-0.042,0.071-0.078,0.152-0.109,0.24c0-0.005-0.002-0.009-0.002-0.013
	C67.591,76.901,67.636,76.819,67.702,76.728"/>
<rect x="41.632" y="42.604" fill-rule="evenodd" clip-rule="evenodd" fill="#16939A" width="38" height="21"/>
</svg>
