<?xml version="1.0" encoding="utf-8"?>
<!-- Generator: Adobe Illustrator 16.2.1, SVG Export Plug-In . SVG Version: 6.00 Build 0)  -->
<!DOCTYPE svg PUBLIC "-//W3C//DTD SVG 1.1//EN" "http://www.w3.org/Graphics/SVG/1.1/DTD/svg11.dtd">
<svg version="1.1" id="レイヤー_1" xmlns="http://www.w3.org/2000/svg" xmlns:xlink="http://www.w3.org/1999/xlink" x="0px"
	 y="0px" width="123.657px" height="123.65px" viewBox="0 0 123.657 123.65" enable-background="new 0 0 123.657 123.65"
	 xml:space="preserve">
<g>
	<defs>
		<rect id="SVGID_1_" width="123.657" height="123.65"/>
	</defs>
	<clipPath id="SVGID_2_">
		<use xlink:href="#SVGID_1_"  overflow="visible"/>
	</clipPath>
	<path clip-path="url(#SVGID_2_)" fill="#C9E7E8" d="M123.657,61.825c0,34.147-27.682,61.83-61.828,61.83
		c-34.148,0-61.83-27.683-61.83-61.83c0-34.146,27.682-61.829,61.83-61.829C95.976-0.004,123.657,27.678,123.657,61.825"/>
</g>
<path fill="#16939A" d="M65.692,33.274c0,2.222-1.801,4.021-4.021,4.021c-2.222,0-4.023-1.8-4.023-4.021s1.801-4.022,4.023-4.022
	C63.892,29.251,65.692,31.052,65.692,33.274"/>
<path fill="#16939A" d="M79.815,60.869c0,9.938-8.057,17.994-17.995,17.994c-9.937,0-17.993-8.056-17.993-17.994
	c0-9.938,8.056-17.994,17.993-17.994C71.759,42.875,79.815,50.931,79.815,60.869"/>
<polygon fill="#F2F2F2" points="55.551,50.421 56.531,50.421 56.531,51.39 57.428,51.39 57.428,50.421 58.408,50.421 58.408,53.354 
	57.428,53.354 57.428,52.373 56.531,52.373 56.531,53.354 55.551,53.354 "/>
<polygon fill="#F2F2F2" points="59.697,51.394 58.834,51.394 58.834,50.42 61.54,50.42 61.54,51.394 60.677,51.394 60.677,53.354 
	59.697,53.354 "/>
<polygon fill="#F2F2F2" points="61.97,50.421 62.992,50.421 63.622,51.452 64.249,50.421 65.271,50.421 65.271,53.354 
	64.296,53.354 64.296,51.9 63.622,52.943 63.604,52.943 62.929,51.9 62.929,53.354 61.97,53.354 "/>
<polygon fill="#F2F2F2" points="65.76,50.421 66.741,50.421 66.741,52.384 68.118,52.384 68.118,53.354 65.76,53.354 "/>
<path fill="#F2F2F2" d="M59.291,61.759h2.547v-1.976h-2.723L59.291,61.759z M54.138,54.64l1.402,15.726l6.294,1.748l6.3-1.747
	l1.404-15.727H54.138z M66.933,69.366l-5.095,1.412v-2.001h-0.003l-3.951-1.096l-0.277-3.097h1.937l0.143,1.605l2.148,0.581
	l0.003-0.001v-3.082h-4.311l-0.52-5.833h4.831v-1.929h6.294L66.933,69.366z"/>
<g>
	<defs>
		<rect id="SVGID_3_" x="61.838" y="55.93" width="6.294" height="14.85"/>
	</defs>
	<clipPath id="SVGID_4_">
		<use xlink:href="#SVGID_3_"  overflow="visible"/>
	</clipPath>
	<path clip-path="url(#SVGID_4_)" fill="#F2F2F2" d="M64.212,63.688h-2.374v3.082l2.149-0.581L64.212,63.688z M61.838,55.926v1.929
		h4.831l-0.173,1.929h-4.658v1.975h4.483l-0.53,5.923l-3.953,1.096v2.001l5.095-1.412l1.199-13.439H61.838z"/>
</g>
<g>
	<defs>
		<rect id="SVGID_5_" x="57.007" y="57.85" width="4.831" height="10.93"/>
	</defs>
	<clipPath id="SVGID_6_">
		<use xlink:href="#SVGID_5_"  overflow="visible"/>
	</clipPath>
	<polygon clip-path="url(#SVGID_6_)" fill="#F2F2F2" points="61.838,57.855 57.007,57.855 57.527,63.688 61.838,63.688 
		61.838,61.758 59.291,61.758 59.115,59.784 61.838,59.784 	"/>
	<polygon clip-path="url(#SVGID_6_)" fill="#F2F2F2" points="61.838,66.77 61.835,66.771 59.687,66.191 59.544,64.583 
		57.607,64.583 57.884,67.68 61.835,68.778 61.838,68.777 	"/>
</g>
<rect x="60.632" y="37.6" fill="#16939A" width="2" height="6"/>
<path fill="#16939A" d="M47.054,37.254c1.428,1.702,1.206,4.239-0.496,5.667c-1.702,1.429-4.239,1.206-5.667-0.496
	c-1.428-1.701-1.206-4.238,0.496-5.667C43.089,35.331,45.626,35.553,47.054,37.254"/>
<rect x="48.186" y="41.942" transform="matrix(0.7659 -0.643 0.643 0.7659 -17.8465 42.0243)" fill="#16939A" width="1.192" height="7.153"/>
<path fill="#16939A" d="M35.335,52.285c2.188,0.387,3.649,2.473,3.263,4.66c-0.386,2.188-2.472,3.648-4.66,3.263
	c-2.188-0.386-3.649-2.472-3.263-4.659C31.061,53.36,33.147,51.899,35.335,52.285"/>
<rect x="41.375" y="53.928" transform="matrix(0.1737 -0.9848 0.9848 0.1737 -21.9496 88.8491)" fill="#16939A" width="1.192" height="7.153"/>
<path fill="#16939A" d="M36.019,71.332c1.924-1.11,4.384-0.452,5.495,1.473c1.11,1.924,0.451,4.384-1.473,5.495
	c-1.923,1.11-4.384,0.451-5.494-1.473C33.436,74.903,34.095,72.443,36.019,71.332"/>
<rect x="43.862" y="67.489" transform="matrix(-0.4998 -0.8661 0.8661 -0.4998 5.129 145.0917)" fill="#16939A" width="1.192" height="7.153"/>
<path fill="#16939A" d="M48.786,85.483c0.76-2.088,3.068-3.164,5.156-2.404c2.087,0.76,3.163,3.068,2.404,5.155
	c-0.76,2.088-3.068,3.164-5.156,2.405C49.103,89.879,48.026,87.571,48.786,85.483"/>
<rect x="54.483" y="76.278" transform="matrix(-0.9396 -0.3424 0.3424 -0.9396 79.4864 173.7402)" fill="#16939A" width="1.192" height="7.152"/>
<path fill="#16939A" d="M67.662,88.117c-0.76-2.088,0.317-4.396,2.404-5.156c2.088-0.759,4.396,0.317,5.155,2.405
	c0.76,2.087-0.316,4.395-2.403,5.155C70.73,91.281,68.423,90.205,67.662,88.117"/>
<rect x="68.268" y="76.184" transform="matrix(-0.9396 0.3421 -0.3421 -0.9396 160.8626 131.1467)" fill="#16939A" width="1.193" height="7.153"/>
<path fill="#16939A" d="M83.815,78c-1.924-1.11-2.583-3.57-1.473-5.494s3.572-2.583,5.494-1.473
	c1.924,1.111,2.584,3.571,1.474,5.495C88.199,78.453,85.739,79.112,83.815,78"/>
<rect x="78.769" y="67.25" transform="matrix(-0.5002 0.8659 -0.8659 -0.5002 180.3919 37.5302)" fill="#16939A" width="1.191" height="7.152"/>
<path fill="#16939A" d="M89.687,59.869c-2.188,0.387-4.273-1.075-4.66-3.263c-0.385-2.188,1.076-4.274,3.264-4.66
	c2.188-0.385,4.273,1.075,4.66,3.264C93.336,57.397,91.875,59.483,89.687,59.869"/>
<rect x="81.071" y="53.658" transform="matrix(0.1737 0.9848 -0.9848 0.1737 123.8456 -33.1324)" fill="#16939A" width="1.192" height="7.153"/>
<path fill="#16939A" d="M82.53,42.205c-1.428,1.702-3.965,1.924-5.668,0.496c-1.701-1.428-1.924-3.965-0.496-5.667
	c1.429-1.702,3.966-1.924,5.668-0.496C83.735,37.965,83.958,40.502,82.53,42.205"/>
<rect x="74.096" y="41.765" transform="matrix(0.7659 0.643 -0.643 0.7659 46.6424 -37.4109)" fill="#16939A" width="1.192" height="7.153"/>
</svg>
