<svg xmlns="http://www.w3.org/2000/svg" xmlns:xlink="http://www.w3.org/1999/xlink" width="123.657" height="123.657">
    <defs>
        <rect id="a" width="123.657" height="123.657"/>
    </defs>
    <clipPath id="b">
        <use xlink:href="#a" overflow="visible"/>
    </clipPath>
    <path clip-path="url(#b)" fill="#C9E7E8" d="M123.657 61.828c0 34.147-27.682 61.829-61.828 61.829-34.148 0-61.83-27.682-61.83-61.829 0-34.146 27.682-61.828 61.83-61.828 34.147 0 61.828 27.682 61.828 61.828"/>
    <rect x="73.632" y="43.604" fill-rule="evenodd" clip-rule="evenodd" fill="#16939A" width="16" height="12"/>
    <rect x="73.632" y="57.604" fill-rule="evenodd" clip-rule="evenodd" fill="#16939A" width="9" height="20"/>
    <rect x="63.632" y="68.604" fill-rule="evenodd" clip-rule="evenodd" fill="#16939A" width="19" height="9"/>
    <rect x="63.632" y="78.604" fill-rule="evenodd" clip-rule="evenodd" fill="#16939A" width="10" height="7"/>
    <rect x="52.632" y="68.604" fill-rule="evenodd" clip-rule="evenodd" fill="#16939A" width="9" height="17"/>
    <rect x="52.632" y="86.604" fill-rule="evenodd" clip-rule="evenodd" fill="#16939A" width="1" height="4"/>
    <path fill="#16939A" d="M59.541 53.106l-.054.04.054-.04M55.512 47.54l-.034-.041.034.041M39.667 47.07l-.021-.002.021.002M59.857 53.425l.018-.013-.018.013"/>
    <polyline fill="#16939A" points="45.436,40.252 45.425,40.266 45.436,40.252"/>
    <path fill="#16939A" d="M45.461 40.224l-.025.028.025-.028"/>
    <path fill="#16939A" d="M63.562 39.604h.027-.027zM62.045 55.68l-.004.125.142-.083-.138-.042zM55.534 47.639h.042v-.097h-.042l-.021-.002.021.099"/>
    <path fill="#16939A" d="M62.183 55.867zM70.267 61.523l-.024.024.095.018-.071-.042M70.466 61.658l.037-.037-.037.037M69.767 61.189l-.002.032.002-.032M70.128 61.426h-.027v.003l.027-.003M63.298 56.937l.054-.019-.054.019"/>
    <polyline fill="#16939A" points="62.041,55.805 62.038,55.808 62.041,55.805"/>
    <path fill="#16939A" d="M62.852 56.515l-.018.026.018-.026"/>
    <polygon fill="#16939A" points="57.412,56.32 57.537,56.181 57.342,56.25"/>
    <path fill="#16939A" d="M51.808 56.208l.026-.026-.026.026"/>
    <path fill="#16939A" d="M71.297 62.023c-.237-.014-.571-.361-.765-.292l-.07-.042.003-.031-.003.004c-.098.015-.167-.027-.236-.098l-.218-.017-.376-.025v-.094l.137-.351c-.027-.028.15.525.164-.475h-.068l-.1.242-.04.225c-.098 0-.181-.017-.223-.072-.111-.057-.278.103-.278-.12l-.097.052c-.14-.167-.404-.239-.571-.378l-.027.033c-.069 0-.168-.012-.168-.095l-.027.029-.139-.124-.14.056-.028-.167c-.334-.042-.5-.361-.765-.501l-.042.07c-.083-.014-.193-.195-.167-.167-.208-.153-.459-.292-.626-.459-.055-.028-.307-.056-.307-.237-.18-.11-.332-.222-.459-.264l-.041.028c-.111-.084-.223-.224-.293-.334l-.041.027c-.041-.084-.25-.069-.236-.223l-.027.028c-.084-.057-.168-.07-.236-.167l.041-.028c-.125.07-.194-.153-.305-.167l.026-.041c-.222-.014-.444-.306-.626-.432l-.02-.069-.271.042v-.167c0-.056-.202-.181-.327-.279l.004-.01c-.088.003-.115-.157-.257-.157-.047-.069-.216-.181-.215-.237l-.081.016c-.125-.278-.599-.432-.543-.668l-.098.056c-.123-.043-.118-.094-.078-.137l-.02.011-.097-.097c-.209-.139-.265-.403-.501-.473-.195-.237-.445-.474-.71-.641l.042-.027-.375-.432.041-.042-.069-.055-.028.03c-.181-.181-.237-.361-.445-.473-.097-.024-.057-.143-.018-.183l-.08.057-.069-.097c-.139 0-.139-.167-.223-.237l.002-.001c-.051.009-.1-.055-.141-.096-.292-.236-.097-.473-.473-.641-.028-.097-.264-.11-.125-.264-.376-.362-.765-.779-1.169-1.238-.376-.39-.737-.891-1.099-1.336l-.904-1.669c.097-.181-.334-.209-.098-.403.293-.098.446-.307.724-.432.028-.152.236-.098.334-.194-.014-.265.645-.182.729-.334l.367.027v-.069c0-.041-.27-.027-.228-.027.083-.167.046-.334.199-.474l-.04.042c.098-.111.043-.25.224-.278l-.118-.028c0-.139.157-.068.213-.139.027-.07.217-.097.161-.223.223-.027.234-.361.499-.236.222-.014.249-.223.374-.334l.027.027.07-.069c-.056.028-.098-.028-.14-.056.084-.069-.148-.069-.079.027.042-.013-.162-.097-.162-.027v-.069c1-.224.886-.278.955-.64.209.027.478-.349.548-.168-.014-.056.099-.097.141-.125.417.474.523-.348.968-.069.056.084.157.223.254.265.028-.07.498-.167.414-.237.125-.125-.28-.068.72-.097v.028l.096-.057c.167.015.243.098.41.028.348-.098.504-.348.615-.696.306-.139.148-.515.412-.709.195-.056.269.111.449.098.223.014.392-.111.559-.265.139-.236-.131-.486-.047-.668-.418-.264-.838-.611-1.033-1.127-.209-.181-.445-.281-.572-.519l.042-.073h-.043c-.098 0-.418-.052-.598-.163-.376-.167-.64-.047-1.044.023-.069-.251-.417.122-.431-.185-.32-.152-.265-.578-.571-.801-.236.083-.334-.248-.5-.289-.404-.57-1.252-.443-1.865-.472-.111.098-.389.001-.403.196l-.793.402-.042-.026-.236.292c-.098.084-.167.223-.334.306l.042.028c0 .069-.014.125-.07.167 0 .348-.626.264-.668.611-.097-.055-.292-.068-.473 0-.125-.139-.403 0-.292-.277l-.097.139c-.153.014-.293-.139-.334-.237-.139-.026-.293-.083-.404-.068-.167.014-.417.014-.542-.098-.154.153-.47-.027-.665.14-.459-.14-1.568.402-1.568.167v-.042c0 .083-.282.027-.296-.167l-.565-.391-.248-.306c-.32.042-.576-.347-.771-.264l-.024-.098c-.361.056-.554-.069-.86.098l-.138-.042-.431.209c-.389-.057-.681.125-.876.431-.139.028-.237.209-.362.167-.083.167-.25 0-.473.098.042.181-.181.208-.264.307-.32-.167-.459.444-.765.235.042.153.097.474-.07.626l-.069-.027.278-.028c-.092.093-.066.166-.066.154v.11c0 .056-.273.182-.37.223l-.262-.098c-.056.057-.194.015-.208.098l-.062-.027.011.167c-.097.041-.078.194-.203.167l-.074.403c-.264.251-.628.501-.837.793-.306.097-.418.417-.738.444-.084.278-.691.516-.9.696l-.357-.028v.057c0 .097-.061.36-.242.542l.137-.041c-.376.403-.683.681-1.087 1.043v-.042c-.084.111-.202.223-.314.167-.264.376-.532.557-.657.946l.102-.042c.39.111-.178.293.114.474.098.055.266-.056.363-.042.042.069.154.111.14.208l-.473.293.028.069-.076.07c.158.007.291-.19.41-.07l-.097.042.167.027c-.042.069-.028.223-.167.194l.042.042c-.195.098-.348.084-.543.07.348.097.724.208 1.099.125-.028.181-.32.223-.264.473-.223.07-.417.097-.626 0 .209.181.584-.097.668.237 0 .055-.056.068-.112.055l-.028.237-.139-.099c-.167.028-.222.251-.194.362-.223.125-.028.404-.362.334l.195.07c-.126.18.264.36.027.473-.014.125-.139.32-.222.431-.014.056.028.14-.042.167.264.292.584.501.737.904.195.195.348.459.529.696-.028.208.278.278.306.473.014.125.153.306-.028.361l.098.042c-.098.07-.153.277-.376.195l.07.069-.125.125-.14-.028c.014.111-.111.153-.167.236-.069.223-.361.237-.473.433l.07.027c-.195.25-.431.333-.57.57l-.028-.028c-.098.084-.112.209-.306.167-.014.292-.348.236-.459.528l-.07-.027.028.027-.125.14c-.112-.069-.223.14-.265.125-.125.07-.25.223-.403.278-.376.459-.946.682-1.335 1.099-.557.404-1.253.584-1.712 1.071-.139.167-.514.39-.362.626.07.293-.236.348-.333.571-.042.167-.084.319.028.431l.375-.069-.042-.027.07-.099c.139.153.25-.125.403-.139l-.097-.028.57-.306-.041-.027c.069-.14.292 0 .264-.209.334-.069.612-.39.779-.598.445-.223.751-.654 1.169-1.002l.389-.264-.028-.028.139-.112c.293-.208.585-.431.835-.765l.028.042.236-.236-.347-.042c.042-.056-.138-.069-.138-.056v-.111c0-.069.444-.098.514-.125l.111-.042c.042-.125.257-.223.354-.223l.066.028.284-.265-.018-.042.199-.222c.237-.265.448-.571.74-.668l-.027-.042c.042-.069.056-.181.168-.195l-.042-.041.098-.098.111.042c-.014-.083.084-.153.126-.237.125-.18.292-.222.431-.166l.57.069.042-.111.056.042c.139-.069.431.027.403-.237.543.015.724-.653 1.099-.932l-.028-.042.432-.96.039.059c.006-.072.561-.223.623-.295.056-.014.649.027.649.069v-.069c0-.014-.482-.042-.454-.027l-.359-.042c.083-.14.189-.125.175-.265.056-.014.06-.125.129-.027l.162-.167.026.027-.05-.098-.176-.139c.431.069.547-.487.547-.432v.098c1-.027.256-.153.381-.236l.42-.097c0-.154.203.026.217-.07l.011-.028.144-.139c-.105-.118.146-.248.291-.181-.153-.372.422-.215.461-.349l-.025-.027c.195-.265.377.113.599.059.042.111.238.169.169.169h.069c.056 0 .223.22.167.373-.042.028-.083.117-.139.089.028.084-.042.143-.07.185-.153.042-.347.301-.528.287-.265.152-.571.394-.807.463-.251.056-.612.141-.793.267-.056 0-.111.042-.139-.027l-.07.07c-.069-.014-.111-.083-.167-.139.028.139.125.306-.028.403l.028.027-.167.112c-.097.334-.236.723-.125 1.057-.209.334-.111.821-.501 1.044.028.055.07.125.056.194-.265.098-.181.319-.265.501.418-.153.028.251.209.431h.39c.083.209-.139.362-.056.613-.626.723-1.433 1.265-2.212 1.836-.014.097-.111.125-.195.125-.181.209-.445.278-.64.334-.236.014-.334.125-.626.069-.181.126-.069.236-.278.334-.195-.042-.278.209-.459.194-.014.153-.195.125-.264.209l.027.265-.069.027c-.07.14.069.25-.126.307 0 .042-.041.11.028.139-.069.251-.264.07-.334.056.07.041.07.397.028.438.098.125.098.717.139.717h-.027c.208 0 .125.09.334.229.18.306.083.685.5.823l.39.476c.028-.015.097-.159.139-.076l-.028.025c.237.042.543-.078.724-.176.167.028.361-.088.542-.144.153-.333.654-.071.863-.434.083-.056-.07-.195.097-.168.084.043.239.084.239.125.112.041.476-.111.476-.056v-.112l-.17-.027-.091.069c.111-.042.204-.027.274-.167l-.058-.042.055-.055.09.027-.032.098.123.042-.028.027c.083.014-.043-.14.096-.194l.028.027-.028.069.07.07.069-.237-.005.028c.181-.195.607-.292.607-.292v.028c0-.057.172-.224.325-.195.014.139.344.306.107.431.153.612-.51.516-.802.863-.362.056-.791.403-1.152.542-.084.125.17-.139.156.125-.014-.041.366-.027.366-.027v.098c-1 .056-.928.306-1.192.404l-.297-.07c-.111.195-.462.376-.712.402-.125.252-.641.391-.892.6-.292.32-.738.403-.988.737-.25.209-.265.277-.487.528-.112.056-.16-.084-.244-.126-.125-.264-.379-.292-.574-.277.056.056.165.042.165.139-.083.084-.293-.027-.334.098h-.39l-.14.474c-.097.068-.056.194.028.235-.125.14-.25.224-.431.334.028.057.125.14 0 .195.139.237.013.473.097.696.056-.042.125-.028.167.041.125.027.125-.041.209-.098.111.195.375.167.57.265l-.07.069c.084 0 .223-.027.237.098.083-.083.209.292.334.098l.097.167c.376-.07.362.654.696.695.014.152.209.474.236.474h.098c.041 0 .125-.181.139-.098l.028-.174.069.003.028-.061.111.108c.153-.028.404-.064.529.089.223-.041.417.219.598.106l.209.097.028-.043c.153-.015.292.068.361.167l1.282-.168c.334-.098.435-.474 1.435-.459v.068c0-.055-.6-.11-.531-.139.028 0-.216-.014-.188.028.083 0-.06.139-.046.069.028-.098.096-.056.165 0l-.008-.069.052.069.019-.027.065.068-.03.057.166.139c.069.125.18-.097.236.07.18-.112.347.181.556.264.055.181.055.348 0 .501.139.264-.223.097-.223.18-.042.224.25.153.362.153h.097c.167 0 .376.042.57.153.195.069.46-.09.64.133.098-.084.362.233.362-.059.153.014.306.074.431.157l.07-.088c.056-.026.097.033.139.062.028-.153-.069-.234.056-.36.041.126.167.127.167.266.069.015.153-.026.208.042.07-.055.181.085.265-.04l-.028-.028c0-.083-.042-.194.056-.236.111-.098.125.118.208.16.125-.056.028-.161.07-.161h.028l.069-.034c-.042.098.028.24.07.269.083-.084-.042-.117-.042-.2.09-.026.073-.282.202-.208l-.105-.081c-.083-.07.028-.144.042-.213.139-.139.139.123.237.137l.097-.098.028.026-.028.041c0 .07.014.153.097.167l.028-.167c.459.167-.069-.25.237-.402.042.097.042.222.167.264l.069-.139.07.042c-.01-.142.046-.225.15-.255-.08-.029-.152-.094-.192-.149l.139-.139.07.167c.125.068.083-.098.194-.098.376.027.084-.376.167-.528-.055-.083-.139-.209-.069-.307l.069.041c.056-.026-.153-.125-.027-.208-.056-.042-.084-.097-.07-.167l.07-.027-.098-.14c-.083-.306.265-.11.265-.431-.07-.097 0-.334-.167-.306.069.041-.014.097-.042.139l-.028-.028c.031-.062-.021-.138-.034-.163l-.063.024c-.14-.07-.056-.153-.07-.265.012-.083.105-.125.167-.093-.041-.022-.102-.04-.07-.115l.07-.028c.028-.083.028-.195.097-.264l-.027.027c-.014-.236.014-.418.097-.668l.07.098c.097-.195-.056-.441-.042-.636-.265-.251.083-.886-.028-.886h.028c-.07 0-.139-1.16-.167-1.562.167-.167.222.207.376.179l.027.089c.223-.111.265.205.473.246.251-.014.501.186.766.297.57.167.946.281 1.46.545.32.182.64.351.974.461l.237.07.028-.028c.333.153.807.07 1.168.335.112 0 .167-.014.237-.069.194.139.431 0 .64 0 .765-.182 1.28-.918 1.391-1.601.223-.389-.251-.682-.223-1.07l-.041-.098c-.265-.334-.668-.474-1.03-.64l-.042.026-.292-.193c-.264-.07-.473-.293-.709-.433l.042-.041c-.168.083-.404.015-.501-.056l-.042.028c-.084-.153-.209.027-.334.027-.084.111-.139-.069-.167-.126-.278.015-.501-.167-.765-.097-.153-.181-.376.07-.459-.209-.209.153-.235-.111-.402-.167-.028-.389-.443.07-.443-.125v-.042l-.197.098c-.028.041-.147.125-.175.041-.083.433-.47.585-.734.863-.07 0-.18-.014-.18-.097-.013.083.022.194-.033.264-.153 0-.226.25-.337.334.014.125-.016.223-.099.306l.027.028-.07.097-.081-.073c-.044.056-.243.017-.212.186l-.278.098-.028-.098-.097-.042c-.084-.39-.223-.724-.167-1.127l-.07-.07c.139-.139-.125-.208-.028-.375-.125-.125-.041-.418-.208-.557.055-.403-.042-.751-.265-1.043.112-.167.306-.334.432-.459l.041.027.223-.194c.084.055-.153.222-.028.167l.07-.07.097.167c-.043.076-.17.143-.218.129l.023.038.098-.042.027.14.098-.14c-.042-.139.233-.18.205-.36.084-.057.164-.195.164-.099v-.208s.198-.251.268-.098l.008.042c.084.097-.044.195-.058.292l.089.042c.097-.112-.018-.209-.032-.306.125.042.095-.099.234-.14l.166-.126.028-.295c0 .097-.168-.087-.098-.087h.097c.237 0 .251-.038.265-.205l.111.189.055-.059.07.082.097-.119c.084.057.098.149.14.22l.069-.065-.097-.039c-.112-.139.153-.138.194-.165l-.027-.027.097-.139-.042-.027c.042-.167.195.042.167 0 .195.027.306-.32.473-.14l.07-.167.056.042c-.046.034-.027.166-.026.194.15-.03-.029-.195.027-.292.208-.153.599-.111.599-.167v-.111c0-.055.402-.139.43.042l.111-.069c.056-.015.132-.01.16.032l-.021-.01h.097c.292 0-.042.357.069.371.237-.014.501.175.724.37-.042.056-.112-.741-.167.259h.07l.041-.017c.167.041.404.179.431.262.07-.014.223-.276.334-.29l.098.045h.097l.209.087.222.363.07.133c.028.153.028.241.139.366.125-.098.209.127.334.155l-.042.036c.112.193.32-.085.446.068l-.042-.209h.097c.042 0 .181.282.139.408.111.014.111.162.195.259l.111-.009c.056.041.014.155.028.225.084-.014.167-.144.237.01l-.07.107h.097c.042 0 .14.02.098.103.348.084.543.351.807.531l.069-.075c.098.293.543.205.738.525.181.098.403.152.528.305l.028-.043c.167.209.39.292.571.445.208-.042.181.264.403.195.306.361.723.501 1.099.834.098-.041.154.152.238.027 1.223.988 2.754 1.739 4.2 2.449l.07.098c.208 0 .431.167.668.194l.139.042.097.125c.099-.098.195.028.265.098.167-.098.278.125.432.139.25-.055.14-.222.236-.361 0-.027-.097-.236-.195-.306l-.139-.306c.153.026.167-.167.306-.057 0-.084 0-.236.167-.167l.265.195c.209-.014.39.32.641.236l-.042-.042.097-.194c.168.041.223.18.334.264.195.015.209-.167.377-.194.108-.337-.336-.433-.476-.629m-26.434-21.271l.028.069-.097.042.069-.111m.529 7.12l-.028-.097c-.181.266-.32.509-.57.662-.209.487-.64.748-.905 1.152-.181.014-.041-.12-.139-.203-.222-.251-.598-.464-.89-.617.042-.195-.153-.21-.209-.364l-.028.027c-.111-.222-.487-.112-.542-.432l-.028.042-.404-.07c-.055.112-.153.07-.264.07l-.069-.07c0-.042.055-.069.097-.069.125-.014.292-.111.445-.168l-.042-.026c.418-.14.877-.182 1.141-.612.237-.028.585-.223.793-.46.139-.055.348-.264.501-.139.084-.027.195.014.237-.098.459-.097.083.432.473.362.069 0 .097.274.167.177.111.139.166.664.333.664h.07c0 .001 0 .171-.139.269m2.476-3.503c-.097-.111-.334-.139-.278-.334.195-.084.376-.277.612-.166-.097.139-.292.306-.334.5m3.437 21.398c-.014.055.027.139-.042.167l-.098-.264c.084-.042.098.055.14.097m-5.774-9.085l.056-.125.111.097-.167.028m.696 11.56v-.049c-.015-.054-.078-.086 0-.285.055-.014.083.042.069.099.046.092-.05.118-.069.187v.048m-.595-3.214v1.575h.497c.028 0 .028-.307 0-.377-.083.042-.069.048-.069.118l-.835-.234c-.237.167-.32-.172-.529-.255-.111-.195-.083-.581-.278-.747l.139-.27-.069-.072.069-.098c-.069-.167.237-.391.334-.6.167-.139.431-.292.195-.543.028-.235.487-.473.737-.668-.014-.139 0-.379.167-.364-.042.418.209 1.109.167 1.109h-.525v.521c0-.015.283-.042.256-.028-.126.112.308.237.113.334-.027.084.12.265.217.167l-.23-.028c.042.127-.356.267-.356.46m1.096-.667l-.028.069c-.042-.097-.209-.222-.112-.362l.14-.139c.347.362.18.905.166 1.336-.013-.098-.083-.237-.194-.362-.181-.222.208-.361.028-.542m.212 1.836v.042c0-.11-.044-.277-.155-.376l-.133.14c0-.153-.206-.333.003-.432l.076-.233.024-.072-.023.072.162.024c-.097.042-.083.182-.139.266.028.068.098.026.139.042l.07-.07c.056.097-.151.292.016.362-.125.041-.04.167-.04.235m1.026-9.779l-.042-.09-.028.078h-.097c-.042 0-.08.006-.08-.147.167-.013.069-.211.282-.185v.006c-.213-.028-.07-.068-.042-.138l.042.141c0 .102.018.227.08.307l-.115.028m.932-.766l.028.125c-.084-.027-.139.056-.195.111l.028.056c-.028.041-.195-.056-.195.069l-.07.07c.07-.07-.014-.099-.027-.167l-.14.027.042.041c.028.042-.042.042-.042-.041-.125.027 0 .39-.236.208l-.028-.068c.139.041.07-.126.139-.167l-.042-.028c.098-.014.209-.25.265-.07.083.028.111-.208.278-.166-.028.056.028.098.056.125.042.015.083-.027.069-.056-.041-.111.056-.097.098-.167l.041.028-.069.07zm.501 12.814l-.07-.126.097.098-.027.028zm.974-13.331h-.07l-.042-.068-.125.049c-.097-.056.014-.128.028-.197l.042.026.222-.265.209.081c-.014.153-.237.162-.264.374m.862.114l-.068-.003-.002.003-.023-.021-.046-.049.042-.027.004.076.025.019.068-.137v.139zm2.031-2.073l-.015-.093-.013-.074.013.074.085.023-.07.07zm.366-.668l-.266-.069-.328.403c.111.14-.102.152-.13.236l-.154.028-.036-.098c-.126.098-.088.167-.046.265l.095.041-.056.028.097.098c.041-.139.194-.139.292-.223l.115.022.024.006-.209-.005c-.054.002-.398.073-.398.145v.056l.014.111-.014.056v.069c0-.097-.121.014-.232 0-.042-.153.461-.349.071-.431-.014.082-.096.152-.235.194-.028.069-.264.153-.139.278l-.125.028c.028.027.098.097.126.027.027.069-.028.098-.056.14.056.097.097-.042.167-.028l.056-.209c.069.181-.122.306-.317.376-.222-.084-.316.222-.316.264v-.042s-.226-.014-.282.112l-.078.025c-.042.014-.037.191-.037.191h-.07c-.027 0 .042-.206.07-.234l.028-.074c-.056-.015-.111-.149-.167-.053l-.056-.178-.667.383-.07-.058-.306.332-.195.194.097.139.028-.042.07.097c-.125.057-.195.083-.292.209l.028.028c-.098.166-.153.055-.237.166-.125-.181-.25.056-.403.042-.056-.264.514-.139.236-.445.056.015.153-.014.209-.098l-.042-.097-.125.097.125-.264.097-.028c-.013-.069-.083-.027-.125-.041-.097.194-.32.278-.403.5-.362.195-.884.307-1.232.543l-.201.054v.043-.215h.236l.03.034-.002.068.002.034-.002-.078.139-.089c-.055-.056-.139-.009-.208-.022-.028.083-.126.141-.195.169l-.098-.069-.111.099v.194l-.125.042-.042-.068-.223.167c-.013.055.042-.679-.139-.471.042.32-.473-.01-.403-.01h.07c-.237 1-.362.553-.599.636l.098.062c-.07-.167-.195.051-.306.051-.056.07-.348-.027-.39.196l.028.056h-.07l-.069-.052c-.223.112-.459.239-.696.336-.167-.139-.278.141-.473.043.251-.014.251-.326.501-.382.431-.403.723-.775 1.141-1.137l.362-.263c.013.098.111.196.208.196.167.069.008-.278.133-.07.181-.125.203-.625.203-.667v-.055c1 .013.243-.028.257-.042l.002-.07c.265 0 .301-.514.621-.334.056-.055.164-.097.122-.193.696.026.987-.863 1.655-.933.083-.069.229-.153.368-.167.181.139.351-.152.545-.167.293.041.559-.209.892-.167l.14-.14.098.042c.07-.153.126-.208.265-.278l.042.042c.139-.292.57.028.528-.306-.069.014-.139-.035-.167-.105l-.028-.132h-.069l.028-.104-.098-.088.209-.084.056.061.041-.045.028.04.039-.04.003-.004-.003.003.059.094c.055.014.111-.027.139.042l.167.125.097-.055.042.026-.07.028.028.07.097-.07.112.139.028-.097c-.098-.056-.167-.292-.306-.167-.028-.292.25 0 .306-.209.111.056.013.126.027.139l-.055.057c-.014.055.041.139.055.139h-.3l.136.042.228.125.024.042.096.069-.085.056.201.042.031.097-.096-.027c-.056.027-.023.067.008.096l.035.259c0 .062-.007.2-.034.2h-.025c-.01 0 .481-.468-.519-.457v.167c1 .083 1-.069 1 .027v.168zm1.04-7.277c-.251.084-.557.209-.64.501-.126 0-.014-.152-.098-.195-.306-.11-.487.182-.793.099l-.069.069c-.154-.14-.209-.459-.473-.334-.07-.056-.167.056-.223.126.042.375-.32.36-.501.569l-.376.098-.097.422-.097.018h-.07c.167-1 .904-.477.696-1.117.208-.014.334-.488.542-.434.042-.013.028-.119.028-.161.334.098.612-.323.877-.323.32-.111.82.192 1.057-.156.237.015.431-.188.543-.41.139-.125.347-.254.5-.436l.008.193.146-.059v-.11c1 .125.577.083.828-.099.18-.167.065-.375.107-.569l-.064-.099-.025.042-.333-.444.223-.265c-.083-.152.14-.223.209-.334l.167-.432.126-.528.041-.111c.376.223.654.737 1.169.835.042.042.042.152.125.111l.139.098-.167.097.028.028-.125.139.028.028c-.139.014-.125.376-.265.473-.083.111-.306.111-.361.306.014.057-.028.099-.07.125l.028.042c-.042.099-.139.307-.334.362-.042.195-.209.501-.431.57.111.084-.056.153-.07.237-.125-.057-.097.068-.125.097-.097.39-.487.473-.57.862-.139.084-.251.39-.473.307-.167-.196-.543-.279-.765-.238m5.008 8.655l-.07-.042.098.042-.056.055.028-.055m.288.388v-.062c-.108-.06-.215-.085-.215-.062v-.07c0 .042.107.027.215.027v.104l.027.035-.027.028zm2.244 3.41l-.056-.028h.056v.028zm.543-.432l.105-.098c-.055-.097-.228-.11-.228-.097v-.454h-.142c-.069 0 .014.171-.111.129l-.028.155-.069-.033-.028.06c-.126-.265-.376-.359-.599-.582-.194-.167-.403-.396-.542-.618-.153-.057-.32-.218-.362-.371l.07-.026c-.223-.027-.348-.322-.445-.517l.069-.196h-.125l.028.1-.098.044.028-.007-.097-.107-.028.037-.167-.33c.097.069.125.104.292.091-.083.194.181.173.237.173h.097c.125 0 .084.204.139.357.292.069.362.464.598.533-.083.236.487.212.334.462l.028-.026c.39.25.515.365.904.587.014.153.279.087.265.087h.139l-.07.282c.07.223.223.072.306.253l.098-.013-.028.069c.139.028.111.153.097.279l-.069.035c.055.027.083.17.195.073.069.041.139.195.208.141.334.347.752.473 1.071.891.361-.042.326.459.688.501-.014.182.117.141.117.237v.07s-.118-.015-.132.027l.132.069v-.097l.307.097c.028.028-.062-.042-.033.07l.004.026c.125.112.369-.097.397 0-.153.209.179.182.138.376.194.224.297-.056.479.237l.128.125c-.042-.014-.082-.098-.166-.07.042-.125-.11-.055-.166-.125l-.556-.334-.111-.167c-.126.015-.432-.181-.598-.306l.041-.069c-.153 0-.32-.194-.473-.293l.139-.097-.139-.042.027-.028c-.125-.18-.348.237-.432-.097l-.027.028c-.083-.224-.473-.182-.402-.501l-.029.139c-.291-.125-.375-.445-.709-.501l-.696-.638m.097.766c.07-.084.111.027.167.069l-.07.069-.097-.138zm.431.542l-.097-.07.028-.041.069.041v.07zm6.349 3.839c0-.042-.329-.237-.51-.237l-.088.07c-.252-.152-.588-.209-.797-.376-.11-.061-.352-.102-.457-.197l-.148-.037v-.001l.098-.006.055.007.062.037.07.003.035-.041-.025-.028.238-.028c-.069-.083-.264-.111-.278-.236-.055-.069-.166-.152-.264-.069l.043-.028c-.14 0-.153.014-.237-.139l-.042.027-.055-.056-.07.028c.042-.057-.083-.182-.167-.098l.028-.041c-.57-.278-1.142-.669-1.739-.863-.068-.236-.391-.208-.501-.432-.375-.152-.694-.501-.944-.765-.113.056-.307-.097-.307-.139v-.07l.014.042v-.069l-.035-.069.021.097v-.097l-.035-.028c-.098-.042-.206-.139-.289-.209-.139 0-.193.042-.291 0l.154-.027-.118-.14c.153-.027.247.134.4.203 0 .042-.003.217.039.217h.097c.084 0 .236.062.334.117.459.292.738.476 1.127.824.32-.028.473.369.738.536.207.152.402.522.598.522h.139l.069-.006c.279-.014.515.24.793.309.028.141.237.128.306.211l.07.084.028-.074c.222.097.348.19.542.33l.027-.029c.043.111.266.109.168.234.069.099.098-.041.166-.041l.362.235-.056.042.098.057c-.181-.112-.367-.182-.533-.224.25.266 1.066.391 1.066.599v.069zM51.736 60.118l.017.093-.017-.093M51.017 56.949l-.019-.031.019.031M57.97 56.751M51.764 56.223v.097h.042l.002-.11-.044.013"/>
    <path fill="#16939A" d="M54.006 55.604h-.003.003zM47.131 48.766l-.025-.014.025.056v-.042zM49.865 68.414l.034.023-.034-.023M44.362 50.908l-.002-.04.002.04M51.138 67.742l-.184.01c.06.022.124.026.184-.01M51.243 65.081l.02.018-.02-.018M51.201 65.409l.007-.004-.007.004"/>
    <polyline fill="#16939A" points="51.235,65.076 51.243,65.081 51.235,65.076"/>
    <path fill="#16939A" d="M61.711 43.924l.111.111c.098.014.126-.097.195-.139-.097 0-.25-.208-.306.028"/>
    <polygon fill="#16939A" points="45.865,49.74 45.893,49.907 45.893,49.81"/>
    <path fill="#16939A" d="M52.932 51.771v.111l.111-.041-.111-.07zM52.237 53.385l.028-.139c-.028.027-.111.097-.028.139M51.597 53.886l.07-.07v.237c.083-.042-.028-.182.097-.167.028-.154-.195-.154-.167 0"/>
    <polygon fill="#16939A" points="51.541,53.913 51.541,53.844 51.402,53.941"/>
    <polygon fill="#16939A" points="50.804,54.108 50.804,53.983 50.734,54.052"/>
    <path fill="#16939A" d="M51.333 54.275l-.018-.019.018.019"/>
    <polygon fill="#16939A" points="51.314,54.257 51.311,54.241 51.305,54.247"/>
    <path fill="#16939A" d="M51.333 54.108l-.022.133.119-.133.07.042v-.07l-.167.028M50.136 54.387l.028.027.069-.07c-.055-.028-.153.07-.097.043M47.131 54.581h-.07l.028.139c.028-.042.112-.111.042-.139"/>
    <polygon fill="#16939A" points="48.661,55.221 48.661,55.082 48.633,55.054"/>
    <path fill="#16939A" d="M55.701 55.109l.111.209.167-.069-.111.027-.167-.167zM48.701 55.805l-.068.111.098-.069-.03-.042M48.703 55.75l-.002.056.002-.056M46.63 56.111c.042 0 .111.042.125-.028-.028-.068-.097.015-.125.028M46.378 56.27l-.013.078.056-.027-.043-.051M46.378 56.27l.015-.089-.015.089M62.045 56.584l-.025-.059.025.059M61.919 56.445l.101.08c-.008-.054 0-.11-.101-.08"/>
    <path fill="#16939A" d="M50.96 56.604h.01-.01zM50.929 56.875c-.153 0-.25.23-.167.342l.07-.08c.09.104.085-.081.128-.081h-.087l.056-.181M62.518 56.918l.028.139.069-.042c.042-.083-.055-.069-.097-.097"/>
    <rect x="50.97" y="57.225" fill="#16939A" width=".028" height=".125"/>
    <polygon fill="#16939A" points="63.617,57.753 63.52,57.656 63.617,57.781"/>
    <path fill="#16939A" d="M64.048 58.156c-.097-.042-.069-.362-.264-.237.07.084.125.209.264.237M64.382 58.351v-.027l-.097-.069c-.028.068.041.124.097.096M51.541 61.356l.028.097.028-.055-.056-.042"/>
    <path fill="#16939A" d="M68.501 61.69l-.209-.07.139.14.07-.07zM45.823 63.067l-.07.125c.112.014.07-.153.07-.125"/>
    <path fill="#16939A" d="M45.865 63.568c.028.056.014.084-.042.125.042-.028.084-.069.07-.125h-.028zM45.962 64.5c-.084.057 0 .057.028.098l-.028-.098"/>
    <path fill="#16939A" d="M46.032 65.627l.028.036v-.063l-.028.027zM46.06 65.794l.028-.027-.028-.104v.131z"/>
    <polygon fill="#16939A" points="46.087,66.003 46.087,65.864 46.031,65.933"/>
    <path fill="#16939A" d="M49.988 68.771v-.404c0 .153-.028.224-.069.377l.069.027"/>
</svg>
