<?xml version="1.0" encoding="utf-8"?>
<!-- Generator: Adobe Illustrator 16.2.1, SVG Export Plug-In . SVG Version: 6.00 Build 0)  -->
<!DOCTYPE svg PUBLIC "-//W3C//DTD SVG 1.1//EN" "http://www.w3.org/Graphics/SVG/1.1/DTD/svg11.dtd">
<svg version="1.1" id="レイヤー_1" xmlns="http://www.w3.org/2000/svg" xmlns:xlink="http://www.w3.org/1999/xlink" x="0px"
	 y="0px" width="219px" height="71.414px" viewBox="0 0 219 71.414" enable-background="new 0 0 219 71.414" xml:space="preserve">
<g>
	<g id="logo">
		<g id="kabuki">
			<path d="M76.141,44.324c2.035-5.648,3.743-9.568,3.657-10.248c-0.002-0.804-0.338-1.495-0.881-1.943
				c0.055-0.044,0.106-0.092,0.155-0.145c1.106-1.192,0.755-3.103,0.215-4.577c0.154-0.65,0.117-1.151,0.077-1.677
				c-0.022-0.3-0.047-0.641-0.047-1.105c0-0.117-0.006-0.229-0.018-0.343c-0.005-0.122-0.025-0.243-0.059-0.36
				c-0.136-0.605-0.505-1.344-1.443-1.836c0.085-0.235,0.153-0.459,0.206-0.667c0.215-0.507,0.336-0.866,0.402-1.187
				c0.229-1.129-0.002-2.178-0.638-2.934c-0.12-0.352-0.355-0.8-0.811-1.226c-0.286-0.632-0.512-1.156-0.659-1.522
				c-0.238-0.593-0.912-0.882-1.507-0.645c-0.593,0.238-0.882,0.912-0.645,1.506c0.179,0.448,0.451,1.071,0.806,1.852
				c0.077,0.168,0.194,0.316,0.339,0.432c0.253,0.199,0.29,0.367,0.293,0.386c0.044,0.249,0.168,0.477,0.354,0.648
				c0.218,0.202,0.29,0.582,0.197,1.041c-0.035,0.17-0.129,0.43-0.297,0.822c-0.027,0.063-0.049,0.129-0.065,0.197
				c-0.06,0.26-0.167,0.576-0.319,0.939c-0.102,0.244-0.118,0.516-0.044,0.769l0.211,0.729c0.11,0.379,0.406,0.677,0.786,0.79
				c0.521,0.152,0.555,0.321,0.577,0.431c0.002,0.009,0.004,0.018,0.005,0.027c0.001,0.009,0.002,0.02,0.003,0.03
				c0.006,0.041,0.008,0.081,0.008,0.123c0,0.55,0.03,0.97,0.054,1.277c0.039,0.521,0.05,0.748-0.061,1.11
				c-0.052,0.174-0.063,0.357-0.033,0.535c-0.005,0.159,0.021,0.316,0.08,0.466c0.371,0.951,0.47,1.676,0.433,2.078
				c-0.233-0.053-0.055,0.742-0.108,0.714c-0.341-0.18-0.08-0.001-0.835-0.057c-0.494-0.037-0.609-0.05-0.898,0.124
				c-0.879,0.525-1.679,3.823-0.837,3.253c0.789-0.536,2.037-1.251,2.305-0.898c0.267,0.351-0.042,0.857,0.469,0.665
				c-0.054,0.121-0.247,0.386-0.331,0.561c-1.114,2.292-2.199,4.896-1.806,6.818c0.058,0.277,0.103,1.152-0.365,1.853
				c-0.312,0.466-1.003,1.193-1.668,1.318L76.141,44.324z"/>
			<path d="M77.36,27.417c-0.121-0.286-0.27-0.584-0.512-0.846c-0.117-0.13-0.261-0.246-0.383-0.329l-0.151-0.106l-0.026-0.02
				c-0.005-0.004-0.005-0.004-0.009-0.005c0.001,0.009-0.052-0.059-0.048-0.05c-0.103-0.133-0.203-0.237-0.306-0.344
				c-0.104-0.104-0.207-0.206-0.315-0.304c-0.109-0.099-0.22-0.194-0.337-0.287c-0.092-0.071-0.179-0.139-0.296-0.208
				c-0.074-0.18-0.193-0.344-0.333-0.46c-0.178-0.153-0.372-0.243-0.555-0.316c-0.187-0.072-0.367-0.123-0.531-0.178
				c-0.062-0.02-0.119-0.041-0.171-0.063c0.043-0.044,0.084-0.089,0.121-0.134c0.099-0.124,0.18-0.252,0.256-0.38
				c0.15-0.257,0.275-0.521,0.394-0.784l0.342-0.789c0.113-0.259,0.227-0.525,0.365-0.754c0.152-0.23,0.325-0.459,0.529-0.635
				c0.096-0.085,0.23-0.161,0.305-0.13c0.08,0.028,0.107,0.19,0.106,0.32c-0.003,0.275-0.069,0.556-0.146,0.83
				c-0.078,0.273-0.173,0.543-0.279,0.81c0.123-0.258,0.236-0.522,0.332-0.793c0.095-0.271,0.183-0.547,0.205-0.844
				c0.005-0.074,0.003-0.151-0.011-0.229c-0.018-0.075-0.048-0.171-0.146-0.221c-0.096-0.047-0.195-0.022-0.269,0.006
				c-0.077,0.03-0.142,0.072-0.203,0.117c-0.242,0.184-0.432,0.407-0.61,0.641c-0.176,0.25-0.303,0.505-0.436,0.762l-0.391,0.76
				c-0.134,0.25-0.271,0.496-0.424,0.723c-0.077,0.113-0.158,0.221-0.245,0.315c-0.085,0.094-0.18,0.172-0.262,0.211L72.918,23.7
				c-0.111,0.052-0.157,0.183-0.104,0.293l0.001,0.004c0.077,0.163,0.195,0.238,0.288,0.296c0.096,0.059,0.188,0.098,0.274,0.137
				c0.177,0.076,0.341,0.14,0.491,0.213c0.149,0.074,0.282,0.157,0.375,0.252c0.092,0.096,0.139,0.196,0.158,0.312
				c0.012,0.077,0.057,0.149,0.128,0.194l0.046,0.029c0.062,0.039,0.168,0.125,0.257,0.211c0.093,0.087,0.185,0.183,0.274,0.279
				c0.09,0.097,0.177,0.198,0.26,0.299c0.082,0.1,0.165,0.206,0.224,0.297c0.048,0.064,0.034,0.053,0.084,0.112l0.063,0.07
				l0.051,0.048c0.067,0.062,0.129,0.111,0.177,0.15c0.102,0.083,0.167,0.151,0.229,0.233c0.124,0.16,0.214,0.374,0.288,0.605
				l0.001,0.005c0.004,0.013,0.009,0.025,0.014,0.039c0.102,0.238,0.375,0.35,0.613,0.249C77.349,27.929,77.46,27.656,77.36,27.417z
				"/>
			<path d="M70.387,21.967c0,0,0.453-1.151,0.377-1.538c-0.077-0.386-1.908-1.508-2.487-2.4c-0.578-0.892-1.248-3.27-2.26-3.554
				c-1.012-0.284-2.579,0.069-3.251,1.646c1.004-0.146,2.846-0.299,3.483,0.853S68.24,20.271,70.387,21.967z"/>
			<path d="M72.826,21.278c0,0-0.396-0.737-0.239-1.103c0.157-0.368,0.809-0.639,0.912-0.938c0.104-0.298,0.75-2.595,1.425-2.131
				c0.675,0.465,0.694,1,0.694,1c-0.311-0.031-0.929,0.36-1.162,0.695C74.14,19.259,73.256,20.298,72.826,21.278z"/>
			<path d="M68.421,22.318c0.266,0.497,0.044,1.855,0.325,2.073l1.14,0.259v-1.186L68.421,22.318z"/>
			<path d="M75.871,30.755c-0.109-0.062-0.218-0.114-0.324-0.188c-0.111-0.067-0.212-0.142-0.315-0.216
				c-0.2-0.155-0.388-0.327-0.565-0.499c-0.179-0.169-0.353-0.341-0.543-0.428c-0.046-0.025-0.095-0.041-0.144-0.053
				c-0.048-0.019-0.103-0.014-0.149-0.024c-0.052-0.002-0.105,0.001-0.157,0.002l-0.162,0.024c-0.107,0.017-0.209-0.058-0.226-0.167
				l-0.001-0.012l-0.004-0.033c-0.01-0.128,0.003-0.261-0.029-0.381c-0.017-0.124-0.059-0.236-0.103-0.339
				c-0.031-0.046-0.052-0.099-0.086-0.14c-0.039-0.037-0.065-0.085-0.11-0.114c-0.081-0.066-0.17-0.121-0.275-0.15
				c-0.049-0.018-0.103-0.032-0.161-0.038c-0.053-0.013-0.112-0.013-0.169-0.014c-0.114-0.004-0.233,0.013-0.349,0.036
				c-0.117,0.024-0.229,0.064-0.338,0.111c-0.05,0.027-0.104,0.05-0.152,0.081l-0.069,0.045L71.37,28.3l-0.045,0.026
				c-0.034,0.018-0.055,0.033-0.097,0.053c-0.057,0.022-0.114,0.041-0.172,0.058c-0.062,0.021-0.113,0.024-0.164,0.028
				c-0.052,0.003-0.105,0.011-0.158,0.007c-0.208-0.015-0.413-0.083-0.581-0.2c-0.085-0.056-0.157-0.129-0.228-0.2
				c-0.059-0.079-0.128-0.156-0.168-0.242c-0.093-0.17-0.152-0.354-0.174-0.534c-0.03-0.183-0.02-0.358-0.005-0.53l0.045-0.251
				c0.017-0.082,0.046-0.159,0.069-0.237c0.043-0.162,0.118-0.299,0.181-0.449c0.069-0.141,0.151-0.273,0.228-0.413l0.136,0.643
				c0.003,0.006,0.007,0.011,0.014,0.013l-0.03-0.005c-0.015-0.005-0.062-0.008-0.091-0.013c-0.075-0.007-0.157-0.011-0.242-0.011
				c-0.171,0-0.348,0.005-0.528,0.025c-0.178,0.018-0.358,0.046-0.537,0.076c-0.179,0.032-0.356,0.072-0.535,0.111
				c-0.176,0.041-0.353,0.089-0.529,0.134l-0.521,0.156c-0.172,0.056-0.344,0.115-0.513,0.175c-0.171,0.059-0.337,0.13-0.502,0.198
				c-0.168,0.068-0.33,0.146-0.492,0.223c-0.159,0.084-0.316,0.17-0.472,0.26c-0.157,0.089-0.308,0.187-0.455,0.291
				s-0.291,0.213-0.434,0.326c-0.137,0.118-0.274,0.239-0.404,0.368c-0.136,0.124-0.252,0.267-0.38,0.404
				c-0.118,0.144-0.238,0.289-0.346,0.446c-0.117,0.15-0.212,0.316-0.325,0.479l-0.003,0.005c-0.017,0.025-0.053,0.032-0.078,0.014
				c-0.02-0.013-0.028-0.037-0.024-0.058c0.038-0.193,0.07-0.396,0.135-0.585c0.053-0.197,0.136-0.38,0.213-0.571
				c0.091-0.182,0.182-0.367,0.295-0.54c0.102-0.181,0.233-0.339,0.359-0.505c0.133-0.159,0.267-0.32,0.418-0.461
				c0.148-0.146,0.306-0.285,0.467-0.414c0.159-0.136,0.333-0.25,0.505-0.366c0.176-0.109,0.353-0.219,0.536-0.315
				c0.182-0.101,0.37-0.186,0.56-0.267c0.188-0.085,0.384-0.151,0.58-0.217c0.195-0.065,0.394-0.118,0.593-0.166
				c0.2-0.047,0.402-0.084,0.606-0.116c0.405-0.062,0.814-0.092,1.229-0.094c0.208-0.003,0.417,0.004,0.632,0.022
				c0.108,0.01,0.221,0.024,0.335,0.046c0.065,0.016,0.116,0.021,0.19,0.047c0.038,0.011,0.071,0.021,0.11,0.037
				c0.05,0.022,0.099,0.047,0.146,0.074c0.211,0.122,0.284,0.392,0.161,0.604l-0.01,0.018l-0.013,0.021
				c-0.067,0.104-0.144,0.207-0.204,0.313c-0.051,0.107-0.123,0.213-0.156,0.324c-0.018,0.053-0.045,0.109-0.059,0.163L70.4,26.89
				c-0.017,0.105-0.031,0.213-0.02,0.311c0.004,0.099,0.029,0.189,0.063,0.268c0.012,0.044,0.045,0.071,0.062,0.111
				c0.029,0.027,0.052,0.062,0.083,0.084c0.06,0.05,0.128,0.077,0.199,0.092c0.03,0,0.082,0.007,0.097,0.001
				c0.01-0.002,0.02,0,0.033,0.002c0.021-0.006,0.061-0.027,0.091-0.041l0.047-0.023l0.011-0.005
				c0.008-0.004-0.057,0.035-0.029,0.018l0.002-0.001l0.004-0.002l0.007-0.004l0.026-0.016l0.113-0.062
				c0.076-0.038,0.153-0.065,0.229-0.098c0.156-0.052,0.312-0.093,0.475-0.115c0.161-0.021,0.326-0.029,0.49-0.01
				c0.084,0.008,0.166,0.016,0.248,0.041l0.124,0.031l0.121,0.049c0.16,0.063,0.31,0.169,0.434,0.294
				c0.066,0.06,0.11,0.138,0.163,0.207c0.048,0.073,0.077,0.154,0.112,0.23c0.055,0.157,0.094,0.318,0.101,0.476
				c0.023,0.158-0.004,0.309-0.006,0.461l-0.23-0.212l0.209-0.011c0.071,0.004,0.143,0.006,0.214,0.017
				c0.071,0.018,0.145,0.024,0.212,0.055c0.068,0.024,0.135,0.054,0.195,0.092c0.125,0.072,0.227,0.164,0.321,0.256
				c0.091,0.093,0.175,0.188,0.257,0.282c0.163,0.187,0.322,0.369,0.498,0.536c0.09,0.082,0.18,0.164,0.275,0.236
				c0.091,0.078,0.198,0.145,0.298,0.217l0.002,0.002c0.024,0.017,0.031,0.053,0.012,0.078
				C75.926,30.763,75.895,30.769,75.871,30.755z"/>
			<path d="M61.884,34.078c-0.039,0.102-0.053,0.191-0.057,0.286c-0.007,0.093,0,0.188,0.007,0.282
				c0.013,0.187,0.051,0.375,0.086,0.56c0.074,0.371,0.167,0.739,0.263,1.106c0.099,0.369,0.197,0.733,0.306,1.094
				c0.052,0.18,0.111,0.359,0.167,0.527c0.029,0.084,0.062,0.166,0.092,0.235c0.014,0.037,0.03,0.07,0.039,0.088
				c0.003,0.009,0.013,0.025,0.003,0.013c-0.005-0.006,0,0.002-0.017-0.017c-0.024-0.021-0.053-0.043-0.083-0.053l-0.516,0.088
				c0.059-0.049,0.118-0.097,0.179-0.144c0.06-0.045,0.12-0.098,0.18-0.133c0.121-0.074,0.245-0.145,0.366-0.209
				c0.123-0.061,0.249-0.111,0.373-0.166c0.124-0.053,0.252-0.094,0.377-0.137c0.126-0.041,0.253-0.076,0.382-0.107
				c0.126-0.035,0.257-0.059,0.387-0.082c0.128-0.026,0.26-0.047,0.392-0.062c0.13-0.019,0.265-0.024,0.397-0.031
				c-0.216,0.158-0.432,0.306-0.649,0.443l-0.32,0.209c-0.104,0.071-0.215,0.133-0.316,0.207l-0.31,0.205
				c-0.099,0.069-0.196,0.141-0.295,0.209c-0.093,0.069-0.18,0.146-0.273,0.213c-0.045,0.037-0.077,0.073-0.114,0.11
				c-0.037,0.037-0.074,0.072-0.113,0.107l-0.037,0.031c-0.136,0.119-0.328,0.137-0.479,0.059c-0.05-0.027-0.099-0.062-0.142-0.1
				c-0.037-0.031-0.043-0.047-0.065-0.068c-0.043-0.053-0.058-0.076-0.081-0.111c-0.041-0.065-0.07-0.118-0.096-0.172
				c-0.055-0.108-0.091-0.209-0.131-0.311c-0.077-0.197-0.134-0.396-0.188-0.594c-0.102-0.398-0.175-0.797-0.211-1.205
				c-0.038-0.407-0.044-0.818,0.007-1.232c0.025-0.207,0.072-0.413,0.138-0.616c0.037-0.101,0.081-0.199,0.137-0.292
				C61.724,34.22,61.8,34.133,61.884,34.078z"/>
			<path d="M65.758,29.606c0.074-0.043,0.344-0.205,0.421-0.247c3.036-1.706,6.961-0.858,9.504,0.739
				c0.181,0.114,0.235,0.353,0.123,0.533c-0.114,0.18-0.351,0.234-0.533,0.122c-2.349-1.476-5.955-2.27-8.714-0.72L65.758,29.606z"
				/>
			<path d="M69.444,24.859c-2.022,0-3.136-0.826-3.82-1.334c-0.141-0.104-0.263-0.193-0.365-0.258
				c-0.22-0.136-0.286-0.424-0.149-0.644c0.136-0.218,0.424-0.286,0.644-0.149c0.135,0.085,0.277,0.19,0.426,0.3
				c0.715,0.531,1.693,1.257,3.678,1.138c0.262-0.015,0.479,0.181,0.494,0.438c0.017,0.257-0.179,0.479-0.438,0.494
				C69.751,24.854,69.596,24.859,69.444,24.859z"/>
			<path d="M74.136,24.953c-0.241,0-0.445-0.185-0.465-0.43c-0.021-0.257,0.17-0.482,0.428-0.503
				c0.251-0.021,0.687-0.191,1.341-0.881c0.176-0.188,0.473-0.195,0.659-0.018c0.188,0.177,0.196,0.472,0.019,0.66
				c-0.698,0.737-1.335,1.119-1.943,1.169C74.162,24.952,74.148,24.953,74.136,24.953z"/>
			<path d="M73.898,22.753c0,0.334-0.006,1.469-0.11,1.638s-0.151,0.06-0.151,0.06l-0.521-0.645L73.898,22.753z"/>
			<path d="M69.69,17.206c0,0,0.065,0.05,0.181,0.14c0.112,0.1,0.263,0.261,0.426,0.453c0.161,0.197,0.344,0.432,0.52,0.695
				c0.177,0.263,0.351,0.551,0.516,0.847c0.163,0.295,0.359,0.58,0.48,0.877c0.055,0.15,0.096,0.3,0.121,0.449
				c0.023,0.149,0.043,0.287,0.044,0.425c0.004,0.134-0.002,0.26-0.019,0.375c-0.009,0.058-0.014,0.108-0.025,0.159
				c-0.017,0.05-0.03,0.097-0.042,0.139c-0.021,0.078-0.065,0.149-0.092,0.188c-0.027,0.038-0.043,0.058-0.043,0.058
				c-0.016,0.021-0.044,0.025-0.066,0.01c-0.005-0.005-0.01-0.011-0.014-0.018l-0.009-0.02c0,0-0.009-0.021-0.029-0.06
				s-0.037-0.078-0.08-0.143c-0.039-0.062-0.08-0.131-0.136-0.216c-0.05-0.083-0.107-0.177-0.17-0.281
				c-0.115-0.207-0.254-0.45-0.353-0.729c-0.1-0.28-0.144-0.606-0.251-0.912c-0.099-0.309-0.216-0.609-0.32-0.896
				c-0.109-0.285-0.214-0.547-0.312-0.772c-0.053-0.108-0.102-0.208-0.145-0.296c-0.047-0.085-0.087-0.16-0.121-0.221
				c-0.082-0.121-0.129-0.189-0.129-0.189c-0.016-0.021-0.009-0.051,0.011-0.065C69.651,17.191,69.674,17.194,69.69,17.206z"/>
			<path d="M72.566,21.396c0,0-0.047-0.074-0.097-0.199c-0.054-0.126-0.101-0.309-0.138-0.514c-0.034-0.205-0.057-0.438-0.038-0.672
				c0.01-0.117,0.039-0.237,0.064-0.359c0.027-0.123,0.045-0.247,0.054-0.372c0.004-0.124,0.011-0.25,0.003-0.373
				c-0.005-0.123-0.01-0.245-0.024-0.364c-0.006-0.12-0.038-0.229-0.05-0.342c-0.021-0.109-0.048-0.211-0.07-0.308
				c-0.03-0.094-0.057-0.18-0.081-0.257c-0.023-0.078-0.055-0.141-0.074-0.198c-0.042-0.11-0.067-0.174-0.067-0.174l-0.001-0.004
				c-0.009-0.024,0.003-0.051,0.026-0.061c0.019-0.007,0.038-0.002,0.052,0.012c0,0,0.047,0.05,0.129,0.14
				c0.041,0.046,0.096,0.098,0.145,0.168c0.051,0.07,0.109,0.148,0.172,0.234c0.057,0.09,0.12,0.188,0.183,0.295
				c0.054,0.111,0.12,0.227,0.167,0.354c0.053,0.126,0.103,0.259,0.139,0.399c0.042,0.138,0.068,0.283,0.098,0.426
				c0.025,0.146,0.051,0.291,0.076,0.434c0.027,0.145,0.036,0.285,0.032,0.42c-0.016,0.272-0.104,0.507-0.189,0.704
				c-0.093,0.195-0.188,0.347-0.272,0.454c-0.081,0.11-0.145,0.169-0.145,0.169c-0.024,0.022-0.062,0.022-0.085-0.002
				C72.57,21.405,72.568,21.401,72.566,21.396z"/>
			<path d="M61.191,29.877c0,0,0.021,0.058,0.038,0.149c0.001,0.051,0.042,0.092,0.06,0.129c0.016,0.031,0.068,0.082,0.091,0.116
				c0.044,0.037,0.07,0.072,0.119,0.103c0.038,0.034,0.089,0.062,0.13,0.094c0.052,0.027,0.093,0.062,0.148,0.088
				c0.049,0.032,0.104,0.057,0.157,0.088c0.056,0.024,0.108,0.059,0.166,0.081c0.029,0.011,0.057,0.028,0.085,0.042
				c0.029,0.01,0.059,0.021,0.086,0.036c0.059,0.03,0.118,0.043,0.177,0.073c0.059,0.021,0.12,0.039,0.18,0.062
				c0.059,0.015,0.118,0.033,0.174,0.049c0.056,0.018,0.106,0.023,0.15,0.035c0.088,0.019,0.149,0.038,0.149,0.038
				s-0.021,0.053-0.079,0.134c-0.029,0.037-0.062,0.095-0.114,0.134c-0.05,0.044-0.111,0.095-0.183,0.142
				c-0.074,0.038-0.159,0.078-0.253,0.108c-0.095,0.02-0.2,0.049-0.309,0.046c-0.109,0.002-0.224-0.004-0.336-0.035
				c-0.115-0.018-0.222-0.074-0.331-0.12c-0.102-0.062-0.205-0.123-0.29-0.21c-0.09-0.076-0.161-0.18-0.223-0.276
				c-0.057-0.104-0.102-0.208-0.123-0.32c-0.029-0.104-0.021-0.219-0.014-0.311c0.024-0.101,0.04-0.175,0.088-0.251
				c0.041-0.07,0.08-0.128,0.122-0.147C61.137,29.904,61.191,29.877,61.191,29.877z"/>
			<path d="M67.517,25.396c0,0-0.016,0.004-0.045,0.013c-0.031,0.007-0.072,0.02-0.128,0.025c-0.057,0.006-0.129,0.013-0.206,0.012
				c-0.076,0-0.164-0.002-0.257-0.012c-0.093-0.009-0.193-0.026-0.296-0.049c-0.104-0.021-0.21-0.054-0.318-0.093
				c-0.107-0.044-0.215-0.093-0.32-0.153c-0.106-0.059-0.214-0.118-0.321-0.176c-0.216-0.116-0.427-0.239-0.618-0.367
				c-0.094-0.065-0.188-0.124-0.27-0.19c-0.084-0.065-0.162-0.125-0.23-0.188c-0.071-0.059-0.134-0.115-0.186-0.168
				c-0.054-0.051-0.101-0.095-0.134-0.138c-0.07-0.081-0.109-0.128-0.109-0.128c-0.009-0.01-0.007-0.027,0.003-0.036
				c0.009-0.007,0.021-0.008,0.031-0.001l0.002,0.001c0,0,0.049,0.036,0.132,0.096c0.041,0.032,0.095,0.065,0.156,0.104
				c0.06,0.04,0.129,0.08,0.208,0.122c0.153,0.087,0.341,0.174,0.542,0.265c0.203,0.087,0.419,0.178,0.641,0.257
				c0.11,0.041,0.222,0.076,0.334,0.106c0.112,0.032,0.222,0.06,0.324,0.098c0.205,0.074,0.388,0.166,0.546,0.246
				c0.079,0.043,0.151,0.081,0.214,0.117c0.064,0.039,0.117,0.067,0.163,0.098c0.094,0.054,0.15,0.091,0.15,0.091
				c0.014,0.008,0.017,0.025,0.008,0.039C67.53,25.391,67.523,25.395,67.517,25.396z"/>
			<path d="M74.54,25.245c-0.165,0-0.325-0.087-0.409-0.242c-0.125-0.226-0.043-0.51,0.184-0.634c0.345-0.19,2.054-1.1,2.963-0.266
				c-0.033,0.146-0.05,0.51,0.085,0.664c-0.174,0.19-0.47,0.203-0.66,0.028c-0.295-0.271-1.333,0.06-1.937,0.392
				C74.693,25.227,74.617,25.245,74.54,25.245z"/>
			<path d="M54.914,25.593c0,0,0,0.021,0.001,0.062c0.003,0.041,0,0.102-0.008,0.183c-0.02,0.159-0.062,0.394-0.15,0.677
				c-0.086,0.284-0.198,0.625-0.333,1.004c-0.13,0.381-0.273,0.809-0.394,1.269c-0.123,0.458-0.215,0.956-0.211,1.444
				c0.003,0.491,0.129,0.948,0.402,1.326c0.03,0.05,0.073,0.093,0.11,0.14c0.017,0.02,0.042,0.054,0.052,0.062l0.079,0.087
				c0.113,0.128,0.193,0.203,0.3,0.309c0.21,0.203,0.437,0.396,0.671,0.582c0.472,0.366,0.986,0.704,1.514,0.943
				c0.262,0.122,0.526,0.22,0.774,0.274c0.247,0.053,0.478,0.068,0.62,0.025c0.145-0.039,0.221-0.088,0.315-0.234
				c0.091-0.143,0.152-0.376,0.186-0.625l0.019-0.191l0.006-0.199c0.005-0.128-0.002-0.297,0.001-0.441
				c0-0.299,0.001-0.592,0.002-0.878c0.01-0.574,0.02-1.115,0.048-1.618c0.021-0.5,0.066-0.963,0.105-1.373
				c0.026-0.206,0.048-0.397,0.077-0.574c0.027-0.177,0.068-0.341,0.096-0.486c0.025-0.146,0.072-0.276,0.107-0.386
				c0.033-0.111,0.067-0.203,0.104-0.275c0.07-0.143,0.106-0.219,0.106-0.219s-0.008,0.084-0.022,0.241
				c-0.012,0.076-0.015,0.171-0.01,0.284c0.005,0.113-0.003,0.237,0.011,0.382c0.015,0.286,0.062,0.632,0.103,1.03
				c0.056,0.398,0.119,0.849,0.187,1.339c0.065,0.492,0.136,1.024,0.211,1.588c0.035,0.284,0.07,0.575,0.106,0.872
				c0.016,0.155,0.038,0.287,0.048,0.464l0.018,0.259l-0.001,0.272c-0.013,0.367-0.065,0.771-0.276,1.195
				c-0.098,0.211-0.262,0.418-0.455,0.596c-0.203,0.165-0.441,0.304-0.682,0.369c-0.486,0.149-0.934,0.113-1.33,0.034
				c-0.398-0.081-0.759-0.213-1.1-0.366c-0.676-0.318-1.273-0.724-1.809-1.183c-0.27-0.228-0.521-0.472-0.754-0.732
				c-0.113-0.125-0.251-0.283-0.339-0.398l-0.073-0.093c-0.041-0.051-0.059-0.083-0.09-0.126c-0.054-0.081-0.111-0.157-0.156-0.245
				c-0.401-0.673-0.491-1.461-0.402-2.102c0.087-0.649,0.297-1.199,0.521-1.67c0.222-0.474,0.471-0.87,0.689-1.217
				c0.216-0.348,0.421-0.637,0.576-0.88c0.154-0.244,0.273-0.436,0.337-0.576c0.031-0.069,0.057-0.124,0.069-0.164
				C54.907,25.613,54.914,25.593,54.914,25.593z"/>
			<path d="M58.447,39.197c-0.134-0.047-9.136,3.127-11.407,17.836l-0.037,0.232l0.231,0.057c1.965,0.469,5.165,7.461,6.232,10.115
				l0.095,0.235l0.238-0.094c3.377-1.336,2.189-6.09,1.234-9.908c-0.371-1.479-0.72-2.873-0.693-3.729
				c0.103-3.324,1.918-5.81,5.399-7.377l0.543-0.246L58.447,39.197z"/>
			<path d="M66.864,36.72c0,0,0.103-0.077,0.286-0.194c0.187-0.113,0.463-0.269,0.806-0.417c0.685-0.301,1.653-0.575,2.656-0.647
				c0.25-0.023,0.504-0.021,0.751-0.023c0.124,0.005,0.248,0.011,0.37,0.021c0.122,0.005,0.242,0.017,0.36,0.036
				c0.236,0.03,0.462,0.069,0.675,0.127c0.213,0.047,0.41,0.117,0.588,0.185c0.179,0.06,0.337,0.148,0.475,0.219
				c0.069,0.037,0.132,0.067,0.189,0.103c0.056,0.038,0.105,0.074,0.153,0.105c0.181,0.13,0.274,0.211,0.274,0.211
				s-0.13-0.008-0.342-0.036c-0.052-0.009-0.11-0.017-0.174-0.025c-0.065-0.002-0.133-0.01-0.206-0.016
				c-0.146-0.011-0.307-0.029-0.486-0.031c-0.176-0.008-0.365-0.021-0.566-0.017c-0.2-0.008-0.411-0.002-0.628,0.003
				c-0.217-0.005-0.444,0.022-0.67,0.022c-0.229,0.023-0.461,0.021-0.694,0.049c-0.233,0.013-0.466,0.035-0.697,0.058
				c-0.231,0.021-0.457,0.043-0.678,0.062c-0.446,0.043-0.862,0.084-1.217,0.119c-0.362,0.031-0.665,0.057-0.882,0.07
				C66.993,36.72,66.864,36.72,66.864,36.72z"/>
			<path d="M55.027,68.214c-0.229-0.153,2.559-2.975,2.59-3.25c0.357-3.25,0.516-5.432,0.332-7.644
				c-0.369-4.426,0.975-13.139,2.783-16.331c0.102-0.183,0.309-0.142,0.513-0.188c0.203-0.047,1.102,0.145,1.275,0.262l2.386,1.078
				c0.279,0.189,0.725,0.394,0.617,0.709c-3.534,10.353-4.163,15.248-3.47,20.545c0.04,0.312-0.116,0.611-0.393,0.756
				C61.659,64.152,58.172,65.839,55.027,68.214z"/>
			<path d="M70.298,22.3c0,0,0.021,0.212,0.062,0.584c0.009,0.092,0.021,0.196,0.033,0.308c0.005,0.056,0.01,0.114,0.017,0.174
				c0.003,0.031,0.005,0.062,0.009,0.092l0.002,0.024l0.001,0.012l0.001,0.006c0.002-0.009-0.015,0.083-0.008,0.045v0.003
				c-0.004,0.007,0.006,0.008-0.034,0.058c-0.018,0.018-0.039,0.032-0.059,0.04l-0.025,0.008c-0.124,0.021-0.177,0-0.257-0.01
				c-0.073-0.013-0.145-0.031-0.217-0.049c-0.037-0.01-0.074-0.021-0.111-0.031l-0.029-0.008c-0.037-0.016-0.024-0.011-0.039-0.019
				l-0.05-0.024c-0.068-0.029-0.146-0.091-0.222-0.14c-0.276-0.2-0.544-0.412-0.829-0.65c-0.285-0.233-0.576-0.491-0.877-0.756
				c-0.603-0.531-1.224-1.12-1.833-1.726c-0.308-0.301-0.61-0.608-0.907-0.918c-0.147-0.156-0.295-0.312-0.433-0.479
				c-0.069-0.08-0.139-0.169-0.204-0.26c-0.065-0.088-0.138-0.195-0.165-0.228c-0.04-0.055-0.086-0.104-0.115-0.127
				c-0.028-0.025-0.038-0.009,0.055-0.008c0.043-0.006,0.092-0.021,0.113-0.043c0.019-0.014,0.021-0.021,0.014-0.017
				c-0.014,0.009-0.046,0.066-0.073,0.121c-0.051,0.123-0.093,0.276-0.123,0.43c-0.037,0.153-0.063,0.309-0.086,0.46
				c-0.044,0.303-0.082,0.59-0.111,0.845c-0.031,0.258-0.059,0.483-0.081,0.668c-0.048,0.373-0.085,0.589-0.085,0.589
				c-0.004,0.025-0.028,0.044-0.054,0.04c-0.019-0.003-0.033-0.016-0.039-0.033c0,0-0.015-0.053-0.045-0.15
				c-0.03-0.099-0.07-0.243-0.111-0.429c-0.044-0.186-0.09-0.412-0.13-0.674c-0.039-0.263-0.079-0.562-0.09-0.896
				c-0.009-0.338-0.018-0.697,0.102-1.142c0.037-0.116,0.071-0.235,0.168-0.378c0.049-0.071,0.116-0.147,0.212-0.217
				c0.103-0.07,0.24-0.128,0.381-0.131c0.289-0.009,0.459,0.112,0.584,0.203c0.125,0.099,0.212,0.198,0.292,0.302
				c0.091,0.128,0.126,0.192,0.18,0.268c0.051,0.075,0.099,0.154,0.158,0.234c0.112,0.158,0.229,0.322,0.354,0.486
				c0.243,0.329,0.515,0.65,0.786,0.975c0.553,0.638,1.127,1.26,1.67,1.841c0.271,0.289,0.539,0.566,0.792,0.826
				c0.252,0.258,0.504,0.504,0.726,0.704c0.055,0.043,0.089,0.091,0.16,0.131l0.048,0.031c0.002,0.002,0.029,0.016,0.009,0.008
				l0.026,0.01l0.099,0.039c0.065,0.026,0.129,0.048,0.191,0.066c0.055,0.018,0.134,0.031,0.139,0.031
				c0,0.001,0.001,0.001-0.001,0.003c-0.013,0.003-0.028,0.013-0.038,0.026c-0.009,0.008-0.015,0.042-0.012,0.031l0.004-0.011
				l0.002-0.003c0.006-0.039-0.008,0.051-0.006,0.041V23.5v-0.012v-0.023c0-0.031,0.001-0.062,0.001-0.092
				c0-0.061,0.001-0.119,0.001-0.175c0.002-0.112,0.004-0.215,0.006-0.309c0.005-0.372,0.009-0.585,0.009-0.585
				c0.001-0.026,0.021-0.046,0.048-0.046C70.278,22.259,70.297,22.278,70.298,22.3L70.298,22.3L70.298,22.3z"/>
			<path d="M76.112,10.371c-1.496-2.85-4.121-6.006-12.224-7.808c-0.535-0.119-1.086-0.207-1.648-0.271
				c-1.097-1.682-3.978-2.718-6.32-2.122l0,0l0,0c0,0.42,0.015,1.015-0.479,1.531c-0.384,0.401-1.077,0.754-2.323,0.94
				c-0.996,0.148-2.105,0.851-3.084,1.86c-1.822,1.878-3.191,4.823-2.522,7.255c0.342,0.91,0.931,1.359,1.314,1.043
				c0.089-0.073,0.166-0.186,0.228-0.344c0.205-0.525,0.347-0.965,0.575-1.226c0.009-0.011,0.022-0.019,0.033-0.029
				c0.026,0.021,0.052,0.045,0.083,0.063l0.131,0.081c0.704,0.438,1.438,0.866,2.097,1.016c0.002-0.001,0.004-0.002,0.006-0.004
				c0.004,0.001,0.008,0.003,0.013,0.004c-0.194,0.864-0.497,2.606-0.25,4.229c0.321,2.11,1.096,4.411,2.02,6.005
				c0.159,0.274,0.123,0.459,0.082,0.574c-0.191,0.536-1.084,0.978-1.382,1.089c-0.152,0.056-0.265,0.188-0.295,0.347l-0.42,2.149
				c-0.036,0.181,0.04,0.367,0.191,0.473c0.152,0.106,0.352,0.112,0.509,0.016c1.109-0.673,2.47-1.516,2.658-1.704
				c0.278-0.277,0.841-1.473,0.698-2.554c0.048-2.15,0.847-3.334,2.247-3.334c0.662,0,1.243,0.279,1.408,0.48
				c0.664,0.814,0.866,1.125,0.694,2.25c-0.086,0.567-0.247,1.328-0.402,2.065c-0.452,2.143-0.479,2.418-0.268,2.68
				c0.089,0.109,0.243,0.183,0.385,0.183c0.771,0,2.045-1.896,3.023-6.06c0.832-3.544,0.378-7.065,0.134-8.957
				c-0.019-0.15-0.037-0.294-0.055-0.43c1.767,0.898,5.806,2.824,7.728,3.464c0.428,0.142,0.939,0.218,1.475,0.218
				c1.349,0,3.225-0.495,4.067-1.89C76.625,13.009,76.922,11.913,76.112,10.371z"/>
			<path d="M39.46,58.945c0.026,0.006,0.053,0.008,0.08,0.008c0.093,0,0.184-0.035,0.255-0.096c0.092-0.08,0.14-0.199,0.13-0.322
				c-0.003-0.039-0.287-3.914,1.916-7.959c0.586-1.076,1.277-2.328,2.009-3.654c2.158-3.912,4.604-8.348,5.896-11.033
				c1.75-3.642,2.836-7.686,2.981-11.095c0.005-0.136-0.06-0.264-0.173-0.339c-0.113-0.075-0.257-0.084-0.38-0.026
				c-0.125,0.06-1.229,0.596-1.631,0.954c-0.053,0.048-0.092,0.109-0.113,0.177c-0.718,2.4-3.447,9.406-5.573,13.197
				c-0.507,0.902-1.196,2.086-1.961,3.382c-0.113,0.725-0.248,1.452-0.407,2.19c1.243-2.08,2.39-4.031,3.042-5.195
				c2.119-3.777,4.829-10.708,5.604-13.237c0.176-0.131,0.479-0.308,0.78-0.468c-0.246,3.132-1.297,6.862-2.864,10.125
				c-1.281,2.667-3.722,7.09-5.875,10.995c-0.733,1.326-1.424,2.58-2.011,3.658c-1.862,3.418-2.037,6.652-2.027,7.879L39.46,58.945z
				"/>
			<path d="M65.536,23.119c-0.012,0-0.024-0.002-0.037-0.004c-0.101-0.021-0.167-0.118-0.146-0.219
				c0.051-0.26-0.049-2.715-0.764-3.985c-0.051-0.09-0.019-0.204,0.071-0.255c0.09-0.05,0.204-0.019,0.254,0.072
				c0.778,1.384,0.87,3.915,0.805,4.241C65.702,23.057,65.624,23.119,65.536,23.119z"/>
			<path d="M67.048,27.352c0.052-0.025,0.104-0.05,0.158-0.072c0.155-0.071,0.315-0.133,0.498-0.194
				c0.168-0.058,0.338-0.104,0.499-0.144c0.282-0.069,0.578-0.121,0.906-0.157c0.108-0.012,0.21-0.019,0.305-0.026l0.069-0.004
				l0.296-0.007h0.036c-0.023,0.063-0.041,0.136-0.042,0.218c-0.001,0.092,0.021,0.177,0.047,0.252l-0.091-0.016l-0.255-0.036
				l-0.07-0.006c-0.086-0.008-0.181-0.019-0.284-0.025c-0.129-0.006-0.268-0.011-0.415-0.011c-0.161,0-0.319,0.006-0.469,0.018
				c-0.16,0.013-0.327,0.029-0.5,0.057c-0.187,0.03-0.354,0.065-0.511,0.107C67.164,27.318,67.105,27.335,67.048,27.352z"/>
			<path d="M42.7,43.271c3.551-6.078,7.468-13.543,8.239-18.13c-0.514-0.304-2.944-0.444-5.747,0.818
				c-0.369,1.712-1.046,3.864-1.845,6.046C43.507,35.407,43.454,39.227,42.7,43.271z"/>
			<path d="M76.646,32.85c-0.681,0-1.344,0.462-1.855,1.281c-0.67-0.245-1.487-0.369-2.433-0.369c-2.708,0-6.046,1.022-8.194,1.937
				l-0.561-0.528c-0.43-1.942,0.373-3.528,2.452-4.84l9.734,0.755c0.19,0.095,0.669,0.294,1.398,0.334
				c0.116,0.005,0.227-0.038,0.304-0.123c0.859-0.925,0.166-2.94-0.156-3.73c0.217-0.643,0.187-1.051,0.143-1.648
				c-0.023-0.305-0.051-0.685-0.051-1.191c0-0.09-0.006-0.178-0.017-0.267c0-0.003,0-0.007,0-0.01c0-0.046-0.008-0.091-0.023-0.132
				c-0.175-0.867-0.896-1.17-1.386-1.314l-0.211-0.729c0.177-0.423,0.304-0.8,0.379-1.124c0.207-0.479,0.316-0.793,0.369-1.05
				c0.177-0.871-0.024-1.64-0.543-2.12c-0.037-0.209-0.177-0.673-0.72-1.098c-0.37-0.815-0.647-1.454-0.815-1.88l-0.857-0.088
				c0.178,0.527,0.647,1.582,1.011,2.377c0.027,0.061,0.07,0.114,0.125,0.153c0.256,0.185,0.381,0.372,0.441,0.501
				c-0.011,0.025-0.019,0.049-0.025,0.075c-0.037,0.16,0.031,0.325,0.169,0.413c0.424,0.27,0.596,0.835,0.458,1.513
				c-0.053,0.261-0.208,0.634-0.336,0.93c-0.009,0.022-0.017,0.046-0.022,0.07c-0.07,0.316-0.204,0.703-0.397,1.15
				c-0.036,0.082-0.042,0.174-0.016,0.26l0.31,1.069c0.038,0.131,0.141,0.232,0.272,0.267c0.632,0.166,0.967,0.338,1.045,0.818
				c0.011,0.071,0.016,0.142,0.016,0.216c0,0.535,0.03,0.931,0.054,1.247c0.045,0.598,0.067,0.897-0.147,1.467
				c-0.035,0.093-0.032,0.196,0.007,0.288c0.535,1.248,0.706,2.391,0.453,2.901c-0.577-0.066-0.904-0.245-0.906-0.245l0,0l0,0
				l-0.415-0.28c-0.174-0.117-0.409-0.073-0.53,0.099c-0.013,0.017-0.023,0.036-0.033,0.054l-9.146-0.71
				c-0.082-0.005-0.163,0.015-0.232,0.057c-2.484,1.527-3.454,3.497-2.879,5.857c0.018,0.071,0.056,0.139,0.11,0.189l0.83,0.784
				c0.113,0.105,0.279,0.135,0.421,0.072c2.065-0.912,5.43-1.975,8.119-1.975c0.993,0,1.814,0.146,2.44,0.434
				c0.187,0.085,0.407,0.011,0.502-0.172c0.454-0.865,0.992-1.173,1.347-1.173c0.285,0,0.468,0.191,0.488,0.501
				c-0.042,0.106-0.165,0.358-0.283,0.602c-0.712,1.466-2.194,4.52-1.774,6.572c0.082,0.398,0.1,1.363-0.423,2.145
				c-0.369,0.55-0.94,0.898-1.701,1.041c-0.161,0.029-0.39-0.082-0.538,0.048c-0.3,0.262-0.306-0.009-0.486-0.029v0.776
				c0.435,0.039,0.826,0.031,1.167-0.034c0.971-0.183,1.71-0.646,2.197-1.371c0.665-0.99,0.651-2.185,0.539-2.729
				c-0.369-1.795,1.09-4.798,1.712-6.08c0.229-0.47,0.323-0.666,0.353-0.798c0.006-0.027,0.009-0.057,0.009-0.086
				C77.908,33.409,77.377,32.85,76.646,32.85z"/>
			<path d="M66.792,42.646c-0.578-0.295-1.199-0.629-1.877-1.019l-0.05-0.028c-1.095-0.625-2.323-0.972-3.458-0.972
				c-0.61,0-1.189,0.099-1.723,0.291c-0.008,0.002-0.016,0.004-0.024,0.011c-1.54,0.674-3.283,1.809-4.911,3.188
				c-0.103,0.088-0.153,0.221-0.132,0.354c0.021,0.135,0.11,0.245,0.233,0.299l4.518,1.864c1.19,2.08,0.904,4.654,0.626,7.146
				c-0.097,0.873-0.189,1.701-0.213,2.488c-0.013,0.42,0.032,0.955,0.084,1.575c0.154,1.837,0.362,4.33-0.817,5.613
				c-1.178-0.153-2.913,1.324-4.435,2.625c-0.26,0.222-0.51,0.438-0.745,0.631c-0.846-2.03-3.809-8.805-6.159-9.903
				c-0.011-0.099-0.052-0.195-0.12-0.273c-0.183-0.219-0.545-0.314-1.177-0.314c-1.505,0-4.622,0.601-6.938,1.938l-0.012,0.787
				c0.095,0.018,0.193,0.002,0.277-0.048c2.178-1.301,5.27-1.903,6.673-1.903c0.25,0,0.406,0.019,0.5,0.037
				c-0.021,0.188,0.105,0.366,0.295,0.416c0.525,0.125,1.729,0.961,3.897,5.155c1.265,2.447,2.236,4.855,2.246,4.881
				c0.045,0.113,0.141,0.199,0.258,0.229c0.033,0.011,0.066,0.015,0.1,0.015c0.086,0,0.169-0.027,0.238-0.082
				c0.353-0.275,0.75-0.615,1.17-0.978c1.209-1.032,2.865-2.451,3.75-2.451c0.067,0,0.127,0.011,0.178,0.029
				c0.134,0.047,0.284,0.015,0.39-0.082c1.611-1.49,1.375-4.319,1.202-6.383c-0.05-0.599-0.093-1.113-0.082-1.488
				c0.023-0.758,0.114-1.567,0.209-2.428c0.283-2.537,0.603-5.412-0.796-7.738c-0.042-0.067-0.106-0.125-0.183-0.153l-4.044-1.673
				c1.89-1.522,3.429-2.312,4.22-2.659c1.312-0.468,3.039-0.22,4.522,0.629L64.53,42.3c0.798,0.457,1.551,0.861,2.262,1.214V42.646
				L66.792,42.646z"/>
			<path id="hand" d="M91.128,51.115c0.971-3.193,0.617-3.812,0.481-4.049c-0.198-0.347-0.47-0.633-2.132-1.234
				c0.407-1.139,0.439-2.047,0.093-2.707c-0.264-0.504-0.975-1.193-3.99-2.127c3.234-3.969,7.895-10.164,7.895-12.931
				c0-1.644-2.469-7.338-5.098-7.338c-0.09,0-0.179,0.006-0.268,0.019c-1.712,0.235-3.899,3.889-11.144,18.62
				c-1.326,2.694-2.374,4.823-2.806,5.549c-0.359,0.604-0.601,0.791-0.83,0.853c-0.27-0.857-0.439-1.904-0.482-3.013
				c-0.065-1.664-0.392-3.18-0.405-3.241l-0.051-0.236l-0.134-0.199c-0.031-0.045-0.752-1.105-1.63-1.826
				c-0.909-0.742-1.994-0.822-2.418-0.822c-0.094,0-0.146,0.004-0.146,0.004l-0.921,0.062l-0.212,0.894
				c-0.012,0.057-1.399,5.914-2.255,10.11l-0.042,0.203l1.417,10.851l0.092,0.188c0.973,1.965,1.941,3.381,2.583,4.322
				c0.146,0.213,0.345,0.504,0.472,0.703c-0.35,1.557-0.314,2.498,0.11,3.041c0.267,0.344,0.667,0.537,1.096,0.537h11.666
				c0.824,0,1.574-0.591,2.749-3.511c0.206-0.274,0.632-0.849,1.153-1.549c0.606-0.813,1.399-1.881,1.972-2.646
				c0.217-0.258,0.437-0.541,0.654-0.842l3.537-2.65l-0.017-0.643C92.109,55.246,92.023,53.033,91.128,51.115z M90.042,47.964
				c-0.033,0.509-0.364,1.974-0.724,3.043c-2.961,4.82-5.481,7.884-6.099,7.957c-0.581-0.082-0.673-0.35-0.842-1.004
				c-0.081-0.319-0.175-0.674-0.375-1.002c3.079-4.426,4.062-6.39,4.721-7.707c0.41-0.819,0.677-1.351,1.242-2.078
				C88.808,47.455,89.699,47.785,90.042,47.964z M84.559,61.234c-0.606,0.815-1.129,1.52-1.24,1.66l-0.046,0.059l-0.027,0.068
				c-0.412,1.043-1.008,2.27-1.292,2.562H70.712c0.002-0.373,0.119-1.119,0.292-1.812l0.02-0.082l-0.005-0.082
				c-0.026-0.35-0.297-0.75-0.84-1.541c-0.604-0.885-1.515-2.217-2.419-4.032l-1.342-10.271c0.721-3.522,1.798-8.147,2.128-9.551
				c0.276,0.039,0.656,0.145,0.969,0.4c0.554,0.453,1.065,1.139,1.232,1.369c0.07,0.35,0.295,1.563,0.345,2.84
				c0.066,1.678,0.389,3.238,0.909,4.389l0.119,0.264l0.287,0.035c0.222,0.027,0.421,0.041,0.61,0.041
				c1.153,0,1.924-0.502,2.658-1.734c0.468-0.786,1.531-2.944,2.875-5.68c1.703-3.463,3.823-7.771,5.726-11.312
				c3.015-5.606,3.899-6.271,4.077-6.336c0.009-0.001,0.018-0.002,0.027-0.002c0.363,0,1.158,0.696,2.046,2.224
				c0.839,1.445,1.292,2.807,1.292,3.355c0,2.453-6.273,10.398-8.698,13.265l-2.174,2.354l0.756,0.698l1.972-2.135
				c1.988,0.539,4.175,1.319,4.441,1.692c0.175,0.334-0.205,1.494-0.66,2.345c-0.771,0.944-1.101,1.603-1.551,2.504
				c-0.672,1.342-1.683,3.365-5.015,8.104c-0.222,0.049-0.756,0.084-1.393-0.451c-1.009-0.848-1.448-2.467-1.201-3.073
				c0.17-0.42,1.759-1.425,3.135-2.103l0.305-0.147l-0.019-0.34c-0.147-2.654,1.609-4.455,1.625-4.472l0.885-0.879h-2.801v1.027
				h0.495c-0.562,0.844-1.252,2.248-1.242,4.037c-0.963,0.492-2.978,1.605-3.337,2.488c-0.467,1.147,0.258,3.213,1.491,4.25
				c0.682,0.574,1.325,0.719,1.801,0.719c0.361,0,0.624-0.082,0.736-0.125c0.041,0.123,0.076,0.254,0.113,0.391
				c0.172,0.67,0.409,1.586,1.695,1.768c0.044,0.007,0.089,0.011,0.137,0.011c0.193,0,0.422-0.06,0.716-0.242
				c0.135,0.414,0.408,0.804,0.913,0.979c0.025,0.009,0.05,0.013,0.075,0.019C84.8,60.91,84.681,61.07,84.559,61.234z
				 M87.387,57.505l-0.08,0.074c-0.085,0.098-0.319,0.399-0.659,0.854c-0.617,0.733-1.231,1.297-1.484,1.319
				c-0.281-0.117-0.319-0.539-0.317-0.772c0.628-0.642,1.458-1.658,2.587-3.254c0.916-1.293,1.77-2.609,2.286-3.422
				c0.446,1.176,0.583,2.45,0.622,2.987L87.387,57.505z"/>
		</g>
		<g id="shield">
			<path d="M42.667,8.622c-1.352-0.333-3.283-0.727-5.52-1.183C31.579,6.305,25.16,5.295,23.377,4.27
				c-1.455-0.835-3.459-3.253-3.459-3.253v11.065l0.743-0.117c0.019-0.002,1.887-0.291,3.99-0.291c0.725,0,1.398,0.034,2.002,0.102
				c0.223,0.024,0.536,0.056,0.925,0.096c2.747,0.279,8.252,0.932,13.861,2.316l2.14,0.528l1.725-5.443L42.667,8.622z"/>
			<path d="M30.451,34.016c-2.131-1.155-5.051-2.735-11.912-2.735c-0.243,0-0.492,0.002-0.743,0.006v-7.118
				c2.002,0.134,4.829,0.282,7.545,0.282c3.417,0,5.646-0.238,6.625-0.707l0.123-0.06l0.41-4.388l0.037-0.422l-0.383,0.183
				c-0.017,0.008-0.419,0.195-2.024,0.448c-0.858,0.135-3.012,0.223-5.487,0.223c-3.305,0-6.752-0.151-9.704-0.427l-2.276-0.212
				v17.786l2.835-0.297c1.146-0.121,2.247-0.182,3.272-0.182c4.669,0,6.948,1.266,8.184,1.953c0.131,0.071,0.253,0.141,0.368,0.202
				c-0.232,2.945-1.211,5.943-2.763,8.457c-1.58,2.56-3.384,3.627-4.039,3.949c-0.65-0.317-2.442-1.371-4.034-3.949
				c-1.235-2.002-2.08-4.211-2.509-6.567l-0.037-0.203l-0.206,0.006c-0.677,0.018-1.386-0.062-2.095-0.234
				c-0.969-0.24-1.882-0.641-2.644-1.154l-0.423-0.287l0.047,0.509c0.325,3.457,1.634,7.221,3.687,10.604l0.125,0.207
				c1.242,2.053,1.465,2.422,7.534,7.562l0.557,0.469l0.556-0.469c6.07-5.146,6.293-5.513,7.534-7.562l0.125-0.207
				c2.395-3.943,3.768-8.404,3.768-12.23v-2.477l-0.55-0.212C31.49,34.579,31.012,34.319,30.451,34.016z"/>
			<path d="M41.431,17.646c-1.259-0.103-2.417-0.323-3.362-0.614l-0.187,0.312c-1.942,3.237-1.965,18.599-1.965,18.754v2.161
				c0,4.676-1.66,10.096-4.555,14.865l-0.141,0.234c-1.62,2.674-3.603,5.012-8.943,9.039c-0.433,0.328-1.288,0.858-1.759,1.147
				c-0.471-0.289-1.326-0.821-1.759-1.147c-5.119-3.861-7.09-6.117-8.61-8.504l-0.451-0.709v0.002
				c-0.944,0.291-2.103,0.51-3.362,0.612c-2.382,0.195-4.475-0.08-5.478-0.646c1.127,0.865,3.234,3.52,5.582,6.123
				c0.859,1.074,1.918,2.131,3.07,3.147c0.515,0.476,1.026,0.91,1.528,1.291c0.001,0,0.003,0.002,0.005,0.005
				c1.364,1.104,2.78,2.147,4.09,3.094c0.898,0.646,2.277,1.555,2.893,1.901c0.641,0.361,2.109,1.388,2.124,1.396l0.369,0.259
				l0.368-0.259c0.015-0.01,1.484-1.034,2.124-1.396c0.618-0.35,1.997-1.256,2.894-1.901c4.735-3.422,7.882-6.658,10.205-10.494
				l0.139-0.23c3.421-5.637,5.384-12.137,5.384-17.83v-2.161c0-4.267,0.32-8.757,0.67-11.971c0.185-1.563,0.604-2.482,1.12-3.636
				c0.526-1.179,1.533-2.457,2.473-3.109C44.775,17.678,43.183,17.79,41.431,17.646z"/>
		</g>
	</g>
	<g id="type">
		<path id="h" d="M109.415,31.577c-1.206,0-2.342,0.211-3.41,0.636c-1.07,0.423-2.51,1.723-2.51,1.723
			c-0.404,0.365-0.735,0.217-0.735-0.327v-7.495c0-0.545-0.447-0.992-0.991-0.992h-4.655c-0.545,0-0.991,0.447-0.991,0.992v23.571
			c0,0.543,0.446,0.989,0.991,0.989h4.655c0.544,0,0.991-0.446,0.991-0.989V40.83c0.021-0.699,0.324-1.607,0.714-2.127
			c0.36-0.436,0.729-0.83,1.111-1.164c0.638-0.557,1.376-0.838,2.211-0.838c1.069,0,1.794,0.375,2.176,1.125
			c0.38,0.75,0.571,1.574,0.571,2.471c0,0.221-0.003,0.367-0.008,0.434c-0.007,0.068-0.007,0.068-0.007,0.068
			c-0.001,0.08-0.002,0.59-0.002,1.135v7.752c0,0.543,0.446,0.99,0.992,0.99h4.653c0.546,0,0.991-0.447,0.991-0.99V39.154
			C116.163,34.102,113.913,31.577,109.415,31.577z"/>
		<path id="t" d="M133.412,44.986c0.609-0.41,1.225,0.137,1.225,0.682v2.928c0,0.545-0.414,1.156-0.922,1.359
			c0,0-0.717,0.285-1.928,0.592c-1.21,0.307-2.368,0.459-3.475,0.459c-4.781,0-7.172-2.334-7.172-7.006v-6.492
			c0-0.545-0.445-0.992-0.992-0.992h-1.022c-0.544,0-0.989-0.26-0.989-0.58s0.311-0.9,0.693-1.29l7.516-7.656
			c0.383-0.388,0.864-0.707,1.072-0.707c0.207,0,0.377,0.446,0.377,0.992v3.639c0,0.546,0.447,0.992,0.991,0.992h4.36
			c0.545,0,0.992,0.446,0.992,0.991v2.627c0,0.544-0.447,0.992-0.992,0.992h-4.36c-0.543,0-0.991,0.445-0.991,0.99v4.029
			c0,0.545,0.016,1.436,0.034,1.979c0,0,0.008,0.277,0.097,0.705c0.086,0.432,0.329,0.795,0.729,1.08
			c0.398,0.289,1.004,0.434,1.816,0.434C131.4,45.734,132.493,45.537,133.412,44.986z"/>
		<path id="m" d="M170.465,35.088c-0.486-1.137-1.234-2.006-2.25-2.608c-1.013-0.603-2.27-0.903-3.77-0.903
			s-2.823,0.307-3.973,0.921c-1.15,0.615-2.26,1.524-3.328,2.729c-0.271-0.652-0.633-1.224-1.088-1.715
			c-0.455-0.492-0.963-0.879-1.521-1.162c-0.56-0.283-1.127-0.482-1.705-0.6c-0.578-0.116-1.187-0.174-1.824-0.174
			c-1.354,0-2.545,0.24-3.577,0.718c-1.031,0.48-2.309,1.638-2.309,1.638c-0.403,0.367-0.732,0.222-0.732-0.324V32.9
			c0-0.545-0.447-0.991-0.992-0.991h-4.654c-0.545,0-0.99,0.446-0.99,0.991v16.786c0,0.543,0.443,0.989,0.99,0.989h4.654
			c0.545,0,0.992-0.444,0.992-0.989v-8.779c0-0.709,0.359-1.75,0.846-2.344c0.306-0.386,0.574-0.691,0.797-0.902
			c0.257-0.246,0.592-0.467,1.004-0.664c0.412-0.195,0.863-0.295,1.354-0.295c1.033,0,1.752,0.344,2.157,1.033
			c0.405,0.688,0.521,1.942,0.521,1.942c0.049,0.543,0.09,1.433,0.09,1.978v8.031c0,0.543,0.445,0.989,0.99,0.989h4.654
			c0.547,0,0.991-0.446,0.991-0.989v-8.781c0-0.728,0.381-1.812,0.89-2.396l-0.018-0.006c0.299-0.356,0.6-0.68,0.898-0.965
			c0.59-0.558,1.344-0.838,2.267-0.838c0.946,0,1.639,0.33,2.073,0.985c0.438,0.658,0.562,1.99,0.562,1.99
			c0.053,0.543,0.094,1.432,0.094,1.977v8.029c0,0.545,0.445,0.992,0.991,0.992h4.655c0.544,0,0.988-0.447,0.988-0.992V39.229
			C171.193,37.605,170.951,36.227,170.465,35.088z"/>
		<path id="l" d="M174.305,43.507c0,4.67,2.389,7.007,7.17,7.007c0.78,0,1.903-0.253,2.52-0.552c0.609-0.295,0.99-0.793,0.99-1.338
			V45.98c0-0.545-0.445-0.992-0.989-0.992h-0.362c-0.812,0-1.416,0.111-1.814-0.178c-0.4-0.289-0.643-0.65-0.729-1.08
			c-0.088-0.433-0.097-0.707-0.097-0.707c-0.019-0.545-0.034-1.437-0.034-1.98v-14.94c0-0.545-0.445-0.991-0.988-0.991h-4.676
			c-0.544,0-0.99,0.446-0.99,0.991V43.507L174.305,43.507z"/>
		<path id="_x35_" d="M191.623,39.503c0.34-0.058,1.312-0.223,2.135-0.223c1.217,0,2.188,0.17,2.903,0.508
			c0.72,0.34,1.226,0.767,1.522,1.28c0.295,0.519,0.44,1.062,0.44,1.642c0,0.701-0.252,1.381-0.757,2.037
			c-0.504,0.657-1.383,0.985-2.637,0.985c-1.057,0-2.301-0.299-3.732-0.901s-2.489-1.263-2.489-1.263
			c-0.46-0.289-0.839-0.079-0.839,0.466v4.521c1.206,0.824,2.525,1.439,3.965,1.842c1.438,0.406,2.942,0.609,4.516,0.609
			c1.967,0,3.636-0.383,5.006-1.154c1.371-0.766,2.398-1.789,3.078-3.067c0.685-1.279,1.023-2.65,1.023-4.111
			c0-1.414-0.346-2.721-1.04-3.916c-0.694-1.196-1.692-2.162-2.997-2.886c-1.302-0.725-2.814-1.087-4.533-1.087
			c-0.271,0-0.453,0.004-0.545,0.008c-0.093,0.006-0.246,0.019-0.461,0.038c-0.215,0.018-0.215,0.018-0.215,0.018
			c-0.221,0.025-0.402-0.4-0.402-0.945v-2.405c0-0.545,0.447-0.991,0.992-0.991h7.162c0.545,0,0.99-0.446,0.99-0.992v-3.4
			c0-0.545-0.445-0.991-0.99-0.991h-12.824c-0.543,0-0.992,0.446-0.992,0.991v12.869c0,0.434,0.354,0.744,0.787,0.721
			C190.895,39.693,191.255,39.562,191.623,39.503z"/>
		<g id="j">
			<path id="j-dot" d="M216.547,26.879c0,0.938-0.335,1.737-1.004,2.392c-0.673,0.656-1.471,0.984-2.395,0.984
				c-0.627,0-1.197-0.148-1.713-0.447c-0.514-0.298-0.92-0.704-1.217-1.219c-0.3-0.513-0.447-1.083-0.447-1.709
				c0-0.925,0.328-1.722,0.984-2.392c0.656-0.671,1.453-1.007,2.393-1.007c0.924,0,1.722,0.335,2.395,1.007
				C216.212,25.157,216.547,25.954,216.547,26.879z"/>
			<path id="j-body" d="M209.833,50.52V32.899c0-0.545,0.444-0.991,0.989-0.991h4.676c0.544,0,0.988,0.446,0.988,0.991v17.873
				c0,4.672-2.389,7.004-7.17,7.004c-1.105,0-2.266-0.15-3.477-0.459c-1.209-0.308-1.927-0.592-1.927-0.592
				c-0.507-0.203-0.921-0.812-0.921-1.357v-2.926c0-0.545,0.611-1.096,1.225-0.687c0.918,0.556,2.01,0.748,2.942,0.748
				c0.812,0,1.396-0.174,1.815-0.433C209.607,51.688,209.833,50.958,209.833,50.52z"/>
		</g>
	</g>
</g>
</svg>
