<?xml version="1.0" encoding="utf-8"?>
<!-- Generator: Adobe Illustrator 16.2.1, SVG Export Plug-In . SVG Version: 6.00 Build 0)  -->
<!DOCTYPE svg PUBLIC "-//W3C//DTD SVG 1.1//EN" "http://www.w3.org/Graphics/SVG/1.1/DTD/svg11.dtd">
<svg version="1.1" id="レイヤー_1" xmlns="http://www.w3.org/2000/svg" xmlns:xlink="http://www.w3.org/1999/xlink" x="0px"
	 y="0px" width="277.388px" height="90.504px" viewBox="0 0 277.388 90.504" enable-background="new 0 0 277.388 90.504"
	 xml:space="preserve">
<path fill="#040000" d="M96.817,57.002c2.616-7.265,4.814-12.304,4.702-13.179c-0.002-1.034-0.435-1.923-1.133-2.498
	c0.07-0.057,0.138-0.119,0.199-0.186c1.424-1.534,0.971-3.99,0.276-5.887c0.198-0.835,0.15-1.479,0.1-2.156
	c-0.029-0.386-0.062-0.823-0.062-1.42c0-0.151-0.008-0.296-0.022-0.442c-0.007-0.158-0.032-0.312-0.076-0.464
	c-0.176-0.777-0.649-1.728-1.854-2.36c0.107-0.304,0.196-0.591,0.264-0.86c0.277-0.652,0.433-1.113,0.517-1.525
	c0.297-1.453-0.003-2.801-0.82-3.774c-0.155-0.452-0.457-1.029-1.042-1.575c-0.368-0.815-0.659-1.488-0.85-1.958
	c-0.306-0.764-1.172-1.135-1.937-0.829c-0.764,0.306-1.135,1.173-0.829,1.937c0.231,0.577,0.579,1.378,1.036,2.381
	c0.099,0.217,0.249,0.408,0.437,0.555c0.325,0.256,0.372,0.473,0.376,0.497c0.058,0.32,0.217,0.614,0.455,0.835
	c0.281,0.26,0.373,0.747,0.253,1.337c-0.045,0.219-0.167,0.555-0.382,1.058c-0.036,0.082-0.063,0.166-0.084,0.253
	c-0.077,0.334-0.215,0.74-0.41,1.207c-0.132,0.314-0.15,0.663-0.057,0.989l0.271,0.938c0.143,0.488,0.523,0.871,1.012,1.014
	c0.67,0.198,0.714,0.413,0.742,0.556c0.003,0.011,0.006,0.023,0.007,0.034c0.002,0.013,0.003,0.025,0.005,0.038
	c0.007,0.053,0.009,0.104,0.009,0.158c0,0.709,0.041,1.248,0.07,1.642c0.05,0.672,0.064,0.963-0.077,1.429
	c-0.068,0.223-0.082,0.459-0.042,0.687c-0.007,0.204,0.025,0.408,0.102,0.6c0.478,1.223,0.604,2.157,0.557,2.673
	c-0.301-0.068-0.071,0.955-0.14,0.919c-0.438-0.232-0.103-0.001-1.075-0.074c-0.635-0.048-0.781-0.064-1.153,0.158
	c-1.131,0.678-2.159,4.917-1.077,4.184c1.015-0.688,2.62-1.609,2.965-1.154c0.341,0.45-0.054,1.103,0.604,0.856
	c-0.07,0.155-0.317,0.497-0.427,0.721c-1.432,2.949-2.827,6.298-2.321,8.77c0.073,0.356,0.132,1.481-0.471,2.38
	c-0.401,0.599-1.29,1.535-2.145,1.697L96.817,57.002z"/>
<path fill="#040000" d="M98.387,35.26c-0.156-0.369-0.348-0.752-0.658-1.09c-0.151-0.167-0.336-0.316-0.493-0.423l-0.194-0.136
	l-0.033-0.026c-0.007-0.005-0.007-0.005-0.013-0.007c0.003,0.013-0.066-0.076-0.062-0.062c-0.132-0.172-0.261-0.306-0.393-0.443
	c-0.133-0.135-0.268-0.265-0.406-0.392c-0.14-0.126-0.281-0.249-0.434-0.369c-0.118-0.091-0.231-0.18-0.381-0.268
	c-0.095-0.232-0.249-0.443-0.429-0.592c-0.228-0.196-0.478-0.311-0.714-0.405c-0.239-0.093-0.472-0.159-0.683-0.229
	c-0.079-0.026-0.153-0.054-0.221-0.082c0.057-0.057,0.108-0.115,0.156-0.173c0.127-0.159,0.232-0.324,0.329-0.489
	c0.192-0.332,0.353-0.67,0.507-1.009l0.439-1.015c0.145-0.333,0.291-0.675,0.47-0.969c0.196-0.296,0.418-0.59,0.68-0.815
	c0.124-0.11,0.296-0.207,0.394-0.168c0.102,0.038,0.138,0.245,0.136,0.412c-0.003,0.354-0.089,0.716-0.187,1.067
	c-0.101,0.353-0.224,0.699-0.357,1.041c0.157-0.332,0.302-0.671,0.426-1.02c0.122-0.35,0.235-0.704,0.264-1.085
	c0.006-0.097,0.004-0.194-0.015-0.295c-0.022-0.097-0.062-0.221-0.188-0.285c-0.123-0.061-0.251-0.029-0.345,0.008
	c-0.099,0.039-0.183,0.093-0.261,0.151c-0.311,0.236-0.555,0.522-0.785,0.823c-0.226,0.321-0.388,0.65-0.56,0.979l-0.503,0.979
	c-0.173,0.321-0.35,0.638-0.545,0.929c-0.1,0.146-0.203,0.284-0.314,0.406c-0.11,0.121-0.232,0.223-0.339,0.272l-0.002,0.001
	c-0.143,0.066-0.202,0.235-0.135,0.377l0.002,0.005c0.099,0.209,0.25,0.306,0.37,0.382c0.123,0.074,0.24,0.126,0.354,0.176
	c0.227,0.097,0.439,0.179,0.631,0.274s0.363,0.202,0.481,0.324c0.118,0.123,0.179,0.252,0.203,0.401
	c0.016,0.099,0.072,0.192,0.165,0.249l0.059,0.037c0.081,0.051,0.216,0.162,0.331,0.272c0.12,0.113,0.238,0.234,0.352,0.359
	c0.116,0.125,0.229,0.254,0.335,0.384c0.105,0.129,0.212,0.266,0.287,0.384c0.062,0.082,0.044,0.068,0.108,0.144l0.082,0.089
	l0.065,0.063c0.086,0.078,0.166,0.142,0.229,0.193c0.129,0.107,0.214,0.194,0.295,0.3c0.159,0.205,0.275,0.48,0.37,0.779
	l0.002,0.006c0.005,0.017,0.012,0.034,0.019,0.05c0.129,0.306,0.481,0.45,0.787,0.321C98.372,35.919,98.516,35.566,98.387,35.26"/>
<path fill="#040000" d="M89.417,28.251c0,0,0.583-1.481,0.485-1.978s-2.453-1.939-3.198-3.088c-0.744-1.147-1.604-4.205-2.907-4.57
	c-1.302-0.365-3.316,0.088-4.181,2.116c1.291-0.187,3.66-0.384,4.48,1.098C84.916,23.312,86.657,26.068,89.417,28.251"/>
<path fill="#040000" d="M92.556,27.365c0,0-0.51-0.948-0.308-1.419c0.201-0.473,1.039-0.822,1.173-1.207
	c0.135-0.384,0.966-3.338,1.833-2.74c0.867,0.599,0.894,1.285,0.894,1.285c-0.4-0.04-1.196,0.463-1.495,0.893
	C94.244,24.768,93.108,26.104,92.556,27.365"/>
<path fill="#040000" d="M86.891,28.702c0.342,0.64,0.057,2.385,0.417,2.666l1.466,0.334v-1.524L86.891,28.702z"/>
<path fill="#040000" d="M96.471,39.553c-0.14-0.081-0.28-0.147-0.417-0.241c-0.142-0.086-0.271-0.182-0.403-0.278
	c-0.258-0.198-0.5-0.42-0.728-0.642c-0.23-0.218-0.454-0.439-0.698-0.551c-0.061-0.032-0.123-0.052-0.187-0.067
	c-0.061-0.024-0.13-0.02-0.191-0.033c-0.067-0.002-0.135,0.002-0.202,0.003l-0.207,0.032c-0.139,0.02-0.269-0.075-0.29-0.215
	l-0.002-0.016l-0.005-0.042c-0.013-0.164,0.004-0.336-0.037-0.489c-0.021-0.16-0.075-0.304-0.132-0.437
	c-0.04-0.061-0.067-0.128-0.111-0.182c-0.049-0.048-0.084-0.108-0.14-0.146c-0.105-0.084-0.221-0.154-0.355-0.192
	c-0.063-0.023-0.133-0.04-0.206-0.048c-0.068-0.016-0.144-0.016-0.218-0.018c-0.147-0.005-0.3,0.015-0.449,0.046
	c-0.149,0.032-0.295,0.083-0.434,0.142c-0.065,0.036-0.135,0.066-0.196,0.104l-0.09,0.059l-0.09,0.054l-0.059,0.033
	c-0.043,0.023-0.07,0.044-0.126,0.069c-0.07,0.028-0.146,0.053-0.221,0.075c-0.078,0.026-0.145,0.031-0.211,0.036
	c-0.067,0.004-0.135,0.013-0.202,0.008c-0.269-0.02-0.531-0.106-0.748-0.257c-0.109-0.072-0.201-0.165-0.293-0.256
	c-0.075-0.102-0.165-0.2-0.216-0.312c-0.119-0.219-0.195-0.456-0.224-0.688c-0.038-0.233-0.026-0.46-0.006-0.681l0.057-0.323
	c0.022-0.105,0.06-0.204,0.09-0.305c0.055-0.209,0.152-0.386,0.232-0.578c0.09-0.182,0.194-0.352,0.292-0.531l0.176,0.826
	c0.004,0.009,0.01,0.014,0.019,0.016l-0.038-0.006c-0.021-0.007-0.081-0.011-0.118-0.017c-0.096-0.009-0.2-0.015-0.311-0.016
	c-0.22,0.001-0.448,0.008-0.678,0.034c-0.23,0.023-0.463,0.059-0.692,0.097c-0.229,0.042-0.458,0.093-0.687,0.143
	c-0.229,0.053-0.454,0.115-0.681,0.173l-0.671,0.199c-0.221,0.072-0.44,0.148-0.659,0.226c-0.22,0.076-0.433,0.167-0.646,0.255
	c-0.215,0.086-0.423,0.186-0.632,0.286c-0.204,0.108-0.407,0.219-0.607,0.335c-0.2,0.115-0.396,0.239-0.585,0.374
	c-0.188,0.134-0.374,0.273-0.557,0.419c-0.177,0.152-0.354,0.307-0.521,0.473c-0.175,0.159-0.323,0.342-0.487,0.519
	c-0.152,0.185-0.307,0.372-0.445,0.573c-0.15,0.195-0.273,0.408-0.417,0.617l-0.005,0.007c-0.021,0.033-0.067,0.041-0.102,0.019
	c-0.023-0.017-0.034-0.047-0.029-0.075c0.049-0.249,0.09-0.508,0.173-0.752c0.067-0.253,0.175-0.489,0.274-0.734
	c0.117-0.234,0.234-0.472,0.379-0.694c0.132-0.232,0.301-0.437,0.463-0.651c0.171-0.204,0.343-0.41,0.539-0.593
	c0.189-0.187,0.392-0.365,0.6-0.532c0.204-0.174,0.428-0.32,0.65-0.47c0.226-0.141,0.453-0.282,0.688-0.407
	c0.233-0.128,0.476-0.238,0.72-0.343c0.242-0.109,0.494-0.194,0.745-0.279c0.251-0.084,0.507-0.151,0.765-0.213
	c0.257-0.062,0.517-0.108,0.777-0.149c0.521-0.079,1.049-0.118,1.581-0.121c0.268-0.004,0.536,0.005,0.814,0.029
	c0.138,0.013,0.282,0.031,0.431,0.059c0.084,0.02,0.148,0.028,0.245,0.06c0.049,0.015,0.09,0.028,0.141,0.048
	c0.064,0.028,0.128,0.06,0.188,0.095c0.271,0.157,0.364,0.505,0.207,0.777l-0.015,0.022l-0.017,0.027
	c-0.086,0.134-0.184,0.266-0.262,0.403c-0.066,0.139-0.158,0.276-0.2,0.417c-0.024,0.069-0.059,0.14-0.077,0.21l-0.051,0.209
	c-0.021,0.137-0.04,0.275-0.026,0.4c0.006,0.128,0.038,0.244,0.083,0.346c0.017,0.057,0.058,0.09,0.08,0.141
	c0.036,0.035,0.067,0.08,0.107,0.108c0.076,0.064,0.165,0.1,0.255,0.119c0.039,0,0.104,0.009,0.125,0.002
	c0.012-0.003,0.024-0.001,0.041,0.002c0.029-0.007,0.079-0.035,0.117-0.052l0.062-0.029l0.015-0.008
	c0.01-0.005-0.074,0.045-0.037,0.023l0.003-0.001l0.005-0.003l0.009-0.005l0.035-0.021l0.145-0.078
	c0.098-0.05,0.196-0.086,0.295-0.128c0.2-0.067,0.402-0.119,0.61-0.147c0.207-0.026,0.419-0.036,0.631-0.014
	c0.106,0.012,0.213,0.023,0.319,0.053l0.158,0.04l0.155,0.062c0.206,0.082,0.397,0.217,0.558,0.379
	c0.086,0.076,0.142,0.177,0.21,0.266c0.062,0.093,0.099,0.198,0.145,0.296c0.071,0.203,0.121,0.409,0.129,0.611
	c0.03,0.204-0.004,0.397-0.008,0.594l-0.296-0.273l0.269-0.015c0.092,0.006,0.184,0.009,0.275,0.022
	c0.091,0.023,0.187,0.031,0.272,0.071c0.09,0.031,0.174,0.069,0.253,0.119c0.161,0.092,0.291,0.211,0.412,0.329
	c0.117,0.12,0.226,0.242,0.33,0.362c0.21,0.241,0.414,0.475,0.641,0.69c0.116,0.105,0.23,0.21,0.354,0.304
	c0.117,0.101,0.256,0.187,0.385,0.28l0.002,0.002c0.031,0.023,0.039,0.068,0.015,0.101C96.542,39.562,96.501,39.571,96.471,39.553"
	/>
<path fill="#040000" d="M78.482,43.827c-0.049,0.131-0.068,0.245-0.073,0.367c-0.009,0.121,0,0.242,0.009,0.363
	c0.018,0.241,0.066,0.481,0.111,0.719c0.096,0.478,0.215,0.952,0.339,1.425c0.127,0.472,0.254,0.944,0.395,1.405
	c0.066,0.23,0.142,0.46,0.215,0.677c0.038,0.106,0.08,0.215,0.118,0.305c0.018,0.049,0.039,0.09,0.05,0.115
	c0.005,0.008,0.017,0.031,0.005,0.014c-0.007-0.008,0,0.003-0.022-0.02c-0.029-0.03-0.068-0.056-0.107-0.069l-0.663,0.116
	c0.076-0.064,0.152-0.125,0.229-0.186c0.077-0.058,0.154-0.125,0.232-0.173c0.155-0.094,0.314-0.183,0.471-0.269
	c0.158-0.076,0.32-0.144,0.479-0.215c0.159-0.063,0.324-0.116,0.484-0.173c0.163-0.054,0.326-0.096,0.491-0.139
	c0.163-0.046,0.331-0.076,0.498-0.108c0.165-0.033,0.334-0.059,0.503-0.076c0.168-0.023,0.34-0.034,0.511-0.039
	c-0.277,0.203-0.556,0.389-0.834,0.567l-0.412,0.271c-0.135,0.092-0.276,0.172-0.407,0.266l-0.398,0.264
	c-0.128,0.09-0.253,0.183-0.381,0.268c-0.119,0.092-0.23,0.188-0.351,0.275c-0.058,0.047-0.098,0.096-0.146,0.143
	s-0.095,0.092-0.145,0.137l-0.048,0.042c-0.176,0.153-0.422,0.173-0.616,0.073c-0.064-0.034-0.127-0.077-0.184-0.126
	c-0.047-0.043-0.056-0.06-0.084-0.091c-0.055-0.063-0.073-0.098-0.103-0.142c-0.053-0.083-0.09-0.153-0.125-0.222
	c-0.07-0.138-0.117-0.268-0.168-0.396c-0.099-0.256-0.173-0.512-0.242-0.766c-0.131-0.51-0.225-1.025-0.272-1.549
	s-0.057-1.052,0.011-1.585c0.032-0.266,0.092-0.531,0.177-0.792c0.048-0.13,0.105-0.255,0.176-0.375
	C78.277,44.009,78.375,43.896,78.482,43.827"/>
<path fill="#040000" d="M83.465,38.075c0.095-0.056,0.443-0.263,0.542-0.318c3.904-2.193,8.951-1.102,12.222,0.951
	c0.232,0.146,0.303,0.453,0.158,0.685c-0.146,0.232-0.453,0.302-0.685,0.156c-3.021-1.896-7.659-2.919-11.208-0.926L83.465,38.075z"
	/>
<path fill="#040000" d="M88.206,31.97c-2.601,0-4.034-1.062-4.914-1.716c-0.181-0.133-0.337-0.249-0.47-0.332
	c-0.282-0.176-0.367-0.547-0.192-0.828c0.175-0.281,0.545-0.368,0.828-0.191c0.174,0.11,0.356,0.244,0.548,0.387
	c0.921,0.682,2.179,1.617,4.73,1.463c0.337-0.019,0.616,0.232,0.636,0.563c0.021,0.332-0.23,0.616-0.562,0.636
	C88.603,31.964,88.4,31.97,88.206,31.97"/>
<path fill="#040000" d="M94.239,32.091c-0.31,0-0.573-0.238-0.598-0.552c-0.027-0.331,0.219-0.621,0.55-0.648
	c0.322-0.026,0.883-0.244,1.724-1.133c0.229-0.24,0.609-0.251,0.85-0.022c0.24,0.228,0.251,0.608,0.022,0.849
	c-0.897,0.947-1.717,1.439-2.5,1.504C94.272,32.09,94.256,32.091,94.239,32.091"/>
<path fill="#040000" d="M93.935,29.263c0,0.43-0.008,1.888-0.144,2.106c-0.133,0.217-0.193,0.076-0.193,0.076l-0.671-0.828
	L93.935,29.263z"/>
<path fill="#040000" d="M88.522,22.128c0,0,0.084,0.065,0.231,0.18c0.146,0.129,0.338,0.336,0.548,0.583
	c0.207,0.253,0.442,0.555,0.668,0.895c0.229,0.337,0.452,0.709,0.663,1.089c0.209,0.379,0.463,0.746,0.618,1.128
	c0.072,0.194,0.124,0.386,0.156,0.577c0.029,0.191,0.056,0.37,0.057,0.547c0.005,0.173-0.003,0.335-0.023,0.483
	c-0.013,0.074-0.02,0.138-0.033,0.204c-0.021,0.065-0.037,0.125-0.055,0.179c-0.026,0.1-0.082,0.193-0.117,0.243
	c-0.035,0.048-0.056,0.074-0.056,0.074c-0.02,0.027-0.058,0.032-0.085,0.012c-0.007-0.006-0.014-0.014-0.018-0.022l-0.012-0.025
	c0,0-0.014-0.026-0.037-0.077c-0.026-0.049-0.049-0.1-0.104-0.184c-0.049-0.079-0.102-0.168-0.174-0.278
	c-0.064-0.107-0.138-0.229-0.217-0.361c-0.148-0.268-0.328-0.579-0.454-0.938c-0.129-0.358-0.186-0.78-0.324-1.172
	c-0.126-0.396-0.277-0.784-0.41-1.152c-0.14-0.366-0.275-0.705-0.402-0.992c-0.068-0.141-0.131-0.27-0.187-0.382
	c-0.06-0.11-0.112-0.205-0.156-0.283c-0.104-0.155-0.165-0.244-0.165-0.244c-0.019-0.028-0.012-0.065,0.016-0.084
	C88.472,22.11,88.501,22.112,88.522,22.128"/>
<path fill="#040000" d="M92.22,27.518c0,0-0.061-0.095-0.124-0.256c-0.069-0.162-0.13-0.397-0.177-0.662
	c-0.043-0.264-0.074-0.563-0.049-0.864c0.014-0.151,0.05-0.305,0.082-0.462c0.035-0.158,0.058-0.317,0.068-0.479
	c0.006-0.16,0.016-0.322,0.005-0.479c-0.006-0.158-0.014-0.316-0.033-0.468c-0.007-0.154-0.048-0.296-0.062-0.44
	c-0.029-0.14-0.063-0.271-0.09-0.395c-0.039-0.122-0.074-0.233-0.104-0.331c-0.03-0.101-0.071-0.182-0.095-0.255
	c-0.055-0.143-0.087-0.224-0.087-0.224l-0.002-0.005c-0.011-0.031,0.005-0.066,0.035-0.078c0.023-0.009,0.049-0.002,0.065,0.015
	c0,0,0.062,0.066,0.168,0.18c0.053,0.059,0.123,0.126,0.186,0.216c0.065,0.09,0.141,0.191,0.222,0.3
	c0.072,0.117,0.154,0.242,0.234,0.381c0.07,0.142,0.153,0.291,0.215,0.455c0.068,0.162,0.132,0.333,0.179,0.513
	c0.054,0.178,0.088,0.363,0.126,0.549c0.032,0.186,0.065,0.373,0.098,0.557c0.033,0.185,0.046,0.367,0.041,0.541
	c-0.022,0.348-0.134,0.652-0.244,0.904c-0.12,0.251-0.241,0.446-0.352,0.585c-0.104,0.14-0.185,0.217-0.185,0.217
	c-0.031,0.03-0.079,0.029-0.11-0.002C92.226,27.527,92.223,27.523,92.22,27.518"/>
<path fill="#040000" d="M77.592,38.424c0,0,0.026,0.073,0.049,0.193c0,0.065,0.055,0.118,0.076,0.165
	c0.021,0.04,0.088,0.106,0.118,0.149c0.057,0.048,0.089,0.092,0.153,0.132c0.048,0.043,0.113,0.079,0.167,0.121
	c0.066,0.035,0.119,0.079,0.189,0.114c0.063,0.04,0.135,0.073,0.202,0.113c0.071,0.031,0.139,0.075,0.213,0.104
	c0.037,0.014,0.073,0.036,0.109,0.054c0.038,0.014,0.076,0.026,0.111,0.046c0.075,0.039,0.151,0.056,0.229,0.094
	c0.076,0.026,0.154,0.049,0.23,0.08c0.076,0.018,0.152,0.042,0.225,0.064c0.072,0.021,0.137,0.03,0.194,0.044
	c0.112,0.025,0.191,0.049,0.191,0.049s-0.028,0.069-0.102,0.172c-0.037,0.048-0.08,0.124-0.147,0.174
	c-0.063,0.057-0.143,0.123-0.235,0.182c-0.095,0.048-0.204,0.1-0.325,0.139c-0.122,0.025-0.257,0.063-0.396,0.059
	c-0.141,0.003-0.288-0.005-0.432-0.044c-0.148-0.024-0.286-0.095-0.426-0.155c-0.132-0.081-0.265-0.158-0.372-0.271
	c-0.117-0.098-0.207-0.229-0.287-0.353c-0.074-0.135-0.131-0.269-0.159-0.413c-0.037-0.132-0.026-0.282-0.019-0.399
	c0.032-0.129,0.053-0.225,0.115-0.323c0.053-0.09,0.104-0.165,0.156-0.19C77.521,38.458,77.592,38.424,77.592,38.424"/>
<path fill="#040000" d="M85.728,32.662c0,0-0.021,0.006-0.059,0.016c-0.039,0.009-0.093,0.025-0.164,0.033
	c-0.071,0.008-0.166,0.017-0.265,0.016s-0.212-0.003-0.331-0.017c-0.12-0.012-0.248-0.033-0.382-0.063
	c-0.134-0.027-0.27-0.07-0.409-0.12c-0.137-0.056-0.275-0.12-0.412-0.198c-0.136-0.074-0.273-0.15-0.412-0.227
	c-0.277-0.147-0.55-0.306-0.795-0.471c-0.121-0.085-0.24-0.161-0.347-0.246c-0.108-0.083-0.208-0.161-0.297-0.241
	c-0.09-0.075-0.171-0.146-0.239-0.216c-0.068-0.067-0.129-0.123-0.172-0.178c-0.089-0.105-0.14-0.164-0.14-0.164
	c-0.013-0.014-0.011-0.035,0.004-0.047c0.012-0.01,0.027-0.01,0.041-0.001l0.002,0.002c0,0,0.062,0.045,0.17,0.123
	c0.053,0.041,0.123,0.083,0.201,0.133c0.076,0.051,0.166,0.104,0.267,0.157c0.197,0.111,0.439,0.224,0.697,0.341
	c0.261,0.11,0.539,0.228,0.824,0.33c0.142,0.053,0.285,0.097,0.43,0.136c0.143,0.042,0.285,0.078,0.417,0.127
	c0.263,0.096,0.5,0.214,0.702,0.317c0.101,0.055,0.192,0.104,0.275,0.15c0.082,0.049,0.149,0.085,0.209,0.124
	c0.122,0.07,0.194,0.118,0.194,0.118c0.017,0.011,0.021,0.033,0.011,0.05C85.743,32.654,85.735,32.659,85.728,32.662"/>
<path fill="#040000" d="M94.759,32.467c-0.213,0-0.418-0.112-0.526-0.311c-0.16-0.291-0.055-0.656,0.236-0.816
	c0.443-0.245,2.643-1.415,3.811-0.343c-0.042,0.188-0.065,0.657,0.11,0.855c-0.225,0.245-0.605,0.261-0.85,0.036
	c-0.379-0.349-1.714,0.077-2.491,0.505C94.956,32.442,94.857,32.467,94.759,32.467"/>
<path fill="#040000" d="M69.519,32.914c0,0,0.001,0.027,0.002,0.079c0.004,0.053,0.001,0.13-0.01,0.235
	c-0.025,0.205-0.08,0.506-0.194,0.871c-0.11,0.365-0.254,0.803-0.427,1.291c-0.167,0.491-0.353,1.042-0.507,1.633
	c-0.157,0.589-0.276,1.229-0.271,1.857c0.003,0.63,0.165,1.219,0.518,1.706c0.037,0.064,0.094,0.12,0.142,0.179
	c0.021,0.025,0.054,0.069,0.067,0.079l0.102,0.113c0.145,0.165,0.248,0.261,0.386,0.397c0.27,0.26,0.562,0.509,0.863,0.748
	c0.606,0.47,1.268,0.906,1.947,1.213c0.337,0.157,0.677,0.283,0.996,0.352c0.316,0.068,0.613,0.088,0.797,0.033
	c0.186-0.05,0.284-0.114,0.404-0.301c0.117-0.184,0.195-0.483,0.239-0.803l0.024-0.246l0.007-0.257
	c0.007-0.165-0.002-0.382,0.002-0.568c0.001-0.385,0.002-0.762,0.003-1.129c0.012-0.738,0.024-1.434,0.062-2.081
	c0.026-0.644,0.085-1.24,0.136-1.765c0.035-0.266,0.062-0.513,0.1-0.739c0.034-0.227,0.087-0.438,0.123-0.625
	c0.032-0.187,0.093-0.354,0.138-0.496c0.043-0.142,0.086-0.261,0.135-0.354c0.089-0.183,0.136-0.281,0.136-0.281
	s-0.01,0.106-0.029,0.309c-0.016,0.097-0.019,0.22-0.013,0.365c0.007,0.145-0.005,0.305,0.014,0.492
	c0.021,0.367,0.08,0.813,0.132,1.324c0.072,0.513,0.153,1.091,0.241,1.723c0.084,0.633,0.175,1.318,0.272,2.042
	c0.044,0.365,0.089,0.739,0.136,1.122c0.021,0.198,0.049,0.368,0.062,0.596l0.022,0.334l-0.002,0.35
	c-0.016,0.473-0.084,0.993-0.354,1.538c-0.125,0.271-0.337,0.537-0.585,0.765c-0.261,0.213-0.567,0.391-0.876,0.475
	c-0.625,0.192-1.2,0.146-1.711,0.045c-0.513-0.104-0.977-0.273-1.414-0.473c-0.869-0.408-1.637-0.93-2.326-1.521
	c-0.348-0.292-0.67-0.606-0.971-0.94c-0.146-0.162-0.322-0.364-0.435-0.513l-0.094-0.119c-0.054-0.067-0.076-0.108-0.115-0.163
	c-0.07-0.104-0.145-0.202-0.201-0.315c-0.517-0.866-0.633-1.879-0.517-2.703c0.111-0.836,0.382-1.542,0.669-2.148
	c0.287-0.609,0.605-1.119,0.887-1.566c0.278-0.446,0.541-0.818,0.74-1.131c0.197-0.314,0.352-0.561,0.435-0.742
	c0.039-0.088,0.073-0.16,0.088-0.21C69.51,32.939,69.519,32.914,69.519,32.914"/>
<path fill="#040000" d="M74.063,50.408c-0.172-0.059-11.749,4.022-14.67,22.938l-0.047,0.302l0.297,0.071
	c2.527,0.604,6.644,9.595,8.016,13.009l0.123,0.306l0.306-0.121c4.344-1.719,2.815-7.831,1.588-12.743
	c-0.477-1.9-0.926-3.697-0.892-4.798c0.132-4.276,2.468-7.469,6.943-9.488l0.699-0.314L74.063,50.408z"/>
<path fill="#040000" d="M84.889,47.227c0,0,0.131-0.102,0.366-0.252c0.241-0.148,0.597-0.346,1.036-0.538
	c0.882-0.388,2.126-0.739,3.417-0.834c0.322-0.029,0.648-0.026,0.967-0.029c0.158,0.006,0.318,0.015,0.475,0.027
	c0.157,0.007,0.311,0.02,0.463,0.046c0.304,0.038,0.595,0.09,0.869,0.162c0.273,0.062,0.527,0.151,0.757,0.238
	c0.231,0.077,0.433,0.19,0.609,0.281c0.088,0.048,0.171,0.087,0.244,0.131c0.071,0.051,0.137,0.096,0.196,0.137
	c0.233,0.166,0.354,0.271,0.354,0.271s-0.168-0.01-0.441-0.048c-0.066-0.009-0.143-0.021-0.224-0.031
	c-0.083-0.002-0.171-0.013-0.266-0.02c-0.188-0.015-0.394-0.038-0.623-0.041c-0.229-0.009-0.471-0.026-0.729-0.021
	c-0.256-0.009-0.528-0.001-0.808,0.004c-0.278-0.004-0.57,0.029-0.862,0.029c-0.294,0.029-0.593,0.026-0.892,0.062
	c-0.3,0.018-0.6,0.047-0.896,0.073c-0.297,0.027-0.589,0.056-0.872,0.081c-0.573,0.057-1.107,0.108-1.565,0.153
	c-0.466,0.04-0.855,0.075-1.135,0.091C85.053,47.225,84.889,47.227,84.889,47.227"/>
<path fill="#040000" d="M69.665,87.729c-0.295-0.2,3.29-3.827,3.33-4.182c0.46-4.18,0.663-6.983,0.427-9.83
	c-0.475-5.69,1.255-16.893,3.579-21.001c0.132-0.232,0.397-0.181,0.658-0.241c0.263-0.061,1.418,0.186,1.641,0.336l3.068,1.387
	c0.358,0.242,0.933,0.503,0.793,0.913c-4.546,13.312-5.354,19.608-4.463,26.42c0.051,0.397-0.148,0.787-0.505,0.975
	C78.192,82.504,73.71,84.674,69.665,87.729"/>
<path fill="#040000" d="M89.303,28.679c0,0,0.029,0.273,0.079,0.751c0.014,0.119,0.027,0.251,0.042,0.395
	c0.007,0.072,0.015,0.147,0.022,0.225c0.004,0.039,0.007,0.078,0.012,0.119l0.003,0.03l0.001,0.015l0.001,0.007
	c0.002-0.011-0.018,0.108-0.01,0.06l-0.001,0.003c-0.006,0.009,0.008,0.01-0.043,0.074c-0.022,0.022-0.05,0.041-0.075,0.052
	L89.3,30.419c-0.157,0.028-0.227,0-0.33-0.012c-0.093-0.018-0.186-0.04-0.279-0.064c-0.047-0.013-0.095-0.025-0.143-0.039
	l-0.036-0.011c-0.049-0.019-0.031-0.015-0.051-0.023l-0.064-0.033c-0.086-0.037-0.188-0.117-0.285-0.179
	c-0.355-0.256-0.698-0.529-1.065-0.835c-0.367-0.301-0.741-0.631-1.128-0.973c-0.774-0.683-1.574-1.44-2.358-2.219
	c-0.396-0.387-0.784-0.782-1.165-1.181c-0.19-0.2-0.38-0.401-0.559-0.618c-0.089-0.102-0.178-0.216-0.261-0.334
	c-0.084-0.114-0.177-0.25-0.213-0.292c-0.051-0.071-0.11-0.134-0.148-0.164c-0.037-0.033-0.048-0.014,0.071-0.011
	c0.056-0.008,0.118-0.026,0.145-0.054c0.025-0.018,0.027-0.028,0.02-0.021c-0.02,0.011-0.06,0.084-0.093,0.154
	c-0.066,0.158-0.12,0.356-0.159,0.554c-0.047,0.197-0.081,0.397-0.11,0.592c-0.057,0.39-0.105,0.759-0.143,1.088
	c-0.04,0.331-0.076,0.62-0.104,0.858c-0.062,0.48-0.108,0.758-0.108,0.758c-0.005,0.034-0.036,0.057-0.07,0.052
	c-0.024-0.004-0.043-0.022-0.05-0.043c0,0-0.021-0.067-0.059-0.193c-0.038-0.127-0.089-0.312-0.143-0.551
	c-0.057-0.238-0.117-0.529-0.168-0.868c-0.05-0.338-0.103-0.722-0.116-1.152c-0.012-0.434-0.022-0.895,0.13-1.468
	c0.049-0.148,0.093-0.302,0.216-0.485c0.064-0.091,0.15-0.19,0.273-0.28c0.132-0.089,0.309-0.164,0.49-0.169
	c0.372-0.011,0.591,0.145,0.751,0.262c0.161,0.127,0.272,0.255,0.376,0.389c0.117,0.164,0.163,0.246,0.23,0.344
	c0.065,0.097,0.127,0.198,0.204,0.3c0.145,0.204,0.294,0.415,0.454,0.625c0.313,0.423,0.663,0.838,1.011,1.254
	c0.71,0.82,1.45,1.621,2.147,2.368c0.349,0.373,0.693,0.727,1.019,1.062c0.324,0.333,0.648,0.649,0.933,0.906
	c0.072,0.055,0.116,0.117,0.206,0.169l0.062,0.039c0.002,0.003,0.037,0.022,0.013,0.011l0.031,0.013l0.128,0.051
	c0.084,0.031,0.167,0.06,0.245,0.084c0.071,0.023,0.173,0.039,0.181,0.039c-0.001,0.001,0.001,0.002-0.003,0.003
	c-0.016,0.005-0.034,0.018-0.048,0.036c-0.012,0.01-0.021,0.053-0.017,0.039l0.007-0.015l0.002-0.003
	c0.007-0.051-0.01,0.065-0.008,0.052v-0.008v-0.015v-0.031c0-0.04,0.001-0.08,0.001-0.119c0.001-0.077,0.001-0.152,0.002-0.225
	c0.002-0.144,0.005-0.277,0.007-0.396c0.007-0.479,0.013-0.753,0.013-0.753c0-0.033,0.027-0.06,0.062-0.059
	c0.03,0,0.055,0.024,0.058,0.053L89.303,28.679z"/>
<path fill="#040000" d="M96.781,13.337c-1.925-3.665-5.3-7.723-15.722-10.04c-0.687-0.153-1.396-0.267-2.119-0.35
	c-1.411-2.163-5.115-3.497-8.127-2.729V0.22h-0.002c0,0.54,0.02,1.306-0.615,1.969c-0.495,0.516-1.386,0.971-2.987,1.209
	c-1.281,0.191-2.708,1.094-3.967,2.392c-2.345,2.416-4.104,6.203-3.244,9.33c0.44,1.172,1.197,1.748,1.69,1.342
	c0.113-0.093,0.215-0.239,0.293-0.442c0.263-0.675,0.445-1.241,0.738-1.575c0.014-0.015,0.028-0.024,0.042-0.038
	c0.034,0.028,0.068,0.059,0.106,0.083l0.169,0.104c0.906,0.562,1.849,1.113,2.697,1.305c0.003-0.001,0.006-0.003,0.008-0.004
	c0.005,0.001,0.011,0.003,0.016,0.004c-0.249,1.112-0.639,3.353-0.322,5.439c0.414,2.714,1.409,5.673,2.599,7.722
	c0.205,0.352,0.158,0.59,0.104,0.739c-0.246,0.688-1.395,1.256-1.776,1.399c-0.196,0.073-0.34,0.243-0.38,0.448l-0.541,2.763
	c-0.047,0.234,0.051,0.473,0.245,0.608c0.195,0.136,0.452,0.145,0.655,0.021c1.426-0.867,3.177-1.95,3.418-2.191
	c0.357-0.357,1.082-1.894,0.898-3.285c0.062-2.766,1.089-4.287,2.89-4.287c0.852,0,1.598,0.359,1.811,0.618
	c0.854,1.047,1.113,1.446,0.893,2.893c-0.112,0.73-0.318,1.709-0.518,2.656c-0.581,2.757-0.616,3.111-0.345,3.447
	c0.114,0.14,0.313,0.236,0.495,0.236c0.991,0,2.631-2.439,3.889-7.793c1.069-4.559,0.486-9.088,0.173-11.52
	c-0.025-0.194-0.05-0.379-0.07-0.552c2.271,1.154,7.465,3.63,9.937,4.454c0.553,0.184,1.208,0.281,1.897,0.281
	c1.735,0,4.146-0.637,5.229-2.43C97.441,16.73,97.823,15.319,96.781,13.337"/>
<path fill="#040000" d="M49.645,75.805c0.034,0.008,0.068,0.012,0.103,0.012c0.12,0,0.236-0.043,0.328-0.124
	c0.118-0.104,0.18-0.257,0.167-0.413c-0.004-0.051-0.368-5.034,2.465-10.236c0.753-1.385,1.642-2.995,2.583-4.701
	c2.776-5.029,5.922-10.732,7.582-14.187c2.25-4.685,3.647-9.884,3.833-14.27c0.008-0.174-0.077-0.34-0.223-0.435
	c-0.146-0.097-0.33-0.109-0.488-0.034c-0.16,0.077-1.58,0.766-2.098,1.228c-0.068,0.061-0.119,0.14-0.146,0.228
	c-0.923,3.086-4.433,12.096-7.167,16.969c-0.651,1.162-1.538,2.686-2.521,4.351c-0.146,0.93-0.32,1.87-0.524,2.818
	c1.599-2.677,3.073-5.186,3.912-6.683c2.725-4.856,6.21-13.77,7.208-17.023c0.227-0.169,0.616-0.395,1.003-0.603
	c-0.316,4.029-1.668,8.826-3.684,13.023c-1.648,3.428-4.787,9.118-7.557,14.137c-0.942,1.708-1.83,3.317-2.586,4.705
	c-2.395,4.397-2.619,8.558-2.606,10.133L49.645,75.805z"/>
<path fill="#040000" d="M83.18,29.731c-0.016,0-0.031-0.002-0.047-0.005c-0.13-0.026-0.215-0.152-0.189-0.282
	c0.066-0.335-0.062-3.491-0.982-5.125c-0.064-0.116-0.023-0.262,0.092-0.327c0.116-0.065,0.262-0.024,0.328,0.092
	c1,1.78,1.118,5.035,1.034,5.453C83.393,29.652,83.293,29.731,83.18,29.731"/>
<path fill="#040000" d="M85.124,35.177c0.067-0.034,0.135-0.066,0.203-0.093c0.198-0.091,0.404-0.171,0.641-0.25
	c0.217-0.074,0.436-0.133,0.641-0.185c0.362-0.088,0.743-0.155,1.165-0.201c0.14-0.016,0.271-0.024,0.393-0.032l0.088-0.007
	l0.382-0.009h0.045c-0.029,0.082-0.052,0.176-0.054,0.281c0,0.119,0.026,0.229,0.06,0.325l-0.115-0.021l-0.328-0.047l-0.092-0.008
	c-0.109-0.011-0.232-0.022-0.363-0.031c-0.166-0.009-0.346-0.015-0.534-0.015c-0.207,0-0.41,0.008-0.604,0.022
	c-0.205,0.018-0.42,0.038-0.643,0.075c-0.24,0.037-0.456,0.082-0.658,0.136C85.272,35.134,85.198,35.154,85.124,35.177"/>
<path fill="#040000" d="M53.812,55.65c4.566-7.82,9.604-17.419,10.596-23.318c-0.661-0.39-3.786-0.571-7.39,1.051
	c-0.476,2.203-1.347,4.969-2.373,7.776C54.849,45.537,54.781,50.446,53.812,55.65"/>
<path fill="#040000" d="M53.769,11.089c-1.738-0.429-4.224-0.936-7.1-1.522C39.51,8.107,31.253,6.81,28.961,5.493
	c-1.87-1.075-4.449-4.185-4.449-4.185V15.54l0.956-0.15c0.024-0.004,2.426-0.376,5.131-0.376c0.932,0,1.799,0.044,2.575,0.131
	c0.287,0.032,0.689,0.073,1.19,0.124c3.532,0.359,10.611,1.198,17.826,2.979l2.751,0.679l2.22-7L53.769,11.089z"/>
<path fill="#040000" d="M38.059,43.747c-2.742-1.485-6.497-3.519-15.319-3.519c-0.312,0-0.633,0.003-0.956,0.008v-9.152
	c2.576,0.172,6.21,0.362,9.704,0.362c4.395,0,7.261-0.306,8.52-0.909l0.158-0.076l0.527-5.645l0.047-0.543l-0.493,0.236
	c-0.021,0.01-0.539,0.25-2.602,0.576c-1.104,0.174-3.875,0.287-7.059,0.287c-4.251,0-8.683-0.195-12.479-0.55l-2.927-0.273v22.875
	l3.646-0.383c1.474-0.155,2.89-0.233,4.208-0.233c6.005,0,8.936,1.628,10.525,2.511c0.168,0.094,0.325,0.182,0.473,0.26
	c-0.299,3.791-1.557,7.646-3.553,10.879c-2.032,3.291-4.353,4.664-5.194,5.08c-0.836-0.408-3.141-1.766-5.187-5.08
	c-1.59-2.574-2.677-5.415-3.228-8.446l-0.048-0.261l-0.265,0.007c-0.87,0.022-1.782-0.081-2.694-0.306
	c-1.245-0.306-2.421-0.819-3.4-1.482L9.92,49.601l0.062,0.655c0.417,4.443,2.101,9.286,4.741,13.636l0.16,0.265
	c1.597,2.639,1.884,3.112,9.689,9.726l0.715,0.604l0.715-0.604c7.808-6.613,8.095-7.086,9.69-9.723l0.16-0.267
	c3.08-5.074,4.846-10.808,4.846-15.729v-3.187l-0.707-0.272C39.395,44.471,38.779,44.137,38.059,43.747"/>
<path fill="#040000" d="M116.093,65.736c1.249-4.106,0.794-4.902,0.619-5.207c-0.255-0.446-0.604-0.813-2.741-1.586
	c0.523-1.465,0.564-2.633,0.12-3.482c-0.341-0.65-1.254-1.535-5.132-2.737c4.16-5.102,10.153-13.069,10.153-16.629
	c0-2.113-3.176-9.437-6.556-9.437c-0.116,0-0.231,0.008-0.345,0.022c-2.201,0.304-5.015,5.003-14.332,23.947
	c-1.705,3.466-3.052,6.204-3.608,7.138c-0.461,0.774-0.773,1.016-1.068,1.092c-0.346-1.1-0.563-2.448-0.619-3.873
	c-0.084-2.141-0.504-4.088-0.521-4.17l-0.065-0.304l-0.174-0.255c-0.039-0.057-0.967-1.423-2.097-2.347
	c-1.169-0.956-2.563-1.06-3.108-1.06c-0.122,0-0.189,0.006-0.189,0.006l-1.185,0.077l-0.271,1.149
	c-0.018,0.071-1.801,7.605-2.901,13.004l-0.053,0.261L83.842,75.3l0.117,0.24c1.25,2.526,2.496,4.35,3.322,5.559
	c0.188,0.275,0.445,0.65,0.607,0.905c-0.449,1.999-0.403,3.213,0.142,3.911c0.343,0.44,0.856,0.692,1.409,0.692h15.003
	c1.06,0,2.024-0.761,3.535-4.518c0.266-0.352,0.813-1.089,1.482-1.991c0.78-1.048,1.8-2.419,2.536-3.399
	c0.279-0.333,0.562-0.697,0.84-1.082l4.551-3.41l-0.022-0.828C117.354,71.05,117.243,68.204,116.093,65.736 M114.695,61.684
	c-0.042,0.653-0.468,2.54-0.931,3.915c-3.808,6.201-7.048,10.139-7.844,10.234c-0.747-0.104-0.865-0.451-1.082-1.294
	c-0.105-0.409-0.226-0.867-0.483-1.287c3.96-5.691,5.224-8.217,6.072-9.913c0.526-1.053,0.87-1.735,1.598-2.672
	C113.108,61.029,114.253,61.456,114.695,61.684 M107.644,78.75c-0.779,1.048-1.452,1.953-1.594,2.135l-0.06,0.076l-0.035,0.089
	c-0.529,1.34-1.297,2.918-1.663,3.295H89.835c0.004-0.481,0.154-1.439,0.376-2.329l0.026-0.104l-0.008-0.106
	c-0.033-0.452-0.382-0.964-1.08-1.983c-0.778-1.139-1.948-2.851-3.112-5.188L84.312,61.43c0.926-4.533,2.311-10.479,2.735-12.283
	c0.355,0.052,0.844,0.185,1.248,0.516c0.712,0.582,1.368,1.461,1.582,1.761c0.091,0.448,0.382,2.01,0.446,3.65
	c0.084,2.159,0.499,4.163,1.168,5.645l0.153,0.339l0.37,0.045c0.284,0.035,0.541,0.053,0.783,0.053c1.482,0,2.474-0.646,3.418-2.23
	c0.603-1.012,1.969-3.788,3.697-7.304c2.19-4.454,4.917-9.995,7.365-14.548c3.878-7.21,5.014-8.065,5.243-8.149
	c0.012-0.002,0.022-0.002,0.035-0.002c0.467,0,1.488,0.894,2.631,2.859c1.079,1.858,1.662,3.609,1.662,4.314
	c0,3.154-8.067,13.374-11.188,17.061l-2.795,3.027l0.974,0.899l2.535-2.746c2.558,0.691,5.369,1.697,5.71,2.175
	c0.227,0.433-0.262,1.925-0.848,3.019c-0.992,1.215-1.416,2.059-1.995,3.217c-0.864,1.728-2.165,4.329-6.449,10.428
	c-0.286,0.062-0.974,0.106-1.792-0.582c-1.297-1.091-1.861-3.173-1.544-3.954c0.22-0.54,2.262-1.833,4.031-2.702l0.394-0.192
	l-0.024-0.438c-0.189-3.413,2.07-5.727,2.091-5.748l1.137-1.132h-3.602v1.325h0.636c-0.721,1.083-1.61,2.89-1.597,5.189
	c-1.239,0.632-3.83,2.064-4.292,3.2c-0.6,1.477,0.332,4.134,1.919,5.468c0.876,0.736,1.703,0.923,2.315,0.923
	c0.464,0,0.803-0.106,0.946-0.161c0.053,0.159,0.099,0.327,0.145,0.503c0.222,0.86,0.525,2.041,2.18,2.274
	c0.057,0.008,0.115,0.012,0.176,0.012c0.249,0,0.543-0.076,0.921-0.311c0.175,0.533,0.526,1.031,1.176,1.26
	c0.031,0.011,0.063,0.016,0.096,0.023C107.953,78.333,107.801,78.538,107.644,78.75 M111.282,73.955l-0.103,0.096
	c-0.11,0.125-0.411,0.518-0.849,1.098c-0.793,0.945-1.582,1.666-1.907,1.697c-0.362-0.148-0.41-0.692-0.407-0.996
	c0.808-0.821,1.874-2.132,3.326-4.183c1.179-1.665,2.275-3.354,2.939-4.4c0.573,1.513,0.749,3.151,0.799,3.841L111.282,73.955z"/>
<path fill="#040000" d="M52.18,22.695c-1.62-0.133-3.109-0.415-4.324-0.789l-0.241,0.401c-2.498,4.164-2.527,23.921-2.527,24.119
	v2.778c0,6.016-2.135,12.984-5.857,19.12l-0.182,0.3c-2.083,3.439-4.633,6.445-11.501,11.625c-0.556,0.421-1.655,1.105-2.263,1.476
	c-0.605-0.37-1.705-1.056-2.262-1.476c-6.583-4.965-9.118-7.866-11.073-10.938l-0.58-0.91l0,0c-1.215,0.375-2.705,0.656-4.324,0.791
	C3.98,69.443,1.29,69.088,0,68.362c1.449,1.11,4.159,4.525,7.18,7.872c1.104,1.382,2.466,2.742,3.947,4.052
	c0.662,0.608,1.32,1.17,1.964,1.659c0.004,0.001,0.006,0.003,0.008,0.004c1.754,1.422,3.576,2.763,5.261,3.979
	c1.154,0.834,2.927,2,3.72,2.447c0.824,0.465,2.713,1.783,2.731,1.796l0.475,0.332l0.474-0.332c0.02-0.013,1.907-1.331,2.731-1.796
	c0.794-0.449,2.568-1.615,3.721-2.447c6.091-4.399,10.138-8.562,13.124-13.495l0.18-0.297c4.4-7.25,6.924-15.609,6.924-22.933
	v-2.777c0-5.487,0.411-11.261,0.861-15.395c0.239-2.009,0.777-3.191,1.44-4.676c0.677-1.515,1.972-3.158,3.181-3.999
	C56.48,22.735,54.433,22.879,52.18,22.695"/>
<path fill="#040000" d="M97.468,42.246c-0.875,0-1.729,0.595-2.386,1.647c-0.863-0.314-1.913-0.474-3.129-0.474
	c-3.482,0-7.775,1.313-10.538,2.491l-0.721-0.68c-0.554-2.498,0.479-4.537,3.154-6.225l12.519,0.972
	c0.245,0.122,0.86,0.378,1.797,0.429c0.149,0.007,0.291-0.049,0.392-0.158c1.105-1.19,0.214-3.781-0.199-4.798
	c0.278-0.826,0.238-1.351,0.182-2.12c-0.029-0.391-0.065-0.879-0.065-1.531c0-0.116-0.007-0.229-0.021-0.343v-0.013
	c0-0.06-0.01-0.116-0.03-0.169c-0.226-1.116-1.154-1.505-1.782-1.69l-0.271-0.938c0.228-0.543,0.391-1.028,0.488-1.445
	c0.266-0.615,0.406-1.021,0.475-1.35c0.228-1.121-0.033-2.109-0.7-2.727c-0.047-0.269-0.228-0.865-0.925-1.411
	c-0.477-1.049-0.833-1.87-1.049-2.418l-1.102-0.114c0.229,0.678,0.833,2.035,1.301,3.058c0.034,0.079,0.09,0.147,0.159,0.197
	c0.33,0.237,0.49,0.478,0.568,0.645c-0.014,0.031-0.025,0.063-0.033,0.096c-0.047,0.205,0.04,0.417,0.217,0.531
	c0.546,0.347,0.767,1.074,0.59,1.944c-0.068,0.336-0.267,0.816-0.432,1.197c-0.013,0.028-0.021,0.059-0.028,0.089
	c-0.091,0.408-0.264,0.905-0.512,1.479c-0.046,0.106-0.053,0.225-0.021,0.336l0.397,1.374c0.048,0.168,0.184,0.298,0.352,0.342
	c0.812,0.214,1.244,0.435,1.344,1.052c0.015,0.091,0.021,0.182,0.021,0.278c0,0.688,0.038,1.196,0.068,1.604
	c0.057,0.768,0.086,1.153-0.188,1.885c-0.045,0.12-0.042,0.253,0.008,0.37c0.688,1.607,0.909,3.076,0.583,3.733
	c-0.742-0.085-1.162-0.316-1.165-0.316l-0.536-0.357c-0.223-0.15-0.525-0.093-0.681,0.125c-0.017,0.022-0.03,0.047-0.042,0.071
	l-11.763-0.913c-0.104-0.007-0.209,0.017-0.298,0.072c-3.194,1.964-4.441,4.498-3.703,7.533c0.022,0.093,0.072,0.178,0.143,0.244
	l1.066,1.007c0.146,0.137,0.358,0.173,0.542,0.093c2.655-1.171,6.983-2.539,10.44-2.539c1.277,0,2.333,0.188,3.138,0.557
	c0.241,0.109,0.524,0.014,0.647-0.222c0.583-1.111,1.275-1.508,1.73-1.508c0.367,0,0.604,0.245,0.628,0.646
	c-0.055,0.138-0.212,0.461-0.363,0.772c-0.916,1.887-2.822,5.813-2.282,8.453c0.105,0.516,0.129,1.753-0.545,2.757
	c-0.474,0.705-1.208,1.156-2.186,1.341c-0.208,0.039-0.502-0.105-0.691,0.06c-0.388,0.336-0.394-0.013-0.626-0.036v0.997
	c0.559,0.052,1.062,0.04,1.502-0.043c1.248-0.236,2.199-0.829,2.826-1.765c0.854-1.274,0.837-2.807,0.692-3.511
	c-0.474-2.31,1.401-6.17,2.202-7.817c0.294-0.605,0.414-0.857,0.452-1.027c0.009-0.035,0.013-0.072,0.013-0.11
	C99.091,42.966,98.409,42.246,97.468,42.246"/>
<path fill="#040000" d="M84.796,54.846c-0.744-0.379-1.543-0.809-2.415-1.309L82.317,53.5c-1.409-0.806-2.988-1.248-4.448-1.248
	c-0.784,0-1.529,0.125-2.215,0.371c-0.012,0.005-0.021,0.008-0.032,0.014c-1.979,0.868-4.222,2.325-6.316,4.102
	c-0.132,0.112-0.195,0.285-0.169,0.456c0.027,0.171,0.142,0.316,0.3,0.382l5.811,2.4c1.53,2.676,1.162,5.985,0.806,9.188
	c-0.126,1.125-0.244,2.189-0.274,3.2c-0.018,0.541,0.041,1.23,0.107,2.028c0.197,2.363,0.466,5.566-1.052,7.218
	c-1.514-0.196-3.745,1.703-5.702,3.376c-0.334,0.286-0.657,0.562-0.959,0.813c-1.087-2.614-4.897-11.325-7.921-12.737
	c-0.014-0.129-0.066-0.251-0.154-0.355c-0.233-0.277-0.702-0.401-1.514-0.401c-1.936,0-5.944,0.772-8.923,2.49l-0.016,1.012
	c0.122,0.026,0.248,0.004,0.356-0.06c2.801-1.67,6.777-2.449,8.582-2.449c0.321,0,0.522,0.022,0.643,0.047
	c-0.026,0.247,0.136,0.477,0.378,0.535c0.677,0.16,2.226,1.238,5.014,6.634c1.626,3.147,2.876,6.245,2.888,6.276
	c0.058,0.145,0.181,0.254,0.332,0.295c0.042,0.01,0.086,0.017,0.129,0.017c0.109,0,0.217-0.037,0.307-0.106
	c0.451-0.354,0.963-0.791,1.504-1.254c1.555-1.33,3.684-3.152,4.821-3.152c0.086,0,0.164,0.012,0.23,0.035
	c0.172,0.06,0.365,0.02,0.501-0.104c2.072-1.917,1.767-5.554,1.545-8.21c-0.064-0.767-0.12-1.43-0.104-1.913
	c0.029-0.972,0.146-2.016,0.269-3.122c0.364-3.263,0.774-6.961-1.023-9.949c-0.055-0.091-0.138-0.162-0.235-0.203l-5.201-2.147
	c2.43-1.96,4.411-2.974,5.427-3.422c1.688-0.601,3.908-0.281,5.817,0.811l0.062,0.035c1.027,0.589,1.995,1.108,2.909,1.563
	L84.796,54.846z"/>
<path fill="#040000" d="M277.388,34.567c0,1.207-0.43,2.234-1.292,3.077c-0.863,0.843-1.89,1.265-3.076,1.265
	c-0.808,0-1.54-0.192-2.201-0.575c-0.662-0.383-1.185-0.905-1.566-1.568c-0.385-0.66-0.576-1.394-0.576-2.199
	c0-1.188,0.421-2.215,1.268-3.076c0.843-0.863,1.868-1.295,3.077-1.295c1.187,0,2.212,0.432,3.076,1.295
	C276.957,32.354,277.388,33.379,277.388,34.567"/>
<path fill="#040000" d="M170.471,57.854c0.785-0.526,1.574,0.177,1.574,0.877v3.765c0,0.701-0.532,1.487-1.185,1.746
	c0,0-0.922,0.367-2.479,0.763s-3.046,0.592-4.468,0.592c-6.15,0-9.224-3.003-9.224-9.009v-8.352c0-0.701-0.574-1.274-1.273-1.274
	H152.1c-0.7,0-1.275-0.336-1.275-0.747s0.402-1.156,0.895-1.657l9.665-9.846c0.491-0.5,1.111-0.909,1.379-0.909
	c0.267,0,0.486,0.573,0.486,1.275v4.681c0,0.701,0.573,1.275,1.273,1.275h5.608c0.701,0,1.273,0.573,1.273,1.275v3.379
	c0,0.7-0.572,1.275-1.273,1.275h-5.608c-0.699,0-1.273,0.572-1.273,1.274v5.181c0,0.701,0.02,1.847,0.043,2.548
	c0,0,0.011,0.353,0.124,0.905c0.109,0.555,0.422,1.019,0.935,1.39c0.515,0.372,1.293,0.556,2.337,0.556
	C167.885,58.816,169.291,58.563,170.471,57.854"/>
<path fill="#040000" d="M268.753,64.971V42.31c0-0.701,0.572-1.274,1.273-1.274h6.012c0.699,0,1.272,0.572,1.272,1.274v22.986
	c0,6.007-3.073,9.009-9.222,9.009c-1.422,0-2.914-0.196-4.471-0.592c-1.555-0.396-2.477-0.762-2.477-0.762
	c-0.652-0.261-1.186-1.046-1.186-1.746V67.44c0-0.701,0.789-1.405,1.575-0.878c1.181,0.71,2.585,0.962,3.783,0.962
	c1.043,0,1.795-0.226,2.337-0.557C268.463,66.472,268.753,65.535,268.753,64.971"/>
<path fill="#040000" d="M139.61,40.609c-1.55,0-3.011,0.272-4.386,0.819c-1.375,0.545-3.228,2.215-3.228,2.215
	c-0.52,0.47-0.944,0.28-0.944-0.42v-9.639c0-0.701-0.574-1.275-1.275-1.275h-5.987c-0.699,0-1.273,0.574-1.273,1.275v30.312
	c0,0.7,0.574,1.274,1.273,1.274h5.987c0.701,0,1.275-0.573,1.275-1.274V52.508c0.025-0.897,0.417-2.066,0.919-2.732
	c0.462-0.562,0.937-1.067,1.428-1.497c0.821-0.718,1.771-1.078,2.845-1.078c1.375,0,2.309,0.483,2.798,1.446
	c0.489,0.964,0.734,2.023,0.734,3.178c0,0.283-0.004,0.471-0.011,0.556l-0.008,0.088c-0.002,0.104-0.004,0.759-0.004,1.46v9.969
	c0,0.7,0.573,1.274,1.274,1.274h5.987c0.7,0,1.273-0.573,1.273-1.274V50.354C148.288,43.857,145.396,40.609,139.61,40.609"/>
<path fill="#040000" d="M218.124,45.125c-0.625-1.462-1.588-2.581-2.892-3.355c-1.304-0.774-2.92-1.161-4.849-1.161
	s-3.631,0.395-5.109,1.186c-1.479,0.791-2.906,1.96-4.28,3.51c-0.347-0.838-0.813-1.574-1.398-2.206
	c-0.585-0.631-1.237-1.13-1.956-1.494c-0.721-0.363-1.45-0.62-2.193-0.771c-0.743-0.149-1.525-0.224-2.346-0.224
	c-1.74,0-3.272,0.309-4.601,0.924c-1.327,0.617-2.97,2.107-2.97,2.107c-0.519,0.471-0.942,0.284-0.942-0.417v-0.912
	c0-0.702-0.574-1.275-1.274-1.275h-5.987c-0.7,0-1.273,0.573-1.273,1.275v21.587c0,0.7,0.573,1.273,1.273,1.273h5.987
	c0.7,0,1.274-0.573,1.274-1.273V52.606c0-0.909,0.463-2.249,1.089-3.013c0.393-0.497,0.737-0.889,1.022-1.161
	c0.332-0.317,0.763-0.601,1.293-0.854c0.529-0.252,1.111-0.379,1.742-0.379c1.328,0,2.252,0.442,2.772,1.327
	c0.522,0.886,0.669,2.5,0.669,2.5c0.062,0.698,0.115,1.845,0.115,2.544v10.327c0,0.7,0.574,1.273,1.275,1.273h5.986
	c0.701,0,1.274-0.573,1.274-1.273V52.605c0-0.937,0.488-2.333,1.143-3.083l-0.021-0.003c0.385-0.462,0.771-0.876,1.156-1.242
	c0.759-0.718,1.729-1.078,2.915-1.078c1.217,0,2.106,0.424,2.667,1.269c0.561,0.846,0.723,2.559,0.723,2.559
	c0.067,0.699,0.119,1.843,0.119,2.544v10.326c0,0.7,0.574,1.274,1.274,1.274h5.988c0.699,0,1.273-0.573,1.273-1.274V50.447
	C219.061,48.361,218.749,46.589,218.124,45.125"/>
<path fill="#040000" d="M245.333,50.803c0.438-0.07,1.689-0.283,2.747-0.283c1.564,0,2.811,0.218,3.733,0.65
	c0.926,0.437,1.578,0.985,1.957,1.649c0.38,0.664,0.568,1.366,0.568,2.11c0,0.9-0.323,1.774-0.973,2.619
	c-0.648,0.846-1.778,1.269-3.389,1.269c-1.36,0-2.961-0.386-4.803-1.161c-1.841-0.775-3.2-1.624-3.2-1.624
	c-0.593-0.372-1.079-0.103-1.079,0.599v5.815c1.549,1.06,3.249,1.85,5.098,2.37c1.85,0.521,3.785,0.781,5.809,0.781
	c2.527,0,4.674-0.492,6.437-1.482c1.763-0.987,3.084-2.303,3.96-3.947c0.878-1.643,1.315-3.407,1.315-5.288
	c0-1.817-0.445-3.497-1.339-5.038c-0.893-1.54-2.177-2.777-3.853-3.71c-1.675-0.932-3.62-1.398-5.833-1.398
	c-0.347,0-0.581,0.006-0.698,0.012c-0.119,0.007-0.317,0.023-0.593,0.047l-0.277,0.024c-0.283,0.032-0.518-0.516-0.518-1.216v-3.094
	c0-0.7,0.575-1.273,1.275-1.273h9.212c0.699,0,1.273-0.573,1.273-1.275v-4.374c0-0.701-0.574-1.275-1.273-1.275h-16.492
	c-0.7,0-1.275,0.574-1.275,1.275v16.55c0,0.559,0.454,0.956,1.011,0.928C244.399,51.047,244.862,50.879,245.333,50.803"/>
<path fill="#040000" d="M223.062,55.953c0,6.006,3.073,9.01,9.223,9.01c1.004,0,2.447-0.324,3.238-0.709
	c0.785-0.381,1.275-1.019,1.275-1.721v-3.4c0-0.701-0.574-1.275-1.274-1.275h-0.464c-1.044,0-1.823,0.141-2.337-0.23
	c-0.513-0.371-0.825-0.836-0.936-1.39c-0.111-0.554-0.123-0.907-0.123-0.907c-0.024-0.699-0.044-1.846-0.044-2.548V33.568
	c0-0.701-0.573-1.274-1.272-1.274h-6.012c-0.701,0-1.274,0.573-1.274,1.274V55.953z"/>
</svg>
