<svg xmlns="http://www.w3.org/2000/svg" width="277.388" height="90.504">
    <path fill="#040000" d="M96.817 57.002c2.616-7.265 4.814-12.304 4.702-13.179-.002-1.034-.435-1.923-1.133-2.498l.199-.186c1.424-1.534.971-3.99.276-5.887.198-.835.15-1.479.1-2.156-.029-.386-.062-.823-.062-1.42l-.022-.442c-.007-.158-.032-.312-.076-.464-.176-.777-.649-1.728-1.854-2.36.107-.304.196-.591.264-.86.277-.652.433-1.113.517-1.525.297-1.453-.003-2.801-.82-3.774-.155-.452-.457-1.029-1.042-1.575-.368-.815-.659-1.488-.85-1.958-.306-.764-1.172-1.135-1.937-.829-.764.306-1.135 1.173-.829 1.937.231.577.579 1.378 1.036 2.381.099.217.249.408.437.555.325.256.372.473.376.497.058.32.217.614.455.835.281.26.373.747.253 1.337-.045.219-.167.555-.382 1.058l-.084.253c-.077.334-.215.74-.41 1.207-.132.314-.15.663-.057.989l.271.938c.143.488.523.871 1.012 1.014.67.198.714.413.742.556l.007.034.005.038.009.158c0 .709.041 1.248.07 1.642.05.672.064.963-.077 1.429-.068.223-.082.459-.042.687-.007.204.025.408.102.6.478 1.223.604 2.157.557 2.673-.301-.068-.071.955-.14.919-.438-.232-.103-.001-1.075-.074-.635-.048-.781-.064-1.153.158-1.131.678-2.159 4.917-1.077 4.184 1.015-.688 2.62-1.609 2.965-1.154.341.45-.054 1.103.604.856l-.427.721c-1.432 2.949-2.827 6.298-2.321 8.77.073.356.132 1.481-.471 2.38-.401.599-1.29 1.535-2.145 1.697l3.527-.162zM98.387 35.26c-.156-.369-.348-.752-.658-1.09-.151-.167-.336-.316-.493-.423l-.194-.136-.033-.026-.013-.007-.062-.062c-.132-.172-.261-.306-.393-.443l-.406-.392-.434-.369c-.118-.091-.231-.18-.381-.268-.095-.232-.249-.443-.429-.592-.228-.196-.478-.311-.714-.405-.239-.093-.472-.159-.683-.229l-.221-.082.156-.173c.127-.159.232-.324.329-.489.192-.332.353-.67.507-1.009l.439-1.015c.145-.333.291-.675.47-.969.196-.296.418-.59.68-.815.124-.11.296-.207.394-.168.102.038.138.245.136.412-.003.354-.089.716-.187 1.067-.101.353-.224.699-.357 1.041.157-.332.302-.671.426-1.02.122-.35.235-.704.264-1.085l-.015-.295c-.022-.097-.062-.221-.188-.285-.123-.061-.251-.029-.345.008-.099.039-.183.093-.261.151-.311.236-.555.522-.785.823-.226.321-.388.65-.56.979l-.503.979c-.173.321-.35.638-.545.929-.1.146-.203.284-.314.406-.11.121-.232.223-.339.272l-.002.001c-.143.066-.202.235-.135.377l.002.005c.099.209.25.306.37.382l.354.176c.227.097.439.179.631.274s.363.202.481.324c.118.123.179.252.203.401.016.099.072.192.165.249l.059.037c.081.051.216.162.331.272l.352.359.335.384c.105.129.212.266.287.384l.108.144.082.089.065.063.229.193c.129.107.214.194.295.3.159.205.275.48.37.779l.002.006.019.05c.129.306.481.45.787.321.307-.131.451-.484.322-.79M89.417 28.251s.583-1.481.485-1.978-2.453-1.939-3.198-3.088c-.744-1.147-1.604-4.205-2.907-4.57-1.302-.365-3.316.088-4.181 2.116 1.291-.187 3.66-.384 4.48 1.098.82 1.483 2.561 4.239 5.321 6.422M92.556 27.365s-.51-.948-.308-1.419c.201-.473 1.039-.822 1.173-1.207.135-.384.966-3.338 1.833-2.74.867.599.894 1.285.894 1.285-.4-.04-1.196.463-1.495.893-.409.591-1.545 1.927-2.097 3.188"/>
    <path fill="#040000" d="M86.891 28.702c.342.64.057 2.385.417 2.666l1.466.334v-1.524l-1.883-1.476zM96.471 39.553l-.417-.241-.403-.278c-.258-.198-.5-.42-.728-.642-.23-.218-.454-.439-.698-.551l-.187-.067-.191-.033-.202.003-.207.032c-.139.02-.269-.075-.29-.215l-.002-.016-.005-.042c-.013-.164.004-.336-.037-.489-.021-.16-.075-.304-.132-.437l-.111-.182-.14-.146c-.105-.084-.221-.154-.355-.192l-.206-.048-.218-.018c-.147-.005-.3.015-.449.046-.149.032-.295.083-.434.142l-.196.104-.09.059-.09.054-.059.033-.126.069-.221.075-.211.036-.202.008c-.269-.02-.531-.106-.748-.257-.109-.072-.201-.165-.293-.256-.075-.102-.165-.2-.216-.312-.119-.219-.195-.456-.224-.688-.038-.233-.026-.46-.006-.681l.057-.323.09-.305c.055-.209.152-.386.232-.578l.292-.531.176.826.019.016-.038-.006-.118-.017-.311-.016c-.22.001-.448.008-.678.034-.23.023-.463.059-.692.097l-.687.143-.681.173-.671.199-.659.226c-.22.076-.433.167-.646.255-.215.086-.423.186-.632.286l-.607.335c-.2.115-.396.239-.585.374-.188.134-.374.273-.557.419-.177.152-.354.307-.521.473-.175.159-.323.342-.487.519-.152.185-.307.372-.445.573-.15.195-.273.408-.417.617l-.005.007-.102.019-.029-.075c.049-.249.09-.508.173-.752.067-.253.175-.489.274-.734.117-.234.234-.472.379-.694.132-.232.301-.437.463-.651.171-.204.343-.41.539-.593.189-.187.392-.365.6-.532.204-.174.428-.32.65-.47.226-.141.453-.282.688-.407.233-.128.476-.238.72-.343.242-.109.494-.194.745-.279.251-.084.507-.151.765-.213.257-.062.517-.108.777-.149.521-.079 1.049-.118 1.581-.121.268-.004.536.005.814.029l.431.059.245.06.141.048.188.095c.271.157.364.505.207.777l-.015.022-.017.027-.262.403c-.066.139-.158.276-.2.417l-.077.21-.051.209c-.021.137-.04.275-.026.4.006.128.038.244.083.346l.08.141.107.108c.076.064.165.1.255.119l.125.002.041.002.117-.052.062-.029.015-.008-.037.023.003-.001.005-.003.009-.005.035-.021.145-.078.295-.128c.2-.067.402-.119.61-.147.207-.026.419-.036.631-.014l.319.053.158.04.155.062c.206.082.397.217.558.379.086.076.142.177.21.266l.145.296c.071.203.121.409.129.611.03.204-.004.397-.008.594l-.296-.273.269-.015.275.022.272.071.253.119c.161.092.291.211.412.329l.33.362c.21.241.414.475.641.69l.354.304.385.28.002.002.015.101-.095.024M78.482 43.827c-.049.131-.068.245-.073.367l.009.363c.018.241.066.481.111.719.096.478.215.952.339 1.425.127.472.254.944.395 1.405.066.23.142.46.215.677l.118.305.05.115.005.014-.022-.02-.107-.069-.663.116.229-.186.232-.173.471-.269.479-.215.484-.173.491-.139.498-.108c.165-.033.334-.059.503-.076.168-.023.34-.034.511-.039-.277.203-.556.389-.834.567l-.412.271-.407.266-.398.264-.381.268-.351.275-.146.143-.145.137-.048.042c-.176.153-.422.173-.616.073l-.184-.126-.084-.091-.103-.142-.125-.222-.168-.396c-.099-.256-.173-.512-.242-.766-.131-.51-.225-1.025-.272-1.549s-.057-1.052.011-1.585c.032-.266.092-.531.177-.792.048-.13.105-.255.176-.375.072-.119.17-.232.277-.301"/>
    <path fill="#040000" d="M83.465 38.075l.542-.318c3.904-2.193 8.951-1.102 12.222.951.232.146.303.453.158.685-.146.232-.453.302-.685.156-3.021-1.896-7.659-2.919-11.208-.926l-1.029-.548zM88.206 31.97c-2.601 0-4.034-1.062-4.914-1.716l-.47-.332c-.282-.176-.367-.547-.192-.828.175-.281.545-.368.828-.191.174.11.356.244.548.387.921.682 2.179 1.617 4.73 1.463.337-.019.616.232.636.563.021.332-.23.616-.562.636l-.604.018M94.239 32.091c-.31 0-.573-.238-.598-.552-.027-.331.219-.621.55-.648.322-.026.883-.244 1.724-1.133.229-.24.609-.251.85-.022.24.228.251.608.022.849-.897.947-1.717 1.439-2.5 1.504l-.048.002"/>
    <path fill="#040000" d="M93.935 29.263c0 .43-.008 1.888-.144 2.106-.133.217-.193.076-.193.076l-.671-.828 1.008-1.354zM88.522 22.128l.231.18c.146.129.338.336.548.583.207.253.442.555.668.895.229.337.452.709.663 1.089.209.379.463.746.618 1.128.072.194.124.386.156.577.029.191.056.37.057.547.005.173-.003.335-.023.483l-.033.204-.055.179c-.026.1-.082.193-.117.243l-.056.074-.085.012-.018-.022-.012-.025-.037-.077-.104-.184-.174-.278-.217-.361c-.148-.268-.328-.579-.454-.938l-.324-1.172c-.126-.396-.277-.784-.41-1.152-.14-.366-.275-.705-.402-.992l-.187-.382-.156-.283-.165-.244.016-.084h.072M92.22 27.518l-.124-.256c-.069-.162-.13-.397-.177-.662-.043-.264-.074-.563-.049-.864.014-.151.05-.305.082-.462.035-.158.058-.317.068-.479.006-.16.016-.322.005-.479l-.033-.468-.062-.44-.09-.395-.104-.331-.095-.255-.087-.224-.002-.005.035-.078.065.015.168.18.186.216.222.3.234.381c.07.142.153.291.215.455.068.162.132.333.179.513.054.178.088.363.126.549l.098.557c.033.185.046.367.041.541-.022.348-.134.652-.244.904-.12.251-.241.446-.352.585l-.185.217-.11-.002-.01-.013M77.592 38.424l.049.193.076.165.118.149.153.132.167.121.189.114.202.113.213.104.109.054.111.046.229.094.23.08.225.064.194.044.191.049-.102.172-.147.174-.235.182-.325.139c-.122.025-.257.063-.396.059-.141.003-.288-.005-.432-.044-.148-.024-.286-.095-.426-.155-.132-.081-.265-.158-.372-.271-.117-.098-.207-.229-.287-.353-.074-.135-.131-.269-.159-.413-.037-.132-.026-.282-.019-.399.032-.129.053-.225.115-.323.053-.09.104-.165.156-.19l.173-.1M85.728 32.662l-.059.016-.164.033-.265.016-.331-.017-.382-.063c-.134-.027-.27-.07-.409-.12-.137-.056-.275-.12-.412-.198l-.412-.227c-.277-.147-.55-.306-.795-.471l-.347-.246-.297-.241-.239-.216-.172-.178-.14-.164.004-.047.041-.001.002.002.17.123.201.133.267.157c.197.111.439.224.697.341.261.11.539.228.824.33l.43.136.417.127c.263.096.5.214.702.317l.275.15.209.124.194.118.011.05-.02.016M94.759 32.467c-.213 0-.418-.112-.526-.311-.16-.291-.055-.656.236-.816.443-.245 2.643-1.415 3.811-.343-.042.188-.065.657.11.855-.225.245-.605.261-.85.036-.379-.349-1.714.077-2.491.505-.093.049-.192.074-.29.074M69.519 32.914l.002.079-.01.235c-.025.205-.08.506-.194.871-.11.365-.254.803-.427 1.291-.167.491-.353 1.042-.507 1.633-.157.589-.276 1.229-.271 1.857.003.63.165 1.219.518 1.706l.142.179.067.079.102.113c.145.165.248.261.386.397.27.26.562.509.863.748.606.47 1.268.906 1.947 1.213.337.157.677.283.996.352.316.068.613.088.797.033.186-.05.284-.114.404-.301.117-.184.195-.483.239-.803l.024-.246.007-.257.002-.568.003-1.129c.012-.738.024-1.434.062-2.081.026-.644.085-1.24.136-1.765l.1-.739.123-.625c.032-.187.093-.354.138-.496.043-.142.086-.261.135-.354l.136-.281-.029.309c-.016.097-.019.22-.013.365l.014.492c.021.367.08.813.132 1.324l.241 1.723.272 2.042.136 1.122.062.596.022.334-.002.35c-.016.473-.084.993-.354 1.538-.125.271-.337.537-.585.765-.261.213-.567.391-.876.475-.625.192-1.2.146-1.711.045-.513-.104-.977-.273-1.414-.473-.869-.408-1.637-.93-2.326-1.521-.348-.292-.67-.606-.971-.94-.146-.162-.322-.364-.435-.513l-.094-.119-.115-.163-.201-.315c-.517-.866-.633-1.879-.517-2.703.111-.836.382-1.542.669-2.148.287-.609.605-1.119.887-1.566.278-.446.541-.818.74-1.131.197-.314.352-.561.435-.742l.088-.21.025-.077"/>
    <path fill="#040000" d="M74.063 50.408c-.172-.059-11.749 4.022-14.67 22.938l-.047.302.297.071c2.527.604 6.644 9.595 8.016 13.009l.123.306.306-.121c4.344-1.719 2.815-7.831 1.588-12.743-.477-1.9-.926-3.697-.892-4.798.132-4.276 2.468-7.469 6.943-9.488l.699-.314-2.363-9.162zM84.889 47.227l.366-.252c.241-.148.597-.346 1.036-.538.882-.388 2.126-.739 3.417-.834.322-.029.648-.026.967-.029l.475.027c.157.007.311.02.463.046.304.038.595.09.869.162.273.062.527.151.757.238.231.077.433.19.609.281l.244.131.196.137.354.271-.441-.048-.224-.031-.266-.02c-.188-.015-.394-.038-.623-.041-.229-.009-.471-.026-.729-.021-.256-.009-.528-.001-.808.004l-.862.029-.892.062-.896.073-.872.081-1.565.153c-.466.04-.855.075-1.135.091l-.44.028M69.665 87.729c-.295-.2 3.29-3.827 3.33-4.182.46-4.18.663-6.983.427-9.83-.475-5.69 1.255-16.893 3.579-21.001.132-.232.397-.181.658-.241.263-.061 1.418.186 1.641.336l3.068 1.387c.358.242.933.503.793.913-4.546 13.312-5.354 19.608-4.463 26.42.051.397-.148.787-.505.975-.001-.002-4.483 2.168-8.528 5.223"/>
    <path fill="#040000" d="M89.303 28.679l.079.751.042.395.022.225.012.119.003.03.001.015.001.007-.01.06-.001.003-.043.074-.075.052-.034.009c-.157.028-.227 0-.33-.012l-.279-.064-.143-.039-.036-.011-.051-.023-.064-.033-.285-.179c-.355-.256-.698-.529-1.065-.835-.367-.301-.741-.631-1.128-.973-.774-.683-1.574-1.44-2.358-2.219-.396-.387-.784-.782-1.165-1.181-.19-.2-.38-.401-.559-.618l-.261-.334-.213-.292-.148-.164.071-.011.145-.054.02-.021-.093.154c-.066.158-.12.356-.159.554-.047.197-.081.397-.11.592-.057.39-.105.759-.143 1.088l-.104.858-.108.758-.07.052-.05-.043-.059-.193-.143-.551c-.057-.238-.117-.529-.168-.868-.05-.338-.103-.722-.116-1.152-.012-.434-.022-.895.13-1.468.049-.148.093-.302.216-.485.064-.091.15-.19.273-.28.132-.089.309-.164.49-.169.372-.011.591.145.751.262.161.127.272.255.376.389l.23.344.204.3.454.625c.313.423.663.838 1.011 1.254.71.82 1.45 1.621 2.147 2.368.349.373.693.727 1.019 1.062.324.333.648.649.933.906l.206.169.062.039.013.011.031.013.128.051.245.084.181.039-.003.003-.048.036-.017.039.007-.015.002-.003-.008.052v-.054l.001-.119.002-.225.007-.396.013-.753.062-.059.058.053-.001.001zM96.781 13.337c-1.925-3.665-5.3-7.723-15.722-10.04-.687-.153-1.396-.267-2.119-.35-1.411-2.163-5.115-3.497-8.127-2.729v.002h-.002c0 .54.02 1.306-.615 1.969-.495.516-1.386.971-2.987 1.209-1.281.191-2.708 1.094-3.967 2.392-2.345 2.416-4.104 6.203-3.244 9.33.44 1.172 1.197 1.748 1.69 1.342.113-.093.215-.239.293-.442.263-.675.445-1.241.738-1.575l.042-.038.106.083.169.104c.906.562 1.849 1.113 2.697 1.305l.008-.004.016.004c-.249 1.112-.639 3.353-.322 5.439.414 2.714 1.409 5.673 2.599 7.722.205.352.158.59.104.739-.246.688-1.395 1.256-1.776 1.399-.196.073-.34.243-.38.448l-.541 2.763c-.047.234.051.473.245.608.195.136.452.145.655.021 1.426-.867 3.177-1.95 3.418-2.191.357-.357 1.082-1.894.898-3.285.062-2.766 1.089-4.287 2.89-4.287.852 0 1.598.359 1.811.618.854 1.047 1.113 1.446.893 2.893-.112.73-.318 1.709-.518 2.656-.581 2.757-.616 3.111-.345 3.447.114.14.313.236.495.236.991 0 2.631-2.439 3.889-7.793 1.069-4.559.486-9.088.173-11.52l-.07-.552c2.271 1.154 7.465 3.63 9.937 4.454.553.184 1.208.281 1.897.281 1.735 0 4.146-.637 5.229-2.43.503-.835.885-2.246-.157-4.228"/>
    <path fill="#040000" d="M49.645 75.805l.103.012c.12 0 .236-.043.328-.124.118-.104.18-.257.167-.413-.004-.051-.368-5.034 2.465-10.236.753-1.385 1.642-2.995 2.583-4.701 2.776-5.029 5.922-10.732 7.582-14.187 2.25-4.685 3.647-9.884 3.833-14.27.008-.174-.077-.34-.223-.435-.146-.097-.33-.109-.488-.034-.16.077-1.58.766-2.098 1.228-.068.061-.119.14-.146.228-.923 3.086-4.433 12.096-7.167 16.969-.651 1.162-1.538 2.686-2.521 4.351-.146.93-.32 1.87-.524 2.818 1.599-2.677 3.073-5.186 3.912-6.683 2.725-4.856 6.21-13.77 7.208-17.023.227-.169.616-.395 1.003-.603-.316 4.029-1.668 8.826-3.684 13.023-1.648 3.428-4.787 9.118-7.557 14.137-.942 1.708-1.83 3.317-2.586 4.705-2.395 4.397-2.619 8.558-2.606 10.133l.416 1.105zM83.18 29.731l-.047-.005c-.13-.026-.215-.152-.189-.282.066-.335-.062-3.491-.982-5.125-.064-.116-.023-.262.092-.327.116-.065.262-.024.328.092 1 1.78 1.118 5.035 1.034 5.453-.023.115-.123.194-.236.194M85.124 35.177l.203-.093c.198-.091.404-.171.641-.25.217-.074.436-.133.641-.185.362-.088.743-.155 1.165-.201l.393-.032.088-.007.382-.009h.045c-.029.082-.052.176-.054.281 0 .119.026.229.06.325l-.115-.021-.328-.047-.092-.008-.363-.031-.534-.015c-.207 0-.41.008-.604.022-.205.018-.42.038-.643.075-.24.037-.456.082-.658.136l-.227.06M53.812 55.65c4.566-7.82 9.604-17.419 10.596-23.318-.661-.39-3.786-.571-7.39 1.051-.476 2.203-1.347 4.969-2.373 7.776.204 4.378.136 9.287-.833 14.491"/>
    <path fill="#040000" d="M53.769 11.089c-1.738-.429-4.224-.936-7.1-1.522-7.159-1.46-15.416-2.757-17.708-4.074-1.87-1.075-4.449-4.185-4.449-4.185v14.232l.956-.15c.024-.004 2.426-.376 5.131-.376.932 0 1.799.044 2.575.131l1.19.124c3.532.359 10.611 1.198 17.826 2.979l2.751.679 2.22-7-3.392-.838zM38.059 43.747c-2.742-1.485-6.497-3.519-15.319-3.519l-.956.008v-9.152c2.576.172 6.21.362 9.704.362 4.395 0 7.261-.306 8.52-.909l.158-.076.527-5.645.047-.543-.493.236c-.021.01-.539.25-2.602.576-1.104.174-3.875.287-7.059.287-4.251 0-8.683-.195-12.479-.55l-2.927-.273v22.875l3.646-.383c1.474-.155 2.89-.233 4.208-.233 6.005 0 8.936 1.628 10.525 2.511l.473.26c-.299 3.791-1.557 7.646-3.553 10.879-2.032 3.291-4.353 4.664-5.194 5.08-.836-.408-3.141-1.766-5.187-5.08-1.59-2.574-2.677-5.415-3.228-8.446l-.048-.261-.265.007c-.87.022-1.782-.081-2.694-.306-1.245-.306-2.421-.819-3.4-1.482l-.543-.369.062.655c.417 4.443 2.101 9.286 4.741 13.636l.16.265c1.597 2.639 1.884 3.112 9.689 9.726l.715.604.715-.604c7.808-6.613 8.095-7.086 9.69-9.723l.16-.267c3.08-5.074 4.846-10.808 4.846-15.729v-3.187l-.707-.272c-.596-.234-1.212-.568-1.932-.958"/>
    <path fill="#040000" d="M116.093 65.736c1.249-4.106.794-4.902.619-5.207-.255-.446-.604-.813-2.741-1.586.523-1.465.564-2.633.12-3.482-.341-.65-1.254-1.535-5.132-2.737 4.16-5.102 10.153-13.069 10.153-16.629 0-2.113-3.176-9.437-6.556-9.437l-.345.022c-2.201.304-5.015 5.003-14.332 23.947-1.705 3.466-3.052 6.204-3.608 7.138-.461.774-.773 1.016-1.068 1.092-.346-1.1-.563-2.448-.619-3.873-.084-2.141-.504-4.088-.521-4.17l-.065-.304-.174-.255c-.039-.057-.967-1.423-2.097-2.347-1.169-.956-2.563-1.06-3.108-1.06l-.189.006-1.185.077-.271 1.149c-.018.071-1.801 7.605-2.901 13.004l-.053.261 1.822 13.955.117.24c1.25 2.526 2.496 4.35 3.322 5.559.188.275.445.65.607.905-.449 1.999-.403 3.213.142 3.911.343.44.856.692 1.409.692h15.003c1.06 0 2.024-.761 3.535-4.518.266-.352.813-1.089 1.482-1.991.78-1.048 1.8-2.419 2.536-3.399.279-.333.562-.697.84-1.082l4.551-3.41-.022-.828c-.01-.329-.121-3.175-1.271-5.643m-1.398-4.052c-.042.653-.468 2.54-.931 3.915-3.808 6.201-7.048 10.139-7.844 10.234-.747-.104-.865-.451-1.082-1.294-.105-.409-.226-.867-.483-1.287 3.96-5.691 5.224-8.217 6.072-9.913.526-1.053.87-1.735 1.598-2.672 1.083.362 2.228.789 2.67 1.017m-7.051 17.066c-.779 1.048-1.452 1.953-1.594 2.135l-.06.076-.035.089c-.529 1.34-1.297 2.918-1.663 3.295h-14.457c.004-.481.154-1.439.376-2.329l.026-.104-.008-.106c-.033-.452-.382-.964-1.08-1.983-.778-1.139-1.948-2.851-3.112-5.188l-1.725-13.205c.926-4.533 2.311-10.479 2.735-12.283.355.052.844.185 1.248.516.712.582 1.368 1.461 1.582 1.761.091.448.382 2.01.446 3.65.084 2.159.499 4.163 1.168 5.645l.153.339.37.045c.284.035.541.053.783.053 1.482 0 2.474-.646 3.418-2.23.603-1.012 1.969-3.788 3.697-7.304 2.19-4.454 4.917-9.995 7.365-14.548 3.878-7.21 5.014-8.065 5.243-8.149l.035-.002c.467 0 1.488.894 2.631 2.859 1.079 1.858 1.662 3.609 1.662 4.314 0 3.154-8.067 13.374-11.188 17.061l-2.795 3.027.974.899 2.535-2.746c2.558.691 5.369 1.697 5.71 2.175.227.433-.262 1.925-.848 3.019-.992 1.215-1.416 2.059-1.995 3.217-.864 1.728-2.165 4.329-6.449 10.428-.286.062-.974.106-1.792-.582-1.297-1.091-1.861-3.173-1.544-3.954.22-.54 2.262-1.833 4.031-2.702l.394-.192-.024-.438c-.189-3.413 2.07-5.727 2.091-5.748l1.137-1.132h-3.602v1.325h.636c-.721 1.083-1.61 2.89-1.597 5.189-1.239.632-3.83 2.064-4.292 3.2-.6 1.477.332 4.134 1.919 5.468.876.736 1.703.923 2.315.923.464 0 .803-.106.946-.161l.145.503c.222.86.525 2.041 2.18 2.274l.176.012c.249 0 .543-.076.921-.311.175.533.526 1.031 1.176 1.26l.096.023-.46.617m3.638-4.795l-.103.096c-.11.125-.411.518-.849 1.098-.793.945-1.582 1.666-1.907 1.697-.362-.148-.41-.692-.407-.996.808-.821 1.874-2.132 3.326-4.183 1.179-1.665 2.275-3.354 2.939-4.4.573 1.513.749 3.151.799 3.841l-3.798 2.847zM52.18 22.695c-1.62-.133-3.109-.415-4.324-.789l-.241.401c-2.498 4.164-2.527 23.921-2.527 24.119v2.778c0 6.016-2.135 12.984-5.857 19.12l-.182.3c-2.083 3.439-4.633 6.445-11.501 11.625-.556.421-1.655 1.105-2.263 1.476-.605-.37-1.705-1.056-2.262-1.476-6.583-4.965-9.118-7.866-11.073-10.938l-.58-.91c-1.215.375-2.705.656-4.324.791-3.066.251-5.756-.104-7.046-.83 1.449 1.11 4.159 4.525 7.18 7.872 1.104 1.382 2.466 2.742 3.947 4.052.662.608 1.32 1.17 1.964 1.659l.008.004c1.754 1.422 3.576 2.763 5.261 3.979 1.154.834 2.927 2 3.72 2.447.824.465 2.713 1.783 2.731 1.796l.475.332.474-.332c.02-.013 1.907-1.331 2.731-1.796.794-.449 2.568-1.615 3.721-2.447 6.091-4.399 10.138-8.562 13.124-13.495l.18-.297c4.4-7.25 6.924-15.609 6.924-22.933v-2.777c0-5.487.411-11.261.861-15.395.239-2.009.777-3.191 1.44-4.676.677-1.515 1.972-3.158 3.181-3.999-1.442.379-3.489.523-5.742.339M97.468 42.246c-.875 0-1.729.595-2.386 1.647-.863-.314-1.913-.474-3.129-.474-3.482 0-7.775 1.313-10.538 2.491l-.721-.68c-.554-2.498.479-4.537 3.154-6.225l12.519.972c.245.122.86.378 1.797.429.149.007.291-.049.392-.158 1.105-1.19.214-3.781-.199-4.798.278-.826.238-1.351.182-2.12-.029-.391-.065-.879-.065-1.531l-.021-.343v-.013l-.03-.169c-.226-1.116-1.154-1.505-1.782-1.69l-.271-.938c.228-.543.391-1.028.488-1.445.266-.615.406-1.021.475-1.35.228-1.121-.033-2.109-.7-2.727-.047-.269-.228-.865-.925-1.411-.477-1.049-.833-1.87-1.049-2.418l-1.102-.114c.229.678.833 2.035 1.301 3.058.034.079.09.147.159.197.33.237.49.478.568.645l-.033.096c-.047.205.04.417.217.531.546.347.767 1.074.59 1.944-.068.336-.267.816-.432 1.197l-.028.089c-.091.408-.264.905-.512 1.479-.046.106-.053.225-.021.336l.397 1.374c.048.168.184.298.352.342.812.214 1.244.435 1.344 1.052l.021.278c0 .688.038 1.196.068 1.604.057.768.086 1.153-.188 1.885-.045.12-.042.253.008.37.688 1.607.909 3.076.583 3.733-.742-.085-1.162-.316-1.165-.316l-.536-.357c-.223-.15-.525-.093-.681.125l-.042.071-11.763-.913c-.104-.007-.209.017-.298.072-3.194 1.964-4.441 4.498-3.703 7.533.022.093.072.178.143.244l1.066 1.007c.146.137.358.173.542.093 2.655-1.171 6.983-2.539 10.44-2.539 1.277 0 2.333.188 3.138.557.241.109.524.014.647-.222.583-1.111 1.275-1.508 1.73-1.508.367 0 .604.245.628.646-.055.138-.212.461-.363.772-.916 1.887-2.822 5.813-2.282 8.453.105.516.129 1.753-.545 2.757-.474.705-1.208 1.156-2.186 1.341-.208.039-.502-.105-.691.06-.388.336-.394-.013-.626-.036v.997c.559.052 1.062.04 1.502-.043 1.248-.236 2.199-.829 2.826-1.765.854-1.274.837-2.807.692-3.511-.474-2.31 1.401-6.17 2.202-7.817.294-.605.414-.857.452-1.027l.013-.11c0-.989-.682-1.709-1.623-1.709"/>
    <path fill="#040000" d="M84.796 54.846c-.744-.379-1.543-.809-2.415-1.309l-.064-.037c-1.409-.806-2.988-1.248-4.448-1.248-.784 0-1.529.125-2.215.371l-.032.014c-1.979.868-4.222 2.325-6.316 4.102-.132.112-.195.285-.169.456.027.171.142.316.3.382l5.811 2.4c1.53 2.676 1.162 5.985.806 9.188-.126 1.125-.244 2.189-.274 3.2-.018.541.041 1.23.107 2.028.197 2.363.466 5.566-1.052 7.218-1.514-.196-3.745 1.703-5.702 3.376-.334.286-.657.562-.959.813-1.087-2.614-4.897-11.325-7.921-12.737-.014-.129-.066-.251-.154-.355-.233-.277-.702-.401-1.514-.401-1.936 0-5.944.772-8.923 2.49l-.016 1.012c.122.026.248.004.356-.06 2.801-1.67 6.777-2.449 8.582-2.449.321 0 .522.022.643.047-.026.247.136.477.378.535.677.16 2.226 1.238 5.014 6.634 1.626 3.147 2.876 6.245 2.888 6.276.058.145.181.254.332.295l.129.017c.109 0 .217-.037.307-.106.451-.354.963-.791 1.504-1.254 1.555-1.33 3.684-3.152 4.821-3.152l.23.035c.172.06.365.02.501-.104 2.072-1.917 1.767-5.554 1.545-8.21-.064-.767-.12-1.43-.104-1.913.029-.972.146-2.016.269-3.122.364-3.263.774-6.961-1.023-9.949-.055-.091-.138-.162-.235-.203l-5.201-2.147c2.43-1.96 4.411-2.974 5.427-3.422 1.688-.601 3.908-.281 5.817.811l.062.035c1.027.589 1.995 1.108 2.909 1.563l-.001-1.12zM277.388 34.567c0 1.207-.43 2.234-1.292 3.077-.863.843-1.89 1.265-3.076 1.265-.808 0-1.54-.192-2.201-.575-.662-.383-1.185-.905-1.566-1.568-.385-.66-.576-1.394-.576-2.199 0-1.188.421-2.215 1.268-3.076.843-.863 1.868-1.295 3.077-1.295 1.187 0 2.212.432 3.076 1.295.859.863 1.29 1.888 1.29 3.076M170.471 57.854c.785-.526 1.574.177 1.574.877v3.765c0 .701-.532 1.487-1.185 1.746 0 0-.922.367-2.479.763s-3.046.592-4.468.592c-6.15 0-9.224-3.003-9.224-9.009v-8.352c0-.701-.574-1.274-1.273-1.274h-1.316c-.7 0-1.275-.336-1.275-.747s.402-1.156.895-1.657l9.665-9.846c.491-.5 1.111-.909 1.379-.909.267 0 .486.573.486 1.275v4.681c0 .701.573 1.275 1.273 1.275h5.608c.701 0 1.273.573 1.273 1.275v3.379c0 .7-.572 1.275-1.273 1.275h-5.608c-.699 0-1.273.572-1.273 1.274v5.181c0 .701.02 1.847.043 2.548 0 0 .011.353.124.905.109.555.422 1.019.935 1.39.515.372 1.293.556 2.337.556 1.196-.001 2.602-.254 3.782-.963M268.753 64.971v-22.661c0-.701.572-1.274 1.273-1.274h6.012c.699 0 1.272.572 1.272 1.274v22.986c0 6.007-3.073 9.009-9.222 9.009-1.422 0-2.914-.196-4.471-.592-1.555-.396-2.477-.762-2.477-.762-.652-.261-1.186-1.046-1.186-1.746v-3.765c0-.701.789-1.405 1.575-.878 1.181.71 2.585.962 3.783.962 1.043 0 1.795-.226 2.337-.557.814-.495 1.104-1.432 1.104-1.996M139.61 40.609c-1.55 0-3.011.272-4.386.819-1.375.545-3.228 2.215-3.228 2.215-.52.47-.944.28-.944-.42v-9.639c0-.701-.574-1.275-1.275-1.275h-5.987c-.699 0-1.273.574-1.273 1.275v30.312c0 .7.574 1.274 1.273 1.274h5.987c.701 0 1.275-.573 1.275-1.274v-11.388c.025-.897.417-2.066.919-2.732.462-.562.937-1.067 1.428-1.497.821-.718 1.771-1.078 2.845-1.078 1.375 0 2.309.483 2.798 1.446.489.964.734 2.023.734 3.178l-.011.556-.008.088-.004 1.46v9.969c0 .7.573 1.274 1.274 1.274h5.987c.7 0 1.273-.573 1.273-1.274v-13.544c.001-6.497-2.891-9.745-8.677-9.745M218.124 45.125c-.625-1.462-1.588-2.581-2.892-3.355-1.304-.774-2.92-1.161-4.849-1.161s-3.631.395-5.109 1.186c-1.479.791-2.906 1.96-4.28 3.51-.347-.838-.813-1.574-1.398-2.206-.585-.631-1.237-1.13-1.956-1.494-.721-.363-1.45-.62-2.193-.771-.743-.149-1.525-.224-2.346-.224-1.74 0-3.272.309-4.601.924-1.327.617-2.97 2.107-2.97 2.107-.519.471-.942.284-.942-.417v-.912c0-.702-.574-1.275-1.274-1.275h-5.987c-.7 0-1.273.573-1.273 1.275v21.587c0 .7.573 1.273 1.273 1.273h5.987c.7 0 1.274-.573 1.274-1.273v-11.293c0-.909.463-2.249 1.089-3.013.393-.497.737-.889 1.022-1.161.332-.317.763-.601 1.293-.854.529-.252 1.111-.379 1.742-.379 1.328 0 2.252.442 2.772 1.327.522.886.669 2.5.669 2.5.062.698.115 1.845.115 2.544v10.327c0 .7.574 1.273 1.275 1.273h5.986c.701 0 1.274-.573 1.274-1.273v-11.292c0-.937.488-2.333 1.143-3.083l-.021-.003c.385-.462.771-.876 1.156-1.242.759-.718 1.729-1.078 2.915-1.078 1.217 0 2.106.424 2.667 1.269.561.846.723 2.559.723 2.559.067.699.119 1.843.119 2.544v10.326c0 .7.574 1.274 1.274 1.274h5.988c.699 0 1.273-.573 1.273-1.274v-13.45c-.001-2.086-.313-3.858-.938-5.322M245.333 50.803c.438-.07 1.689-.283 2.747-.283 1.564 0 2.811.218 3.733.65.926.437 1.578.985 1.957 1.649.38.664.568 1.366.568 2.11 0 .9-.323 1.774-.973 2.619-.648.846-1.778 1.269-3.389 1.269-1.36 0-2.961-.386-4.803-1.161-1.841-.775-3.2-1.624-3.2-1.624-.593-.372-1.079-.103-1.079.599v5.815c1.549 1.06 3.249 1.85 5.098 2.37 1.85.521 3.785.781 5.809.781 2.527 0 4.674-.492 6.437-1.482 1.763-.987 3.084-2.303 3.96-3.947.878-1.643 1.315-3.407 1.315-5.288 0-1.817-.445-3.497-1.339-5.038-.893-1.54-2.177-2.777-3.853-3.71-1.675-.932-3.62-1.398-5.833-1.398l-.698.012-.593.047-.277.024c-.283.032-.518-.516-.518-1.216v-3.094c0-.7.575-1.273 1.275-1.273h9.212c.699 0 1.273-.573 1.273-1.275v-4.374c0-.701-.574-1.275-1.273-1.275h-16.492c-.7 0-1.275.574-1.275 1.275v16.55c0 .559.454.956 1.011.928.266-.016.729-.184 1.2-.26"/>
    <path fill="#040000" d="M223.062 55.953c0 6.006 3.073 9.01 9.223 9.01 1.004 0 2.447-.324 3.238-.709.785-.381 1.275-1.019 1.275-1.721v-3.4c0-.701-.574-1.275-1.274-1.275h-.464c-1.044 0-1.823.141-2.337-.23-.513-.371-.825-.836-.936-1.39-.111-.554-.123-.907-.123-.907-.024-.699-.044-1.846-.044-2.548v-19.215c0-.701-.573-1.274-1.272-1.274h-6.012c-.701 0-1.274.573-1.274 1.274v22.385z"/>
</svg>
