<?xml version="1.0" encoding="utf-8"?>
<!-- Generator: Adobe Illustrator 16.2.1, SVG Export Plug-In . SVG Version: 6.00 Build 0)  -->
<!DOCTYPE svg PUBLIC "-//W3C//DTD SVG 1.1//EN" "http://www.w3.org/Graphics/SVG/1.1/DTD/svg11.dtd">
<svg version="1.1" id="レイヤー_1" xmlns="http://www.w3.org/2000/svg" xmlns:xlink="http://www.w3.org/1999/xlink" x="0px"
	 y="0px" width="175px" height="162px" viewBox="0 0 175 162" enable-background="new 0 0 175 162" xml:space="preserve">
<g>
	<defs>
		<rect id="SVGID_1_" x="-4" y="-4" width="179" height="166"/>
	</defs>
	<clipPath id="SVGID_2_">
		<use xlink:href="#SVGID_1_"  overflow="visible"/>
	</clipPath>
	<g clip-path="url(#SVGID_2_)">
		<defs>
			<rect id="SVGID_3_" x="-4" y="-4" width="179" height="166"/>
		</defs>
		<clipPath id="SVGID_4_">
			<use xlink:href="#SVGID_3_"  overflow="visible"/>
		</clipPath>
		<g clip-path="url(#SVGID_4_)">
			<defs>
				<rect id="SVGID_5_" x="-4" y="-4" width="179" height="166"/>
			</defs>
			<clipPath id="SVGID_6_">
				<use xlink:href="#SVGID_5_"  overflow="visible"/>
			</clipPath>
			<g clip-path="url(#SVGID_6_)">
				<image overflow="visible" width="179" height="166" xlink:href="A85C96177B8A1098.png"  transform="matrix(1 0 0 1 -4 -4)">
				</image>
			</g>
		</g>
	</g>
	<polygon clip-path="url(#SVGID_2_)" fill="#F2F2F2" points="167,154 83.204,132.956 0,154 0,0 167,0 	"/>
</g>
<path fill="#040000" d="M111.889,68.941c2.221-6.165,4.088-10.441,3.992-11.185c-0.002-0.877-0.369-1.632-0.962-2.12
	c0.06-0.048,0.116-0.101,0.169-0.158c1.208-1.301,0.824-3.386,0.234-4.996c0.168-0.709,0.128-1.256,0.085-1.83
	c-0.025-0.328-0.052-0.699-0.052-1.206c0-0.127-0.008-0.251-0.02-0.375c-0.006-0.134-0.027-0.265-0.064-0.393
	c-0.149-0.66-0.551-1.467-1.574-2.004c0.091-0.257,0.167-0.501,0.224-0.729c0.235-0.554,0.367-0.945,0.438-1.295
	c0.252-1.233-0.002-2.377-0.696-3.202c-0.131-0.384-0.388-0.874-0.885-1.338c-0.312-0.691-0.56-1.262-0.72-1.661
	c-0.26-0.649-0.996-0.964-1.645-0.704c-0.648,0.26-0.964,0.996-0.704,1.644c0.196,0.49,0.492,1.169,0.88,2.021
	c0.084,0.184,0.211,0.346,0.37,0.471c0.276,0.217,0.317,0.401,0.32,0.422c0.048,0.272,0.183,0.521,0.386,0.708
	c0.238,0.221,0.316,0.635,0.215,1.135c-0.037,0.187-0.142,0.471-0.324,0.898c-0.031,0.069-0.055,0.141-0.072,0.215
	c-0.065,0.284-0.182,0.628-0.348,1.025c-0.111,0.265-0.127,0.562-0.048,0.839l0.23,0.795c0.12,0.416,0.444,0.74,0.858,0.862
	c0.568,0.167,0.604,0.35,0.629,0.471c0.002,0.01,0.004,0.019,0.006,0.029c0.002,0.011,0.002,0.022,0.004,0.033
	c0.006,0.044,0.009,0.088,0.009,0.134c0,0.601,0.034,1.059,0.06,1.394c0.041,0.569,0.055,0.817-0.065,1.212
	c-0.058,0.19-0.07,0.39-0.036,0.583c-0.006,0.173,0.021,0.347,0.086,0.51c0.404,1.037,0.513,1.83,0.473,2.269
	c-0.256-0.058-0.061,0.811-0.117,0.78c-0.375-0.197-0.088-0.001-0.914-0.063c-0.539-0.041-0.664-0.054-0.979,0.135
	c-0.961,0.575-1.833,4.173-0.915,3.55c0.862-0.583,2.224-1.365,2.517-0.979c0.291,0.382-0.045,0.935,0.513,0.727
	c-0.06,0.132-0.271,0.421-0.362,0.612c-1.216,2.503-2.4,5.345-1.97,7.443c0.062,0.303,0.11,1.258-0.399,2.02
	c-0.342,0.509-1.095,1.303-1.82,1.44L111.889,68.941z"/>
<path fill="#040000" d="M113.221,50.489c-0.133-0.313-0.295-0.638-0.558-0.925c-0.129-0.142-0.286-0.268-0.419-0.359l-0.165-0.115
	l-0.028-0.022c-0.006-0.005-0.006-0.005-0.011-0.006c0.001,0.01-0.056-0.064-0.052-0.054c-0.113-0.146-0.221-0.259-0.334-0.376
	c-0.111-0.115-0.227-0.225-0.344-0.332c-0.119-0.108-0.239-0.212-0.368-0.314c-0.101-0.077-0.196-0.152-0.324-0.227
	c-0.08-0.197-0.211-0.376-0.362-0.503c-0.195-0.166-0.406-0.264-0.607-0.344c-0.203-0.078-0.4-0.134-0.579-0.194
	c-0.067-0.022-0.13-0.046-0.187-0.07c0.047-0.048,0.092-0.097,0.131-0.147c0.108-0.134,0.197-0.274,0.281-0.415
	c0.164-0.281,0.299-0.568,0.43-0.856l0.373-0.861c0.123-0.283,0.246-0.573,0.398-0.823c0.166-0.25,0.354-0.5,0.576-0.692
	c0.105-0.093,0.252-0.176,0.334-0.143c0.087,0.032,0.117,0.208,0.116,0.35c-0.003,0.301-0.076,0.607-0.158,0.905
	c-0.086,0.299-0.19,0.594-0.304,0.885c0.133-0.283,0.256-0.569,0.361-0.867c0.104-0.295,0.199-0.597,0.224-0.921
	c0.006-0.081,0.004-0.164-0.013-0.25c-0.019-0.082-0.053-0.188-0.16-0.241c-0.104-0.052-0.213-0.025-0.293,0.006
	c-0.084,0.034-0.154,0.079-0.221,0.128c-0.265,0.201-0.471,0.444-0.666,0.699c-0.191,0.273-0.33,0.552-0.476,0.831l-0.427,0.831
	c-0.146,0.272-0.295,0.541-0.463,0.788c-0.084,0.124-0.172,0.241-0.267,0.345c-0.093,0.103-0.196,0.188-0.286,0.229l-0.003,0.001
	c-0.12,0.057-0.171,0.2-0.114,0.32l0.002,0.005c0.084,0.178,0.211,0.26,0.313,0.324c0.106,0.063,0.205,0.107,0.3,0.149
	c0.193,0.083,0.373,0.152,0.536,0.233c0.162,0.08,0.31,0.171,0.408,0.275c0.101,0.105,0.151,0.214,0.172,0.341
	c0.015,0.084,0.063,0.162,0.14,0.211l0.051,0.032c0.068,0.042,0.184,0.137,0.281,0.23c0.102,0.095,0.202,0.199,0.299,0.304
	c0.099,0.107,0.193,0.216,0.285,0.327c0.088,0.109,0.18,0.226,0.242,0.325c0.053,0.07,0.037,0.058,0.092,0.122l0.069,0.076
	l0.058,0.054c0.072,0.066,0.141,0.12,0.192,0.164c0.11,0.09,0.183,0.164,0.251,0.254c0.135,0.175,0.232,0.409,0.314,0.661v0.006
	c0.006,0.014,0.011,0.028,0.017,0.042c0.11,0.26,0.409,0.382,0.669,0.273C113.209,51.048,113.33,50.749,113.221,50.489"/>
<path fill="#040000" d="M105.609,44.54c0,0,0.494-1.257,0.412-1.679c-0.084-0.422-2.082-1.646-2.715-2.621
	c-0.632-0.973-1.363-3.569-2.468-3.879c-1.104-0.31-2.815,0.075-3.548,1.797c1.095-0.159,3.105-0.326,3.802,0.931
	C101.788,40.347,103.266,42.688,105.609,44.54"/>
<path fill="#040000" d="M108.271,43.788c0,0-0.432-0.804-0.261-1.204c0.171-0.401,0.882-0.697,0.996-1.025
	c0.114-0.326,0.819-2.833,1.556-2.325c0.735,0.508,0.758,1.091,0.758,1.091c-0.34-0.034-1.016,0.392-1.269,0.757
	C109.706,41.583,108.74,42.718,108.271,43.788"/>
<path fill="#040000" d="M103.464,44.923c0.291,0.543,0.048,2.024,0.354,2.262l1.244,0.284v-1.294L103.464,44.923z"/>
<path fill="#040000" d="M111.595,54.132c-0.118-0.068-0.239-0.125-0.354-0.205c-0.119-0.073-0.229-0.155-0.342-0.237
	c-0.219-0.168-0.424-0.356-0.617-0.544c-0.195-0.186-0.385-0.373-0.594-0.468c-0.05-0.026-0.104-0.044-0.156-0.057
	c-0.053-0.02-0.111-0.016-0.164-0.027c-0.057-0.002-0.114,0.001-0.172,0.002l-0.174,0.027c-0.119,0.018-0.229-0.064-0.248-0.182
	v-0.014l-0.006-0.035c-0.011-0.14,0.004-0.285-0.031-0.416c-0.017-0.135-0.062-0.257-0.111-0.37
	c-0.033-0.051-0.057-0.109-0.094-0.153c-0.043-0.041-0.071-0.093-0.12-0.125c-0.089-0.071-0.187-0.132-0.3-0.163
	c-0.056-0.021-0.113-0.034-0.176-0.041c-0.059-0.014-0.123-0.014-0.185-0.016c-0.125-0.004-0.255,0.014-0.381,0.04
	c-0.128,0.027-0.251,0.07-0.369,0.12c-0.054,0.031-0.114,0.056-0.166,0.089l-0.076,0.049l-0.075,0.046l-0.051,0.029
	c-0.036,0.019-0.061,0.037-0.105,0.058c-0.062,0.023-0.125,0.045-0.188,0.063c-0.067,0.021-0.123,0.026-0.181,0.031
	c-0.055,0.003-0.113,0.011-0.17,0.007c-0.229-0.017-0.451-0.09-0.635-0.218c-0.094-0.061-0.172-0.141-0.25-0.218
	c-0.062-0.086-0.139-0.169-0.182-0.264c-0.102-0.187-0.166-0.387-0.191-0.583c-0.031-0.199-0.021-0.39-0.004-0.578l0.049-0.274
	c0.019-0.09,0.049-0.173,0.076-0.26c0.045-0.177,0.129-0.327,0.195-0.49c0.077-0.153,0.166-0.299,0.248-0.45l0.15,0.701
	c0.002,0.007,0.008,0.013,0.016,0.014l-0.033-0.006c-0.017-0.006-0.068-0.008-0.1-0.014c-0.082-0.008-0.17-0.013-0.264-0.013
	c-0.187,0-0.381,0.006-0.576,0.029c-0.194,0.019-0.393,0.05-0.586,0.082c-0.196,0.035-0.391,0.078-0.584,0.122
	s-0.385,0.097-0.578,0.146l-0.568,0.17c-0.188,0.06-0.374,0.125-0.559,0.191c-0.188,0.064-0.367,0.142-0.549,0.217
	c-0.184,0.073-0.359,0.158-0.537,0.243c-0.174,0.091-0.346,0.185-0.516,0.284c-0.169,0.097-0.335,0.203-0.496,0.317
	c-0.16,0.114-0.316,0.232-0.473,0.356c-0.148,0.129-0.299,0.261-0.441,0.401c-0.147,0.135-0.274,0.29-0.414,0.44
	c-0.129,0.157-0.26,0.316-0.377,0.487c-0.129,0.165-0.232,0.346-0.354,0.523l-0.004,0.006c-0.019,0.028-0.058,0.035-0.087,0.016
	c-0.02-0.015-0.029-0.04-0.024-0.063c0.042-0.212,0.076-0.432,0.147-0.639c0.058-0.214,0.147-0.415,0.232-0.622
	c0.1-0.199,0.199-0.401,0.322-0.59c0.111-0.197,0.254-0.371,0.393-0.552c0.145-0.173,0.291-0.348,0.457-0.503
	c0.161-0.159,0.332-0.311,0.508-0.453c0.174-0.147,0.365-0.271,0.553-0.398c0.193-0.12,0.385-0.24,0.585-0.346
	c0.198-0.109,0.403-0.202,0.612-0.29c0.205-0.093,0.418-0.165,0.631-0.237c0.214-0.072,0.431-0.128,0.648-0.182
	c0.219-0.051,0.439-0.091,0.661-0.126c0.442-0.067,0.89-0.1,1.343-0.103c0.225-0.003,0.454,0.005,0.689,0.025
	c0.117,0.011,0.238,0.026,0.365,0.05c0.072,0.017,0.127,0.024,0.209,0.051c0.041,0.013,0.076,0.024,0.119,0.041
	c0.055,0.024,0.108,0.051,0.158,0.081c0.231,0.133,0.311,0.428,0.176,0.659l-0.011,0.019l-0.016,0.023
	c-0.073,0.113-0.155,0.226-0.222,0.342c-0.056,0.118-0.133,0.233-0.17,0.354c-0.021,0.059-0.051,0.119-0.065,0.178l-0.043,0.177
	c-0.019,0.116-0.034,0.234-0.022,0.34c0.006,0.108,0.031,0.207,0.07,0.294c0.014,0.048,0.048,0.076,0.068,0.119
	c0.029,0.03,0.057,0.068,0.09,0.092c0.064,0.055,0.14,0.085,0.217,0.101c0.032,0,0.088,0.008,0.105,0.001
	c0.011-0.002,0.021,0,0.035,0.003c0.024-0.007,0.066-0.03,0.1-0.045l0.052-0.025l0.013-0.005c0.008-0.005-0.063,0.037-0.031,0.019
	l0.002-0.001l0.004-0.003l0.007-0.004l0.03-0.017l0.123-0.067c0.082-0.042,0.168-0.073,0.25-0.107
	c0.17-0.057,0.343-0.102,0.519-0.125c0.176-0.022,0.354-0.03,0.536-0.011c0.09,0.009,0.18,0.018,0.27,0.045l0.135,0.033l0.133,0.054
	c0.175,0.068,0.338,0.184,0.474,0.321c0.072,0.064,0.12,0.151,0.177,0.226c0.053,0.079,0.084,0.168,0.125,0.251
	c0.059,0.172,0.102,0.348,0.108,0.519c0.026,0.174-0.004,0.337-0.007,0.504l-0.251-0.231l0.228-0.013
	c0.077,0.005,0.156,0.008,0.234,0.018c0.076,0.02,0.156,0.027,0.23,0.06c0.075,0.028,0.148,0.06,0.215,0.102
	c0.136,0.078,0.246,0.179,0.35,0.279c0.1,0.102,0.191,0.205,0.279,0.307c0.179,0.205,0.353,0.403,0.545,0.586
	c0.098,0.089,0.195,0.178,0.3,0.258c0.099,0.085,0.217,0.158,0.326,0.238l0.002,0.001c0.026,0.02,0.032,0.059,0.013,0.086
	C111.656,54.14,111.621,54.147,111.595,54.132"/>
<path fill="#040000" d="M96.327,57.76c-0.042,0.111-0.058,0.208-0.062,0.312c-0.008,0.103,0,0.205,0.008,0.308
	c0.014,0.205,0.057,0.409,0.094,0.611c0.081,0.405,0.182,0.808,0.287,1.209c0.107,0.401,0.217,0.802,0.335,1.193
	c0.058,0.196,0.121,0.391,0.183,0.576c0.033,0.09,0.067,0.181,0.101,0.258c0.015,0.04,0.032,0.076,0.042,0.097
	c0.004,0.006,0.014,0.027,0.004,0.012c-0.006-0.007,0,0.002-0.02-0.018c-0.024-0.025-0.058-0.046-0.09-0.059l-0.563,0.098
	c0.063-0.054,0.129-0.104,0.194-0.157c0.065-0.048,0.131-0.105,0.197-0.146c0.131-0.08,0.268-0.155,0.4-0.229
	c0.134-0.064,0.271-0.121,0.406-0.181c0.136-0.054,0.274-0.099,0.412-0.147c0.138-0.045,0.275-0.082,0.416-0.118
	c0.139-0.039,0.281-0.064,0.422-0.091c0.142-0.029,0.285-0.051,0.428-0.066c0.143-0.02,0.288-0.028,0.434-0.033
	c-0.236,0.172-0.473,0.33-0.707,0.482L98.896,61.9c-0.113,0.078-0.234,0.146-0.346,0.226l-0.338,0.223
	c-0.108,0.077-0.215,0.156-0.322,0.228c-0.102,0.078-0.196,0.16-0.299,0.234c-0.049,0.039-0.082,0.081-0.125,0.121
	c-0.041,0.04-0.08,0.078-0.123,0.116l-0.039,0.035c-0.149,0.13-0.358,0.147-0.523,0.062c-0.055-0.029-0.109-0.065-0.156-0.107
	c-0.039-0.036-0.047-0.05-0.07-0.076c-0.047-0.055-0.063-0.083-0.088-0.121c-0.045-0.07-0.078-0.13-0.105-0.188
	c-0.061-0.117-0.1-0.227-0.145-0.336c-0.084-0.217-0.146-0.434-0.205-0.649c-0.11-0.434-0.19-0.871-0.23-1.314
	c-0.041-0.444-0.048-0.894,0.008-1.345c0.027-0.226,0.079-0.451,0.151-0.673c0.041-0.11,0.088-0.217,0.149-0.318
	C96.152,57.914,96.236,57.818,96.327,57.76"/>
<path fill="#040000" d="M100.557,52.878c0.08-0.048,0.375-0.223,0.459-0.27c3.314-1.861,7.599-0.936,10.375,0.807
	c0.196,0.124,0.256,0.385,0.133,0.582c-0.123,0.197-0.383,0.256-0.582,0.132c-2.563-1.61-6.5-2.477-9.512-0.786L100.557,52.878z"/>
<path fill="#040000" d="M104.58,47.696c-2.207,0-3.424-0.902-4.17-1.456c-0.154-0.114-0.287-0.211-0.399-0.283
	c-0.239-0.149-0.312-0.463-0.163-0.702c0.148-0.239,0.463-0.312,0.703-0.163c0.148,0.093,0.302,0.207,0.466,0.328
	c0.78,0.579,1.849,1.372,4.015,1.242c0.284-0.017,0.522,0.197,0.539,0.478c0.018,0.281-0.197,0.523-0.478,0.54
	C104.916,47.691,104.746,47.696,104.58,47.696"/>
<path fill="#040000" d="M109.701,47.799c-0.263,0-0.486-0.202-0.508-0.469c-0.023-0.28,0.186-0.526,0.466-0.55
	c0.274-0.022,0.75-0.207,1.464-0.961c0.194-0.205,0.518-0.213,0.721-0.019c0.205,0.193,0.213,0.516,0.02,0.721
	c-0.762,0.804-1.457,1.222-2.121,1.276C109.73,47.799,109.715,47.799,109.701,47.799"/>
<path fill="#040000" d="M109.442,45.398c0,0.365-0.007,1.603-0.121,1.787c-0.112,0.185-0.165,0.065-0.165,0.065l-0.568-0.703
	L109.442,45.398z"/>
<path fill="#040000" d="M104.849,39.342c0,0,0.071,0.055,0.196,0.153c0.123,0.109,0.287,0.285,0.465,0.495
	c0.177,0.215,0.377,0.471,0.567,0.759c0.194,0.285,0.384,0.602,0.563,0.924c0.177,0.322,0.393,0.633,0.525,0.957
	c0.06,0.165,0.104,0.328,0.131,0.49c0.026,0.163,0.047,0.314,0.049,0.464c0.004,0.146-0.004,0.284-0.021,0.41
	c-0.01,0.063-0.016,0.117-0.028,0.173c-0.018,0.055-0.031,0.106-0.045,0.152c-0.023,0.085-0.07,0.164-0.101,0.206
	c-0.03,0.041-0.047,0.063-0.047,0.063c-0.017,0.022-0.05,0.027-0.072,0.01c-0.006-0.005-0.012-0.011-0.015-0.019l-0.012-0.021
	c0,0-0.011-0.023-0.03-0.066c-0.022-0.041-0.041-0.085-0.089-0.156c-0.041-0.068-0.086-0.143-0.146-0.236
	c-0.056-0.091-0.117-0.194-0.186-0.306c-0.125-0.227-0.277-0.492-0.385-0.797c-0.108-0.305-0.158-0.662-0.274-0.995
	c-0.108-0.336-0.236-0.665-0.349-0.978c-0.119-0.31-0.234-0.597-0.342-0.841c-0.058-0.119-0.111-0.229-0.158-0.324
	c-0.052-0.093-0.096-0.174-0.131-0.24c-0.09-0.132-0.142-0.207-0.142-0.207c-0.017-0.023-0.011-0.056,0.013-0.072
	C104.805,39.327,104.832,39.329,104.849,39.342"/>
<path fill="#040000" d="M107.986,43.917c0,0-0.051-0.081-0.104-0.217c-0.059-0.138-0.11-0.337-0.151-0.562
	c-0.035-0.224-0.062-0.478-0.041-0.733c0.013-0.128,0.043-0.259,0.069-0.392c0.031-0.134,0.05-0.27,0.06-0.406
	c0.005-0.136,0.013-0.274,0.004-0.407c-0.006-0.135-0.012-0.268-0.028-0.398c-0.006-0.131-0.04-0.251-0.054-0.373
	c-0.024-0.118-0.053-0.23-0.076-0.335c-0.033-0.104-0.062-0.198-0.089-0.281c-0.026-0.086-0.06-0.155-0.08-0.217
	c-0.046-0.121-0.073-0.19-0.073-0.19l-0.002-0.004c-0.01-0.027,0.004-0.056,0.029-0.065c0.02-0.008,0.042-0.002,0.057,0.013
	c0,0,0.053,0.055,0.143,0.152c0.043,0.05,0.104,0.106,0.156,0.184c0.057,0.076,0.119,0.161,0.188,0.255
	c0.062,0.098,0.131,0.205,0.198,0.322c0.061,0.12,0.131,0.247,0.183,0.386c0.058,0.138,0.112,0.283,0.151,0.437
	c0.047,0.15,0.076,0.309,0.107,0.466c0.028,0.158,0.055,0.316,0.083,0.473c0.029,0.157,0.039,0.312,0.034,0.459
	c-0.018,0.295-0.111,0.553-0.207,0.767c-0.102,0.213-0.204,0.379-0.298,0.497c-0.087,0.119-0.157,0.184-0.157,0.184
	c-0.025,0.025-0.066,0.024-0.093-0.002C107.992,43.926,107.988,43.922,107.986,43.917"/>
<path fill="#040000" d="M95.572,53.174c0,0,0.021,0.062,0.041,0.164c0,0.055,0.045,0.099,0.064,0.14
	c0.018,0.034,0.074,0.089,0.1,0.126c0.049,0.041,0.076,0.078,0.129,0.112c0.041,0.037,0.098,0.066,0.143,0.103
	c0.058,0.029,0.102,0.066,0.162,0.096c0.053,0.035,0.113,0.063,0.171,0.096c0.062,0.026,0.118,0.063,0.181,0.089
	c0.031,0.012,0.062,0.03,0.092,0.045c0.032,0.012,0.065,0.023,0.096,0.04c0.063,0.033,0.129,0.047,0.193,0.079
	c0.064,0.021,0.131,0.042,0.196,0.068c0.065,0.016,0.129,0.036,0.19,0.054c0.061,0.018,0.115,0.025,0.164,0.038
	c0.097,0.021,0.164,0.041,0.164,0.041s-0.024,0.059-0.086,0.147c-0.033,0.041-0.068,0.104-0.127,0.147
	c-0.054,0.048-0.121,0.104-0.199,0.153c-0.08,0.041-0.172,0.085-0.276,0.118c-0.103,0.021-0.218,0.054-0.336,0.05
	c-0.119,0.003-0.244-0.004-0.367-0.037c-0.125-0.02-0.241-0.08-0.36-0.132c-0.111-0.068-0.225-0.134-0.316-0.229
	c-0.1-0.082-0.176-0.195-0.244-0.3c-0.062-0.114-0.111-0.228-0.134-0.35c-0.032-0.113-0.022-0.24-0.015-0.339
	c0.025-0.11,0.043-0.191,0.096-0.274c0.045-0.077,0.088-0.141,0.133-0.161C95.512,53.203,95.572,53.174,95.572,53.174"/>
<path fill="#040000" d="M102.477,48.283c0,0-0.018,0.005-0.049,0.013c-0.033,0.008-0.079,0.021-0.141,0.029
	c-0.061,0.006-0.141,0.014-0.224,0.013c-0.084,0-0.18-0.002-0.28-0.014c-0.103-0.01-0.211-0.029-0.324-0.053
	c-0.114-0.023-0.229-0.06-0.348-0.102c-0.117-0.048-0.234-0.102-0.35-0.168c-0.115-0.063-0.232-0.128-0.35-0.192
	c-0.236-0.125-0.467-0.259-0.676-0.4c-0.102-0.072-0.203-0.135-0.293-0.208c-0.093-0.07-0.178-0.136-0.252-0.204
	c-0.078-0.063-0.146-0.126-0.203-0.184c-0.059-0.057-0.11-0.105-0.146-0.151c-0.076-0.089-0.119-0.139-0.119-0.139
	c-0.01-0.012-0.008-0.03,0.003-0.04c0.011-0.008,0.024-0.009,0.035-0.001l0.002,0.001c0,0,0.052,0.039,0.146,0.105
	c0.043,0.035,0.103,0.071,0.168,0.113c0.065,0.043,0.143,0.087,0.228,0.134c0.168,0.096,0.373,0.189,0.592,0.288
	c0.222,0.094,0.458,0.194,0.699,0.281c0.121,0.045,0.243,0.082,0.366,0.116c0.121,0.035,0.24,0.064,0.353,0.106
	c0.224,0.081,0.425,0.183,0.597,0.27c0.086,0.046,0.164,0.088,0.233,0.128c0.07,0.041,0.127,0.072,0.179,0.105
	c0.103,0.06,0.164,0.1,0.164,0.1c0.014,0.009,0.018,0.028,0.01,0.043C102.49,48.276,102.482,48.281,102.477,48.283"/>
<path fill="#040000" d="M110.143,48.118c-0.182,0-0.355-0.095-0.447-0.264c-0.136-0.247-0.046-0.557,0.201-0.692
	c0.376-0.207,2.242-1.2,3.232-0.291c-0.034,0.16-0.055,0.557,0.095,0.726c-0.191,0.207-0.513,0.221-0.722,0.031
	c-0.321-0.297-1.455,0.064-2.113,0.427C110.31,48.097,110.226,48.118,110.143,48.118"/>
<path fill="#040000" d="M88.719,48.498c0,0,0.002,0.023,0.002,0.067c0.004,0.045,0,0.111-0.008,0.2
	c-0.022,0.173-0.068,0.429-0.166,0.739c-0.093,0.31-0.215,0.681-0.363,1.096c-0.141,0.416-0.297,0.884-0.428,1.385
	c-0.135,0.501-0.235,1.044-0.23,1.577c0.003,0.535,0.141,1.034,0.439,1.447c0.032,0.054,0.08,0.102,0.121,0.153
	c0.018,0.021,0.045,0.058,0.057,0.067l0.087,0.095c0.123,0.14,0.21,0.221,0.327,0.337c0.228,0.221,0.476,0.432,0.731,0.635
	c0.517,0.4,1.077,0.769,1.653,1.03c0.286,0.133,0.574,0.24,0.846,0.299c0.27,0.058,0.521,0.074,0.676,0.027
	c0.158-0.042,0.241-0.097,0.344-0.256c0.1-0.156,0.166-0.41,0.203-0.681l0.021-0.21l0.006-0.217c0.005-0.14-0.002-0.324,0.001-0.482
	c0.001-0.327,0.001-0.647,0.004-0.959c0.01-0.626,0.02-1.217,0.051-1.766c0.022-0.546,0.072-1.054,0.115-1.498
	c0.03-0.226,0.053-0.435,0.084-0.627c0.03-0.193,0.075-0.372,0.106-0.53c0.026-0.159,0.077-0.301,0.116-0.421
	c0.035-0.121,0.074-0.222,0.113-0.301c0.076-0.155,0.115-0.238,0.115-0.238s-0.009,0.091-0.025,0.262
	c-0.013,0.082-0.015,0.187-0.011,0.31c0.007,0.123-0.003,0.259,0.013,0.416c0.017,0.312,0.068,0.691,0.112,1.125
	c0.062,0.435,0.13,0.926,0.205,1.462c0.071,0.537,0.147,1.118,0.229,1.732c0.039,0.311,0.076,0.627,0.117,0.952
	c0.018,0.169,0.041,0.313,0.053,0.506l0.019,0.284l-0.002,0.298c-0.013,0.401-0.071,0.842-0.3,1.305
	c-0.107,0.23-0.286,0.456-0.497,0.649c-0.222,0.181-0.481,0.332-0.744,0.404c-0.53,0.162-1.019,0.123-1.452,0.038
	c-0.434-0.089-0.828-0.233-1.199-0.402c-0.738-0.346-1.39-0.789-1.976-1.291c-0.294-0.248-0.569-0.515-0.823-0.798
	c-0.123-0.137-0.274-0.309-0.369-0.435l-0.08-0.102c-0.044-0.056-0.063-0.091-0.098-0.137c-0.059-0.089-0.122-0.172-0.17-0.268
	c-0.439-0.735-0.537-1.596-0.439-2.295c0.095-0.71,0.323-1.309,0.568-1.824c0.243-0.517,0.514-0.95,0.754-1.329
	c0.235-0.38,0.459-0.695,0.627-0.96c0.168-0.267,0.299-0.477,0.369-0.63c0.034-0.075,0.062-0.135,0.075-0.178
	C88.713,48.52,88.719,48.498,88.719,48.498"/>
<path fill="#040000" d="M92.576,63.346c-0.146-0.05-9.972,3.414-12.452,19.47l-0.04,0.255l0.252,0.061
	c2.147,0.512,5.639,8.144,6.804,11.041l0.104,0.26l0.261-0.104c3.687-1.459,2.389-6.646,1.347-10.814
	c-0.404-1.613-0.785-3.139-0.756-4.073c0.111-3.629,2.094-6.34,5.893-8.054l0.594-0.267L92.576,63.346z"/>
<path fill="#040000" d="M101.764,60.645c0,0,0.111-0.086,0.312-0.214c0.204-0.125,0.505-0.293,0.879-0.456
	c0.748-0.329,1.805-0.628,2.9-0.708c0.273-0.025,0.55-0.023,0.82-0.025c0.135,0.005,0.27,0.013,0.402,0.022
	c0.133,0.007,0.264,0.018,0.393,0.04c0.259,0.033,0.506,0.076,0.738,0.139c0.231,0.051,0.447,0.128,0.643,0.202
	c0.195,0.065,0.367,0.161,0.517,0.238c0.075,0.041,0.146,0.074,0.207,0.112c0.062,0.042,0.116,0.081,0.167,0.116
	c0.198,0.14,0.301,0.229,0.301,0.229s-0.143-0.009-0.373-0.041c-0.058-0.008-0.121-0.017-0.19-0.025
	c-0.071-0.002-0.146-0.011-0.226-0.019c-0.16-0.011-0.334-0.032-0.529-0.034c-0.194-0.008-0.399-0.022-0.619-0.017
	c-0.219-0.009-0.448-0.002-0.686,0.003c-0.236-0.004-0.483,0.024-0.731,0.024c-0.25,0.024-0.503,0.022-0.757,0.053
	c-0.254,0.014-0.51,0.04-0.76,0.062c-0.252,0.023-0.5,0.046-0.742,0.069c-0.484,0.047-0.938,0.092-1.328,0.13
	c-0.395,0.033-0.725,0.063-0.963,0.077C101.903,60.643,101.764,60.645,101.764,60.645"/>
<path fill="#040000" d="M88.844,95.021c-0.25-0.17,2.793-3.248,2.826-3.549c0.391-3.548,0.563-5.928,0.362-8.344
	c-0.403-4.83,1.063-14.338,3.037-17.825c0.112-0.198,0.338-0.153,0.56-0.205c0.223-0.051,1.203,0.158,1.393,0.286l2.604,1.176
	c0.305,0.206,0.791,0.428,0.674,0.775c-3.858,11.3-4.545,16.645-3.789,22.424c0.045,0.338-0.125,0.67-0.428,0.828
	C96.081,90.587,92.276,92.43,88.844,95.021"/>
<path fill="#040000" d="M105.512,44.903c0,0,0.023,0.231,0.066,0.637c0.012,0.102,0.023,0.214,0.037,0.336
	c0.004,0.061,0.012,0.124,0.018,0.191c0.003,0.033,0.006,0.066,0.01,0.1l0.003,0.026l0.001,0.013v0.006
	c0.002-0.009-0.014,0.091-0.008,0.051l-0.001,0.003c-0.004,0.007,0.007,0.008-0.037,0.062c-0.019,0.02-0.041,0.035-0.063,0.044
	l-0.027,0.008c-0.135,0.024-0.194,0-0.281-0.011c-0.079-0.015-0.156-0.033-0.236-0.054c-0.041-0.011-0.08-0.022-0.121-0.033
	l-0.031-0.009c-0.041-0.016-0.027-0.012-0.043-0.019l-0.055-0.028c-0.074-0.031-0.16-0.1-0.242-0.152
	c-0.303-0.217-0.592-0.449-0.904-0.709c-0.311-0.255-0.629-0.536-0.958-0.826c-0.657-0.579-1.335-1.222-2.001-1.884
	c-0.336-0.328-0.666-0.662-0.989-1.002c-0.161-0.169-0.321-0.34-0.473-0.523c-0.076-0.087-0.152-0.184-0.222-0.284
	c-0.071-0.097-0.15-0.213-0.181-0.248c-0.044-0.06-0.094-0.114-0.126-0.139c-0.031-0.028-0.041-0.011,0.061-0.01
	c0.047-0.006,0.1-0.022,0.123-0.046c0.021-0.015,0.022-0.023,0.017-0.018c-0.017,0.01-0.052,0.072-0.08,0.132
	c-0.056,0.134-0.103,0.301-0.134,0.469c-0.041,0.168-0.07,0.338-0.094,0.503c-0.049,0.331-0.09,0.644-0.123,0.924
	c-0.033,0.281-0.063,0.526-0.088,0.728c-0.052,0.407-0.093,0.644-0.093,0.644c-0.004,0.029-0.03,0.049-0.059,0.045
	c-0.021-0.004-0.036-0.019-0.042-0.037c0,0-0.018-0.057-0.051-0.164c-0.031-0.108-0.075-0.265-0.121-0.468
	c-0.049-0.202-0.098-0.449-0.143-0.736c-0.041-0.287-0.086-0.613-0.098-0.978c-0.01-0.368-0.02-0.76,0.111-1.246
	c0.041-0.126,0.076-0.256,0.183-0.413c0.054-0.077,0.127-0.16,0.231-0.237c0.111-0.076,0.262-0.139,0.416-0.144
	c0.315-0.009,0.502,0.123,0.638,0.223c0.137,0.107,0.231,0.216,0.319,0.329c0.1,0.14,0.138,0.21,0.196,0.292
	c0.054,0.082,0.107,0.168,0.173,0.255c0.121,0.173,0.25,0.353,0.385,0.531c0.267,0.358,0.562,0.711,0.858,1.063
	c0.603,0.696,1.231,1.376,1.822,2.01c0.296,0.316,0.588,0.617,0.864,0.901c0.275,0.283,0.551,0.551,0.791,0.77
	c0.062,0.046,0.099,0.099,0.176,0.144l0.053,0.032c0.002,0.003,0.032,0.019,0.012,0.01l0.026,0.011l0.108,0.043
	c0.072,0.027,0.142,0.051,0.209,0.071c0.06,0.02,0.146,0.034,0.152,0.034c0,0,0,0.001-0.002,0.002
	c-0.014,0.005-0.029,0.015-0.041,0.03c-0.01,0.009-0.018,0.045-0.014,0.033l0.005-0.012l0.002-0.003
	c0.007-0.043-0.009,0.055-0.007,0.044v-0.006V46.2l0.001-0.026c0-0.034,0-0.068,0-0.101c0.001-0.066,0.001-0.13,0.002-0.191
	c0.002-0.123,0.004-0.235,0.006-0.337c0.007-0.407,0.011-0.639,0.011-0.639c0-0.028,0.023-0.051,0.053-0.05
	C105.488,44.856,105.51,44.876,105.512,44.903L105.512,44.903z"/>
<path fill="#040000" d="M111.858,31.882c-1.634-3.11-4.499-6.555-13.343-8.521c-0.584-0.13-1.186-0.227-1.801-0.297
	c-1.196-1.836-4.34-2.968-6.896-2.315h-0.001c0,0.459,0.017,1.107-0.524,1.671c-0.418,0.438-1.174,0.824-2.535,1.027
	c-1.087,0.162-2.299,0.928-3.367,2.03c-1.989,2.05-3.482,5.264-2.753,7.919c0.373,0.994,1.016,1.483,1.435,1.139
	c0.097-0.079,0.181-0.203,0.249-0.375c0.222-0.574,0.377-1.054,0.626-1.337c0.011-0.013,0.024-0.021,0.035-0.033
	c0.03,0.024,0.058,0.05,0.091,0.07l0.143,0.088c0.769,0.477,1.569,0.945,2.29,1.108c0.002-0.002,0.004-0.003,0.005-0.004
	c0.005,0.001,0.009,0.003,0.014,0.004C85.315,35,84.984,36.9,85.253,38.672c0.351,2.304,1.196,4.815,2.206,6.554
	c0.174,0.299,0.133,0.501,0.088,0.627c-0.207,0.585-1.184,1.066-1.507,1.189c-0.167,0.062-0.288,0.206-0.323,0.38l-0.459,2.345
	c-0.039,0.199,0.043,0.401,0.208,0.517c0.166,0.115,0.385,0.122,0.557,0.017c1.21-0.735,2.696-1.655,2.899-1.859
	c0.304-0.303,0.92-1.607,0.763-2.788c0.053-2.348,0.925-3.639,2.454-3.639c0.722,0,1.355,0.305,1.535,0.524
	c0.726,0.889,0.945,1.228,0.758,2.456c-0.094,0.619-0.27,1.45-0.438,2.254c-0.494,2.34-0.524,2.64-0.293,2.926
	c0.096,0.119,0.264,0.201,0.42,0.201c0.84,0,2.232-2.071,3.299-6.615c0.908-3.87,0.414-7.713,0.147-9.778
	c-0.021-0.164-0.041-0.322-0.06-0.469c1.928,0.98,6.337,3.082,8.435,3.781c0.468,0.156,1.024,0.238,1.608,0.238
	c1.474,0,3.521-0.54,4.441-2.062C112.418,34.762,112.744,33.564,111.858,31.882"/>
<path fill="#040000" d="M71.851,84.901c0.029,0.006,0.058,0.009,0.087,0.009c0.102,0,0.201-0.037,0.279-0.104
	c0.1-0.088,0.153-0.218,0.142-0.351c-0.004-0.043-0.313-4.272,2.091-8.688c0.64-1.175,1.394-2.541,2.193-3.989
	c2.356-4.27,5.026-9.11,6.435-12.042c1.91-3.975,3.096-8.389,3.254-12.11c0.006-0.148-0.066-0.289-0.19-0.37
	c-0.123-0.082-0.281-0.092-0.414-0.028c-0.136,0.065-1.341,0.649-1.781,1.041c-0.058,0.052-0.101,0.119-0.123,0.194
	c-0.784,2.619-3.763,10.266-6.083,14.402c-0.553,0.987-1.305,2.28-2.141,3.693c-0.123,0.789-0.271,1.586-0.444,2.392
	c1.357-2.271,2.608-4.401,3.32-5.672c2.313-4.121,5.271-11.688,6.118-14.448c0.192-0.144,0.523-0.335,0.851-0.512
	c-0.269,3.419-1.415,7.491-3.127,11.053c-1.399,2.91-4.062,7.739-6.413,11.999c-0.8,1.45-1.554,2.817-2.195,3.994
	c-2.032,3.733-2.223,7.264-2.212,8.602L71.851,84.901z"/>
<path fill="#040000" d="M100.314,45.796c-0.014,0-0.026-0.001-0.04-0.004c-0.111-0.022-0.183-0.13-0.16-0.24
	c0.056-0.284-0.054-2.963-0.834-4.35c-0.056-0.098-0.021-0.222,0.078-0.277c0.098-0.055,0.223-0.021,0.278,0.077
	c0.849,1.512,0.947,4.274,0.877,4.629C100.495,45.729,100.41,45.796,100.314,45.796"/>
<path fill="#040000" d="M101.964,50.418c0.058-0.029,0.115-0.055,0.173-0.079c0.168-0.077,0.344-0.145,0.545-0.212
	c0.183-0.063,0.369-0.112,0.543-0.157c0.308-0.075,0.631-0.131,0.988-0.171c0.118-0.012,0.23-0.02,0.333-0.027l0.075-0.006
	l0.324-0.007h0.039c-0.026,0.069-0.045,0.149-0.047,0.238c0,0.101,0.022,0.194,0.052,0.276l-0.101-0.018l-0.276-0.039l-0.077-0.008
	c-0.094-0.009-0.198-0.019-0.311-0.026c-0.141-0.007-0.291-0.012-0.453-0.012c-0.174,0-0.348,0.006-0.512,0.018
	c-0.174,0.016-0.357,0.032-0.546,0.063c-0.204,0.032-0.387,0.07-0.558,0.116C102.09,50.381,102.027,50.399,101.964,50.418"/>
<path fill="#040000" d="M75.388,67.795c3.876-6.637,8.152-14.784,8.993-19.791c-0.561-0.332-3.213-0.485-6.272,0.892
	c-0.403,1.869-1.143,4.218-2.014,6.6C76.269,59.211,76.21,63.378,75.388,67.795"/>
<path fill="#040000" d="M75.351,29.973c-1.475-0.363-3.584-0.794-6.026-1.292c-6.076-1.238-13.084-2.34-15.029-3.458
	c-1.587-0.912-3.776-3.551-3.776-3.551V33.75l0.811-0.127c0.02-0.003,2.059-0.319,4.355-0.319c0.791,0,1.526,0.038,2.186,0.112
	c0.243,0.027,0.585,0.061,1.01,0.105c2.998,0.304,9.007,1.016,15.129,2.528l2.336,0.577l1.884-5.942L75.351,29.973z"/>
<path fill="#040000" d="M62.018,57.691c-2.327-1.26-5.514-2.986-13.003-2.986c-0.265,0-0.536,0.003-0.811,0.007v-7.769
	c2.186,0.146,5.271,0.307,8.237,0.307c3.729,0,6.162-0.259,7.231-0.772l0.135-0.063l0.447-4.791l0.04-0.46l-0.419,0.2
	c-0.017,0.009-0.457,0.213-2.208,0.489c-0.937,0.148-3.288,0.244-5.991,0.244c-3.607,0-7.369-0.166-10.592-0.467L42.6,41.396v19.415
	l3.095-0.325c1.251-0.131,2.453-0.198,3.573-0.198c5.096,0,7.583,1.382,8.932,2.132c0.143,0.08,0.276,0.154,0.402,0.22
	c-0.254,3.217-1.322,6.489-3.016,9.234c-1.724,2.793-3.693,3.958-4.408,4.311c-0.71-0.347-2.666-1.498-4.403-4.311
	c-1.349-2.186-2.271-4.597-2.739-7.169l-0.04-0.221l-0.226,0.006c-0.738,0.018-1.512-0.069-2.286-0.259
	c-1.057-0.26-2.055-0.695-2.886-1.259l-0.462-0.313l0.053,0.556c0.354,3.772,1.783,7.882,4.024,11.574l0.136,0.225
	c1.355,2.239,1.599,2.641,8.224,8.254l0.607,0.513l0.607-0.513c6.625-5.613,6.87-6.015,8.224-8.253l0.136-0.226
	c2.614-4.306,4.113-9.173,4.113-13.351v-2.704l-0.6-0.232C63.151,58.306,62.628,58.023,62.018,57.691"/>
<path fill="#040000" d="M128.25,76.355c1.06-3.485,0.672-4.161,0.524-4.419c-0.216-0.378-0.513-0.69-2.326-1.347
	c0.444-1.242,0.479-2.234,0.103-2.954c-0.289-0.552-1.064-1.303-4.355-2.324c3.531-4.331,8.617-11.093,8.617-14.114
	c0-1.793-2.696-8.009-5.564-8.009c-0.099,0-0.195,0.006-0.291,0.019c-1.871,0.258-4.258,4.246-12.166,20.325
	c-1.447,2.941-2.591,5.266-3.062,6.058c-0.393,0.657-0.656,0.862-0.907,0.927c-0.294-0.934-0.478-2.079-0.524-3.287
	c-0.071-1.817-0.428-3.471-0.442-3.539l-0.056-0.258l-0.147-0.217c-0.033-0.049-0.819-1.208-1.78-1.992
	c-0.992-0.811-2.176-0.898-2.638-0.898c-0.103,0-0.161,0.005-0.161,0.005l-1.005,0.065l-0.231,0.976
	c-0.014,0.06-1.527,6.456-2.461,11.037L99.33,72.63l1.545,11.843l0.102,0.203c1.061,2.146,2.117,3.692,2.818,4.719
	c0.16,0.233,0.377,0.552,0.516,0.769c-0.381,1.696-0.342,2.727,0.121,3.319c0.291,0.373,0.727,0.588,1.195,0.588h12.734
	c0.9,0,1.719-0.646,3-3.836c0.227-0.297,0.691-0.924,1.26-1.688c0.66-0.889,1.526-2.053,2.151-2.886
	c0.237-0.282,0.476-0.592,0.713-0.918l3.86-2.895l-0.018-0.703C129.32,80.866,129.226,78.449,128.25,76.355 M127.063,72.917
	c-0.035,0.553-0.397,2.155-0.79,3.322c-3.232,5.263-5.982,8.604-6.657,8.687c-0.635-0.09-0.735-0.383-0.919-1.099
	c-0.09-0.349-0.191-0.736-0.41-1.093c3.361-4.83,4.434-6.974,5.153-8.413c0.448-0.895,0.739-1.473,1.356-2.269
	C125.717,72.36,126.688,72.722,127.063,72.917 M121.078,87.4c-0.662,0.89-1.232,1.657-1.354,1.812l-0.051,0.064l-0.028,0.076
	c-0.45,1.137-1.101,2.476-1.411,2.797h-12.271c0.004-0.41,0.131-1.224,0.319-1.979l0.022-0.087l-0.006-0.09
	c-0.029-0.384-0.324-0.819-0.918-1.686c-0.66-0.966-1.652-2.418-2.642-4.401L101.275,72.7c0.787-3.847,1.962-8.896,2.322-10.425
	c0.302,0.043,0.716,0.156,1.059,0.437c0.604,0.494,1.162,1.24,1.344,1.494c0.076,0.381,0.323,1.707,0.379,3.099
	c0.071,1.832,0.422,3.534,0.99,4.791l0.131,0.288l0.313,0.038c0.241,0.03,0.459,0.044,0.665,0.044c1.259,0,2.1-0.548,2.9-1.893
	c0.513-0.859,1.672-3.215,3.14-6.199c1.858-3.78,4.173-8.484,6.251-12.347c3.291-6.12,4.256-6.846,4.449-6.918
	c0.011-0.001,0.02-0.001,0.029-0.001c0.397,0,1.266,0.759,2.233,2.427c0.917,1.577,1.411,3.063,1.411,3.662
	c0,2.677-6.848,11.352-9.494,14.479l-2.373,2.571l0.826,0.762l2.152-2.33c2.17,0.586,4.558,1.441,4.847,1.846
	c0.192,0.367-0.224,1.633-0.72,2.561c-0.842,1.031-1.203,1.748-1.693,2.731c-0.734,1.467-1.838,3.674-5.475,8.85
	c-0.244,0.054-0.826,0.091-1.521-0.493c-1.101-0.926-1.581-2.693-1.312-3.356c0.187-0.459,1.92-1.556,3.422-2.293l0.334-0.164
	l-0.021-0.372c-0.161-2.897,1.757-4.861,1.774-4.879l0.965-0.96h-3.057v1.124h0.539c-0.611,0.919-1.367,2.453-1.354,4.404
	c-1.052,0.537-3.251,1.753-3.644,2.717c-0.51,1.252,0.283,3.507,1.629,4.641c0.744,0.625,1.445,0.782,1.965,0.782
	c0.394,0,0.682-0.09,0.805-0.137c0.044,0.135,0.082,0.278,0.121,0.426c0.189,0.732,0.447,1.733,1.852,1.932
	c0.047,0.007,0.098,0.011,0.149,0.011c0.21,0,0.461-0.065,0.781-0.264c0.147,0.452,0.446,0.875,0.998,1.069
	c0.026,0.009,0.053,0.013,0.079,0.02C121.342,87.047,121.211,87.221,121.078,87.4 M124.166,83.331l-0.086,0.081
	c-0.094,0.107-0.35,0.438-0.721,0.933c-0.673,0.802-1.343,1.413-1.62,1.44c-0.307-0.126-0.348-0.589-0.345-0.846
	c0.686-0.698,1.591-1.81,2.822-3.551c1.002-1.412,1.933-2.848,2.496-3.734c0.486,1.284,0.636,2.675,0.679,3.26L124.166,83.331z"/>
<path fill="#040000" d="M74.002,39.824c-1.375-0.113-2.639-0.353-3.67-0.67l-0.205,0.341c-2.12,3.534-2.145,20.303-2.145,20.472
	v2.357c0,5.107-1.811,11.022-4.971,16.229l-0.154,0.254c-1.768,2.92-3.932,5.471-9.762,9.867c-0.472,0.357-1.405,0.938-1.92,1.253
	c-0.514-0.315-1.448-0.896-1.92-1.253c-5.588-4.214-7.739-6.676-9.399-9.283l-0.492-0.772v0.001c-1.031,0.316-2.295,0.557-3.67,0.67
	c-2.601,0.213-4.884-0.089-5.979-0.705c1.23,0.943,3.53,3.842,6.093,6.682c0.937,1.174,2.093,2.327,3.351,3.439
	c0.562,0.516,1.12,0.992,1.667,1.408c0.002,0,0.004,0.002,0.006,0.004c1.489,1.205,3.036,2.344,4.465,3.377
	c0.98,0.708,2.485,1.697,3.158,2.076c0.699,0.395,2.302,1.515,2.318,1.525l0.403,0.281l0.402-0.281
	c0.017-0.011,1.62-1.13,2.318-1.525c0.674-0.381,2.18-1.369,3.159-2.076c5.168-3.734,8.604-7.267,11.138-11.454l0.153-0.252
	c3.735-6.153,5.877-13.248,5.877-19.464v-2.357c0-4.657,0.349-9.559,0.731-13.067c0.203-1.705,0.66-2.709,1.222-3.968
	c0.575-1.287,1.674-2.681,2.7-3.395C77.652,39.858,75.915,39.979,74.002,39.824"/>
<path fill="#040000" d="M112.441,56.418c-0.743,0-1.467,0.504-2.025,1.398c-0.732-0.267-1.623-0.402-2.656-0.402
	c-2.955,0-6.599,1.114-8.944,2.114l-0.61-0.577c-0.47-2.12,0.407-3.851,2.678-5.284l10.625,0.825
	c0.207,0.104,0.729,0.321,1.524,0.364c0.126,0.007,0.247-0.041,0.332-0.134c0.938-1.01,0.183-3.209-0.17-4.072
	c0.237-0.701,0.204-1.147,0.155-1.799c-0.025-0.333-0.055-0.746-0.055-1.3c0-0.099-0.006-0.194-0.019-0.29v-0.012
	c0-0.05-0.009-0.099-0.026-0.144c-0.19-0.947-0.979-1.277-1.512-1.434l-0.23-0.796c0.192-0.461,0.332-0.872,0.414-1.226
	c0.226-0.522,0.346-0.867,0.402-1.147c0.194-0.95-0.027-1.789-0.593-2.313c-0.041-0.229-0.194-0.735-0.785-1.198
	c-0.405-0.891-0.707-1.587-0.892-2.053l-0.934-0.096c0.194,0.575,0.706,1.727,1.103,2.596c0.03,0.066,0.077,0.124,0.137,0.167
	c0.279,0.201,0.416,0.405,0.481,0.547c-0.012,0.026-0.021,0.053-0.027,0.081c-0.04,0.174,0.034,0.355,0.184,0.451
	c0.463,0.295,0.65,0.912,0.5,1.651c-0.058,0.284-0.226,0.692-0.365,1.015c-0.012,0.023-0.02,0.05-0.025,0.076
	c-0.076,0.346-0.223,0.768-0.434,1.255c-0.039,0.09-0.045,0.19-0.018,0.285l0.337,1.166c0.042,0.143,0.155,0.253,0.3,0.291
	c0.688,0.181,1.055,0.369,1.14,0.892c0.013,0.078,0.019,0.155,0.019,0.236c0,0.585,0.032,1.016,0.059,1.363
	c0.048,0.651,0.072,0.979-0.16,1.601c-0.038,0.102-0.036,0.214,0.007,0.313c0.583,1.363,0.771,2.611,0.495,3.167
	c-0.631-0.071-0.988-0.268-0.989-0.268h-0.001l-0.454-0.303c-0.19-0.127-0.446-0.079-0.577,0.106
	c-0.015,0.02-0.027,0.04-0.037,0.061l-9.982-0.776c-0.09-0.005-0.178,0.015-0.253,0.062c-2.712,1.666-3.771,3.817-3.144,6.393
	c0.02,0.079,0.062,0.151,0.12,0.207l0.906,0.854c0.123,0.116,0.304,0.147,0.46,0.079c2.254-0.994,5.927-2.155,8.861-2.155
	c1.084,0,1.979,0.159,2.664,0.472c0.203,0.093,0.445,0.011,0.549-0.188c0.494-0.943,1.083-1.281,1.469-1.281
	c0.312,0,0.512,0.209,0.533,0.548c-0.047,0.116-0.18,0.391-0.309,0.656c-0.777,1.601-2.396,4.933-1.937,7.174
	c0.089,0.437,0.108,1.487-0.463,2.34c-0.402,0.599-1.025,0.982-1.854,1.138c-0.177,0.033-0.427-0.09-0.588,0.05
	c-0.328,0.286-0.333-0.009-0.531-0.03v0.846c0.475,0.044,0.901,0.034,1.274-0.037c1.06-0.2,1.867-0.704,2.399-1.497
	c0.725-1.081,0.711-2.382,0.588-2.979c-0.402-1.961,1.189-5.238,1.869-6.636c0.248-0.514,0.352-0.728,0.384-0.871
	c0.007-0.031,0.01-0.062,0.01-0.094C113.819,57.029,113.24,56.418,112.441,56.418"/>
<path fill="#040000" d="M101.686,67.112c-0.631-0.322-1.31-0.687-2.049-1.111l-0.055-0.031c-1.195-0.684-2.537-1.06-3.775-1.06
	c-0.664,0-1.297,0.105-1.881,0.315c-0.008,0.003-0.017,0.007-0.025,0.011c-1.68,0.737-3.584,1.973-5.362,3.482
	c-0.11,0.095-0.166,0.242-0.144,0.387c0.023,0.145,0.121,0.268,0.256,0.324l4.931,2.037c1.298,2.271,0.986,5.08,0.685,7.798
	c-0.107,0.955-0.207,1.858-0.233,2.718c-0.015,0.457,0.034,1.043,0.091,1.72c0.168,2.006,0.395,4.725-0.893,6.127
	c-1.284-0.167-3.18,1.444-4.84,2.866c-0.283,0.242-0.557,0.477-0.813,0.688c-0.923-2.218-4.157-9.61-6.723-10.81
	c-0.012-0.11-0.056-0.213-0.131-0.301c-0.199-0.236-0.596-0.343-1.285-0.343c-1.643,0-5.045,0.657-7.573,2.114l-0.013,0.857
	c0.103,0.022,0.211,0.005,0.301-0.049c2.378-1.418,5.753-2.08,7.285-2.08c0.273,0,0.443,0.021,0.545,0.041
	c-0.022,0.209,0.114,0.403,0.322,0.453c0.573,0.138,1.888,1.051,4.254,5.631c1.381,2.672,2.441,5.301,2.453,5.326
	c0.049,0.123,0.152,0.217,0.28,0.251c0.036,0.009,0.074,0.015,0.11,0.015c0.093,0,0.184-0.031,0.26-0.09
	c0.385-0.301,0.818-0.672,1.277-1.064c1.318-1.13,3.127-2.676,4.092-2.676c0.074,0,0.139,0.01,0.195,0.029
	c0.146,0.052,0.311,0.018,0.425-0.088c1.759-1.627,1.501-4.715,1.312-6.969c-0.054-0.65-0.101-1.214-0.089-1.624
	c0.026-0.823,0.124-1.71,0.228-2.649c0.31-2.769,0.658-5.908-0.867-8.445c-0.047-0.077-0.117-0.137-0.2-0.172L89.62,68.92
	c2.062-1.663,3.743-2.524,4.604-2.904c1.435-0.51,3.318-0.239,4.938,0.688l0.054,0.03c0.871,0.499,1.692,0.94,2.469,1.326v-0.947
	l0,0V67.112z"/>
<path fill="#070001" d="M108.587,107.068c0,0.43-0.153,0.795-0.46,1.095c-0.309,0.3-0.674,0.451-1.096,0.451
	c-0.287,0-0.547-0.068-0.783-0.205c-0.236-0.136-0.422-0.322-0.558-0.558c-0.137-0.235-0.204-0.496-0.204-0.783
	c0-0.423,0.149-0.788,0.45-1.096c0.3-0.307,0.665-0.461,1.095-0.461c0.424,0,0.789,0.154,1.096,0.461
	C108.434,106.28,108.587,106.645,108.587,107.068"/>
<path fill="#070001" d="M70.526,115.357c0.28-0.188,0.561,0.063,0.561,0.312v1.34c0,0.25-0.19,0.53-0.422,0.622
	c0,0-0.328,0.131-0.883,0.271c-0.554,0.141-1.084,0.211-1.59,0.211c-2.19,0-3.283-1.069-3.283-3.207v-2.974
	c0-0.25-0.205-0.453-0.454-0.453h-0.468c-0.25,0-0.454-0.119-0.454-0.267c0-0.146,0.143-0.411,0.318-0.589l3.441-3.506
	c0.174-0.177,0.395-0.323,0.491-0.323c0.094,0,0.172,0.204,0.172,0.454v1.666c0,0.25,0.205,0.454,0.454,0.454h1.996
	c0.25,0,0.454,0.204,0.454,0.454v1.203c0,0.249-0.204,0.453-0.454,0.453h-1.996c-0.249,0-0.454,0.203-0.454,0.453v1.845
	c0,0.25,0.008,0.657,0.016,0.907c0,0,0.004,0.125,0.044,0.322c0.039,0.197,0.151,0.362,0.333,0.494
	c0.183,0.133,0.46,0.199,0.832,0.199C69.605,115.701,70.106,115.61,70.526,115.357"/>
<path fill="#070001" d="M105.513,117.891v-8.066c0-0.249,0.204-0.454,0.454-0.454h2.139c0.25,0,0.453,0.205,0.453,0.454v8.183
	c0,2.138-1.094,3.207-3.281,3.207c-0.508,0-1.039-0.069-1.593-0.211c-0.554-0.14-0.882-0.271-0.882-0.271
	c-0.232-0.094-0.422-0.372-0.422-0.622v-1.341c0-0.25,0.281-0.5,0.561-0.312c0.42,0.253,0.92,0.343,1.348,0.343
	c0.371,0,0.638-0.08,0.832-0.198C105.41,118.426,105.513,118.092,105.513,117.891"/>
<path fill="#070001" d="M59.541,109.219c-0.552,0-1.072,0.098-1.561,0.291c-0.49,0.194-1.149,0.789-1.149,0.789
	c-0.185,0.167-0.337,0.1-0.337-0.15v-3.431c0-0.249-0.204-0.454-0.453-0.454h-2.131c-0.25,0-0.454,0.205-0.454,0.454v10.791
	c0,0.249,0.204,0.453,0.454,0.453h2.131c0.249,0,0.453-0.204,0.453-0.453v-4.054c0.01-0.32,0.149-0.736,0.327-0.973
	c0.165-0.2,0.334-0.381,0.509-0.533c0.292-0.256,0.63-0.385,1.013-0.385c0.49,0,0.821,0.172,0.996,0.516
	c0.174,0.343,0.261,0.72,0.261,1.131c0,0.102-0.001,0.168-0.004,0.198l-0.003,0.032c-0.001,0.035-0.001,0.269-0.001,0.519v3.549
	c0,0.249,0.204,0.454,0.453,0.454h2.132c0.249,0,0.453-0.205,0.453-0.454v-4.821C62.629,110.375,61.599,109.219,59.541,109.219"/>
<path fill="#070001" d="M87.49,110.826c-0.223-0.521-0.566-0.919-1.03-1.193c-0.463-0.276-1.039-0.414-1.726-0.414
	c-0.686,0-1.292,0.141-1.819,0.422c-0.526,0.282-1.034,0.698-1.523,1.249c-0.124-0.298-0.29-0.56-0.498-0.785
	c-0.208-0.225-0.441-0.401-0.697-0.531s-0.516-0.221-0.78-0.274c-0.265-0.053-0.543-0.08-0.836-0.08
	c-0.619,0-1.164,0.109-1.637,0.329c-0.472,0.22-1.057,0.75-1.057,0.75c-0.184,0.168-0.336,0.101-0.336-0.148v-0.325
	c0-0.25-0.204-0.453-0.453-0.453h-2.131c-0.25,0-0.453,0.203-0.453,0.453v7.686c0,0.249,0.203,0.453,0.453,0.453h2.131
	c0.249,0,0.453-0.204,0.453-0.453v-4.021c0-0.323,0.166-0.8,0.388-1.071c0.14-0.178,0.262-0.317,0.364-0.414
	c0.118-0.112,0.272-0.215,0.46-0.304c0.189-0.09,0.396-0.135,0.621-0.135c0.472,0,0.801,0.157,0.987,0.472
	c0.185,0.315,0.238,0.891,0.238,0.891c0.022,0.249,0.041,0.656,0.041,0.904v3.677c0,0.25,0.204,0.454,0.453,0.454h2.132
	c0.249,0,0.453-0.204,0.453-0.454v-4.02c0-0.334,0.174-0.83,0.407-1.097l-0.007-0.002c0.136-0.164,0.274-0.311,0.411-0.441
	c0.27-0.256,0.616-0.384,1.037-0.384c0.434,0,0.751,0.15,0.95,0.451c0.2,0.301,0.257,0.911,0.257,0.911
	c0.024,0.249,0.043,0.656,0.043,0.904v3.677c0,0.25,0.204,0.454,0.453,0.454h2.132c0.249,0,0.453-0.204,0.453-0.454v-4.787
	C87.822,111.979,87.713,111.348,87.49,110.826"/>
<path fill="#070001" d="M97.176,112.848c0.156-0.025,0.602-0.101,0.979-0.101c0.557,0,1,0.077,1.328,0.231
	c0.33,0.155,0.562,0.351,0.697,0.587s0.203,0.486,0.203,0.751c0,0.321-0.115,0.633-0.347,0.933
	c-0.231,0.302-0.633,0.452-1.206,0.452c-0.484,0-1.055-0.139-1.71-0.414c-0.655-0.276-1.14-0.578-1.14-0.578
	c-0.211-0.133-0.385-0.036-0.385,0.213v2.07c0.553,0.378,1.157,0.658,1.815,0.844c0.659,0.186,1.347,0.279,2.067,0.279
	c0.899,0,1.664-0.177,2.291-0.528c0.629-0.353,1.098-0.82,1.41-1.406c0.312-0.584,0.469-1.212,0.469-1.882
	c0-0.646-0.158-1.245-0.477-1.793c-0.318-0.549-0.775-0.989-1.371-1.321c-0.597-0.332-1.289-0.498-2.076-0.498
	c-0.125,0-0.207,0.002-0.25,0.004c-0.043,0.003-0.112,0.009-0.211,0.018l-0.099,0.009c-0.101,0.011-0.185-0.184-0.185-0.434v-1.101
	c0-0.25,0.205-0.454,0.455-0.454h3.278c0.249,0,0.453-0.204,0.453-0.454v-1.557c0-0.249-0.204-0.453-0.453-0.453h-5.87
	c-0.25,0-0.455,0.204-0.455,0.453v5.892c0,0.198,0.162,0.34,0.36,0.33C96.844,112.935,97.01,112.875,97.176,112.848"/>
<path fill="#070001" d="M89.248,114.682c0,2.138,1.093,3.207,3.283,3.207c0.356,0,0.871-0.115,1.152-0.252
	c0.279-0.136,0.453-0.362,0.453-0.612v-1.211c0-0.25-0.203-0.454-0.453-0.454H93.52c-0.373,0-0.649,0.05-0.832-0.083
	c-0.183-0.131-0.295-0.297-0.334-0.494s-0.043-0.322-0.043-0.322c-0.009-0.25-0.017-0.657-0.017-0.907v-6.841
	c0-0.249-0.204-0.452-0.453-0.452h-2.14c-0.25,0-0.453,0.203-0.453,0.452V114.682z"/>
</svg>