<svg xmlns="http://www.w3.org/2000/svg" xmlns:xlink="http://www.w3.org/1999/xlink" width="175" height="162">
    <defs>
        <rect id="a" x="-4" y="-4" width="179" height="166"/>
    </defs>
    <clipPath id="b">
        <use xlink:href="#a" overflow="visible"/>
    </clipPath>
    <g clip-path="url(#b)">
        <defs>
            <rect id="c" x="-4" y="-4" width="179" height="166"/>
        </defs>
        <clipPath id="d">
            <use xlink:href="#c" overflow="visible"/>
        </clipPath>
        <g clip-path="url(#d)">
            <defs>
                <rect id="e" x="-4" y="-4" width="179" height="166"/>
            </defs>
            <clipPath id="f">
                <use xlink:href="#e" overflow="visible"/>
            </clipPath>
            <image overflow="visible" width="179" height="166" xlink:href="A85C96177B8A1098.png" transform="translate(-4 -4)" clip-path="url(#f)"/>
        </g>
    </g>
    <polygon clip-path="url(#b)" fill="#F2F2F2" points="167,154 83.204,132.956 0,154 0,0 167,0"/>
    <path fill="#040000" d="M111.889 68.941c2.221-6.165 4.088-10.441 3.992-11.185-.002-.877-.369-1.632-.962-2.12l.169-.158c1.208-1.301.824-3.386.234-4.996.168-.709.128-1.256.085-1.83-.025-.328-.052-.699-.052-1.206l-.02-.375c-.006-.134-.027-.265-.064-.393-.149-.66-.551-1.467-1.574-2.004.091-.257.167-.501.224-.729.235-.554.367-.945.438-1.295.252-1.233-.002-2.377-.696-3.202-.131-.384-.388-.874-.885-1.338-.312-.691-.56-1.262-.72-1.661-.26-.649-.996-.964-1.645-.704-.648.26-.964.996-.704 1.644.196.49.492 1.169.88 2.021.084.184.211.346.37.471.276.217.317.401.32.422.048.272.183.521.386.708.238.221.316.635.215 1.135-.037.187-.142.471-.324.898l-.072.215c-.065.284-.182.628-.348 1.025-.111.265-.127.562-.048.839l.23.795c.12.416.444.74.858.862.568.167.604.35.629.471l.006.029.004.033.009.134c0 .601.034 1.059.06 1.394.041.569.055.817-.065 1.212-.058.19-.07.39-.036.583-.006.173.021.347.086.51.404 1.037.513 1.83.473 2.269-.256-.058-.061.811-.117.78-.375-.197-.088-.001-.914-.063-.539-.041-.664-.054-.979.135-.961.575-1.833 4.173-.915 3.55.862-.583 2.224-1.365 2.517-.979.291.382-.045.935.513.727l-.362.612c-1.216 2.503-2.4 5.345-1.97 7.443.062.303.11 1.258-.399 2.02-.342.509-1.095 1.303-1.82 1.44l2.993-.139zM113.221 50.489c-.133-.313-.295-.638-.558-.925-.129-.142-.286-.268-.419-.359l-.165-.115-.028-.022-.011-.006-.052-.054c-.113-.146-.221-.259-.334-.376l-.344-.332-.368-.314-.324-.227c-.08-.197-.211-.376-.362-.503-.195-.166-.406-.264-.607-.344l-.579-.194-.187-.07.131-.147c.108-.134.197-.274.281-.415.164-.281.299-.568.43-.856l.373-.861c.123-.283.246-.573.398-.823.166-.25.354-.5.576-.692.105-.093.252-.176.334-.143.087.032.117.208.116.35-.003.301-.076.607-.158.905-.086.299-.19.594-.304.885.133-.283.256-.569.361-.867.104-.295.199-.597.224-.921l-.013-.25c-.019-.082-.053-.188-.16-.241-.104-.052-.213-.025-.293.006l-.221.128c-.265.201-.471.444-.666.699-.191.273-.33.552-.476.831l-.427.831c-.146.272-.295.541-.463.788-.084.124-.172.241-.267.345-.093.103-.196.188-.286.229l-.003.001c-.12.057-.171.2-.114.32l.002.005c.084.178.211.26.313.324l.3.149.536.233c.162.08.31.171.408.275.101.105.151.214.172.341.015.084.063.162.14.211l.051.032c.068.042.184.137.281.23l.299.304.285.327.242.325.092.122.069.076.058.054.192.164c.11.09.183.164.251.254.135.175.232.409.314.661v.006l.017.042c.11.26.409.382.669.273.262-.11.383-.409.274-.669M105.609 44.54s.494-1.257.412-1.679c-.084-.422-2.082-1.646-2.715-2.621-.632-.973-1.363-3.569-2.468-3.879-1.104-.31-2.815.075-3.548 1.797 1.095-.159 3.105-.326 3.802.931.696 1.258 2.174 3.599 4.517 5.451M108.271 43.788s-.432-.804-.261-1.204c.171-.401.882-.697.996-1.025.114-.326.819-2.833 1.556-2.325.735.508.758 1.091.758 1.091-.34-.034-1.016.392-1.269.757-.345.501-1.311 1.636-1.78 2.706"/>
    <path fill="#040000" d="M103.464 44.923c.291.543.048 2.024.354 2.262l1.244.284v-1.294l-1.598-1.252zM111.595 54.132l-.354-.205-.342-.237c-.219-.168-.424-.356-.617-.544-.195-.186-.385-.373-.594-.468l-.156-.057-.164-.027-.172.002-.174.027c-.119.018-.229-.064-.248-.182v-.014l-.006-.035c-.011-.14.004-.285-.031-.416-.017-.135-.062-.257-.111-.37l-.094-.153-.12-.125c-.089-.071-.187-.132-.3-.163l-.176-.041-.185-.016c-.125-.004-.255.014-.381.04-.128.027-.251.07-.369.12l-.166.089-.076.049-.075.046-.051.029-.105.058-.188.063-.181.031-.17.007c-.229-.017-.451-.09-.635-.218-.094-.061-.172-.141-.25-.218l-.182-.264c-.102-.187-.166-.387-.191-.583-.031-.199-.021-.39-.004-.578l.049-.274.076-.26c.045-.177.129-.327.195-.49l.248-.45.15.701.016.014-.033-.006-.1-.014-.264-.013c-.187 0-.381.006-.576.029-.194.019-.393.05-.586.082l-.584.122-.578.146-.568.17-.559.191-.549.217c-.184.073-.359.158-.537.243l-.516.284c-.169.097-.335.203-.496.317l-.473.356-.441.401c-.147.135-.274.29-.414.44-.129.157-.26.316-.377.487-.129.165-.232.346-.354.523l-.004.006-.087.016-.024-.063c.042-.212.076-.432.147-.639.058-.214.147-.415.232-.622.1-.199.199-.401.322-.59.111-.197.254-.371.393-.552.145-.173.291-.348.457-.503.161-.159.332-.311.508-.453.174-.147.365-.271.553-.398.193-.12.385-.24.585-.346.198-.109.403-.202.612-.29.205-.093.418-.165.631-.237.214-.072.431-.128.648-.182.219-.051.439-.091.661-.126.442-.067.89-.1 1.343-.103.225-.003.454.005.689.025l.365.05.209.051.119.041.158.081c.231.133.311.428.176.659l-.011.019-.016.023-.222.342-.17.354-.065.178-.043.177c-.019.116-.034.234-.022.34.006.108.031.207.07.294l.068.119.09.092c.064.055.14.085.217.101l.105.001.035.003.1-.045.052-.025.013-.005-.031.019.002-.001.004-.003.007-.004.03-.017.123-.067.25-.107c.17-.057.343-.102.519-.125.176-.022.354-.03.536-.011l.27.045.135.033.133.054c.175.068.338.184.474.321l.177.226.125.251c.059.172.102.348.108.519.026.174-.004.337-.007.504l-.251-.231.228-.013.234.018.23.06.215.102c.136.078.246.179.35.279l.279.307c.179.205.353.403.545.586l.3.258.326.238.002.001.013.086-.081.016M96.327 57.76c-.042.111-.058.208-.062.312l.008.308c.014.205.057.409.094.611.081.405.182.808.287 1.209.107.401.217.802.335 1.193l.183.576.101.258.042.097.004.012-.02-.018-.09-.059-.563.098.194-.157.197-.146.4-.229.406-.181.412-.147.416-.118.422-.091.428-.066.434-.033c-.236.172-.473.33-.707.482l-.352.229-.346.226-.338.223-.322.228-.299.234-.125.121-.123.116-.039.035c-.149.13-.358.147-.523.062l-.156-.107-.07-.076-.088-.121-.105-.188-.145-.336c-.084-.217-.146-.434-.205-.649-.11-.434-.19-.871-.23-1.314-.041-.444-.048-.894.008-1.345.027-.226.079-.451.151-.673.041-.11.088-.217.149-.318.062-.104.146-.2.237-.258"/>
    <path fill="#040000" d="M100.557 52.878l.459-.27c3.314-1.861 7.599-.936 10.375.807.196.124.256.385.133.582-.123.197-.383.256-.582.132-2.563-1.61-6.5-2.477-9.512-.786l-.873-.465zM104.58 47.696c-2.207 0-3.424-.902-4.17-1.456l-.399-.283c-.239-.149-.312-.463-.163-.702.148-.239.463-.312.703-.163.148.093.302.207.466.328.78.579 1.849 1.372 4.015 1.242.284-.017.522.197.539.478.018.281-.197.523-.478.54l-.513.016M109.701 47.799c-.263 0-.486-.202-.508-.469-.023-.28.186-.526.466-.55.274-.022.75-.207 1.464-.961.194-.205.518-.213.721-.019.205.193.213.516.02.721-.762.804-1.457 1.222-2.121 1.276l-.042.002"/>
    <path fill="#040000" d="M109.442 45.398c0 .365-.007 1.603-.121 1.787-.112.185-.165.065-.165.065l-.568-.703.854-1.149zM104.849 39.342l.196.153c.123.109.287.285.465.495.177.215.377.471.567.759.194.285.384.602.563.924.177.322.393.633.525.957.06.165.104.328.131.49.026.163.047.314.049.464.004.146-.004.284-.021.41l-.028.173-.045.152-.101.206-.047.063-.072.01-.015-.019-.012-.021-.03-.066-.089-.156-.146-.236-.186-.306c-.125-.227-.277-.492-.385-.797l-.274-.995c-.108-.336-.236-.665-.349-.978-.119-.31-.234-.597-.342-.841l-.158-.324-.131-.24-.142-.207.013-.072.064.002M107.986 43.917l-.104-.217c-.059-.138-.11-.337-.151-.562-.035-.224-.062-.478-.041-.733l.069-.392c.031-.134.05-.27.06-.406l.004-.407-.028-.398-.054-.373-.076-.335-.089-.281-.08-.217-.073-.19-.002-.004.029-.065.057.013.143.152.156.184.188.255.198.322.183.386c.058.138.112.283.151.437.047.15.076.309.107.466l.083.473c.029.157.039.312.034.459-.018.295-.111.553-.207.767-.102.213-.204.379-.298.497l-.157.184-.093-.002-.009-.013M95.572 53.174l.041.164.064.14.1.126.129.112.143.103.162.096.171.096.181.089.092.045.096.04.193.079.196.068.19.054.164.038.164.041-.086.147-.127.147-.199.153-.276.118c-.103.021-.218.054-.336.05-.119.003-.244-.004-.367-.037-.125-.02-.241-.08-.36-.132-.111-.068-.225-.134-.316-.229-.1-.082-.176-.195-.244-.3-.062-.114-.111-.228-.134-.35-.032-.113-.022-.24-.015-.339.025-.11.043-.191.096-.274.045-.077.088-.141.133-.161l.145-.084M102.477 48.283l-.049.013-.141.029-.224.013-.28-.014-.324-.053-.348-.102-.35-.168-.35-.192c-.236-.125-.467-.259-.676-.4l-.293-.208-.252-.204-.203-.184-.146-.151-.119-.139.003-.04.035-.001.002.001.146.105.168.113.228.134c.168.096.373.189.592.288.222.094.458.194.699.281l.366.116.353.106c.224.081.425.183.597.27l.233.128.179.105.164.1.01.043-.02.011M110.143 48.118c-.182 0-.355-.095-.447-.264-.136-.247-.046-.557.201-.692.376-.207 2.242-1.2 3.232-.291-.034.16-.055.557.095.726-.191.207-.513.221-.722.031-.321-.297-1.455.064-2.113.427-.079.042-.163.063-.246.063M88.719 48.498l.002.067-.008.2c-.022.173-.068.429-.166.739-.093.31-.215.681-.363 1.096-.141.416-.297.884-.428 1.385-.135.501-.235 1.044-.23 1.577.003.535.141 1.034.439 1.447l.121.153.057.067.087.095.327.337c.228.221.476.432.731.635.517.4 1.077.769 1.653 1.03.286.133.574.24.846.299.27.058.521.074.676.027.158-.042.241-.097.344-.256.1-.156.166-.41.203-.681l.021-.21.006-.217.001-.482.004-.959c.01-.626.02-1.217.051-1.766.022-.546.072-1.054.115-1.498l.084-.627.106-.53c.026-.159.077-.301.116-.421l.113-.301.115-.238-.025.262-.011.31.013.416c.017.312.068.691.112 1.125l.205 1.462.229 1.732.117.952.053.506.019.284-.002.298c-.013.401-.071.842-.3 1.305-.107.23-.286.456-.497.649-.222.181-.481.332-.744.404-.53.162-1.019.123-1.452.038-.434-.089-.828-.233-1.199-.402-.738-.346-1.39-.789-1.976-1.291-.294-.248-.569-.515-.823-.798-.123-.137-.274-.309-.369-.435l-.08-.102-.098-.137-.17-.268c-.439-.735-.537-1.596-.439-2.295.095-.71.323-1.309.568-1.824.243-.517.514-.95.754-1.329.235-.38.459-.695.627-.96.168-.267.299-.477.369-.63l.075-.178.021-.062"/>
    <path fill="#040000" d="M92.576 63.346c-.146-.05-9.972 3.414-12.452 19.47l-.04.255.252.061c2.147.512 5.639 8.144 6.804 11.041l.104.26.261-.104c3.687-1.459 2.389-6.646 1.347-10.814-.404-1.613-.785-3.139-.756-4.073.111-3.629 2.094-6.34 5.893-8.054l.594-.267-2.007-7.775zM101.764 60.645l.312-.214c.204-.125.505-.293.879-.456.748-.329 1.805-.628 2.9-.708.273-.025.55-.023.82-.025l.402.022.393.04c.259.033.506.076.738.139.231.051.447.128.643.202.195.065.367.161.517.238l.207.112.167.116.301.229-.373-.041-.19-.025-.226-.019-.529-.034c-.194-.008-.399-.022-.619-.017-.219-.009-.448-.002-.686.003l-.731.024-.757.053-.76.062-.742.069-1.328.13-.963.077-.375.023M88.844 95.021c-.25-.17 2.793-3.248 2.826-3.549.391-3.548.563-5.928.362-8.344-.403-4.83 1.063-14.338 3.037-17.825.112-.198.338-.153.56-.205.223-.051 1.203.158 1.393.286l2.604 1.176c.305.206.791.428.674.775-3.858 11.3-4.545 16.645-3.789 22.424.045.338-.125.67-.428.828-.002 0-3.807 1.843-7.239 4.434"/>
    <path fill="#040000" d="M105.512 44.903l.066.637.037.336.018.191.01.1.003.026.001.013v.006l-.008.051-.001.003-.037.062-.063.044-.027.008c-.135.024-.194 0-.281-.011l-.236-.054-.121-.033-.031-.009-.043-.019-.055-.028-.242-.152c-.303-.217-.592-.449-.904-.709-.311-.255-.629-.536-.958-.826-.657-.579-1.335-1.222-2.001-1.884-.336-.328-.666-.662-.989-1.002-.161-.169-.321-.34-.473-.523l-.222-.284-.181-.248-.126-.139.061-.01.123-.046.017-.018-.08.132c-.056.134-.103.301-.134.469-.041.168-.07.338-.094.503-.049.331-.09.644-.123.924l-.088.728-.093.644-.059.045-.042-.037-.051-.164-.121-.468c-.049-.202-.098-.449-.143-.736-.041-.287-.086-.613-.098-.978-.01-.368-.02-.76.111-1.246.041-.126.076-.256.183-.413.054-.077.127-.16.231-.237.111-.076.262-.139.416-.144.315-.009.502.123.638.223.137.107.231.216.319.329l.196.292.173.255.385.531c.267.358.562.711.858 1.063.603.696 1.231 1.376 1.822 2.01.296.316.588.617.864.901.275.283.551.551.791.77l.176.144.053.032.012.01.026.011.108.043.209.071.152.034-.002.002-.041.03-.014.033.005-.012.002-.003-.007.044v-.02l.001-.026v-.101l.002-.191.006-.337.011-.639.053-.05.05.047zM111.858 31.882c-1.634-3.11-4.499-6.555-13.343-8.521-.584-.13-1.186-.227-1.801-.297-1.196-1.836-4.34-2.968-6.896-2.315h-.001c0 .459.017 1.107-.524 1.671-.418.438-1.174.824-2.535 1.027-1.087.162-2.299.928-3.367 2.03-1.989 2.05-3.482 5.264-2.753 7.919.373.994 1.016 1.483 1.435 1.139.097-.079.181-.203.249-.375.222-.574.377-1.054.626-1.337l.035-.033.091.07.143.088c.769.477 1.569.945 2.29 1.108l.005-.004.014.004c-.211.944-.542 2.844-.273 4.616.351 2.304 1.196 4.815 2.206 6.554.174.299.133.501.088.627-.207.585-1.184 1.066-1.507 1.189-.167.062-.288.206-.323.38l-.459 2.345c-.039.199.043.401.208.517.166.115.385.122.557.017 1.21-.735 2.696-1.655 2.899-1.859.304-.303.92-1.607.763-2.788.053-2.348.925-3.639 2.454-3.639.722 0 1.355.305 1.535.524.726.889.945 1.228.758 2.456-.094.619-.27 1.45-.438 2.254-.494 2.34-.524 2.64-.293 2.926.096.119.264.201.42.201.84 0 2.232-2.071 3.299-6.615.908-3.87.414-7.713.147-9.778l-.06-.469c1.928.98 6.337 3.082 8.435 3.781.468.156 1.024.238 1.608.238 1.474 0 3.521-.54 4.441-2.062.427-.709.753-1.907-.133-3.589"/>
    <path fill="#040000" d="M71.851 84.901l.087.009c.102 0 .201-.037.279-.104.1-.088.153-.218.142-.351-.004-.043-.313-4.272 2.091-8.688.64-1.175 1.394-2.541 2.193-3.989 2.356-4.27 5.026-9.11 6.435-12.042 1.91-3.975 3.096-8.389 3.254-12.11.006-.148-.066-.289-.19-.37-.123-.082-.281-.092-.414-.028-.136.065-1.341.649-1.781 1.041-.058.052-.101.119-.123.194-.784 2.619-3.763 10.266-6.083 14.402-.553.987-1.305 2.28-2.141 3.693-.123.789-.271 1.586-.444 2.392 1.357-2.271 2.608-4.401 3.32-5.672 2.313-4.121 5.271-11.688 6.118-14.448.192-.144.523-.335.851-.512-.269 3.419-1.415 7.491-3.127 11.053-1.399 2.91-4.062 7.739-6.413 11.999-.8 1.45-1.554 2.817-2.195 3.994-2.032 3.733-2.223 7.264-2.212 8.602l.353.935zM100.314 45.796l-.04-.004c-.111-.022-.183-.13-.16-.24.056-.284-.054-2.963-.834-4.35-.056-.098-.021-.222.078-.277.098-.055.223-.021.278.077.849 1.512.947 4.274.877 4.629-.018.098-.103.165-.199.165M101.964 50.418l.173-.079c.168-.077.344-.145.545-.212.183-.063.369-.112.543-.157.308-.075.631-.131.988-.171l.333-.027.075-.006.324-.007h.039l-.047.238c0 .101.022.194.052.276l-.101-.018-.276-.039-.077-.008-.311-.026-.453-.012-.512.018-.546.063c-.204.032-.387.07-.558.116l-.191.051M75.388 67.795c3.876-6.637 8.152-14.784 8.993-19.791-.561-.332-3.213-.485-6.272.892-.403 1.869-1.143 4.218-2.014 6.6.174 3.715.115 7.882-.707 12.299"/>
    <path fill="#040000" d="M75.351 29.973c-1.475-.363-3.584-.794-6.026-1.292-6.076-1.238-13.084-2.34-15.029-3.458-1.587-.912-3.776-3.551-3.776-3.551v12.078l.811-.127c.02-.003 2.059-.319 4.355-.319.791 0 1.526.038 2.186.112l1.01.105c2.998.304 9.007 1.016 15.129 2.528l2.336.577 1.884-5.942-2.88-.711zM62.018 57.691c-2.327-1.26-5.514-2.986-13.003-2.986l-.811.007v-7.769c2.186.146 5.271.307 8.237.307 3.729 0 6.162-.259 7.231-.772l.135-.063.447-4.791.04-.46-.419.2c-.017.009-.457.213-2.208.489-.937.148-3.288.244-5.991.244-3.607 0-7.369-.166-10.592-.467l-2.484-.234v19.415l3.095-.325c1.251-.131 2.453-.198 3.573-.198 5.096 0 7.583 1.382 8.932 2.132l.402.22c-.254 3.217-1.322 6.489-3.016 9.234-1.724 2.793-3.693 3.958-4.408 4.311-.71-.347-2.666-1.498-4.403-4.311-1.349-2.186-2.271-4.597-2.739-7.169l-.04-.221-.226.006c-.738.018-1.512-.069-2.286-.259-1.057-.26-2.055-.695-2.886-1.259l-.462-.313.053.556c.354 3.772 1.783 7.882 4.024 11.574l.136.225c1.355 2.239 1.599 2.641 8.224 8.254l.607.513.607-.513c6.625-5.613 6.87-6.015 8.224-8.253l.136-.226c2.614-4.306 4.113-9.173 4.113-13.351v-2.704l-.6-.232c-.509-.196-1.032-.479-1.642-.811"/>
    <path fill="#040000" d="M128.25 76.355c1.06-3.485.672-4.161.524-4.419-.216-.378-.513-.69-2.326-1.347.444-1.242.479-2.234.103-2.954-.289-.552-1.064-1.303-4.355-2.324 3.531-4.331 8.617-11.093 8.617-14.114 0-1.793-2.696-8.009-5.564-8.009l-.291.019c-1.871.258-4.258 4.246-12.166 20.325-1.447 2.941-2.591 5.266-3.062 6.058-.393.657-.656.862-.907.927-.294-.934-.478-2.079-.524-3.287-.071-1.817-.428-3.471-.442-3.539l-.056-.258-.147-.217c-.033-.049-.819-1.208-1.78-1.992-.992-.811-2.176-.898-2.638-.898l-.161.005-1.005.065-.231.976c-.014.06-1.527 6.456-2.461 11.037l-.048.221 1.545 11.843.102.203c1.061 2.146 2.117 3.692 2.818 4.719.16.233.377.552.516.769-.381 1.696-.342 2.727.121 3.319.291.373.727.588 1.195.588h12.734c.9 0 1.719-.646 3-3.836.227-.297.691-.924 1.26-1.688.66-.889 1.526-2.053 2.151-2.886.237-.282.476-.592.713-.918l3.86-2.895-.018-.703c-.007-.279-.101-2.696-1.077-4.79m-1.187-3.438c-.035.553-.397 2.155-.79 3.322-3.232 5.263-5.982 8.604-6.657 8.687-.635-.09-.735-.383-.919-1.099-.09-.349-.191-.736-.41-1.093 3.361-4.83 4.434-6.974 5.153-8.413.448-.895.739-1.473 1.356-2.269.921.308 1.892.67 2.267.865m-5.985 14.483c-.662.89-1.232 1.657-1.354 1.812l-.051.064-.028.076c-.45 1.137-1.101 2.476-1.411 2.797h-12.271c.004-.41.131-1.224.319-1.979l.022-.087-.006-.09c-.029-.384-.324-.819-.918-1.686-.66-.966-1.652-2.418-2.642-4.401l-1.463-11.206c.787-3.847 1.962-8.896 2.322-10.425.302.043.716.156 1.059.437.604.494 1.162 1.24 1.344 1.494.076.381.323 1.707.379 3.099.071 1.832.422 3.534.99 4.791l.131.288.313.038c.241.03.459.044.665.044 1.259 0 2.1-.548 2.9-1.893.513-.859 1.672-3.215 3.14-6.199 1.858-3.78 4.173-8.484 6.251-12.347 3.291-6.12 4.256-6.846 4.449-6.918l.029-.001c.397 0 1.266.759 2.233 2.427.917 1.577 1.411 3.063 1.411 3.662 0 2.677-6.848 11.352-9.494 14.479l-2.373 2.571.826.762 2.152-2.33c2.17.586 4.558 1.441 4.847 1.846.192.367-.224 1.633-.72 2.561-.842 1.031-1.203 1.748-1.693 2.731-.734 1.467-1.838 3.674-5.475 8.85-.244.054-.826.091-1.521-.493-1.101-.926-1.581-2.693-1.312-3.356.187-.459 1.92-1.556 3.422-2.293l.334-.164-.021-.372c-.161-2.897 1.757-4.861 1.774-4.879l.965-.96h-3.057v1.124h.539c-.611.919-1.367 2.453-1.354 4.404-1.052.537-3.251 1.753-3.644 2.717-.51 1.252.283 3.507 1.629 4.641.744.625 1.445.782 1.965.782.394 0 .682-.09.805-.137l.121.426c.189.732.447 1.733 1.852 1.932l.149.011c.21 0 .461-.065.781-.264.147.452.446.875.998 1.069l.079.02-.387.525m3.088-4.069l-.086.081c-.094.107-.35.438-.721.933-.673.802-1.343 1.413-1.62 1.44-.307-.126-.348-.589-.345-.846.686-.698 1.591-1.81 2.822-3.551 1.002-1.412 1.933-2.848 2.496-3.734.486 1.284.636 2.675.679 3.26l-3.225 2.417zM74.002 39.824c-1.375-.113-2.639-.353-3.67-.67l-.205.341c-2.12 3.534-2.145 20.303-2.145 20.472v2.357c0 5.107-1.811 11.022-4.971 16.229l-.154.254c-1.768 2.92-3.932 5.471-9.762 9.867-.472.357-1.405.938-1.92 1.253-.514-.315-1.448-.896-1.92-1.253-5.588-4.214-7.739-6.676-9.399-9.283l-.492-.772v.001c-1.031.316-2.295.557-3.67.67-2.601.213-4.884-.089-5.979-.705 1.23.943 3.53 3.842 6.093 6.682.937 1.174 2.093 2.327 3.351 3.439.562.516 1.12.992 1.667 1.408l.006.004c1.489 1.205 3.036 2.344 4.465 3.377.98.708 2.485 1.697 3.158 2.076.699.395 2.302 1.515 2.318 1.525l.403.281.402-.281c.017-.011 1.62-1.13 2.318-1.525.674-.381 2.18-1.369 3.159-2.076 5.168-3.734 8.604-7.267 11.138-11.454l.153-.252c3.735-6.153 5.877-13.248 5.877-19.464v-2.357c0-4.657.349-9.559.731-13.067.203-1.705.66-2.709 1.222-3.968.575-1.287 1.674-2.681 2.7-3.395-1.224.32-2.961.441-4.874.286M112.441 56.418c-.743 0-1.467.504-2.025 1.398-.732-.267-1.623-.402-2.656-.402-2.955 0-6.599 1.114-8.944 2.114l-.61-.577c-.47-2.12.407-3.851 2.678-5.284l10.625.825c.207.104.729.321 1.524.364.126.007.247-.041.332-.134.938-1.01.183-3.209-.17-4.072.237-.701.204-1.147.155-1.799-.025-.333-.055-.746-.055-1.3l-.019-.29v-.012l-.026-.144c-.19-.947-.979-1.277-1.512-1.434l-.23-.796c.192-.461.332-.872.414-1.226.226-.522.346-.867.402-1.147.194-.95-.027-1.789-.593-2.313-.041-.229-.194-.735-.785-1.198-.405-.891-.707-1.587-.892-2.053l-.934-.096c.194.575.706 1.727 1.103 2.596.03.066.077.124.137.167.279.201.416.405.481.547l-.027.081c-.04.174.034.355.184.451.463.295.65.912.5 1.651-.058.284-.226.692-.365 1.015l-.025.076c-.076.346-.223.768-.434 1.255-.039.09-.045.19-.018.285l.337 1.166c.042.143.155.253.3.291.688.181 1.055.369 1.14.892l.019.236c0 .585.032 1.016.059 1.363.048.651.072.979-.16 1.601-.038.102-.036.214.007.313.583 1.363.771 2.611.495 3.167-.631-.071-.988-.268-.989-.268h-.001l-.454-.303c-.19-.127-.446-.079-.577.106l-.037.061-9.982-.776c-.09-.005-.178.015-.253.062-2.712 1.666-3.771 3.817-3.144 6.393.02.079.062.151.12.207l.906.854c.123.116.304.147.46.079 2.254-.994 5.927-2.155 8.861-2.155 1.084 0 1.979.159 2.664.472.203.093.445.011.549-.188.494-.943 1.083-1.281 1.469-1.281.312 0 .512.209.533.548-.047.116-.18.391-.309.656-.777 1.601-2.396 4.933-1.937 7.174.089.437.108 1.487-.463 2.34-.402.599-1.025.982-1.854 1.138-.177.033-.427-.09-.588.05-.328.286-.333-.009-.531-.03v.846c.475.044.901.034 1.274-.037 1.06-.2 1.867-.704 2.399-1.497.725-1.081.711-2.382.588-2.979-.402-1.961 1.189-5.238 1.869-6.636.248-.514.352-.728.384-.871l.01-.094c-.001-.837-.58-1.448-1.379-1.448"/>
    <path fill="#040000" d="M101.686 67.112c-.631-.322-1.31-.687-2.049-1.111l-.055-.031c-1.195-.684-2.537-1.06-3.775-1.06-.664 0-1.297.105-1.881.315l-.025.011c-1.68.737-3.584 1.973-5.362 3.482-.11.095-.166.242-.144.387.023.145.121.268.256.324l4.931 2.037c1.298 2.271.986 5.08.685 7.798-.107.955-.207 1.858-.233 2.718-.015.457.034 1.043.091 1.72.168 2.006.395 4.725-.893 6.127-1.284-.167-3.18 1.444-4.84 2.866l-.813.688c-.923-2.218-4.157-9.61-6.723-10.81-.012-.11-.056-.213-.131-.301-.199-.236-.596-.343-1.285-.343-1.643 0-5.045.657-7.573 2.114l-.013.857c.103.022.211.005.301-.049 2.378-1.418 5.753-2.08 7.285-2.08.273 0 .443.021.545.041-.022.209.114.403.322.453.573.138 1.888 1.051 4.254 5.631 1.381 2.672 2.441 5.301 2.453 5.326.049.123.152.217.28.251l.11.015c.093 0 .184-.031.26-.09.385-.301.818-.672 1.277-1.064 1.318-1.13 3.127-2.676 4.092-2.676l.195.029c.146.052.311.018.425-.088 1.759-1.627 1.501-4.715 1.312-6.969-.054-.65-.101-1.214-.089-1.624.026-.823.124-1.71.228-2.649.31-2.769.658-5.908-.867-8.445-.047-.077-.117-.137-.2-.172l-4.417-1.82c2.062-1.663 3.743-2.524 4.604-2.904 1.435-.51 3.318-.239 4.938.688l.054.03c.871.499 1.692.94 2.469 1.326v-.948z"/>
    <path fill="#070001" d="M108.587 107.068c0 .43-.153.795-.46 1.095-.309.3-.674.451-1.096.451-.287 0-.547-.068-.783-.205-.236-.136-.422-.322-.558-.558-.137-.235-.204-.496-.204-.783 0-.423.149-.788.45-1.096.3-.307.665-.461 1.095-.461.424 0 .789.154 1.096.461.307.308.46.673.46 1.096M70.526 115.357c.28-.188.561.063.561.312v1.34c0 .25-.19.53-.422.622 0 0-.328.131-.883.271-.554.141-1.084.211-1.59.211-2.19 0-3.283-1.069-3.283-3.207v-2.974c0-.25-.205-.453-.454-.453h-.468c-.25 0-.454-.119-.454-.267 0-.146.143-.411.318-.589l3.441-3.506c.174-.177.395-.323.491-.323.094 0 .172.204.172.454v1.666c0 .25.205.454.454.454h1.996c.25 0 .454.204.454.454v1.203c0 .249-.204.453-.454.453h-1.996c-.249 0-.454.203-.454.453v1.845c0 .25.008.657.016.907l.044.322c.039.197.151.362.333.494.183.133.46.199.832.199.425.003.926-.088 1.346-.341M105.513 117.891v-8.066c0-.249.204-.454.454-.454h2.139c.25 0 .453.205.453.454v8.183c0 2.138-1.094 3.207-3.281 3.207-.508 0-1.039-.069-1.593-.211-.554-.14-.882-.271-.882-.271-.232-.094-.422-.372-.422-.622v-1.341c0-.25.281-.5.561-.312.42.253.92.343 1.348.343.371 0 .638-.08.832-.198.288-.177.391-.511.391-.712M59.541 109.219c-.552 0-1.072.098-1.561.291-.49.194-1.149.789-1.149.789-.185.167-.337.1-.337-.15v-3.431c0-.249-.204-.454-.453-.454h-2.131c-.25 0-.454.205-.454.454v10.791c0 .249.204.453.454.453h2.131c.249 0 .453-.204.453-.453v-4.054c.01-.32.149-.736.327-.973.165-.2.334-.381.509-.533.292-.256.63-.385 1.013-.385.49 0 .821.172.996.516.174.343.261.72.261 1.131l-.004.198-.003.032-.001.519v3.549c0 .249.204.454.453.454h2.132c.249 0 .453-.205.453-.454v-4.821c-.001-2.313-1.031-3.469-3.089-3.469M87.49 110.826c-.223-.521-.566-.919-1.03-1.193-.463-.276-1.039-.414-1.726-.414-.686 0-1.292.141-1.819.422-.526.282-1.034.698-1.523 1.249-.124-.298-.29-.56-.498-.785-.208-.225-.441-.401-.697-.531s-.516-.221-.78-.274c-.265-.053-.543-.08-.836-.08-.619 0-1.164.109-1.637.329-.472.22-1.057.75-1.057.75-.184.168-.336.101-.336-.148v-.325c0-.25-.204-.453-.453-.453h-2.131c-.25 0-.453.203-.453.453v7.686c0 .249.203.453.453.453h2.131c.249 0 .453-.204.453-.453v-4.021c0-.323.166-.8.388-1.071.14-.178.262-.317.364-.414.118-.112.272-.215.46-.304.189-.09.396-.135.621-.135.472 0 .801.157.987.472.185.315.238.891.238.891.022.249.041.656.041.904v3.677c0 .25.204.454.453.454h2.132c.249 0 .453-.204.453-.454v-4.02c0-.334.174-.83.407-1.097l-.007-.002c.136-.164.274-.311.411-.441.27-.256.616-.384 1.037-.384.434 0 .751.15.95.451.2.301.257.911.257.911.024.249.043.656.043.904v3.677c0 .25.204.454.453.454h2.132c.249 0 .453-.204.453-.454v-4.787c-.002-.744-.111-1.375-.334-1.897M97.176 112.848c.156-.025.602-.101.979-.101.557 0 1 .077 1.328.231.33.155.562.351.697.587s.203.486.203.751c0 .321-.115.633-.347.933-.231.302-.633.452-1.206.452-.484 0-1.055-.139-1.71-.414-.655-.276-1.14-.578-1.14-.578-.211-.133-.385-.036-.385.213v2.07c.553.378 1.157.658 1.815.844.659.186 1.347.279 2.067.279.899 0 1.664-.177 2.291-.528.629-.353 1.098-.82 1.41-1.406.312-.584.469-1.212.469-1.882 0-.646-.158-1.245-.477-1.793-.318-.549-.775-.989-1.371-1.321-.597-.332-1.289-.498-2.076-.498l-.25.004-.211.018-.099.009c-.101.011-.185-.184-.185-.434v-1.101c0-.25.205-.454.455-.454h3.278c.249 0 .453-.204.453-.454v-1.557c0-.249-.204-.453-.453-.453h-5.87c-.25 0-.455.204-.455.453v5.892c0 .198.162.34.36.33l.43-.092"/>
    <path fill="#070001" d="M89.248 114.682c0 2.138 1.093 3.207 3.283 3.207.356 0 .871-.115 1.152-.252.279-.136.453-.362.453-.612v-1.211c0-.25-.203-.454-.453-.454h-.163c-.373 0-.649.05-.832-.083-.183-.131-.295-.297-.334-.494l-.043-.322c-.009-.25-.017-.657-.017-.907v-6.841c0-.249-.204-.452-.453-.452h-2.14c-.25 0-.453.203-.453.452v7.969z"/>
</svg>
